<?xml version="1.0" encoding="UTF-8"?>
<svg xmlns="http://www.w3.org/2000/svg" viewBox="0 0 2160 3840">
  <defs>
    <style>
      .cls-1 {
        fill: #eea320;
      }

      .cls-1, .cls-2, .cls-3, .cls-4, .cls-5, .cls-6, .cls-7, .cls-8, .cls-9 {
        stroke-width: 0px;
      }

      .cls-2 {
        opacity: .5;
      }

      .cls-2, .cls-5, .cls-6, .cls-9 {
        fill: #e25625;
      }

      .cls-2, .cls-6, .cls-9 {
        mix-blend-mode: multiply;
      }

      .cls-3 {
        fill: #1d1d1b;
      }

      .cls-4 {
        fill: #232323;
      }

      .cls-10 {
        isolation: isolate;
      }

      .cls-6 {
        opacity: .6;
      }

      .cls-7 {
        fill: #fff;
      }

      .cls-8 {
        fill: #f3ae24;
      }

      .cls-9 {
        opacity: .55;
      }
    </style>
  </defs>
  <g class="cls-10">
    <g id="Layer_2" data-name="Layer 2">
      <g id="Layer_3" data-name="Layer 3">
        <rect class="cls-5" width="2160" height="3840"/>
        <path class="cls-4" d="M1866.58,3415.5H292.8c-38.18-.21-65.02-46.15-52.97-82.38l292.38-879.19c7.64-22.97,29.14-38.46,53.35-38.43l952.25,1.26c23.44.03,44.4,14.63,52.56,36.6l329.14,886.44c13.66,36.8-13.69,75.9-52.94,75.69Z"/>
        <g>
          <path class="cls-7" d="M450.61,2991.87c-8.43,1.69-13.71-2.7-15.73-13.27-2.02-10.55-.41-24.58,4.68-41.95,40.15-136.93,80.29-273.86,120.44-410.79,5.09-17.36,11.41-31.92,18.84-43.59,7.42-11.65,14.17-17.43,20.38-17.43,39.85,0,79.71,0,119.56,0,6.2,0,10.17,5.41,12.02,16.1,1.86,10.69,1.25,23.95-1.95,39.88-7.92,39.36-15.84,78.73-23.75,118.09-31.42,2.7-47.13,4.05-78.55,6.74,6.33-26.09,9.5-39.14,15.83-65.23,2.18-8.98,2.65-15.3,1.44-18.99-1.21-3.68-3.83-5.44-7.88-5.26-3.84.17-7.3,2.22-10.41,6.14-3.11,3.93-5.84,10.45-8.16,19.54-23.87,93.32-47.73,186.64-71.6,279.97-2.33,9.1-2.63,15.33-.89,18.69,1.74,3.36,4.96,4.62,9.62,3.82,4.66-.8,8.75-3.32,12.26-7.56,3.5-4.23,6.34-10.82,8.52-19.81,8.05-33.18,12.08-49.78,20.13-82.96-7.31.99-10.97,1.49-18.28,2.48,9.7-38.6,14.54-57.9,24.24-96.5,38.97-3.87,58.45-5.8,97.43-9.68-18.99,94.43-37.99,188.86-56.98,283.29-30.66,6.14-45.98,9.21-76.64,15.34,4.77-20.27,7.15-30.41,11.91-50.69-1.27.23-1.9.35-3.17.59-4.24,14.72-10.24,27.42-18.09,38.17-7.86,10.76-16.06,17.02-24.48,18.71-32.29,6.46-48.43,9.7-80.72,16.16Z"/>
          <path class="cls-7" d="M690.31,2943.89c-8.43,1.69-14.4-2.18-17.8-11.7-3.39-9.51-3.51-22.23-.47-38.03,23.94-124.6,47.88-249.2,71.82-373.8,3.04-15.8,7.64-29.05,13.69-39.66,6.04-10.6,12.1-15.86,18.31-15.86,39.76,0,79.51,0,119.27,0,6.2,0,10.86,4.88,14.09,14.52,3.23,9.65,4.34,21.6,3.19,35.96-9.08,113.29-18.17,226.59-27.25,339.88-1.15,14.37-4.76,26.87-10.97,37.59-6.21,10.74-13.6,17-22.02,18.69-53.95,10.8-107.9,21.6-161.85,32.4ZM783.37,2841.68c4.65-.8,8.49-3.03,11.5-6.68,3-3.65,5.03-9.54,6.09-17.67,10.66-81.54,21.33-163.08,31.99-244.63,1.06-8.13.74-13.85-.95-17.17-1.68-3.32-4.55-4.9-8.61-4.71-3.84.18-7.07,1.94-9.68,5.3-2.61,3.35-4.54,9.17-5.75,17.41-12.13,82.66-24.26,165.31-36.39,247.97-1.21,8.25-.72,13.88,1.48,16.88,2.21,3.01,5.65,4.1,10.3,3.3Z"/>
          <path class="cls-7" d="M901.49,2901.61c9.99-145.59,19.99-291.18,29.98-436.77,46.56,0,93.13,0,139.69,0,6.2,0,11.55,4.36,16.15,12.95,4.61,8.6,7.43,19.25,8.33,32.06,7.07,101,14.14,202,21.21,303.01.9,12.81-1,24.01-5.84,33.69-4.84,9.69-11.54,15.43-19.96,17.12-63.19,12.65-126.38,25.3-189.57,37.95ZM996.67,2801.63c5.72-.97,8.59-1.46,14.31-2.43,2.06-.35,4-1.45,5.8-3.3,1.8-1.84,3.4-4.81,4.8-8.88,1.39-4.07,2.44-9.91,3.16-17.52.71-7.6,1.01-17.72.92-30.37-.33-46.19-.66-92.39-.99-138.58-.11-15.71-.81-27.56-2.05-35.54-1.24-7.99-2.77-13.29-4.6-15.88-1.83-2.59-4.02-3.84-6.6-3.72-4.62.23-6.94.34-11.56.57-1.06,85.22-2.12,170.44-3.18,255.66Z"/>
          <path class="cls-7" d="M1166.47,2848.56c-8.43,1.69-15.78-1.14-21.91-8.57-6.13-7.43-9.66-17.55-10.71-30.24-2.78-33.73-4.17-50.59-6.95-84.32,34.11-4.78,51.17-7.18,85.3-11.98,2.57,16.78,3.85,25.17,6.41,41.95.95,6.22,2.77,10.78,5.48,13.67,2.71,2.89,6.67,3.88,11.88,2.97,5.2-.91,8.43-3.14,9.68-6.69,1.25-3.54,1.39-8.03.43-13.47-2.37-13.46-3.56-20.19-5.93-33.65-1.14-6.45-2.96-10.99-5.43-13.59-2.48-2.6-6.57-4.38-12.26-5.34-28.9-6.03-43.08-9.24-70.92-16.08-8.29-2.19-15.45-7.01-21.4-14.5-5.95-7.49-9.47-18.73-10.7-33.6-3.45-41.89-6.91-83.78-10.36-125.67-1.05-12.69.15-23.35,3.45-31.88,3.3-8.52,7.98-12.73,14.19-12.73,38.85,0,77.7,0,116.55,0,6.21,0,12.22,3.85,18.17,11.42,5.95,7.57,10.45,16.95,13.35,28.24,7.7,29.98,11.55,44.97,19.26,74.96-30.77,2.47-46.15,3.71-76.92,6.19-2.95-16.72-4.43-25.08-7.38-41.8-1.08-6.12-2.76-10.74-5.03-13.9-2.26-3.15-5.51-4.65-9.75-4.47-4.25.18-6.91,1.85-8.02,5.02-1.11,3.17-1.28,7.36-.49,12.54,2.09,13.67,3.14,20.5,5.23,34.17.85,5.53,2.32,9.61,4.43,12.22,2.11,2.62,5.89,4.57,11.37,5.84,26.85,7.91,40.54,11.66,68.48,18.74,8.51,2.17,16.15,6.82,22.95,13.9,6.8,7.08,12.02,17.33,15.5,30.88,9.65,37.56,19.3,75.12,28.95,112.68,2.9,11.29,2.67,21.21-.81,29.87-3.49,8.67-9.52,13.89-17.94,15.58-52.72,10.55-105.44,21.11-158.16,31.66Z"/>
        </g>
        <g>
          <path class="cls-1" d="M1441.69,2761.31c-28.64-76.74-56.93-153.61-84.89-230.6,18.92,0,28.38,0,47.31,0,9.82,27.29,14.72,40.86,24.52,67.84,10.21,29.13,15.31,43.61,25.5,72.42.37-.05.55-.07.92-.12-5.32-29.39-7.97-44.01-13.26-73.09-4.58-26.98-6.86-40.39-11.42-67.05,14.75,0,22.13,0,36.88,0,11.57,72.85,23.03,145.72,34.4,218.6-23.99,4.8-35.98,7.2-59.96,12Z"/>
          <path class="cls-1" d="M1540.9,2741.45c-3.79.76-7.55-.93-11.28-5.11-3.73-4.17-6.55-9.76-8.47-16.72-5.09-18.47-7.63-27.71-12.72-46.19,16.92-2.13,25.38-3.2,42.29-5.34,2.63,9.27,3.94,13.91,6.57,23.18.97,3.44,2.24,5.98,3.79,7.62,1.55,1.64,3.56,2.25,6.01,1.84,2.45-.41,3.85-1.58,4.2-3.52.34-1.93.09-4.4-.78-7.42-2.13-7.46-3.2-11.19-5.34-18.65-1.02-3.58-2.26-6.1-3.7-7.58-1.44-1.47-3.65-2.51-6.62-3.12-15.2-3.73-22.81-5.69-38.04-9.79-4.55-1.3-8.8-4.03-12.74-8.2-3.94-4.17-7.03-10.35-9.28-18.5-7.58-27.53-11.37-41.3-18.96-68.83-1.91-6.95-2.28-12.78-1.08-17.45,1.2-4.67,3.72-6.98,7.57-6.98,28.91,0,43.37,0,72.27,0,3.85,0,7.64,2.15,11.38,6.39,3.74,4.24,6.53,9.5,8.4,15.82,4.95,16.79,7.43,25.18,12.39,41.97-16.97,1.11-25.46,1.67-42.44,2.78-2.65-9.27-3.98-13.9-6.63-23.17-.97-3.39-2.2-5.96-3.71-7.72-1.5-1.76-3.49-2.6-5.97-2.52-2.48.08-3.94.99-4.38,2.74-.44,1.75-.26,4.06.56,6.92,2.14,7.55,3.21,11.33,5.35,18.89.87,3.05,1.98,5.32,3.34,6.78,1.36,1.46,3.59,2.57,6.71,3.32,15.37,4.6,23.05,6.81,38.39,11.04,4.67,1.3,8.94,3.97,12.78,7.98,3.84,4.02,6.88,9.79,9.12,17.38,7.45,25.24,11.17,37.86,18.62,63.1,1.86,6.32,2.2,11.82,1.01,16.55-1.19,4.73-3.68,7.5-7.47,8.26-28.46,5.7-42.69,8.55-71.15,14.24Z"/>
        </g>
        <g>
          <path class="cls-7" d="M319.82,3348.28c28.1-95.85,56.2-191.7,84.31-287.55,32.45-6.5,48.68-9.75,81.13-16.24-17.47,77.36-34.94,154.73-52.42,232.09,26.92-1.11,40.38-1.66,67.3-2.77-5.41,29.79-8.11,44.68-13.52,74.47-55.6,0-111.21,0-166.81,0Z"/>
          <path class="cls-7" d="M500.06,3348.28c18.36-105.93,36.73-211.85,55.09-317.78,50.11-10.03,100.23-20.07,150.35-30.1-2.22,29.73-3.33,44.6-5.55,74.33-29.11,4.4-43.67,6.6-72.78,11-2.63,22.2-3.94,33.3-6.57,55.49,25.91-3,38.87-4.49,64.78-7.49-2.3,28.61-3.45,42.91-5.76,71.52-26.88,2-40.31,3-67.19,4.99-3.16,26.67-4.74,40.01-7.89,66.69,32.21-1.2,48.31-1.79,80.52-2.99-2.22,29.73-3.33,44.6-5.55,74.33-59.81,0-119.62,0-179.44,0Z"/>
          <path class="cls-7" d="M724.65,3348.28c-8.41,0-15.11-3.89-20.03-11.55-4.91-7.66-6.95-17.17-6.19-28.6,6-90.1,12.01-180.2,18.01-270.31.76-11.42,3.71-21.38,8.77-29.96,5.05-8.58,11.06-13.62,18.11-15.03,45.23-9.06,90.46-18.11,135.69-27.17,7.04-1.41,12.93,1.63,17.75,9.19,4.82,7.56,7.46,17.71,7.86,30.34,1.19,37.45,1.78,56.17,2.96,93.62-33.82,4.08-50.73,6.12-84.55,10.2.16-19.1.23-28.65.39-47.75.05-6.57-1.09-11.07-3.42-13.46-2.33-2.39-5.72-3.23-10.19-2.52-4.23.67-7.55,2.57-9.96,5.67-2.41,3.11-3.7,7.89-3.84,14.37-1.47,66.52-2.95,133.04-4.42,199.57-.14,6.48,1.13,11.04,3.83,13.68,2.71,2.65,6.44,3.9,11.18,3.75,4.74-.15,8.45-1.63,11.1-4.48,2.65-2.85,4-7.57,4.06-14.14.2-24.29.3-36.44.5-60.73-7.62.53-11.43.8-19.05,1.33.48-27.77.72-41.66,1.19-69.43,41.58-4.46,62.38-6.69,103.96-11.16,2.37,74.86,4.74,149.72,7.11,224.58-30.6,0-45.9,0-76.5,0,0-15.07,0-22.6.01-37.67-1.28.02-1.92.03-3.2.05-.82,10.81-3.99,19.82-9.57,26.95-5.58,7.14-12.61,10.66-21.02,10.66-32.23,0-48.34,0-80.57,0Z"/>
          <path class="cls-7" d="M936.64,3348.27c-5.23-130.34-10.46-260.68-15.7-391.01,50.12-10.03,100.24-20.07,150.35-30.1,3.83,35.99,5.74,53.99,9.57,89.98-29.11,4.4-43.67,6.6-72.78,11,2.08,27.07,3.12,40.6,5.2,67.67,25.91-3,38.87-4.5,64.78-7.49,3.55,34.66,5.33,51.99,8.88,86.65-26.88,2-40.32,3-67.19,4.99,2.5,32.53,3.75,48.79,6.24,81.31,32.21-1.2,48.32-1.79,80.53-2.99,3.83,35.99,5.74,53.99,9.57,89.98-59.82,0-119.63,0-179.45,0Z"/>
          <path class="cls-7" d="M1133.99,3348.27c-15.9-141.37-31.79-282.74-47.69-424.12,30.55-6.12,45.82-9.17,76.37-15.29,14.61,34.69,22.1,52.23,37.47,87.71,11.34,28.98,17.12,43.59,28.88,73.01.73-.09,1.1-.13,1.83-.21-5.36-31.22-8.04-46.82-13.37-78-5.7-36.25-8.54-54.38-14.24-90.63,25.23-5.05,37.84-7.58,63.07-12.63,27.51,153.39,55.01,306.77,82.52,460.16-33.86,0-50.78,0-84.64,0-15.59-33.35-31.01-66.79-46.23-100.31-13.65-33.38-20.33-49.92-33.42-82.71-.61.05-.91.07-1.52.11,5.49,36.79,8.25,55.2,13.77,92.02,4.99,36.35,7.48,54.53,12.46,90.88-30.11,0-45.16,0-75.27,0Z"/>
          <path class="cls-7" d="M1370.79,3348.27c-28.69-154.61-57.39-309.23-86.08-463.84,52.84-10.58,105.68-21.16,158.53-31.74,7.04-1.41,14.13,2.87,21.33,12.9,7.2,10.04,12.83,23.26,16.79,39.56,31.21,128.6,62.42,257.21,93.63,385.81,3.96,16.31,4.59,29.99,1.82,40.93-2.77,10.95-8.4,16.38-16.81,16.38-63.07,0-126.13,0-189.2,0ZM1445.12,3255.17c5.83-.2,8.75-.29,14.58-.49,2.1-.07,3.88-1.03,5.32-2.9,1.44-1.85,2.4-5.07,2.86-9.63.45-4.56.11-11.26-1.04-20.09-1.15-8.83-3.36-20.7-6.63-35.6-11.93-54.39-23.86-108.79-35.79-163.18-4.06-18.5-7.79-32.42-11.17-41.7-3.38-9.28-6.42-15.34-9.11-18.18-2.69-2.84-5.45-4.04-8.28-3.6-5.09.79-7.64,1.19-12.74,1.98,20.66,97.8,41.32,195.6,61.98,293.4Z"/>
          <path class="cls-7" d="M1635.27,3348.27c-8.41,0-16.73-5.55-24.88-16.57-8.14-11-14.19-24.67-18.25-41.08-8.97-36.32-17.94-72.65-26.9-108.97,35.34-1.79,53.01-2.68,88.37-4.45,6.31,23.48,9.46,35.23,15.77,58.71,2.34,8.7,5.24,15.31,8.71,19.83,3.48,4.53,7.86,6.72,13.14,6.57,5.28-.15,8.21-2.55,8.79-7.25.57-4.68-.22-10.93-2.37-18.74-5.31-19.32-7.97-28.97-13.28-48.29-2.55-9.26-5.42-15.92-8.61-19.93-3.18-4.01-7.92-7.05-14.19-9.13-32.13-12.14-48.03-18.05-79.51-29.51-9.41-3.62-18.21-10.49-26.35-20.6-8.14-10.1-14.54-24.71-19.29-43.93-13.37-54.13-26.73-108.26-40.1-162.4-4.05-16.4-5.12-30.52-3.29-42.44,1.83-11.92,6.22-18.64,13.27-20.05,44.09-8.83,88.18-17.65,132.27-26.48,7.04-1.41,14.54,3.3,22.57,14.18,8.03,10.89,14.68,25.18,19.87,42.76,11.49,38.93,22.98,77.87,34.47,116.8-33.23,4.18-49.84,6.27-83.06,10.46-6.6-24-9.9-36-16.51-60-2.42-8.78-5.21-15.35-8.36-19.67-3.15-4.32-7.07-6.11-11.76-5.35-4.69.76-7.33,3.47-7.91,8.1-.59,4.64.08,10.57,2.03,17.82,5.14,19.14,7.71,28.71,12.85,47.84,2.08,7.74,4.55,13.42,7.4,17.06,2.86,3.65,7.4,6.34,13.65,8.09,30.99,11,46.65,16.68,78.31,28.38,9.65,3.59,18.79,11,27.45,22.26,8.66,11.27,16.15,27.5,22.38,48.6,17.27,58.53,34.55,117.05,51.82,175.58,5.19,17.59,6.86,32.33,4.92,44.12-1.94,11.81-7.16,17.66-15.57,17.66-52.62,0-105.24,0-157.86,0Z"/>
        </g>
        <path class="cls-5" d="M878.92-620.79h402.16c10.44,0,18.92,8.48,18.92,18.92v1922.16c0,10.44-8.48,18.92-18.92,18.92h-402.16c-10.44,0-18.92-8.48-18.92-18.92V-601.87c0-10.44,8.48-18.92,18.92-18.92Z" transform="translate(720.79 1439.21) rotate(-90)"/>
        <g>
          <path class="cls-7" d="M2031.09,455.2c-1.72,30.52-28.03,53.31-58.49,50.64l-322.24-28.24c-30.45-2.67-53.91-29.82-52.13-60.34l7.41-126.88c1.78-30.52,28.2-57.04,58.71-58.94l325.17-20.26c30.51-1.9,54.07,21.52,52.36,52.04l-10.79,191.97Z"/>
          <g>
            <g>
              <path class="cls-5" d="M1983.09,328.25c-.29-.66-.66-1.26-1.13-1.79-.46-.53-.97-.96-1.52-1.29-.55-.33-1.09-.5-1.62-.5-.71,0-1.36.32-1.96.96-.59.64-1.05,1.67-1.36,3.08-.31,1.5-.7,3.1-1.16,4.8-.46,1.7-1.06,3.28-1.79,4.74-.73,1.46-1.59,2.67-2.58,3.65-.99.97-2.17,1.46-3.54,1.46-.79,0-1.49-.19-2.09-.56-.6-.37-1.07-.86-1.42-1.46-.35-.6-.62-1.26-.8-1.99-.18-.73-.26-1.47-.26-2.22v-24.86c0-1.63-.66-3.04-1.99-4.21-1.32-1.17-3.11-1.76-5.36-1.76-.97,0-1.8.21-2.48.63-.69.42-1.03.98-1.03,1.69,0,.22.02.45.07.69.04.24.1.52.17.83.07.31.13.69.2,1.13.07.44.1.99.1,1.66v23.41c-.75,1.9-1.74,3.54-2.98,4.94-1.24,1.39-2.78,2.09-4.64,2.09-2.39,0-4.26-.96-5.63-2.88-1.37-1.92-2.05-4.67-2.05-8.25,0-.24.01-1.83.11-3.12.23-3.59.87-6.79,1.94-9.57,1.37-3.55,3.12-6.49,5.27-8.81,2.14-2.32,4.54-4.04,7.19-5.17,2.65-1.13,5.25-1.69,7.81-1.69.71,0,1.39.04,2.05.13.66.09,1.3.13,1.92.13.66,0,1.11-.23,1.36-.69.24-.46.37-1.27.37-2.42,0-1.77-.58-3.16-1.72-4.17-1.15-1.01-2.65-1.52-4.5-1.52-4.15,0-8.16.84-12.02,2.52-3.87,1.68-7.3,4.09-10.3,7.25-3,3.16-5.41,6.99-7.22,11.49-1.81,4.5-2.72,9.58-2.72,15.23,0,1.73.16,3.36.41,4.95-.21.5-.41,1-.64,1.47-.73,1.46-1.59,2.67-2.58,3.65-.99.97-2.18,1.46-3.54,1.46-.89,0-1.56-.27-2.02-.8-.46-.53-.81-1.15-1.03-1.85-.22-.71-.35-1.4-.4-2.09-.04-.69-.07-1.18-.07-1.49v-28.08c0-1.55-.17-3.13-.5-4.77-.33-1.63-.92-3.11-1.76-4.44-.84-1.33-1.99-2.41-3.44-3.24-1.46-.84-3.31-1.26-5.56-1.26-1.68,0-3.24.34-4.67,1.03-1.44.69-2.78,1.63-4.04,2.85-1.26,1.22-2.43,2.64-3.51,4.27-1.08,1.63-2.09,3.4-3.02,5.3v-6.09c0-1.63-.65-3.03-1.95-4.2-1.3-1.17-3.08-1.76-5.33-1.76-.97,0-1.81.21-2.52.63-.71.42-1.06.96-1.06,1.62,0,.49.1,1.02.3,1.59.2.57.3,1.5.3,2.78v23.49c-.24.52-.44,1.15-.6,1.88-.31,1.5-.7,3.1-1.16,4.8-.46,1.7-1.06,3.28-1.79,4.74-.73,1.46-1.59,2.67-2.58,3.65-1,.97-2.18,1.46-3.54,1.46-.79,0-1.49-.19-2.09-.56-.6-.37-1.07-.86-1.42-1.46-.35-.6-.62-1.26-.8-1.99-.18-.73-.26-1.47-.26-2.22v-24.86c0-1.63-.66-3.04-1.99-4.21-1.32-1.17-3.11-1.76-5.36-1.76-.97,0-1.8.21-2.48.63-.69.42-1.03.98-1.03,1.69,0,.22.02.45.07.69.04.24.1.52.17.83.07.31.13.69.2,1.13.07.44.1.99.1,1.66v23.41c-.75,1.9-1.74,3.54-2.98,4.94-1.24,1.39-2.78,2.09-4.64,2.09-2.39,0-4.26-.96-5.63-2.88-1.37-1.92-2.05-4.67-2.05-8.25,0-4.9.68-9.13,2.05-12.68,1.37-3.55,3.12-6.49,5.27-8.81,2.14-2.32,4.54-4.04,7.19-5.17,2.65-1.13,5.25-1.69,7.81-1.69.71,0,1.39.04,2.05.13.66.09,1.3.13,1.92.13.66,0,1.11-.23,1.36-.69.24-.46.37-1.27.37-2.42,0-1.77-.58-3.16-1.72-4.17-1.15-1.01-2.65-1.52-4.5-1.52-4.15,0-8.16.84-12.02,2.52-3.87,1.68-7.3,4.09-10.3,7.25-3,3.16-5.41,6.99-7.22,11.49-1.81,4.5-2.72,9.58-2.72,15.23,0,.47.06.9.08,1.35-.79,1.72-1.74,3.32-2.93,4.74-1.37,1.63-3.04,2.95-5,3.94-1.97.99-4.27,1.49-6.92,1.49-1.99,0-3.83-.37-5.53-1.09-1.7-.73-3.17-1.8-4.41-3.21-1.24-1.41-2.2-3.16-2.88-5.23-.69-2.07-1.03-4.46-1.03-7.15,0-3.05.28-5.92.83-8.61.55-2.69,1.28-5.06,2.19-7.09.9-2.03,1.94-3.63,3.11-4.8,1.17-1.17,2.37-1.76,3.61-1.76,1.15,0,2.05.28,2.72.83.66.55,1.18,1.21,1.56,1.99.37.77.64,1.58.8,2.42.15.84.32,1.55.5,2.12-.13.8-.01,1.39.36,1.79.37.4.87.62,1.49.66.62.04,1.32-.05,2.12-.3.8-.24,1.52-.61,2.19-1.09.66-.48,1.22-1.08,1.69-1.79.46-.7.7-1.5.7-2.39,0-1.19-.23-2.56-.7-4.11-.46-1.55-1.2-2.99-2.22-4.34-1.02-1.35-2.34-2.5-3.98-3.45-1.63-.95-3.62-1.42-5.96-1.42-3.22,0-6.19.9-8.91,2.72-2.72,1.81-5.05,4.18-6.99,7.12-1.95,2.94-3.47,6.28-4.57,10.03-1.1,3.75-1.66,7.57-1.66,11.46,0,1.9.15,3.67.42,5.36-.13.5-.24.98-.38,1.49-.46,1.7-1.06,3.28-1.79,4.74-.73,1.46-1.59,2.67-2.58,3.65-1,.97-2.18,1.46-3.54,1.46-.79,0-1.49-.19-2.09-.56-.6-.37-1.07-.86-1.42-1.46-.35-.6-.62-1.26-.8-1.99-.18-.73-.26-1.47-.26-2.22v-24.86c0-1.63-.66-3.04-1.99-4.21-1.32-1.17-3.11-1.76-5.36-1.76-.97,0-1.8.21-2.48.63-.69.42-1.03.98-1.03,1.69,0,.22.02.45.07.69.04.24.1.52.17.83.07.31.13.69.2,1.13.07.44.1.99.1,1.66v23.41c-.75,1.9-1.74,3.54-2.98,4.94-1.24,1.39-2.78,2.09-4.64,2.09-2.39,0-4.26-.96-5.63-2.88-1.37-1.92-2.05-4.67-2.05-8.25,0-4.9.68-9.13,2.05-12.68,1.37-3.55,3.12-6.49,5.26-8.81,2.14-2.32,4.54-4.04,7.19-5.17,2.65-1.13,5.25-1.69,7.81-1.69.71,0,1.39.04,2.05.13.66.09,1.3.13,1.92.13.66,0,1.11-.23,1.36-.69.24-.46.37-1.27.37-2.42,0-1.77-.58-3.16-1.72-4.17-1.15-1.01-2.65-1.52-4.5-1.52-4.15,0-8.16.84-12.02,2.52-3.87,1.68-7.3,4.09-10.3,7.25-2.67,2.81-4.84,6.19-6.57,10.06-1.72-5.36-4.96-10.03-9.68-13.12.69-1.37,1.17-3.02,1.12-4.84-.48-18.08-17.46-26.4-32.16-24.19-12.08,1.82-22.89,6.35-26.12,7.93-8.11,3.96-9.05,5.9-8.35,9.8.72,4.02,2.08,5.35,4.56,5.32,2.09-.02,2.4-1.33,4.15-2.53,12.74-8.76,24.71-12.84,38.54-9.6,4.79,1.12,9.96,4.73,13.27,10.09,1.49,2.41,1.73,4.5.92,6.18-9.31-2.49-25.31.78-28.44,1.75-2.74.85-4.67,2.76-3.69,6.81.97,4.01,4.34,5.8,7.05,5.02,7.19-2.07,17.29-4.43,22.84-3.67,4.36.6,8.39,4.34,8.39,9.57,0,30.04-39.53,23.91-53.63,17.85-.09-11.09,2.43-17.69,7.6-26.96,2.21-3.96,5.31-8.78,8.16-11.3,2.68-2.37-.5-5.27-6.11-5.68-3.65-.26-5.85.02-7.67,2.99-5.49,8.93-8.2,16.96-10.96,26.46-1.68,5.76-3.76,17.88,6.03,23.84.04.03.07.05.12.08h.01s0,0,0,0c.6.37,1.25.73,1.97,1.08,24.07,11.64,49.28,3.03,59.19-10.93.15.93.31,1.85.55,2.73.69,2.5,1.71,4.66,3.08,6.49,1.37,1.83,3.06,3.28,5.07,4.34,2.01,1.06,4.34,1.59,6.99,1.59s4.8-.54,6.72-1.62c1.92-1.08,3.57-2.4,4.94-3.94,1.01,1.68,2.4,3.02,4.17,4.04,1.77,1.02,3.84,1.52,6.23,1.52,2.91,0,5.47-.69,7.65-2.05,2.19-1.37,4.05-3.09,5.6-5.16.6-.81,1.12-1.67,1.64-2.53.8,1.16,1.66,2.24,2.63,3.19,2.18,2.16,4.69,3.8,7.52,4.9,2.83,1.1,5.74,1.66,8.74,1.66,3.31,0,6.26-.42,8.84-1.26,2.58-.84,4.84-1.94,6.79-3.31,1.38-.97,2.56-2.08,3.64-3.24.36.64.7,1.31,1.13,1.88,1.37,1.83,3.06,3.28,5.07,4.34,2.01,1.06,4.34,1.59,6.99,1.59s4.8-.54,6.72-1.62c1.92-1.08,3.57-2.4,4.94-3.94,1.01,1.68,2.4,3.02,4.17,4.04,1.77,1.02,3.84,1.52,6.22,1.52,2.91,0,5.47-.69,7.65-2.05,1.71-1.07,3.16-2.42,4.47-3.91h0c0,1.29.21,2.31.63,3.08.42.77.95,1.37,1.59,1.79.64.42,1.35.71,2.12.86.77.15,1.49.23,2.15.23.97,0,1.71-.19,2.22-.56.51-.37.88-.84,1.13-1.39.24-.55.37-1.17.4-1.85.02-.68.03-1.36.03-2.02v-19.81c.26-2.69.92-5.38,1.96-8.05,1.04-2.67,2.24-5.07,3.61-7.18,1.37-2.12,2.76-3.84,4.17-5.17,1.41-1.33,2.61-1.99,3.58-1.99.66,0,1.18.21,1.56.63.37.42.66.98.86,1.69.2.71.32,1.52.36,2.45.04.93.07,1.92.07,2.98v27.55c0,1.72.25,3.35.76,4.9.51,1.55,1.26,2.89,2.25,4.04.99,1.15,2.19,2.06,3.58,2.75,1.39.69,2.99,1.03,4.8,1.03,2.91,0,5.45-.69,7.62-2.05,1.89-1.2,3.52-2.72,4.95-4.45.13.18.22.4.35.58,1.37,1.83,3.06,3.28,5.07,4.34,2.01,1.06,4.34,1.59,6.99,1.59s4.8-.54,6.72-1.62c1.92-1.08,3.57-2.4,4.93-3.94,1.01,1.68,2.4,3.02,4.17,4.04,1.77,1.02,3.84,1.52,6.23,1.52,2.91,0,5.47-.69,7.65-2.05,2.19-1.37,4.05-3.09,5.6-5.16,1.55-2.08,2.81-4.35,3.81-6.82.99-2.47,1.78-4.83,2.35-7.09.09-.26.13-.46.13-.59v-.33c0-.66-.15-1.33-.43-1.99Z"/>
              <path class="cls-5" d="M1868.96,445.76c-1.08,0-2.1-.19-3.01-.56-1.37-.56-2.49-1.41-3.41-2.6-.89-1.16-1.53-2.59-1.89-4.25-.35-1.64-.42-3.46-.19-5.41.36-3.05,1.07-5.85,2.12-8.32,1.04-2.45,2.34-4.79,3.88-6.95,1.53-2.14,3.27-4.21,5.17-6.16,1.75-1.79,5.01-5.39,6.98-8.13l.23-2.59c.03-.24-.1-.45-.31-.52-.05-.02-.11-.03-.16-.03-.16,0-.3.07-.38.2-1.49,2.23-3.13,4.16-4.88,5.75-1.93,1.75-4.12,2.83-6.48,3.2-.61.1-1.21.14-1.77.14-1.11,0-2.12-.19-3.01-.55-1.36-.56-2.43-1.46-3.26-2.74-.33-.51-.62-1.09-.87-1.72l-.05.06c-1.48,1.98-3.21,3.72-5.14,5.17-1.92,1.44-4.09,2.36-6.47,2.73-.62.1-1.21.14-1.77.14-1.18,0-2.23-.22-3.12-.64-1.33-.64-2.29-1.57-2.95-2.86l-.17-.33-.24.28c-1.27,1.49-2.78,2.84-4.47,4.02-1.67,1.16-3.58,1.91-5.66,2.24-.73.11-1.44.17-2.11.17-1.28,0-2.43-.21-3.42-.63-1.54-.65-2.74-1.64-3.67-3.02-.19-.29-.38-.6-.55-.92-.26.35-.52.69-.78,1.01-1.28,1.6-2.76,3.03-4.38,4.26-1.67,1.26-3.54,2.06-5.56,2.37-.69.11-1.35.16-1.96.16-.91,0-1.76-.12-2.51-.36-1.29-.41-2.35-1.11-3.15-2.1-.78-.96-1.32-2.19-1.6-3.64-.27-1.4-.3-3.03-.09-4.83l4.34-37.06c.2-1.67.59-3.27,1.16-4.76.58-1.49,1.3-2.82,2.14-3.96.85-1.14,1.81-2.1,2.86-2.84,1.08-.76,2.2-1.23,3.34-1.41.48-.07.93-.11,1.35-.11.78,0,1.47.13,2.06.38.92.39,1.65,1,2.18,1.79.5.75.87,1.66,1.08,2.69.2.99.32,2.02.33,3.08.01,1.04-.03,2.08-.12,3.1-.09,1.04-.19,1.95-.28,2.76-.25,2.15-.72,4.47-1.38,6.9-.66,2.4-1.42,4.83-2.28,7.2-.85,2.37-1.76,4.68-2.7,6.87-.94,2.19-1.84,4.18-2.67,5.9-.83,1.73-1.58,3.16-2.2,4.27-.63,1.12-.97,1.63-1.19,1.9l-.25,2.21c-.19,1.6-.03,2.85.46,3.72.21.37.62.86,1.72.86.22,0,.47-.02.73-.06.82-.13,1.64-.52,2.44-1.18.85-.7,1.64-1.54,2.35-2.51.72-.98,1.36-2.05,1.9-3.16.46-.95.84-1.87,1.13-2.74.03-.57.09-1.16.16-1.75.57-4.87,1.85-9.41,3.8-13.52,1.95-4.11,4.36-7.77,7.15-10.86,2.79-3.1,5.91-5.65,9.26-7.59,3.35-1.93,6.78-3.18,10.19-3.71.37-.06.73-.09,1.05-.09.96,0,1.75.26,2.35.77.79.68,1.1,1.73.92,3.19-.11.95-.29,1.65-.52,2.05-.21.37-.55.58-1.02.66-.5.08-1.03.12-1.55.13-.56.01-1.15.06-1.73.15-2.15.33-4.43,1.18-6.77,2.51-2.34,1.33-4.55,3.17-6.58,5.47-2.03,2.3-3.82,5.13-5.33,8.4-1.51,3.27-2.52,7.1-3.03,11.37-.38,3.2-.08,5.51.91,7.06.83,1.31,2.05,1.97,3.64,1.97.32,0,.66-.03,1.01-.08,1.6-.25,3.02-1.09,4.23-2.5,1.18-1.38,2.2-2.97,3.02-4.73l.02-.04,2.54-21.8c.07-.59.1-1.07.09-1.46,0-.36-.03-.68-.05-.97-.02-.26-.04-.49-.05-.69-.01-.19,0-.37.02-.55.06-.54.38-1.02.93-1.43.59-.43,1.25-.7,2.02-.82.46-.07.9-.11,1.31-.11,1.16,0,2.1.3,2.78.88.93.8,1.3,1.84,1.14,3.18l-2.49,22.31c-.08.67-.08,1.33,0,1.96.07.63.24,1.21.48,1.71.25.52.64.92,1.14,1.19.36.19.78.29,1.24.29.19,0,.39-.02.59-.05,1.19-.19,2.28-.79,3.24-1.8.93-.98,1.8-2.18,2.56-3.55.52-.94.96-2.52,1.46-4.35.2-.72.41-1.48.64-2.26.05-.18.11-.38.16-.61.35-2.2.79-4.39,1.32-6.5.78-3.18,1.59-6.11,2.4-8.72.92-3,1.94-5.98,3.03-8.85l.02-.04c.24-.53.44-1.07.59-1.6.14-.49.4-.97.75-1.42.36-.44.9-.85,1.61-1.21.73-.37,1.81-.66,3.31-.9.44-.07.83-.1,1.15-.1.44,0,.78.06,1.01.19l.14.08.1.13c.28.38.34.88.19,1.5-.17.68-.47,1.41-.89,2.17-.44.8-.74,1.43-.92,1.93-.79,2.32-1.47,4.35-2.08,6.21-.61,1.84-1.17,3.73-1.67,5.61-.49,1.88-.93,3.84-1.31,5.82-.38,1.98-.71,4.23-1,6.7-.39,3.31-.22,5.67.52,7.24.65,1.38,1.68,2.08,3.07,2.08.24,0,.49-.02.74-.06,1.19-.18,2.35-.82,3.46-1.89,1.09-1.04,2.13-2.39,3.11-4,.97-1.61,1.87-3.43,2.68-5.42.82-2.01,1.52-4.09,2.09-6.2v-.02s2.24-19.02,2.24-19.02c.13-1.13.15-1.96.06-2.46-.08-.45-.1-.88-.06-1.27.06-.51.36-.96.92-1.37.59-.43,1.25-.7,2.02-.82.46-.07.9-.11,1.31-.11,1.16,0,2.09.3,2.76.88.91.8,1.27,1.84,1.12,3.19l-1.95,16.63-1.19,14.84c2.09-2.64,4.23-5.77,5.7-8.11.25-.39.49-.79.74-1.2.47-.75,1.22-1.16,2.07-1.16,1.22,0,2.41.82,3.1,2.14.98,1.87.9,3.81-.23,5.61-.66,1-1.32,1.95-1.97,2.83-1.7,2.31-8.14,8.74-10.21,10.69l-2.36,20.84c-.37,3.16-1.04,5.92-2,8.21-.95,2.29-2.1,4.24-3.4,5.79-1.31,1.56-2.76,2.77-4.3,3.6-1.54.83-3.08,1.37-4.58,1.6-.55.09-1.09.13-1.61.13ZM1806.59,392.8c.37-.64.76-1.49,1.16-2.54.4-1.05.81-2.21,1.21-3.47.4-1.26.79-2.57,1.17-3.95.37-1.37.72-2.7,1.03-4.01.31-1.3.58-2.52.81-3.66.23-1.14.39-2.1.48-2.9.34-2.9.39-4.99.14-6.27-.25-1.29-.71-1.88-1.4-1.77-.22.03-.42.18-.61.43-.19.25-.36.56-.51.94-.15.37-.27.77-.36,1.19-.09.42-.15.8-.19,1.14l-2.92,24.87ZM1878.78,412.02s-5.73,5.21-7.34,8.17c-1.63,3-2.7,6.58-3.17,10.64-.26,2.24-.15,4.04.33,5.5.84,2.54,2.65,2.55,3.38,2.44,1.3-.2,2.35-.92,3.12-2.12.65-1.02,1.15-2.18,1.5-3.44.33-1.21.57-2.43.71-3.64l1.47-17.56ZM1767.72,424.52c-.26,0-.51-.02-.77-.05-.54-.07-1.03-.21-1.46-.4-.46-.21-.84-.48-1.14-.82-.36-.41-.51-.91-.45-1.45l5.36-45.61c.11-.97.07-1.36.04-1.52-.1-.43-.12-.85-.08-1.24.07-.63.43-1.18,1.06-1.66.56-.42,1.21-.69,1.92-.8.39-.06.77-.09,1.12-.09,1.08,0,1.97.29,2.67.85.96.77,1.38,1.87,1.23,3.19l-3.22,27.38c.66-.25,1.39-.57,2.17-.97,1.22-.62,2.52-1.43,3.86-2.41,1.34-.98,2.68-2.16,4-3.51,1.31-1.34,2.54-2.88,3.65-4.57,1.11-1.69,2.07-3.58,2.87-5.61.79-2.03,1.34-4.26,1.61-6.62.18-1.57.13-3.18-.15-4.79-.28-1.57-.85-2.96-1.7-4.14-.83-1.16-2.01-2.06-3.5-2.68-.83-.34-1.83-.54-2.96-.57-.96.01-1.96.08-2.92.21-.27.04-.77.12-1.03.16-5.39.97-10.51,3.88-16.09,9.14-.28.26-.47.52-.66.77-.44.58-.89,1.18-2.04,1.38-.24.04-.47.06-.68.06-2.02,0-2.9-1.81-3.45-3.39-1.01-2.92-.08-4.5,4.49-7.68,2.36-1.65,8.66-5.34,15.58-7.5,1.18-.37,2.42-.63,3.69-.79h.08c.25-.06.49-.11.74-.14,1.3-.2,2.55-.3,3.74-.3,1.67,0,3.25.2,4.69.61,2.48.7,4.56,1.91,6.18,3.61,1.61,1.7,2.77,3.86,3.44,6.43.22.83.38,1.72.49,2.66l.02.1c.02.08.03.16.05.24.11.6.13,1.23.07,1.86.02,1.21-.04,2.47-.19,3.74-.45,3.87-1.55,7.59-3.27,11.08-1.7,3.46-3.83,6.67-6.34,9.55-2.5,2.87-5.33,5.4-8.4,7.51-2.94,2.02-5.97,3.6-9.02,4.68l-1.3,11.05c-.11.94-.5,1.67-1.16,2.16-.59.44-1.26.72-2,.83-.3.05-.6.07-.89.07Z"/>
            </g>
            <path class="cls-6" d="M1856.61,346.72s8.28-11.18,8.28-27.73v8.4c0,13.23-5.63,22.34-5.63,22.34,0,0-1.73-1.33-2.65-3.01Z"/>
            <path class="cls-6" d="M1838.05,408.79s7.54-7.71,8.96-20.38l-.7,6.32c-1.13,10.13-6.33,16.54-6.33,16.54-.26-.21-1.24-.93-1.92-2.48Z"/>
            <path class="cls-6" d="M1953.58,346.73s8.28-11.18,8.28-27.72v8.4c.01,13.23-5.63,22.35-5.63,22.35,0,0-1.67-1.28-2.65-3.02Z"/>
            <path class="cls-2" d="M1768.32,346.73s8.28-11.18,8.28-27.72v8.4c.01,13.23-5.64,22.32-5.64,22.32,0,0-1.52-1.1-2.64-3Z"/>
            <path class="cls-9" d="M1682.64,337.56s-.39,6.08,3.85,12.53c0,0,3.94,1.55,8.05,2.33,0,0-8.45-4.97-11.9-14.86h0Z"/>
            <path class="cls-9" d="M1878.76,412.04c-.14,1.8-.38,4.65-.62,7.16,0,0,1.87-5.79,9.05-13.61-4.42,2.88-8.43,6.45-8.43,6.45Z"/>
          </g>
        </g>
        <g>
          <path class="cls-7" d="M128.91,455.2c1.72,30.52,28.03,53.31,58.49,50.64l322.24-28.24c30.45-2.67,53.91-29.82,52.13-60.34l-7.41-126.88c-1.78-30.52-28.2-57.04-58.71-58.94l-325.17-20.26c-30.51-1.9-54.07,21.52-52.36,52.04l10.79,191.97Z"/>
          <g>
            <g>
              <path class="cls-5" d="M497.09,328.25c-.29-.66-.66-1.26-1.13-1.79-.46-.53-.97-.96-1.52-1.29-.55-.33-1.09-.5-1.62-.5-.71,0-1.36.32-1.96.96-.59.64-1.05,1.67-1.36,3.08-.31,1.5-.7,3.1-1.16,4.8-.46,1.7-1.06,3.28-1.79,4.74-.73,1.46-1.59,2.67-2.58,3.65-.99.97-2.17,1.46-3.54,1.46-.79,0-1.49-.19-2.09-.56-.6-.37-1.07-.86-1.42-1.46-.35-.6-.62-1.26-.8-1.99-.18-.73-.26-1.47-.26-2.22v-24.86c0-1.63-.66-3.04-1.99-4.21-1.32-1.17-3.11-1.76-5.36-1.76-.97,0-1.8.21-2.48.63-.69.42-1.03.98-1.03,1.69,0,.22.02.45.07.69.04.24.1.52.17.83.07.31.13.69.2,1.13.07.44.1.99.1,1.66v23.41c-.75,1.9-1.74,3.54-2.98,4.94-1.24,1.39-2.78,2.09-4.64,2.09-2.39,0-4.26-.96-5.63-2.88-1.37-1.92-2.05-4.67-2.05-8.25,0-.24.01-1.83.11-3.12.23-3.59.87-6.79,1.94-9.57,1.37-3.55,3.12-6.49,5.27-8.81,2.14-2.32,4.54-4.04,7.19-5.17s5.25-1.69,7.81-1.69c.71,0,1.39.04,2.05.13.66.09,1.3.13,1.92.13.66,0,1.11-.23,1.36-.69.24-.46.37-1.27.37-2.42,0-1.77-.58-3.16-1.72-4.17-1.15-1.01-2.65-1.52-4.5-1.52-4.15,0-8.16.84-12.02,2.52-3.87,1.68-7.3,4.09-10.3,7.25-3,3.16-5.41,6.99-7.22,11.49-1.81,4.5-2.72,9.58-2.72,15.23,0,1.73.16,3.36.41,4.95-.21.5-.41,1-.64,1.47-.73,1.46-1.59,2.67-2.58,3.65-.99.97-2.18,1.46-3.54,1.46-.89,0-1.56-.27-2.02-.8-.46-.53-.81-1.15-1.03-1.85-.22-.71-.35-1.4-.4-2.09-.04-.69-.07-1.18-.07-1.49v-28.08c0-1.55-.17-3.13-.5-4.77-.33-1.63-.92-3.11-1.76-4.44-.84-1.33-1.99-2.41-3.44-3.24-1.46-.84-3.31-1.26-5.56-1.26-1.68,0-3.24.34-4.67,1.03-1.44.69-2.78,1.63-4.04,2.85-1.26,1.22-2.43,2.64-3.51,4.27-1.08,1.63-2.09,3.4-3.02,5.3v-6.09c0-1.63-.65-3.03-1.95-4.2-1.3-1.17-3.08-1.76-5.33-1.76-.97,0-1.81.21-2.52.63-.71.42-1.06.96-1.06,1.62,0,.49.1,1.02.3,1.59.2.57.3,1.5.3,2.78v23.49c-.24.52-.44,1.15-.6,1.88-.31,1.5-.7,3.1-1.16,4.8-.46,1.7-1.06,3.28-1.79,4.74-.73,1.46-1.59,2.67-2.58,3.65-1,.97-2.18,1.46-3.54,1.46-.79,0-1.49-.19-2.09-.56-.6-.37-1.07-.86-1.42-1.46-.35-.6-.62-1.26-.8-1.99-.18-.73-.26-1.47-.26-2.22v-24.86c0-1.63-.66-3.04-1.99-4.21-1.32-1.17-3.11-1.76-5.36-1.76-.97,0-1.8.21-2.48.63-.69.42-1.03.98-1.03,1.69,0,.22.02.45.07.69.04.24.1.52.17.83.07.31.13.69.2,1.13.07.44.1.99.1,1.66v23.41c-.75,1.9-1.74,3.54-2.98,4.94-1.24,1.39-2.78,2.09-4.64,2.09-2.39,0-4.26-.96-5.63-2.88-1.37-1.92-2.05-4.67-2.05-8.25,0-4.9.68-9.13,2.05-12.68,1.37-3.55,3.12-6.49,5.27-8.81,2.14-2.32,4.54-4.04,7.19-5.17,2.65-1.13,5.25-1.69,7.81-1.69.71,0,1.39.04,2.05.13.66.09,1.3.13,1.92.13.66,0,1.11-.23,1.36-.69.24-.46.37-1.27.37-2.42,0-1.77-.58-3.16-1.72-4.17-1.15-1.01-2.65-1.52-4.5-1.52-4.15,0-8.16.84-12.02,2.52-3.87,1.68-7.3,4.09-10.3,7.25-3,3.16-5.41,6.99-7.22,11.49-1.81,4.5-2.72,9.58-2.72,15.23,0,.47.06.9.08,1.35-.79,1.72-1.74,3.32-2.93,4.74-1.37,1.63-3.04,2.95-5,3.94-1.97.99-4.27,1.49-6.92,1.49-1.99,0-3.83-.37-5.53-1.09-1.7-.73-3.17-1.8-4.41-3.21-1.24-1.41-2.2-3.16-2.88-5.23-.69-2.07-1.03-4.46-1.03-7.15,0-3.05.28-5.92.83-8.61.55-2.69,1.28-5.06,2.19-7.09.9-2.03,1.94-3.63,3.11-4.8,1.17-1.17,2.37-1.76,3.61-1.76,1.15,0,2.05.28,2.72.83.66.55,1.18,1.21,1.56,1.99.37.77.64,1.58.8,2.42.15.84.32,1.55.5,2.12-.13.8-.01,1.39.36,1.79.37.4.87.62,1.49.66.62.04,1.32-.05,2.12-.3.8-.24,1.52-.61,2.19-1.09.66-.48,1.22-1.08,1.69-1.79.46-.7.7-1.5.7-2.39,0-1.19-.23-2.56-.7-4.11-.46-1.55-1.2-2.99-2.22-4.34-1.02-1.35-2.34-2.5-3.98-3.45-1.63-.95-3.62-1.42-5.96-1.42-3.22,0-6.19.9-8.91,2.72-2.72,1.81-5.05,4.18-6.99,7.12-1.95,2.94-3.47,6.28-4.57,10.03-1.1,3.75-1.66,7.57-1.66,11.46,0,1.9.15,3.67.42,5.36-.13.5-.24.98-.38,1.49-.46,1.7-1.06,3.28-1.79,4.74-.73,1.46-1.59,2.67-2.58,3.65-1,.97-2.18,1.46-3.54,1.46-.79,0-1.49-.19-2.09-.56-.6-.37-1.07-.86-1.42-1.46-.35-.6-.62-1.26-.8-1.99-.18-.73-.26-1.47-.26-2.22v-24.86c0-1.63-.66-3.04-1.99-4.21-1.32-1.17-3.11-1.76-5.36-1.76-.97,0-1.8.21-2.48.63-.69.42-1.03.98-1.03,1.69,0,.22.02.45.07.69.04.24.1.52.17.83.07.31.13.69.2,1.13.07.44.1.99.1,1.66v23.41c-.75,1.9-1.74,3.54-2.98,4.94-1.24,1.39-2.78,2.09-4.64,2.09-2.39,0-4.26-.96-5.63-2.88-1.37-1.92-2.05-4.67-2.05-8.25,0-4.9.68-9.13,2.05-12.68,1.37-3.55,3.12-6.49,5.26-8.81,2.14-2.32,4.54-4.04,7.19-5.17,2.65-1.13,5.25-1.69,7.81-1.69.71,0,1.39.04,2.05.13.66.09,1.3.13,1.92.13.66,0,1.11-.23,1.36-.69.24-.46.37-1.27.37-2.42,0-1.77-.58-3.16-1.72-4.17-1.15-1.01-2.65-1.52-4.5-1.52-4.15,0-8.16.84-12.02,2.52-3.87,1.68-7.3,4.09-10.3,7.25-2.67,2.81-4.84,6.19-6.57,10.06-1.72-5.36-4.96-10.03-9.68-13.12.69-1.37,1.17-3.02,1.12-4.84-.48-18.08-17.46-26.4-32.16-24.19-12.08,1.82-22.89,6.35-26.12,7.93-8.11,3.96-9.05,5.9-8.35,9.8.72,4.02,2.08,5.35,4.56,5.32,2.09-.02,2.4-1.33,4.15-2.53,12.74-8.76,24.71-12.84,38.54-9.6,4.79,1.12,9.96,4.73,13.27,10.09,1.49,2.41,1.73,4.5.92,6.18-9.31-2.49-25.31.78-28.44,1.75-2.74.85-4.67,2.76-3.69,6.81.97,4.01,4.34,5.8,7.05,5.02,7.19-2.07,17.29-4.43,22.84-3.67,4.36.6,8.39,4.34,8.39,9.57,0,30.04-39.53,23.91-53.63,17.85-.09-11.09,2.43-17.69,7.6-26.96,2.21-3.96,5.31-8.78,8.16-11.3,2.68-2.37-.5-5.27-6.11-5.68-3.65-.26-5.85.02-7.67,2.99-5.49,8.93-8.2,16.96-10.96,26.46-1.68,5.76-3.76,17.88,6.03,23.84.04.03.07.05.12.08h.01s0,0,0,0c.6.37,1.25.73,1.97,1.08,24.07,11.64,49.28,3.03,59.19-10.93.15.93.31,1.85.55,2.73.69,2.5,1.71,4.66,3.08,6.49,1.37,1.83,3.06,3.28,5.07,4.34,2.01,1.06,4.34,1.59,6.99,1.59s4.8-.54,6.72-1.62c1.92-1.08,3.57-2.4,4.94-3.94,1.01,1.68,2.4,3.02,4.17,4.04,1.77,1.02,3.84,1.52,6.23,1.52,2.91,0,5.47-.69,7.65-2.05,2.19-1.37,4.05-3.09,5.6-5.16.6-.81,1.12-1.67,1.64-2.53.8,1.16,1.66,2.24,2.63,3.19,2.18,2.16,4.69,3.8,7.52,4.9,2.83,1.1,5.74,1.66,8.74,1.66,3.31,0,6.26-.42,8.84-1.26,2.58-.84,4.84-1.94,6.79-3.31,1.38-.97,2.56-2.08,3.64-3.24.36.64.7,1.31,1.13,1.88,1.37,1.83,3.06,3.28,5.07,4.34,2.01,1.06,4.34,1.59,6.99,1.59s4.8-.54,6.72-1.62c1.92-1.08,3.57-2.4,4.94-3.94,1.01,1.68,2.4,3.02,4.17,4.04,1.77,1.02,3.84,1.52,6.22,1.52,2.91,0,5.47-.69,7.65-2.05,1.71-1.07,3.16-2.42,4.47-3.91h0c0,1.29.21,2.31.63,3.08.42.77.95,1.37,1.59,1.79.64.42,1.35.71,2.12.86.77.15,1.49.23,2.15.23.97,0,1.71-.19,2.22-.56.51-.37.88-.84,1.13-1.39.24-.55.37-1.17.4-1.85.02-.68.03-1.36.03-2.02v-19.81c.26-2.69.92-5.38,1.96-8.05,1.04-2.67,2.24-5.07,3.61-7.18,1.37-2.12,2.76-3.84,4.17-5.17,1.41-1.33,2.61-1.99,3.58-1.99.66,0,1.18.21,1.56.63.37.42.66.98.86,1.69.2.71.32,1.52.36,2.45.04.93.07,1.92.07,2.98v27.55c0,1.72.25,3.35.76,4.9.51,1.55,1.26,2.89,2.25,4.04.99,1.15,2.19,2.06,3.58,2.75,1.39.69,2.99,1.03,4.8,1.03,2.91,0,5.45-.69,7.62-2.05,1.89-1.2,3.52-2.72,4.95-4.45.13.18.22.4.35.58,1.37,1.83,3.06,3.28,5.07,4.34,2.01,1.06,4.34,1.59,6.99,1.59s4.8-.54,6.72-1.62c1.92-1.08,3.57-2.4,4.93-3.94,1.01,1.68,2.4,3.02,4.17,4.04,1.77,1.02,3.84,1.52,6.23,1.52,2.91,0,5.47-.69,7.65-2.05,2.19-1.37,4.05-3.09,5.6-5.16,1.55-2.08,2.81-4.35,3.81-6.82.99-2.47,1.78-4.83,2.35-7.09.09-.26.13-.46.13-.59v-.33c0-.66-.15-1.33-.43-1.99Z"/>
              <path class="cls-5" d="M382.95,445.76c-1.08,0-2.1-.19-3.01-.56-1.37-.56-2.49-1.41-3.41-2.6-.89-1.16-1.53-2.59-1.89-4.25-.35-1.64-.42-3.46-.19-5.41.36-3.05,1.07-5.85,2.12-8.32,1.04-2.45,2.34-4.79,3.88-6.95,1.53-2.14,3.27-4.21,5.17-6.16,1.75-1.79,5.01-5.39,6.98-8.13l.23-2.59c.03-.24-.1-.45-.31-.52-.05-.02-.11-.03-.16-.03-.16,0-.3.07-.38.2-1.49,2.23-3.13,4.16-4.88,5.75-1.93,1.75-4.12,2.83-6.48,3.2-.61.1-1.21.14-1.77.14-1.11,0-2.12-.19-3.01-.55-1.36-.56-2.43-1.46-3.26-2.74-.33-.51-.62-1.09-.87-1.72l-.05.06c-1.48,1.98-3.21,3.72-5.14,5.17-1.92,1.44-4.09,2.36-6.47,2.73-.62.1-1.21.14-1.77.14-1.18,0-2.23-.22-3.12-.64-1.33-.64-2.29-1.57-2.95-2.86l-.17-.33-.24.28c-1.27,1.49-2.78,2.84-4.47,4.02-1.67,1.16-3.58,1.91-5.66,2.24-.73.11-1.44.17-2.11.17-1.28,0-2.43-.21-3.42-.63-1.54-.65-2.74-1.64-3.67-3.02-.19-.29-.38-.6-.55-.92-.26.35-.52.69-.78,1.01-1.28,1.6-2.76,3.03-4.38,4.26-1.67,1.26-3.54,2.06-5.56,2.37-.69.11-1.35.16-1.96.16-.91,0-1.76-.12-2.51-.36-1.29-.41-2.35-1.11-3.15-2.1-.78-.96-1.32-2.19-1.6-3.64-.27-1.4-.3-3.03-.09-4.83l4.34-37.06c.2-1.67.59-3.27,1.16-4.76.58-1.49,1.3-2.82,2.14-3.96.85-1.14,1.81-2.1,2.86-2.84,1.08-.76,2.2-1.23,3.34-1.41.48-.07.93-.11,1.35-.11.78,0,1.47.13,2.06.38.92.39,1.65,1,2.18,1.79.5.75.87,1.66,1.08,2.69.2.99.32,2.02.33,3.08.01,1.04-.03,2.08-.12,3.1-.09,1.04-.19,1.95-.28,2.76-.25,2.15-.72,4.47-1.38,6.9-.66,2.4-1.42,4.83-2.28,7.2-.85,2.37-1.76,4.68-2.7,6.87-.94,2.19-1.84,4.18-2.67,5.9-.83,1.73-1.58,3.16-2.2,4.27-.63,1.12-.97,1.63-1.19,1.9l-.25,2.21c-.19,1.6-.03,2.85.46,3.72.21.37.62.86,1.72.86.22,0,.47-.02.73-.06.82-.13,1.64-.52,2.44-1.18.85-.7,1.64-1.54,2.35-2.51.72-.98,1.36-2.05,1.9-3.16.46-.95.84-1.87,1.13-2.74.03-.57.09-1.16.16-1.75.57-4.87,1.85-9.41,3.8-13.52,1.95-4.11,4.36-7.77,7.15-10.86,2.79-3.1,5.91-5.65,9.26-7.59,3.35-1.93,6.78-3.18,10.19-3.71.37-.06.73-.09,1.05-.09.96,0,1.75.26,2.35.77.79.68,1.1,1.73.92,3.19-.11.95-.29,1.65-.52,2.05-.21.37-.55.58-1.02.66-.5.08-1.03.12-1.55.13-.56.01-1.15.06-1.73.15-2.15.33-4.43,1.18-6.77,2.51-2.34,1.33-4.55,3.17-6.58,5.47-2.03,2.3-3.82,5.13-5.33,8.4-1.51,3.27-2.52,7.1-3.03,11.37-.38,3.2-.08,5.51.91,7.06.83,1.31,2.05,1.97,3.64,1.97.32,0,.66-.03,1.01-.08,1.6-.25,3.02-1.09,4.23-2.5,1.18-1.38,2.2-2.97,3.02-4.73l.02-.04,2.54-21.8c.07-.59.1-1.07.09-1.46,0-.36-.03-.68-.05-.97-.02-.26-.04-.49-.05-.69-.01-.19,0-.37.02-.55.06-.54.38-1.02.93-1.43.59-.43,1.25-.7,2.02-.82.46-.07.9-.11,1.31-.11,1.16,0,2.1.3,2.78.88.93.8,1.3,1.84,1.14,3.18l-2.49,22.31c-.08.67-.08,1.33,0,1.96.07.63.24,1.21.48,1.71.25.52.64.92,1.14,1.19.36.19.78.29,1.24.29.19,0,.39-.02.59-.05,1.19-.19,2.28-.79,3.24-1.8.93-.98,1.8-2.18,2.56-3.55.52-.94.96-2.52,1.46-4.35.2-.72.41-1.48.64-2.26.05-.18.11-.38.16-.61.35-2.2.79-4.39,1.32-6.5.78-3.18,1.59-6.11,2.4-8.72.92-3,1.94-5.98,3.03-8.85l.02-.04c.24-.53.44-1.07.59-1.6.14-.49.4-.97.75-1.42.36-.44.9-.85,1.61-1.21.73-.37,1.81-.66,3.31-.9.44-.07.83-.1,1.15-.1.44,0,.78.06,1.01.19l.14.08.1.13c.28.38.34.88.19,1.5-.17.68-.47,1.41-.89,2.17-.44.8-.74,1.43-.92,1.93-.79,2.32-1.47,4.35-2.08,6.21-.61,1.84-1.17,3.73-1.67,5.61-.49,1.88-.93,3.84-1.31,5.82-.38,1.98-.71,4.23-1,6.7-.39,3.31-.22,5.67.52,7.24.65,1.38,1.68,2.08,3.07,2.08.24,0,.49-.02.74-.06,1.19-.18,2.35-.82,3.46-1.89,1.09-1.04,2.13-2.39,3.11-4,.97-1.61,1.87-3.43,2.68-5.42.82-2.01,1.52-4.09,2.09-6.2v-.02s2.24-19.02,2.24-19.02c.13-1.13.15-1.96.06-2.46-.08-.45-.1-.88-.06-1.27.06-.51.36-.96.92-1.37.59-.43,1.25-.7,2.02-.82.46-.07.9-.11,1.31-.11,1.16,0,2.09.3,2.76.88.91.8,1.27,1.84,1.12,3.19l-1.95,16.63-1.19,14.84c2.09-2.64,4.23-5.77,5.7-8.11.25-.39.49-.79.74-1.2.47-.75,1.22-1.16,2.07-1.16,1.22,0,2.41.82,3.1,2.14.98,1.87.9,3.81-.23,5.61-.66,1-1.32,1.95-1.97,2.83-1.7,2.31-8.14,8.74-10.21,10.69l-2.36,20.84c-.37,3.16-1.04,5.92-2,8.21-.95,2.29-2.1,4.24-3.4,5.79-1.31,1.56-2.76,2.77-4.3,3.6-1.54.83-3.08,1.37-4.58,1.6-.55.09-1.09.13-1.61.13ZM320.59,392.8c.37-.64.76-1.49,1.16-2.54.4-1.05.81-2.21,1.21-3.47.4-1.26.79-2.57,1.17-3.95.37-1.37.72-2.7,1.03-4.01.31-1.3.58-2.52.81-3.66.23-1.14.39-2.1.48-2.9.34-2.9.39-4.99.14-6.27-.25-1.29-.71-1.88-1.4-1.77-.22.03-.42.18-.61.43-.19.25-.36.56-.51.94-.15.37-.27.77-.36,1.19-.09.42-.15.8-.19,1.14l-2.92,24.87ZM392.78,412.02s-5.73,5.21-7.34,8.17c-1.63,3-2.7,6.58-3.17,10.64-.26,2.24-.15,4.04.33,5.5.84,2.54,2.65,2.55,3.38,2.44,1.3-.2,2.35-.92,3.12-2.12.65-1.02,1.15-2.18,1.5-3.44.33-1.21.57-2.43.71-3.64l1.47-17.56ZM281.72,424.52c-.26,0-.51-.02-.77-.05-.54-.07-1.03-.21-1.46-.4-.46-.21-.84-.48-1.14-.82-.36-.41-.51-.91-.45-1.45l5.36-45.61c.11-.97.07-1.36.04-1.52-.1-.43-.12-.85-.08-1.24.07-.63.43-1.18,1.06-1.66.56-.42,1.21-.69,1.92-.8.39-.06.77-.09,1.12-.09,1.08,0,1.97.29,2.67.85.96.77,1.38,1.87,1.23,3.19l-3.22,27.38c.66-.25,1.39-.57,2.17-.97,1.22-.62,2.52-1.43,3.86-2.41,1.34-.98,2.68-2.16,4-3.51,1.31-1.34,2.54-2.88,3.65-4.57,1.11-1.69,2.07-3.58,2.87-5.61.79-2.03,1.34-4.26,1.61-6.62.18-1.57.13-3.18-.15-4.79-.28-1.57-.85-2.96-1.7-4.14-.83-1.16-2.01-2.06-3.5-2.68-.83-.34-1.83-.54-2.96-.57-.96.01-1.96.08-2.92.21-.27.04-.77.12-1.03.16-5.39.97-10.51,3.88-16.09,9.14-.28.26-.47.52-.66.77-.44.58-.89,1.18-2.04,1.38-.24.04-.47.06-.68.06-2.02,0-2.9-1.81-3.45-3.39-1.01-2.92-.08-4.5,4.49-7.68,2.36-1.65,8.66-5.34,15.58-7.5,1.18-.37,2.42-.63,3.69-.79h.08c.25-.06.49-.11.74-.14,1.3-.2,2.55-.3,3.74-.3,1.67,0,3.25.2,4.69.61,2.48.7,4.56,1.91,6.18,3.61,1.61,1.7,2.77,3.86,3.44,6.43.22.83.38,1.72.49,2.66l.02.1c.02.08.03.16.05.24.11.6.13,1.23.07,1.86.02,1.21-.04,2.47-.19,3.74-.45,3.87-1.55,7.59-3.27,11.08-1.7,3.46-3.83,6.67-6.34,9.55-2.5,2.87-5.33,5.4-8.4,7.51-2.94,2.02-5.97,3.6-9.02,4.68l-1.3,11.05c-.11.94-.5,1.67-1.16,2.16-.59.44-1.26.72-2,.83-.3.05-.6.07-.89.07Z"/>
            </g>
            <path class="cls-6" d="M370.61,346.72s8.28-11.18,8.28-27.73v8.4c0,13.23-5.63,22.34-5.63,22.34,0,0-1.73-1.33-2.65-3.01Z"/>
            <path class="cls-6" d="M352.05,408.79s7.54-7.71,8.96-20.38l-.7,6.32c-1.13,10.13-6.33,16.54-6.33,16.54-.26-.21-1.24-.93-1.92-2.48Z"/>
            <path class="cls-6" d="M467.58,346.73s8.28-11.18,8.28-27.72v8.4c.01,13.23-5.63,22.35-5.63,22.35,0,0-1.67-1.28-2.65-3.02Z"/>
            <path class="cls-2" d="M282.32,346.73s8.28-11.18,8.28-27.72v8.4c.01,13.23-5.64,22.32-5.64,22.32,0,0-1.52-1.1-2.64-3Z"/>
            <path class="cls-9" d="M196.64,337.56s-.39,6.08,3.85,12.53c0,0,3.94,1.55,8.05,2.33,0,0-8.45-4.97-11.9-14.86h0Z"/>
            <path class="cls-9" d="M392.76,412.04c-.14,1.8-.38,4.65-.62,7.16,0,0,1.87-5.79,9.05-13.61-4.42,2.88-8.43,6.45-8.43,6.45Z"/>
          </g>
        </g>
        <g>
          <path class="cls-8" d="M683.9,534.21c-19.81,0-37.49-16.14-39.28-35.87l-25.3-278.25c-1.79-19.73,12.95-35.87,32.76-35.87h855.85c19.81,0,34.55,16.14,32.76,35.87l-25.3,278.25c-1.79,19.73-19.47,35.87-39.28,35.87h-792.2Z"/>
          <g>
            <path class="cls-4" d="M688.32,492.64c-7.36-86.38-14.22-172.82-20.8-259.28,18.63,0,37.26,0,55.9,0,6.4,86.46,13.05,172.89,20.2,259.28h-55.29Z"/>
            <path class="cls-4" d="M755.06,492.64c-7.06-86.39-13.61-172.82-19.93-259.28,18.98,0,37.97,0,56.95,0,4.04,19.53,8.09,39.06,12.13,58.59,3.12,17.35,6.24,34.7,9.35,52.05.65,0,.98,0,1.64,0-1.93-17.7-3.85-35.41-5.77-53.11-1.24-19.18-2.47-38.35-3.7-57.53,15.53,0,31.06,0,46.6,0,4.79,86.45,9.75,172.88,15.24,259.27h-51.67c-4.7-21.16-9.46-42.3-14.26-63.43-4.11-19.96-8.24-39.91-12.39-59.86-.52,0-.78,0-1.3,0,2.27,20.93,4.54,41.85,6.82,62.78,1.5,20.17,3.02,40.34,4.56,60.51h-44.26Z"/>
            <path class="cls-4" d="M897.25,492.64c-13.09-86.49-26.59-172.89-40.21-259.27,20.81,0,41.63,0,62.44,0,2.74,26.01,5.48,52.03,8.2,78.05,2.31,29.45,4.62,58.89,6.95,88.34.66,0,.98,0,1.64,0-.15-29.44-.22-58.88-.21-88.33.7-26.02,1.44-52.04,2.21-78.06,16.81,0,33.62,0,50.42,0-7.21,86.34-13.86,172.71-18.91,259.26h-72.53Z"/>
            <path class="cls-4" d="M986.08,492.64c5.68-86.56,12.98-172.93,20.85-259.26,26.1,0,52.19,0,78.29,0,8.74,86.37,17.03,172.79,24.96,259.25h-55.34c-1.61-17.85-3.23-35.71-4.86-53.56-6.37-.02-9.56-.03-15.93-.04-1.13,17.86-2.2,35.73-3.2,53.6h-44.77ZM1035.11,401.54c5,.02,7.49.02,12.49.04-2.18-30.7-4.36-61.4-6.57-92.09-.68,0-1.01,0-1.69,0-1.51,30.68-2.91,61.37-4.24,92.06Z"/>
            <path class="cls-4" d="M1126.49,492.64c-3.84,0-6.97-1.73-9.41-5.19-2.43-3.46-3.65-7.65-3.62-12.58.14-24.48.33-48.96.55-73.43,17.85.3,35.7.6,53.54.9-.48,19.27-.71,28.93-1.15,48.39-.06,2.44.28,4.15,1.01,5.12.73.97,2.07,1.47,4.01,1.47,1.72,0,2.97-.48,3.75-1.46.78-.97,1.2-2.68,1.26-5.12.5-19.45.76-29.11,1.29-48.38.07-2.65-.42-4.53-1.49-5.62-1.07-1.09-2.89-2.36-5.49-3.82-15.71-8.3-23.62-12.44-39.54-20.71-4.17-2.18-8.01-4.95-11.51-8.32-3.5-3.37-5.23-8.42-5.16-15.13.37-32.69.76-65.38,1.16-98.08.06-4.8,1.42-8.88,4.11-12.25,2.68-3.36,6.1-5.05,10.24-5.05,31.49,0,62.99,0,94.48,0,4.1,0,7.4,1.69,9.86,5.06,2.47,3.37,3.59,7.47,3.38,12.28-1.07,24.14-2.15,48.28-3.21,72.42-18.18-.04-36.37-.08-54.55-.12.58-19.56.88-29.33,1.47-48.91.07-2.16-.29-3.73-1.05-4.68-.76-.96-2.06-1.44-3.87-1.44-1.82,0-3.2.48-4.13,1.44-.94.96-1.43,2.52-1.49,4.68-.53,19.14-.79,28.69-1.3,47.82-.07,2.64.38,4.44,1.36,5.4.98.96,2.79,2.16,5.43,3.61,16.23,8.53,24.28,12.8,40.28,21.35,4.55,2.42,8.36,5.19,11.43,8.33,3.06,3.13,4.45,7.95,4.18,14.45-1.42,33.31-2.8,66.62-4.12,99.94-.19,4.89-1.59,9.05-4.16,12.48-2.58,3.43-5.78,5.15-9.62,5.15h-87.93Z"/>
            <path class="cls-4" d="M1230.71,492.64c12.13-86.6,25.47-172.95,39.16-259.24,25.49,0,50.98,0,76.48,0,3,86.4,5.66,172.82,8.19,259.24h-55.17c-.38-17.63-.77-35.25-1.16-52.88-6.33-.02-9.49-.03-15.83-.04-2.36,17.63-4.68,35.27-6.95,52.92h-44.71ZM1302.52,228.23c-1.48,0-2.75-.3-3.8-.89-1.05-.6-1.62-1.49-1.7-2.68,0-3.5,0-5.26-.02-8.77.04-.48-.12-.78-.48-.9-.36-.12-.73-.18-1.1-.18s-.76.06-1.14.18c-.39.12-.6.42-.64.9-.43,4.66-.64,6.98-1.07,11.62-8.69,0-13.04,0-21.77,0,.64-7.78.96-11.68,1.6-19.51.17-2.03,1.09-3.59,2.78-4.67,1.69-1.08,4.05-1.62,7.06-1.62h35.42c1.49,0,2.72.27,3.69.81.96.54,1.48,1.47,1.53,2.78.08,3.52.13,5.28.21,8.79-.04.36.08.6.34.72.27.12.58.18.95.18.37,0,.74-.06,1.13-.18.38-.12.59-.36.63-.72.49-4.73.74-7.1,1.24-11.84h21.65c-.88,7.9-1.32,11.84-2.21,19.71-.22,1.91-1.17,3.43-2.85,4.56-1.68,1.13-3.99,1.7-6.92,1.7-13.74,0-20.66,0-34.54,0ZM1286.03,402.36c4.95.02,7.43.02,12.38.04-.05-30.82-.11-61.63-.19-92.45-.66,0-1,0-1.66,0-3.55,30.8-7.07,61.6-10.52,92.41Z"/>
            <path class="cls-4" d="M1371.1,492.64c-3.82,0-6.84-1.7-9.05-5.1-2.21-3.4-3.15-7.52-2.82-12.38,5.15-74.8,10.48-149.59,15.81-224.38.34-4.82,1.9-8.93,4.68-12.31,2.77-3.38,6.15-5.07,10.11-5.07,29.78,0,59.56,0,89.33,0,3.83,0,6.83,1.7,9,5.08,2.17,3.39,3.06,7.5,2.67,12.34-5.96,74.82-11.93,149.65-17.88,224.47-.38,4.82-1.93,8.91-4.63,12.28-2.7,3.37-5.96,5.06-9.77,5.06h-87.47ZM1417.55,455.3c1.7,0,3.01-.41,3.93-1.26.91-.84,1.47-2.47,1.65-4.89,4.42-57.3,8.88-114.6,13.35-171.89.19-2.41-.06-4.11-.74-5.07-.68-.96-1.88-1.45-3.61-1.45-1.73,0-3.06.42-3.99,1.26-.93.85-1.49,2.48-1.68,4.89-4.43,57.29-8.85,114.58-13.21,171.88-.18,2.42.06,4.11.73,5.07.67.96,1.86,1.45,3.56,1.46Z"/>
          </g>
        </g>
      </g>
      <g id="Layer_4" data-name="Layer 4">
        <rect class="cls-3" x="359.88" y="440.12" width="1440.24" height="1960" rx="18.82" ry="18.82" transform="translate(-340.12 2500.12) rotate(-90)"/>
      </g>
    </g>
  </g>
</svg>