<?xml version="1.0" encoding="UTF-8"?>
<svg id="Layer_2" data-name="Layer 2" xmlns="http://www.w3.org/2000/svg" viewBox="0 0 200 131.45">
  <defs>
    <style>
      .cls-1 {
        fill: #000;
        stroke-width: 0px;
      }

      .cls-2 {
        fill: #fff;
      }

      .cls-2, .cls-3 {
        stroke: #231f20;
      }

      .cls-2, .cls-3, .cls-4 {
        stroke-miterlimit: 10;
      }

      .cls-3 {
        fill: #231f20;
      }

      .cls-4 {
        fill: #e45525;
        stroke: #000;
        stroke-width: .71px;
      }
    </style>
  </defs>
  <g id="Butoes">
    <g>
      <path class="cls-1" d="M195.21,0H.02l.2,116.14-.21,15.31h194.79l5.21-15.31L195.21,0ZM198.97,115.2H1.2l-.18-96.51h188.3l4.96-17.79,4.69,114.3Z"/>
      <polygon class="cls-4" points="194.28 .9 198.97 115.2 1.2 115.2 .99 .9 194.28 .9"/>
    </g>
    <g>
      <path class="cls-3" d="M53.47,70.03v7.6h-6.19v-7.6h-9.34v-4.98l8.56-19.69h6.97v19.16h2.61v5.51h-2.61ZM47.28,52.71l-4.74,11.8h4.74v-11.8Z"/>
      <path class="cls-3" d="M83.13,52.67c-1.31-1.11-2.81-2.08-4.6-2.08-1.89,0-3.19,1.26-3.19,3.14,0,5.56,9.68,5.47,9.68,14.47,0,5.56-3.34,9.97-9.19,9.97-1.98,0-3.92-.53-5.56-1.65v-6.1c1.45.97,2.95,1.74,4.74,1.74,2.18,0,3.77-1.35,3.77-3.58,0-.58-.1-1.11-.34-1.65-.58-1.21-2.37-2.27-3.44-3-3.63-2.52-5.95-4.84-5.95-9.53,0-5.08,2.95-9.53,8.42-9.53,2.18,0,3.77.48,5.66,1.55v6.24Z"/>
      <path class="cls-3" d="M95.75,45.36c2.03,0,3.63.05,5.42,1.06,3,1.69,4.4,5.18,4.4,8.51,0,6.77-4.79,9.92-11.17,9.43v13.26h-6.39v-32.27h7.74ZM94.79,59c2.9,0,4.45-1.02,4.45-4.11,0-2.56-.87-4.35-3.73-4.35h-1.11v8.47h.39Z"/>
      <path class="cls-3" d="M108.33,77.63v-32.27h6.39v32.27h-6.39Z"/>
      <path class="cls-3" d="M133,77.63l-7.93-19.45c.24,1.21.34,2.47.34,3.68v15.77h-6.39v-32.27h6.05l7.93,19.5c-.29-1.45-.48-2.9-.48-4.35v-15.14h6.48v32.27h-6Z"/>
      <path class="cls-3" d="M156.61,52.67c-1.31-1.11-2.81-2.08-4.6-2.08-1.89,0-3.19,1.26-3.19,3.14,0,5.56,9.68,5.47,9.68,14.47,0,5.56-3.34,9.97-9.19,9.97-1.98,0-3.92-.53-5.56-1.65v-6.1c1.45.97,2.95,1.74,4.74,1.74,2.18,0,3.77-1.35,3.77-3.58,0-.58-.1-1.11-.34-1.65-.58-1.21-2.37-2.27-3.44-3-3.63-2.52-5.95-4.84-5.95-9.53,0-5.08,2.95-9.53,8.42-9.53,2.18,0,3.77.48,5.66,1.55v6.24Z"/>
    </g>
    <g>
      <path class="cls-2" d="M53.47,65.87v7.6h-6.19v-7.6h-9.34v-4.98l8.56-19.69h6.97v19.16h2.61v5.51h-2.61ZM47.28,48.55l-4.74,11.8h4.74v-11.8Z"/>
      <path class="cls-2" d="M83.13,48.5c-1.31-1.11-2.81-2.08-4.6-2.08-1.89,0-3.19,1.26-3.19,3.14,0,5.56,9.68,5.47,9.68,14.47,0,5.56-3.34,9.97-9.19,9.97-1.98,0-3.92-.53-5.56-1.65v-6.1c1.45.97,2.95,1.74,4.74,1.74,2.18,0,3.77-1.35,3.77-3.58,0-.58-.1-1.11-.34-1.65-.58-1.21-2.37-2.27-3.44-3-3.63-2.52-5.95-4.84-5.95-9.53,0-5.08,2.95-9.53,8.42-9.53,2.18,0,3.77.48,5.66,1.55v6.24Z"/>
      <path class="cls-2" d="M95.75,41.19c2.03,0,3.63.05,5.42,1.06,3,1.69,4.4,5.18,4.4,8.51,0,6.77-4.79,9.92-11.17,9.43v13.26h-6.39v-32.27h7.74ZM94.79,54.84c2.9,0,4.45-1.02,4.45-4.11,0-2.56-.87-4.35-3.73-4.35h-1.11v8.47h.39Z"/>
      <path class="cls-2" d="M108.33,73.46v-32.27h6.39v32.27h-6.39Z"/>
      <path class="cls-2" d="M133,73.46l-7.93-19.45c.24,1.21.34,2.47.34,3.68v15.77h-6.39v-32.27h6.05l7.93,19.5c-.29-1.45-.48-2.9-.48-4.35v-15.14h6.48v32.27h-6Z"/>
      <path class="cls-2" d="M156.61,48.5c-1.31-1.11-2.81-2.08-4.6-2.08-1.89,0-3.19,1.26-3.19,3.14,0,5.56,9.68,5.47,9.68,14.47,0,5.56-3.34,9.97-9.19,9.97-1.98,0-3.92-.53-5.56-1.65v-6.1c1.45.97,2.95,1.74,4.74,1.74,2.18,0,3.77-1.35,3.77-3.58,0-.58-.1-1.11-.34-1.65-.58-1.21-2.37-2.27-3.44-3-3.63-2.52-5.95-4.84-5.95-9.53,0-5.08,2.95-9.53,8.42-9.53,2.18,0,3.77.48,5.66,1.55v6.24Z"/>
    </g>
  </g>
</svg>