<?xml version="1.0" encoding="UTF-8"?>
<svg id="Layer_2" data-name="Layer 2" xmlns="http://www.w3.org/2000/svg" viewBox="0 0 200 131.45">
  <defs>
    <style>
      .cls-1 {
        fill: #000;
        stroke-width: 0px;
      }

      .cls-2 {
        fill: #fff;
      }

      .cls-2, .cls-3 {
        stroke: #231f20;
      }

      .cls-2, .cls-3, .cls-4 {
        stroke-miterlimit: 10;
      }

      .cls-3 {
        fill: #231f20;
      }

      .cls-4 {
        fill: #e45525;
        stroke: #000;
        stroke-width: .71px;
      }
    </style>
  </defs>
  <g id="Butoes">
    <g>
      <path class="cls-1" d="M199.98,0H4.79L0,116.14l5.21,15.31h194.79l-.21-15.31.2-116.14ZM5.72.9l4.96,17.79h188.3l-.18,96.51H1.03L5.72.9Z"/>
      <polygon class="cls-4" points="199.01 .9 198.8 115.2 1.03 115.2 5.72 .9 199.01 .9"/>
    </g>
    <g>
      <g>
        <path class="cls-3" d="M52.95,76.24v-14.27h-6.43v14.27h-6.38v-32.27h6.38v11.95h6.43v-11.95h6.39v32.27h-6.39Z"/>
        <path class="cls-3" d="M82.65,72.22c-1.89,2.66-5.08,4.55-8.42,4.55s-6.48-1.89-8.42-4.55c-2.47-3.39-2.9-8.03-2.9-12.09s.44-8.66,2.9-12.14c1.89-2.71,5.13-4.5,8.42-4.5s6.48,1.84,8.42,4.5c2.47,3.39,2.9,8.08,2.9,12.14s-.43,8.61-2.9,12.09ZM74.24,49.34c-4.21,0-4.55,7.69-4.55,10.64s.34,10.64,4.55,10.64,4.55-7.69,4.55-10.64-.34-10.64-4.55-10.64Z"/>
        <path class="cls-3" d="M108.15,72.22c-1.89,2.66-5.08,4.55-8.42,4.55s-6.48-1.89-8.42-4.55c-2.47-3.39-2.9-8.03-2.9-12.09s.43-8.66,2.9-12.14c1.89-2.71,5.13-4.5,8.42-4.5s6.48,1.84,8.42,4.5c2.47,3.39,2.9,8.08,2.9,12.14s-.44,8.61-2.9,12.09ZM99.73,49.34c-4.21,0-4.55,7.69-4.55,10.64s.34,10.64,4.55,10.64,4.55-7.69,4.55-10.64-.34-10.64-4.55-10.64Z"/>
        <path class="cls-3" d="M120,43.97c2.37,0,4.35.1,6.53,1.11,5.76,2.61,7.4,9.43,7.4,15.19,0,8.71-3.29,15.96-13.06,15.96h-6.24v-32.27h5.37ZM121.21,70.34c5.08.05,6.34-6.1,6.34-10.11,0-3.19-.73-7.35-3.29-9.48-1.01-.87-1.93-1.06-3.24-1.11v20.71h.19Z"/>
        <path class="cls-3" d="M137.51,76.24v-32.27h6.39v32.27h-6.39Z"/>
        <path class="cls-3" d="M148.21,76.24v-32.27h12.82v6h-6.43v6.97h5.66v6.1h-5.66v7.26h6.53v5.95h-12.92Z"/>
      </g>
      <g>
        <path class="cls-2" d="M52.95,72.07v-14.27h-6.43v14.27h-6.38v-32.27h6.38v11.95h6.43v-11.95h6.39v32.27h-6.39Z"/>
        <path class="cls-2" d="M82.65,68.06c-1.89,2.66-5.08,4.55-8.42,4.55s-6.48-1.89-8.42-4.55c-2.47-3.39-2.9-8.03-2.9-12.09s.44-8.66,2.9-12.14c1.89-2.71,5.13-4.5,8.42-4.5s6.48,1.84,8.42,4.5c2.47,3.39,2.9,8.08,2.9,12.14s-.43,8.61-2.9,12.09ZM74.24,45.18c-4.21,0-4.55,7.69-4.55,10.64s.34,10.64,4.55,10.64,4.55-7.69,4.55-10.64-.34-10.64-4.55-10.64Z"/>
        <path class="cls-2" d="M108.15,68.06c-1.89,2.66-5.08,4.55-8.42,4.55s-6.48-1.89-8.42-4.55c-2.47-3.39-2.9-8.03-2.9-12.09s.43-8.66,2.9-12.14c1.89-2.71,5.13-4.5,8.42-4.5s6.48,1.84,8.42,4.5c2.47,3.39,2.9,8.08,2.9,12.14s-.44,8.61-2.9,12.09ZM99.73,45.18c-4.21,0-4.55,7.69-4.55,10.64s.34,10.64,4.55,10.64,4.55-7.69,4.55-10.64-.34-10.64-4.55-10.64Z"/>
        <path class="cls-2" d="M120,39.81c2.37,0,4.35.1,6.53,1.11,5.76,2.61,7.4,9.43,7.4,15.19,0,8.71-3.29,15.96-13.06,15.96h-6.24v-32.27h5.37ZM121.21,66.17c5.08.05,6.34-6.1,6.34-10.11,0-3.19-.73-7.35-3.29-9.48-1.01-.87-1.93-1.06-3.24-1.11v20.71h.19Z"/>
        <path class="cls-2" d="M137.51,72.07v-32.27h6.39v32.27h-6.39Z"/>
        <path class="cls-2" d="M148.21,72.07v-32.27h12.82v6h-6.43v6.97h5.66v6.1h-5.66v7.26h6.53v5.95h-12.92Z"/>
      </g>
    </g>
  </g>
</svg>