<?xml version="1.0" encoding="UTF-8"?>
<svg id="Layer_2" data-name="Layer 2" xmlns="http://www.w3.org/2000/svg" viewBox="0 0 1200 770.12">
  <defs>
    <style>
      .cls-1 {
        fill: #e55525;
      }

      .cls-1, .cls-2 {
        stroke-width: 0px;
      }

      .cls-3 {
        fill: #852d05;
      }

      .cls-2 {
        fill: #fff;
      }
    </style>
  </defs>
  <g id="Layer_4" data-name="Layer 4">
    <path class="cls-3" d="M34.1,231.7L1148.22.9c26.54-5.5,51.44,14.76,51.46,41.87l.32,684.55c.01,23.64-19.15,42.81-42.79,42.8l-1114.44-.34c-23.62,0-42.77-19.16-42.77-42.78v-453.41c0-20.28,14.24-37.78,34.1-41.89Z"/>
    <g>
      <path class="cls-1" d="M257.24,690.3c0-2,0-3.97,0-5.94,0-1.96,0-3.91,0-5.85,0-1.93,0-3.85,0-5.76,0-1.9,0-3.8,0-5.67s0-3.74,0-5.59,0-3.69,0-5.51c0-1.82,0-3.63,0-5.43,0-1.8,0-3.58,0-5.36,0-1.77,0-3.54,0-5.29,0-1.75,0-3.49,0-5.22,0-1.73,0-3.45,0-5.16,0-1.71,0-3.41,0-5.09s0-3.37,0-5.03,0-3.33,0-4.98,0-3.29,0-4.93,0-3.26,0-4.88,0-3.23,0-4.83c0-1.6,0-3.2,0-4.79s0-3.17,0-4.75,0-3.14,0-4.71,0-3.12,0-4.67c0-1.55,0-3.1,0-4.64,0-1.54,0-3.08,0-4.61,0-1.53,0-3.06,0-4.59,0-1.53,0-3.05,0-4.56,0-1.52,0-3.03,0-4.54,0-1.51,0-3.02,0-4.53,0-1.51,0-3.01,0-4.51,0-1.5,0-3,0-4.5s0-3,0-4.5c0-1.5,0-3,0-4.49,0-1.5,0-2.99,0-4.49,0-1.5,0-2.99,0-4.49,0-1.5,0-3,0-4.5,0-1.5,0-3,0-4.5,0-1.5,0-3.01,0-4.51,0-1.51,0-3.02,0-4.53,0-1.51,0-3.03,0-4.54s0-3.04,0-4.56,0-3.05,0-4.59c0-1.53,0-3.07,0-4.61s0-3.09,0-4.64c0-1.55,0-3.11,0-4.67,0-1.56,0-3.13,0-4.71s0-3.16,0-4.75c0-1.59,0-3.18,0-4.79,0-1.6,0-3.21,0-4.83,0-1.62,0-3.24,0-4.88,0-1.63,0-3.28,0-4.93,0-1.65,0-3.31,0-4.98,0-1.67,0-3.35,0-5.04,0-1.69,0-3.39,0-5.09,0-1.71,0-3.43,0-5.16,0-1.73,0-3.47,0-5.22s0-3.51,0-5.29,0-3.56,0-5.36c0-1.8,0-3.61,0-5.43s0-3.66,0-5.51,0-3.71,0-5.59c0-1.88,0-3.77,0-5.67,0-1.91,0-3.82,0-5.76s0-3.88,0-5.85,0-3.94,0-5.94c1.88-.3,3.68-.58,5.41-.85,1.73-.27,3.39-.53,4.99-.79s3.15-.5,4.66-.74c1.51-.24,2.98-.47,4.43-.7,1.45-.23,2.87-.45,4.29-.68,1.42-.22,2.83-.45,4.24-.67,1.42-.22,2.84-.45,4.29-.68,1.45-.23,2.92-.46,4.43-.7,1.51-.24,3.06-.48,4.66-.74,1.6-.25,3.26-.52,4.99-.79,1.73-.27,3.53-.56,5.41-.85,0-1.91,0-3.78,0-5.61,0-1.83,0-3.61,0-5.36,0-1.75,0-3.46,0-5.14s0-3.32,0-4.94,0-3.21,0-4.77c0-1.57,0-3.11,0-4.63,0-1.52,0-3.03,0-4.51,0-1.49,0-2.96,0-4.42,0-1.46,0-2.91,0-4.36,0-1.44,0-2.88,0-4.32,0-1.44,0-2.87,0-4.3,0-1.44,0-2.87,0-4.32s0-2.89,0-4.36,0-2.93,0-4.42c0-1.49,0-2.99,0-4.51,0-1.52,0-3.06,0-4.63,0-1.57,0-3.15,0-4.77,0-1.62,0-3.26,0-4.94,0-1.68,0-3.39,0-5.14,0-1.75,0-3.53,0-5.36,0-1.83,0-3.69,0-5.6-1.95.4-3.88.8-5.79,1.2s-3.79.79-5.66,1.17-3.71.77-5.54,1.15-3.63.75-5.42,1.12c-1.79.37-3.56.74-5.32,1.1s-3.49.72-5.21,1.08c-1.72.36-3.43.71-5.12,1.06s-3.36.7-5.03,1.04-3.31.69-4.94,1.02c-1.63.34-3.25.67-4.86,1.01-1.61.33-3.2.66-4.79.99-1.58.33-3.16.65-4.72.98s-3.12.65-4.66.97c-1.54.32-3.08.64-4.61.95-1.53.32-3.05.63-4.56.94-1.51.31-3.02.63-4.52.94-1.5.31-2.99.62-4.48.93-1.49.31-2.97.62-4.45.92-1.48.31-2.95.61-4.43.92-1.47.3-2.94.61-4.41.91-1.47.3-2.93.61-4.4.91-1.46.3-2.93.61-4.39.91s-2.93.61-4.39.91-2.93.61-4.4.91c-1.47.3-2.94.61-4.41.91s-2.95.61-4.43.92c-1.48.31-2.96.61-4.45.92s-2.98.62-4.48.93c-1.5.31-3,.62-4.52.94-1.51.31-3.03.63-4.56.94-1.53.32-3.06.63-4.61.95-1.54.32-3.1.64-4.66.97s-3.14.65-4.72.98c-1.58.33-3.18.66-4.79.99-1.61.33-3.23.67-4.86,1.01-1.63.34-3.28.68-4.94,1.02-1.66.34-3.33.69-5.02,1.04-1.69.35-3.39.7-5.12,1.06-1.72.36-3.46.72-5.21,1.08-1.75.36-3.53.73-5.31,1.1s-3.6.75-5.42,1.12c-1.83.38-3.67.76-5.54,1.15s-3.75.78-5.66,1.17c-1.91.4-3.84.79-5.79,1.2,0,2,0,3.94,0,5.83,0,1.89,0,3.73,0,5.53,0,1.8,0,3.56,0,5.28s0,3.4,0,5.05,0,3.27,0,4.87c0,1.6,0,3.17,0,4.72s0,3.09,0,4.61c0,1.52,0,3.03,0,4.54,0,1.5,0,3,0,4.5s0,3,0,4.5c0,1.5,0,3.01,0,4.54s0,3.06,0,4.61c0,1.55,0,3.12,0,4.72s0,3.22,0,4.87,0,3.33,0,5.05c0,1.72,0,3.48,0,5.28,0,1.8,0,3.64,0,5.53,0,1.89,0,3.83,0,5.83,1.88-.3,3.68-.58,5.41-.85s3.39-.53,4.99-.79,3.15-.5,4.66-.74c1.51-.24,2.98-.47,4.43-.7,1.45-.23,2.87-.45,4.29-.68s2.83-.45,4.24-.67,2.84-.45,4.29-.68c1.45-.23,2.92-.46,4.43-.7,1.51-.24,3.06-.48,4.66-.74,1.6-.25,3.26-.52,4.99-.79s3.53-.56,5.41-.85c0,1.98,0,3.94,0,5.89,0,1.95,0,3.88,0,5.79,0,1.91,0,3.81,0,5.7s0,3.75,0,5.61c0,1.86,0,3.7,0,5.52,0,1.83,0,3.64,0,5.44,0,1.8,0,3.59,0,5.36s0,3.54,0,5.29c0,1.75,0,3.49,0,5.21s0,3.44,0,5.14c0,1.7,0,3.4,0,5.08s0,3.35,0,5.02c0,1.66,0,3.31,0,4.96,0,1.64,0,3.28,0,4.9,0,1.62,0,3.24,0,4.85s0,3.21,0,4.8,0,3.18,0,4.75c0,1.58,0,3.15,0,4.71s0,3.12,0,4.67c0,1.55,0,3.09,0,4.63s0,3.07,0,4.6c0,1.53,0,3.05,0,4.57,0,1.52,0,3.03,0,4.54,0,1.51,0,3.02,0,4.52,0,1.5,0,3,0,4.5,0,1.5,0,2.99,0,4.49,0,1.49,0,2.98,0,4.47s0,2.98,0,4.46,0,2.97,0,4.46,0,2.97,0,4.45c0,1.48,0,2.97,0,4.45,0,1.48,0,2.97,0,4.46,0,1.49,0,2.97,0,4.46,0,1.49,0,2.98,0,4.47,0,1.49,0,2.99,0,4.49s0,3,0,4.5c0,1.5,0,3.01,0,4.52,0,1.51,0,3.03,0,4.54s0,3.04,0,4.57c0,1.53,0,3.06,0,4.6,0,1.54,0,3.08,0,4.63s0,3.11,0,4.67c0,1.56,0,3.13,0,4.71s0,3.16,0,4.75,0,3.19,0,4.8,0,3.22,0,4.85,0,3.26,0,4.9,0,3.29,0,4.96c0,1.66,0,3.33,0,5.02s0,3.37,0,5.08,0,3.42,0,5.14c0,1.73,0,3.46,0,5.21,0,1.75,0,3.51,0,5.29,0,1.77,0,3.56,0,5.36,0,1.8,0,3.61,0,5.44,0,1.83,0,3.67,0,5.52,0,1.86,0,3.72,0,5.61,0,1.88,0,3.78,0,5.7,0,1.91,0,3.84,0,5.79,0,1.95,0,3.91,0,5.89h111.03Z"/>
      <path class="cls-1" d="M432.59,690.3c0-1.96,0-3.88,0-5.79,0-1.9,0-3.78,0-5.63,0-1.85,0-3.68,0-5.49s0-3.59,0-5.35,0-3.5,0-5.23c0-1.72,0-3.42,0-5.11s0-3.35,0-5c0-1.65,0-3.28,0-4.9,0-1.62,0-3.22,0-4.81,0-1.59,0-3.16,0-4.73,0-1.56,0-3.11,0-4.66,0-1.54,0-3.07,0-4.59,0-1.52,0-3.03,0-4.54,0-1.5,0-3,0-4.49,0-1.49,0-2.98,0-4.46,0-1.48,0-2.96,0-4.43,0-1.47,0-2.94,0-4.41,0-1.47,0-2.93,0-4.4,0-1.47,0-2.93,0-4.4s0-2.94,0-4.41,0-2.95,0-4.43,0-2.97,0-4.46c0-1.49,0-2.99,0-4.49,0-1.5,0-3.02,0-4.54,0-1.52,0-3.05,0-4.59,0-1.54,0-3.09,0-4.66,0-1.56,0-3.14,0-4.73,0-1.59,0-3.19,0-4.81,0-1.62,0-3.25,0-4.9,0-1.65,0-3.32,0-5,0-1.68,0-3.39,0-5.11,0-1.72,0-3.46,0-5.23,0-1.76,0-3.55,0-5.35,0-1.81,0-3.64,0-5.49,0-1.85,0-3.73,0-5.63,0-1.9,0-3.83,0-5.79,1.78-.14,3.45-.28,5.04-.41,1.59-.13,3.09-.25,4.54-.37,1.45-.12,2.84-.23,4.2-.34,1.36-.11,2.7-.22,4.04-.33,1.34-.11,2.67-.22,4.04-.33,1.36-.11,2.76-.22,4.2-.34,1.45-.12,2.95-.24,4.54-.37,1.59-.13,3.26-.26,5.04-.41,0,1.99,0,3.95,0,5.88s0,3.84,0,5.73,0,3.74,0,5.58,0,3.65,0,5.44c0,1.79,0,3.56,0,5.31,0,1.75,0,3.48,0,5.19,0,1.71,0,3.41,0,5.08,0,1.68,0,3.34,0,4.98,0,1.64,0,3.27,0,4.89,0,1.62,0,3.22,0,4.81,0,1.59,0,3.17,0,4.73,0,1.57,0,3.12,0,4.67,0,1.55,0,3.08,0,4.61,0,1.53,0,3.05,0,4.57,0,1.52,0,3.02,0,4.53,0,1.5,0,3,0,4.5,0,1.5,0,2.99,0,4.48s0,2.98,0,4.47c0,1.49,0,2.98,0,4.47,0,1.49,0,2.99,0,4.48s0,3,0,4.5c0,1.5,0,3.01,0,4.53s0,3.04,0,4.57c0,1.53,0,3.07,0,4.61,0,1.55,0,3.1,0,4.67,0,1.57,0,3.14,0,4.73,0,1.59,0,3.19,0,4.81,0,1.62,0,3.24,0,4.89,0,1.64,0,3.3,0,4.98,0,1.68,0,3.37,0,5.08,0,1.71,0,3.44,0,5.19,0,1.75,0,3.52,0,5.31s0,3.6,0,5.44c0,1.84,0,3.69,0,5.58,0,1.88,0,3.79,0,5.73s0,3.89,0,5.88h108.27c0-1.99,0-3.97,0-5.95,0-1.97,0-3.93,0-5.89,0-1.95,0-3.89,0-5.83,0-1.93,0-3.86,0-5.77,0-1.91,0-3.82,0-5.71,0-1.89,0-3.78,0-5.66,0-1.88,0-3.74,0-5.6,0-1.86,0-3.71,0-5.55s0-3.67,0-5.5c0-1.82,0-3.64,0-5.45s0-3.61,0-5.4c0-1.79,0-3.57,0-5.35,0-1.77,0-3.54,0-5.3s0-3.51,0-5.26,0-3.48,0-5.21c0-1.73,0-3.45,0-5.17,0-1.72,0-3.43,0-5.13,0-1.7,0-3.4,0-5.09,0-1.69,0-3.37,0-5.05,0-1.68,0-3.35,0-5.01s0-3.32,0-4.97c0-1.65,0-3.3,0-4.94,0-1.64,0-3.28,0-4.91,0-1.63,0-3.25,0-4.87,0-1.62,0-3.23,0-4.84s0-3.21,0-4.81c0-1.6,0-3.19,0-4.78s0-3.18,0-4.76c0-1.58,0-3.16,0-4.73,0-1.57,0-3.14,0-4.71,0-1.56,0-3.13,0-4.68,0-1.56,0-3.11,0-4.66,0-1.55,0-3.1,0-4.64,0-1.54,0-3.08,0-4.62,0-1.54,0-3.07,0-4.6,0-1.53,0-3.06,0-4.59,0-1.53,0-3.05,0-4.57,0-1.52,0-3.04,0-4.56,0-1.52,0-3.03,0-4.54,0-1.51,0-3.02,0-4.53,0-1.51,0-3.02,0-4.52,0-1.51,0-3.01,0-4.51,0-1.5,0-3,0-4.5,0-1.5,0-3,0-4.5,0-1.5,0-3,0-4.49,0-1.5,0-2.99,0-4.49,0-1.5,0-2.99,0-4.49,0-1.49,0-2.99,0-4.48,0-1.49,0-2.99,0-4.48,0-1.49,0-2.99,0-4.49,0-1.5,0-2.99,0-4.49,0-1.5,0-2.99,0-4.49s0-3,0-4.5c0-1.5,0-3,0-4.5,0-1.5,0-3.01,0-4.51,0-1.51,0-3.01,0-4.52,0-1.51,0-3.02,0-4.53,0-1.51,0-3.03,0-4.54,0-1.52,0-3.03,0-4.56,0-1.52,0-3.04,0-4.57,0-1.53,0-3.05,0-4.59s0-3.07,0-4.6c0-1.54,0-3.08,0-4.62,0-1.54,0-3.09,0-4.64s0-3.1,0-4.66c0-1.56,0-3.12,0-4.68,0-1.56,0-3.13,0-4.71,0-1.57,0-3.15,0-4.73,0-1.58,0-3.17,0-4.76,0-1.59,0-3.18,0-4.78,0-1.6,0-3.2,0-4.81,0-1.61,0-3.22,0-4.84,0-1.62,0-3.24,0-4.87,0-1.63,0-3.27,0-4.91,0-1.64,0-3.29,0-4.94,0-1.65,0-3.31,0-4.97s0-3.33,0-5.01c0-1.68,0-3.36,0-5.05s0-3.39,0-5.09c0-1.7,0-3.41,0-5.13,0-1.72,0-3.44,0-5.17,0-1.73,0-3.47,0-5.21,0-1.74,0-3.5,0-5.26,0-1.76,0-3.53,0-5.3s0-3.56,0-5.35,0-3.59,0-5.4c0-1.81,0-3.62,0-5.45s0-3.66,0-5.5c0-1.84,0-3.69,0-5.55s0-3.72,0-5.6c0-1.88,0-3.76,0-5.66s0-3.8,0-5.71c0-1.91,0-3.84,0-5.77,0-1.93,0-3.87,0-5.83,0-1.95,0-3.91,0-5.89,0-1.97,0-3.95,0-5.95-1.88.39-3.72.77-5.53,1.15-1.8.37-3.57.74-5.3,1.1-1.73.36-3.43.71-5.1,1.06-1.67.35-3.31.69-4.92,1.02s-3.2.66-4.76.99-3.1.64-4.62.96c-1.52.31-3.02.63-4.5.93-1.48.31-2.95.61-4.41.91-1.46.3-2.9.6-4.33.9-1.43.3-2.86.59-4.28.89s-2.83.59-4.25.88-2.82.58-4.24.88-2.83.59-4.25.88-2.84.59-4.28.89c-1.43.3-2.88.6-4.33.9-1.46.3-2.92.61-4.41.91s-2.98.62-4.5.93c-1.52.31-3.06.63-4.62.96-1.56.32-3.15.65-4.76.99-1.61.33-3.25.67-4.92,1.02-1.67.35-3.37.7-5.1,1.06-1.73.36-3.5.72-5.3,1.1s-3.65.76-5.53,1.15c0,1.99,0,3.94,0,5.87,0,1.93,0,3.82,0,5.69,0,1.87,0,3.71,0,5.52,0,1.81,0,3.6,0,5.37,0,1.76,0,3.51,0,5.22,0,1.72,0,3.42,0,5.09,0,1.68,0,3.34,0,4.98,0,1.64,0,3.26,0,4.87,0,1.61,0,3.2,0,4.78,0,1.58,0,3.14,0,4.7,0,1.55,0,3.1,0,4.63,0,1.53,0,3.06,0,4.57s0,3.03,0,4.53,0,3,0,4.5c0,1.5,0,2.99,0,4.48s0,2.98,0,4.47c0,1.49,0,2.98,0,4.48s0,2.99,0,4.5,0,3.01,0,4.53,0,3.04,0,4.57,0,3.08,0,4.63,0,3.12,0,4.7c0,1.58,0,3.17,0,4.78,0,1.61,0,3.23,0,4.87,0,1.64,0,3.3,0,4.98,0,1.68,0,3.38,0,5.09,0,1.72,0,3.46,0,5.22,0,1.76,0,3.55,0,5.37s0,3.65,0,5.52,0,3.76,0,5.69c0,1.93,0,3.88,0,5.87-1.78.24-3.45.47-5.04.69-1.59.22-3.09.42-4.54.62-1.45.2-2.84.39-4.2.58-1.36.19-2.7.37-4.03.55-1.34.18-2.67.37-4.03.55-1.36.19-2.75.38-4.2.58-1.45.2-2.95.4-4.54.62-1.59.22-3.26.45-5.04.69,0-1.96,0-3.88,0-5.78,0-1.89,0-3.76,0-5.6,0-1.84,0-3.65,0-5.43,0-1.78,0-3.54,0-5.28s0-3.45,0-5.14c0-1.69,0-3.36,0-5.01s0-3.28,0-4.9,0-3.21,0-4.79c0-1.58,0-3.15,0-4.7,0-1.55,0-3.09,0-4.62,0-1.53,0-3.05,0-4.55,0-1.51,0-3.01,0-4.5,0-1.49,0-2.98,0-4.46s0-2.95,0-4.43c0-1.47,0-2.94,0-4.41,0-1.47,0-2.93,0-4.4,0-1.47,0-2.94,0-4.41,0-1.47,0-2.95,0-4.43,0-1.48,0-2.96,0-4.46,0-1.49,0-2.99,0-4.5,0-1.51,0-3.03,0-4.55,0-1.53,0-3.07,0-4.62,0-1.55,0-3.12,0-4.7,0-1.58,0-3.18,0-4.79,0-1.61,0-3.25,0-4.9,0-1.65,0-3.32,0-5.01,0-1.69,0-3.4,0-5.14,0-1.74,0-3.5,0-5.28,0-1.78,0-3.59,0-5.43,0-1.84,0-3.7,0-5.6,0-1.89,0-3.82,0-5.77-1.87.39-3.71.77-5.5,1.14-1.8.37-3.56.74-5.28,1.09s-3.42.71-5.08,1.05-3.29.68-4.9,1.01c-1.6.33-3.18.66-4.74.98-1.56.32-3.09.64-4.6.95-1.51.31-3.01.62-4.48.93-1.48.31-2.94.61-4.39.91s-2.89.6-4.31.89-2.85.59-4.26.88-2.82.58-4.23.88c-1.41.29-2.81.58-4.22.87s-2.81.58-4.23.88-2.83.59-4.26.88-2.86.59-4.31.89c-1.45.3-2.91.6-4.39.91s-2.97.62-4.48.93c-1.51.31-3.05.63-4.6.95-1.56.32-3.13.65-4.74.98-1.6.33-3.24.67-4.9,1.01-1.66.34-3.35.69-5.08,1.05s-3.48.72-5.28,1.09-3.63.75-5.5,1.14c0,1.98,0,3.95,0,5.91,0,1.96,0,3.91,0,5.84,0,1.94,0,3.86,0,5.78s0,3.82,0,5.71c0,1.89,0,3.78,0,5.65,0,1.87,0,3.74,0,5.59s0,3.7,0,5.53,0,3.66,0,5.47,0,3.62,0,5.42c0,1.8,0,3.58,0,5.36,0,1.78,0,3.55,0,5.31,0,1.76,0,3.51,0,5.26,0,1.74,0,3.48,0,5.21s0,3.45,0,5.16c0,1.71,0,3.42,0,5.11s0,3.39,0,5.07c0,1.68,0,3.36,0,5.02,0,1.67,0,3.33,0,4.98,0,1.65,0,3.3,0,4.94,0,1.64,0,3.28,0,4.9,0,1.63,0,3.25,0,4.87,0,1.62,0,3.23,0,4.83,0,1.6,0,3.2,0,4.8,0,1.59,0,3.18,0,4.77,0,1.58,0,3.16,0,4.74,0,1.57,0,3.14,0,4.71,0,1.56,0,3.12,0,4.68,0,1.56,0,3.11,0,4.65,0,1.55,0,3.09,0,4.63s0,3.07,0,4.61,0,3.06,0,4.59,0,3.05,0,4.57c0,1.52,0,3.04,0,4.55s0,3.02,0,4.53c0,1.51,0,3.01,0,4.52,0,1.5,0,3.01,0,4.51s0,3,0,4.49,0,2.99,0,4.48c0,1.49,0,2.99,0,4.48s0,2.98,0,4.47c0,1.49,0,2.98,0,4.47s0,2.97,0,4.46,0,2.97,0,4.46c0,1.49,0,2.97,0,4.46,0,1.49,0,2.97,0,4.46,0,1.49,0,2.98,0,4.47s0,2.98,0,4.47,0,2.98,0,4.48c0,1.49,0,2.99,0,4.48,0,1.5,0,2.99,0,4.49,0,1.5,0,3,0,4.51,0,1.5,0,3.01,0,4.52,0,1.51,0,3.02,0,4.53,0,1.51,0,3.03,0,4.55,0,1.52,0,3.04,0,4.57,0,1.53,0,3.05,0,4.59,0,1.53,0,3.07,0,4.61s0,3.08,0,4.63c0,1.55,0,3.1,0,4.65,0,1.56,0,3.11,0,4.68,0,1.56,0,3.13,0,4.71,0,1.57,0,3.15,0,4.74,0,1.58,0,3.17,0,4.77,0,1.59,0,3.19,0,4.8,0,1.6,0,3.22,0,4.83,0,1.62,0,3.24,0,4.87,0,1.63,0,3.26,0,4.9,0,1.64,0,3.29,0,4.94,0,1.65,0,3.31,0,4.98,0,1.67,0,3.34,0,5.02,0,1.68,0,3.37,0,5.07,0,1.7,0,3.4,0,5.11s0,3.43,0,5.16,0,3.46,0,5.21c0,1.74,0,3.5,0,5.26s0,3.53,0,5.31,0,3.57,0,5.36,0,3.6,0,5.42,0,3.64,0,5.47c0,1.83,0,3.68,0,5.53s0,3.72,0,5.59,0,3.76,0,5.65,0,3.8,0,5.71c0,1.92,0,3.84,0,5.78,0,1.94,0,3.88,0,5.84,0,1.96,0,3.93,0,5.91h107.8Z"/>
      <path class="cls-1" d="M816.15,690.3c1.37,0,2.7-.12,3.99-.35,1.3-.24,2.56-.59,3.79-1.06,1.23-.47,2.42-1.07,3.58-1.78,1.16-.71,2.28-1.54,3.37-2.49s2.14-2.02,3.16-3.21c1.02-1.19,2.01-2.5,2.96-3.93.95-1.43,1.87-2.98,2.75-4.65.62-1.17,1.2-2.37,1.76-3.6s1.08-2.48,1.57-3.77.96-2.6,1.39-3.94c.43-1.34.83-2.72,1.2-4.12.37-1.4.71-2.83,1.02-4.29s.59-2.95.83-4.46c.25-1.52.46-3.06.65-4.64.19-1.57.34-3.18.46-4.81.12-1.63.22-3.29.28-4.98.06-1.69.09-3.4.09-5.15,0-1.99,0-3.96,0-5.92,0-1.96,0-3.91,0-5.85,0-1.94,0-3.87,0-5.79,0-1.92,0-3.82,0-5.72,0-1.9,0-3.78,0-5.65,0-1.87,0-3.74,0-5.59,0-1.85,0-3.7,0-5.53,0-1.83,0-3.66,0-5.47,0-1.81,0-3.62,0-5.41,0-1.79,0-3.58,0-5.36,0-1.78,0-3.54,0-5.3,0-1.76,0-3.51,0-5.25,0-1.74,0-3.47,0-5.2,0-1.72,0-3.44,0-5.15s0-3.41,0-5.1,0-3.38,0-5.06c0-1.68,0-3.35,0-5.01,0-1.66,0-3.32,0-4.97,0-1.65,0-3.29,0-4.93,0-1.64,0-3.27,0-4.89,0-1.62,0-3.24,0-4.85s0-3.22,0-4.82c0-1.6,0-3.19,0-4.78,0-1.59,0-3.17,0-4.75,0-1.58,0-3.15,0-4.72,0-1.57,0-3.13,0-4.69,0-1.56,0-3.11,0-4.66s0-3.1,0-4.64,0-3.08,0-4.62,0-3.07,0-4.59,0-3.05,0-4.58c0-1.52,0-3.04,0-4.56,0-1.52,0-3.03,0-4.54s0-3.02,0-4.53c0-1.51,0-3.01,0-4.51,0-1.5,0-3,0-4.5s0-3,0-4.49c0-1.5,0-2.99,0-4.48,0-1.49,0-2.99,0-4.48,0-1.49,0-2.98,0-4.47,0-1.49,0-2.98,0-4.47,0-1.49,0-2.98,0-4.47,0-1.49,0-2.98,0-4.47,0-1.49,0-2.98,0-4.47,0-1.49,0-2.98,0-4.48s0-2.99,0-4.48c0-1.5,0-2.99,0-4.49,0-1.5,0-3,0-4.5,0-1.5,0-3.01,0-4.51s0-3.01,0-4.53c0-1.51,0-3.02,0-4.54,0-1.52,0-3.03,0-4.56s0-3.05,0-4.58c0-1.53,0-3.06,0-4.59s0-3.07,0-4.62c0-1.54,0-3.09,0-4.64,0-1.55,0-3.11,0-4.66s0-3.12,0-4.69,0-3.14,0-4.72c0-1.58,0-3.16,0-4.75s0-3.18,0-4.78c0-1.6,0-3.21,0-4.82,0-1.61,0-3.23,0-4.85,0-1.62,0-3.25,0-4.89,0-1.64,0-3.28,0-4.93,0-1.65,0-3.31,0-4.97,0-1.66,0-3.33,0-5.01,0-1.68,0-3.36,0-5.06,0-1.69,0-3.39,0-5.1s0-3.42,0-5.15c0-1.72,0-3.46,0-5.2,0-1.74,0-3.49,0-5.25s0-3.53,0-5.3c0-1.78,0-3.56,0-5.36,0-1.79,0-3.6,0-5.41,0-1.81,0-3.64,0-5.47s0-3.68,0-5.53c0-1.85,0-3.72,0-5.59,0-1.87,0-3.76,0-5.65,0-1.9,0-3.8,0-5.72,0-1.92,0-3.85,0-5.79,0-1.94,0-3.89,0-5.85,0-1.96,0-3.94,0-5.92,0-1.94-.04-3.83-.11-5.68-.08-1.85-.19-3.66-.34-5.42s-.34-3.49-.57-5.17-.49-3.32-.8-4.91c-.3-1.59-.65-3.14-1.03-4.65s-.8-2.97-1.26-4.39c-.46-1.42-.95-2.8-1.48-4.13-.53-1.33-1.1-2.62-1.71-3.87-.61-1.25-1.26-2.45-1.94-3.61-1.03-1.74-2.1-3.3-3.23-4.69-1.12-1.39-2.29-2.61-3.51-3.65-1.22-1.04-2.48-1.91-3.79-2.61-1.31-.7-2.67-1.22-4.07-1.58s-2.86-.54-4.35-.55-3.04.15-4.64.48c-1.93.4-3.84.8-5.72,1.19s-3.74.78-5.58,1.16c-1.84.38-3.65.76-5.44,1.13-1.79.37-3.56.74-5.31,1.1-1.75.36-3.48.72-5.19,1.08s-3.41.71-5.08,1.05c-1.68.35-3.33.69-4.98,1.03s-3.27.68-4.88,1.01-3.21.66-4.79.99c-1.58.33-3.15.65-4.71.98s-3.1.64-4.64.96c-1.54.32-3.06.63-4.57.95-1.52.31-3.02.63-4.52.94s-2.99.62-4.47.93c-1.48.31-2.96.61-4.43.92-1.47.3-2.94.61-4.4.91-1.46.3-2.92.6-4.37.91s-2.91.6-4.36.9c-1.45.3-2.9.6-4.35.9s-2.9.6-4.35.9c-1.45.3-2.9.6-4.36.9s-2.91.6-4.37.91c-1.46.3-2.93.61-4.4.91-1.47.3-2.95.61-4.43.92s-2.97.62-4.47.93-3,.62-4.52.94c-1.52.31-3.04.63-4.58.95-1.54.32-3.08.64-4.64.96s-3.13.65-4.71.98c-1.58.33-3.18.66-4.79.99s-3.24.67-4.88,1.01c-1.64.34-3.3.68-4.98,1.03s-3.37.7-5.08,1.05c-1.71.35-3.44.71-5.19,1.08-1.75.36-3.52.73-5.31,1.1-1.79.37-3.61.75-5.44,1.13-1.84.38-3.7.77-5.58,1.16-1.88.39-3.79.79-5.72,1.19-1.37.28-2.7.67-3.99,1.16-1.3.49-2.56,1.08-3.79,1.77-1.23.69-2.42,1.48-3.58,2.37-1.16.89-2.28,1.88-3.37,2.98s-2.14,2.29-3.16,3.58c-1.02,1.29-2,2.69-2.96,4.18s-1.87,3.08-2.75,4.78c-.69,1.32-1.33,2.66-1.94,4.02-.61,1.36-1.18,2.75-1.72,4.16-.53,1.41-1.03,2.84-1.49,4.3-.46,1.46-.88,2.94-1.26,4.44-.38,1.51-.72,3.03-1.03,4.59-.3,1.55-.57,3.13-.8,4.73-.23,1.6-.42,3.23-.57,4.88-.15,1.65-.27,3.32-.34,5.02-.08,1.7-.12,3.42-.12,5.17,0,1.99,0,3.96,0,5.92s0,3.91,0,5.84c0,1.93,0,3.86,0,5.77,0,1.91,0,3.81,0,5.69,0,1.89,0,3.76,0,5.62s0,3.71,0,5.55,0,3.67,0,5.49c0,1.82,0,3.63,0,5.42,0,1.8,0,3.58,0,5.36,0,1.78,0,3.54,0,5.3,0,1.76,0,3.5,0,5.24,0,1.74,0,3.47,0,5.19s0,3.43,0,5.13c0,1.7,0,3.39,0,5.08,0,1.68,0,3.36,0,5.03,0,1.67,0,3.33,0,4.98,0,1.65,0,3.3,0,4.94,0,1.64,0,3.27,0,4.89,0,1.62,0,3.24,0,4.85,0,1.61,0,3.21,0,4.81,0,1.6,0,3.19,0,4.78,0,1.59,0,3.17,0,4.74,0,1.57,0,3.14,0,4.71,0,1.56,0,3.12,0,4.68,0,1.55,0,3.1,0,4.65,0,1.54,0,3.09,0,4.62,0,1.54,0,3.07,0,4.6,0,1.53,0,3.05,0,4.58,0,1.52,0,3.04,0,4.56,0,1.52,0,3.03,0,4.54,0,1.51,0,3.02,0,4.52,0,1.5,0,3.01,0,4.51,0,1.5,0,3,0,4.5,0,1.5,0,2.99,0,4.49,0,1.49,0,2.99,0,4.48,0,1.49,0,2.98,0,4.47,0,1.49,0,2.98,0,4.47,0,1.49,0,2.98,0,4.47,0,1.49,0,2.98,0,4.47,0,1.49,0,2.98,0,4.47,0,1.49,0,2.98,0,4.48,0,1.49,0,2.99,0,4.49,0,1.5,0,3,0,4.5,0,1.5,0,3,0,4.51,0,1.5,0,3.01,0,4.52,0,1.51,0,3.02,0,4.54,0,1.52,0,3.03,0,4.56,0,1.52,0,3.05,0,4.58,0,1.53,0,3.06,0,4.6,0,1.54,0,3.08,0,4.62,0,1.54,0,3.09,0,4.65,0,1.55,0,3.11,0,4.68,0,1.56,0,3.13,0,4.71,0,1.57,0,3.15,0,4.74,0,1.59,0,3.18,0,4.78,0,1.6,0,3.2,0,4.81,0,1.61,0,3.23,0,4.85,0,1.62,0,3.25,0,4.89s0,3.28,0,4.94c0,1.65,0,3.31,0,4.98,0,1.67,0,3.34,0,5.03,0,1.68,0,3.38,0,5.08,0,1.7,0,3.41,0,5.13,0,1.72,0,3.45,0,5.19,0,1.74,0,3.48,0,5.24,0,1.76,0,3.52,0,5.3,0,1.78,0,3.56,0,5.36s0,3.6,0,5.42c0,1.82,0,3.65,0,5.49,0,1.84,0,3.69,0,5.55s0,3.74,0,5.62,0,3.78,0,5.69c0,1.91,0,3.83,0,5.77,0,1.93,0,3.88,0,5.84,0,1.96,0,3.93,0,5.92,0,1.75.04,3.47.11,5.15s.19,3.34.34,4.96.34,3.21.57,4.76c.23,1.55.49,3.08.8,4.57s.65,2.95,1.03,4.37.8,2.82,1.25,4.18.95,2.69,1.48,3.99,1.1,2.57,1.71,3.8c.61,1.24,1.26,2.44,1.94,3.62,1.03,1.76,2.1,3.38,3.22,4.85,1.12,1.47,2.29,2.8,3.51,3.97,1.22,1.18,2.48,2.21,3.79,3.1,1.31.89,2.67,1.62,4.07,2.22,1.41.59,2.86,1.04,4.36,1.33,1.5.3,3.05.45,4.64.45h183.69ZM711.38,590.62c-.81-.91-1.52-1.98-2.12-3.22-.61-1.24-1.11-2.64-1.52-4.22-.4-1.57-.71-3.31-.91-5.21-.2-1.9-.3-3.97-.3-6.21,0-1.99,0-3.96,0-5.92s0-3.89,0-5.81,0-3.82,0-5.71c0-1.89,0-3.76,0-5.61,0-1.85,0-3.69,0-5.52,0-1.82,0-3.63,0-5.43,0-1.79,0-3.58,0-5.34s0-3.52,0-5.26c0-1.74,0-3.47,0-5.18s0-3.42,0-5.11,0-3.37,0-5.04,0-3.33,0-4.97,0-3.28,0-4.91c0-1.63,0-3.25,0-4.85,0-1.61,0-3.21,0-4.8,0-1.59,0-3.18,0-4.75,0-1.58,0-3.14,0-4.71,0-1.56,0-3.12,0-4.67s0-3.09,0-4.63c0-1.54,0-3.07,0-4.6,0-1.53,0-3.05,0-4.57,0-1.52,0-3.03,0-4.54,0-1.51,0-3.02,0-4.52s0-3.01,0-4.51,0-3,0-4.49c0-1.5,0-2.99,0-4.49s0-2.99,0-4.48c0-1.49,0-2.99,0-4.48s0-2.99,0-4.49,0-2.99,0-4.49c0-1.5,0-3,0-4.51s0-3.01,0-4.52c0-1.51,0-3.02,0-4.54s0-3.04,0-4.57c0-1.53,0-3.06,0-4.6,0-1.54,0-3.08,0-4.63,0-1.55,0-3.1,0-4.67s0-3.13,0-4.71c0-1.58,0-3.16,0-4.75,0-1.59,0-3.19,0-4.8s0-3.23,0-4.85,0-3.26,0-4.91,0-3.3,0-4.97c0-1.67,0-3.35,0-5.04s0-3.39,0-5.11,0-3.44,0-5.18c0-1.74,0-3.49,0-5.26s0-3.55,0-5.34c0-1.79,0-3.6,0-5.43s0-3.66,0-5.52c0-1.85,0-3.73,0-5.61,0-1.89,0-3.79,0-5.71,0-1.92,0-3.86,0-5.81s0-3.93,0-5.92c0-1.79.06-3.47.19-5.06.12-1.59.31-3.08.56-4.48.25-1.4.56-2.69.93-3.89.37-1.2.8-2.3,1.3-3.31s1.05-1.91,1.67-2.72c.77-1.01,1.62-1.93,2.54-2.75.93-.82,1.93-1.54,3.01-2.16,1.08-.62,2.24-1.15,3.47-1.58s2.54-.76,3.93-1c1.95-.33,3.75-.42,5.39-.28,1.64.15,3.13.53,4.47,1.15,1.34.62,2.52,1.48,3.55,2.58.77.82,1.44,1.83,2.02,3.02s1.06,2.55,1.44,4.1c.39,1.55.67,3.27.87,5.18.19,1.91.29,3.99.29,6.26,0,1.98,0,3.95,0,5.9,0,1.95,0,3.88,0,5.79,0,1.91,0,3.81,0,5.69,0,1.88,0,3.75,0,5.6s0,3.68,0,5.5c0,1.82,0,3.62,0,5.42,0,1.79,0,3.57,0,5.33,0,1.76,0,3.51,0,5.25,0,1.74,0,3.46,0,5.17s0,3.41,0,5.1c0,1.69,0,3.37,0,5.03s0,3.32,0,4.97c0,1.65,0,3.28,0,4.91,0,1.63,0,3.24,0,4.85,0,1.61,0,3.21,0,4.8,0,1.59,0,3.17,0,4.75,0,1.57,0,3.14,0,4.7,0,1.56,0,3.11,0,4.66,0,1.55,0,3.09,0,4.62,0,1.54,0,3.06,0,4.59,0,1.52,0,3.04,0,4.56,0,1.52,0,3.03,0,4.53,0,1.51,0,3.01,0,4.51,0,1.5,0,3,0,4.5,0,1.5,0,2.99,0,4.48,0,1.49,0,2.98,0,4.47,0,1.49,0,2.98,0,4.47,0,1.49,0,2.98,0,4.46,0,1.49,0,2.98,0,4.47,0,1.49,0,2.98,0,4.47,0,1.49,0,2.99,0,4.48,0,1.5,0,2.99,0,4.5,0,1.5,0,3.01,0,4.51s0,3.02,0,4.53c0,1.52,0,3.04,0,4.56,0,1.52,0,3.05,0,4.59,0,1.54,0,3.08,0,4.62,0,1.55,0,3.1,0,4.66,0,1.56,0,3.13,0,4.7,0,1.57,0,3.16,0,4.75,0,1.59,0,3.19,0,4.8,0,1.61,0,3.22,0,4.85,0,1.63,0,3.26,0,4.91s0,3.3,0,4.97c0,1.67,0,3.34,0,5.03s0,3.39,0,5.1,0,3.44,0,5.17,0,3.49,0,5.25c0,1.76,0,3.54,0,5.33s0,3.6,0,5.42,0,3.65,0,5.5c0,1.85,0,3.72,0,5.6s0,3.78,0,5.69c0,1.91,0,3.85,0,5.79s0,3.91,0,5.9c0,1.81-.06,3.52-.19,5.12-.12,1.6-.31,3.09-.56,4.48-.25,1.39-.56,2.66-.93,3.83s-.8,2.23-1.3,3.19c-.49.95-1.05,1.8-1.66,2.54-1.03,1.23-2.19,2.27-3.5,3.12s-2.74,1.49-4.32,1.95-3.29.72-5.14.79c-1.85.07-3.57-.07-5.17-.43-1.59-.36-3.06-.93-4.39-1.72-1.34-.79-2.54-1.79-3.62-3Z"/>
      <path class="cls-1" d="M979,690.3c0-1.96,0-3.89,0-5.8,0-1.91,0-3.79,0-5.65,0-1.86,0-3.69,0-5.51s0-3.6,0-5.37,0-3.52,0-5.25,0-3.44,0-5.13c0-1.69,0-3.37,0-5.03,0-1.66,0-3.3,0-4.93,0-1.63,0-3.24,0-4.84,0-1.6,0-3.18,0-4.76,0-1.57,0-3.13,0-4.68s0-3.09,0-4.62c0-1.53,0-3.05,0-4.56,0-1.51,0-3.02,0-4.52,0-1.5,0-2.99,0-4.48,0-1.49,0-2.97,0-4.45,0-1.48,0-2.95,0-4.42,0-1.47,0-2.94,0-4.41,0-1.47,0-2.94,0-4.41,0-1.47,0-2.94,0-4.41,0-1.47,0-2.95,0-4.43,0-1.48,0-2.96,0-4.45,0-1.49,0-2.98,0-4.48,0-1.5,0-3,0-4.52,0-1.51,0-3.03,0-4.56,0-1.53,0-3.07,0-4.62,0-1.55,0-3.11,0-4.68s0-3.16,0-4.76c0-1.6,0-3.21,0-4.84,0-1.63,0-3.27,0-4.93,0-1.66,0-3.33,0-5.03,0-1.69,0-3.4,0-5.13,0-1.73,0-3.48,0-5.25,0-1.77,0-3.56,0-5.37,0-1.81,0-3.65,0-5.51,0-1.86,0-3.74,0-5.65,0-1.91,0-3.84,0-5.8,1.96-.13,3.87-.26,5.75-.38,1.87-.13,3.71-.25,5.51-.37,1.8-.12,3.56-.24,5.29-.35,1.73-.12,3.43-.23,5.09-.34s3.31-.22,4.92-.33c1.62-.11,3.21-.21,4.78-.32,1.57-.1,3.12-.21,4.66-.31,1.53-.1,3.05-.2,4.56-.3,1.51-.1,3-.2,4.49-.3,1.49-.1,2.96-.2,4.44-.3,1.47-.1,2.94-.2,4.41-.29,1.47-.1,2.94-.2,4.41-.29,1.47-.1,2.95-.2,4.44-.3,1.49-.1,2.98-.2,4.49-.3,1.51-.1,3.02-.2,4.56-.3,1.53-.1,3.09-.21,4.66-.31,1.57-.1,3.16-.21,4.78-.32,1.62-.11,3.26-.22,4.92-.33,1.67-.11,3.36-.22,5.09-.34,1.73-.12,3.49-.23,5.29-.35s3.63-.24,5.51-.37c1.87-.13,3.79-.25,5.75-.38,1.36-.09,2.7-.31,3.99-.66,1.3-.35,2.56-.82,3.78-1.43,1.23-.61,2.42-1.34,3.58-2.2s2.28-1.86,3.37-2.98c1.09-1.12,2.14-2.38,3.16-3.76,1.02-1.38,2.01-2.9,2.96-4.54.95-1.64,1.87-3.42,2.75-5.33.56-1.21,1.1-2.45,1.61-3.71s.99-2.55,1.45-3.86c.46-1.31.89-2.65,1.3-4.01s.79-2.75,1.15-4.16c.36-1.41.69-2.85.99-4.31s.59-2.94.84-4.45c.25-1.51.48-3.04.69-4.6.2-1.56.38-3.14.54-4.75.15-1.61.28-3.24.38-4.89s.18-3.33.23-5.04.08-3.43.08-5.18v-49.91c0-1.72,0-3.42,0-5.11v-75.16c0-1.5,0-3,0-4.5v-75.16c0-1.69,0-3.4,0-5.11v-49.91c0-1.92-.03-3.81-.09-5.66-.06-1.85-.15-3.66-.28-5.44-.12-1.78-.28-3.51-.46-5.21-.19-1.7-.4-3.36-.65-4.99-.25-1.62-.52-3.21-.83-4.76s-.65-3.06-1.02-4.53c-.37-1.47-.77-2.91-1.2-4.3-.43-1.4-.89-2.75-1.39-4.07-.49-1.32-1.02-2.6-1.57-3.84-.55-1.24-1.14-2.45-1.76-3.61-1.03-1.94-2.1-3.69-3.23-5.25-1.12-1.56-2.29-2.93-3.51-4.11-1.22-1.18-2.48-2.17-3.79-2.97s-2.67-1.41-4.07-1.83c-1.4-.42-2.86-.66-4.35-.7s-3.04.1-4.64.43c-1.95.4-3.88.8-5.79,1.2s-3.79.79-5.66,1.17c-1.87.39-3.71.77-5.54,1.15s-3.63.75-5.42,1.12-3.56.74-5.32,1.1c-1.75.36-3.49.72-5.21,1.08-1.72.36-3.43.71-5.12,1.06-1.69.35-3.36.7-5.03,1.04s-3.31.69-4.94,1.02c-1.63.34-3.25.67-4.86,1.01-1.61.33-3.2.66-4.79.99-1.58.33-3.16.65-4.72.98-1.56.32-3.12.65-4.66.97-1.54.32-3.08.64-4.61.95-1.53.32-3.05.63-4.56.94-1.51.31-3.02.63-4.52.94-1.5.31-2.99.62-4.48.93s-2.97.62-4.45.92-2.95.61-4.43.92c-1.47.31-2.94.61-4.41.91-1.47.3-2.93.61-4.4.91-1.46.3-2.93.61-4.39.91s-2.93.61-4.39.91-2.93.61-4.4.91c-1.47.3-2.94.61-4.41.91-1.47.31-2.95.61-4.43.92-1.48.31-2.96.61-4.45.92-1.49.31-2.98.62-4.48.93-1.5.31-3,.62-4.52.94-1.51.31-3.03.63-4.56.94-1.53.32-3.06.63-4.61.95-1.54.32-3.1.64-4.66.97s-3.14.65-4.72.98c-1.59.33-3.18.66-4.79.99-1.61.33-3.23.67-4.86,1.01-1.63.34-3.28.68-4.94,1.02s-3.34.69-5.03,1.04c-1.69.35-3.4.7-5.12,1.06-1.72.36-3.46.72-5.21,1.08s-3.53.73-5.32,1.1c-1.79.37-3.6.75-5.42,1.12s-3.67.76-5.54,1.15-3.75.78-5.66,1.17c-1.91.4-3.84.79-5.79,1.2,0,2,0,3.99,0,5.97,0,1.98,0,3.95,0,5.91,0,1.96,0,3.91,0,5.86,0,1.94,0,3.88,0,5.81,0,1.93,0,3.84,0,5.75,0,1.91,0,3.81,0,5.7,0,1.89,0,3.78,0,5.66s0,3.75,0,5.61c0,1.86,0,3.71,0,5.56,0,1.85,0,3.68,0,5.51,0,1.83,0,3.65,0,5.47,0,1.82,0,3.62,0,5.42s0,3.59,0,5.38c0,1.79,0,3.57,0,5.34s0,3.54,0,5.3c0,1.76,0,3.51,0,5.26s0,3.49,0,5.22,0,3.46,0,5.18c0,1.72,0,3.44,0,5.14s0,3.41,0,5.11,0,3.39,0,5.07,0,3.36,0,5.04,0,3.34,0,5.01c0,1.66,0,3.32,0,4.97s0,3.3,0,4.94,0,3.28,0,4.91,0,3.26,0,4.88,0,3.24,0,4.86,0,3.22,0,4.83,0,3.21,0,4.8c0,1.6,0,3.19,0,4.78,0,1.59,0,3.17,0,4.76,0,1.58,0,3.16,0,4.73s0,3.14,0,4.71c0,1.57,0,3.13,0,4.69s0,3.12,0,4.67,0,3.11,0,4.65c0,1.55,0,3.09,0,4.64,0,1.54,0,3.08,0,4.62s0,3.07,0,4.6c0,1.53,0,3.06,0,4.59,0,1.53,0,3.05,0,4.58s0,3.04,0,4.56,0,3.04,0,4.55c0,1.52,0,3.03,0,4.54s0,3.02,0,4.53,0,3.02,0,4.53,0,3.01,0,4.52c0,1.5,0,3.01,0,4.51,0,1.5,0,3.01,0,4.51s0,3,0,4.5,0,3,0,4.5,0,3,0,4.5c0,1.5,0,3,0,4.5s0,3,0,4.5c0,1.5,0,3,0,4.5s0,3,0,4.5,0,3,0,4.5,0,3,0,4.51c0,1.5,0,3.01,0,4.51s0,3.01,0,4.52c0,1.51,0,3.02,0,4.53,0,1.51,0,3.02,0,4.53,0,1.51,0,3.03,0,4.54s0,3.03,0,4.55,0,3.04,0,4.56,0,3.05,0,4.58,0,3.06,0,4.59,0,3.07,0,4.6,0,3.08,0,4.62,0,3.09,0,4.64c0,1.55,0,3.1,0,4.65,0,1.55,0,3.11,0,4.67,0,1.56,0,3.12,0,4.69s0,3.14,0,4.71,0,3.15,0,4.73c0,1.58,0,3.17,0,4.76s0,3.18,0,4.78,0,3.2,0,4.8c0,1.61,0,3.22,0,4.83,0,1.61,0,3.23,0,4.86s0,3.25,0,4.88c0,1.63,0,3.27,0,4.91,0,1.64,0,3.29,0,4.94s0,3.31,0,4.97,0,3.33,0,5.01c0,1.67,0,3.35,0,5.04s0,3.38,0,5.07c0,1.7,0,3.4,0,5.11,0,1.71,0,3.42,0,5.14,0,1.72,0,3.45,0,5.18,0,1.73,0,3.47,0,5.22,0,1.75,0,3.5,0,5.26s0,3.52,0,5.3c0,1.77,0,3.55,0,5.34,0,1.79,0,3.58,0,5.38,0,1.8,0,3.61,0,5.42,0,1.82,0,3.64,0,5.47,0,1.83,0,3.67,0,5.51,0,1.85,0,3.7,0,5.56s0,3.73,0,5.61c0,1.88,0,3.76,0,5.66,0,1.89,0,3.79,0,5.7,0,1.91,0,3.83,0,5.75,0,1.93,0,3.86,0,5.81,0,1.94,0,3.9,0,5.86,0,1.96,0,3.93,0,5.91,0,1.98,0,3.97,0,5.97h106.87ZM979.03,409.49c0-1.96,0-3.89,0-5.8,0-1.91,0-3.79,0-5.65,0-1.86,0-3.69,0-5.51,0-1.81,0-3.6,0-5.37,0-1.77,0-3.52,0-5.25,0-1.73,0-3.44,0-5.13,0-1.69,0-3.37,0-5.03,0-1.66,0-3.3,0-4.93,0-1.63,0-3.24,0-4.84,0-1.6,0-3.18,0-4.76s0-3.13,0-4.68c0-1.55,0-3.09,0-4.62,0-1.53,0-3.05,0-4.56,0-1.51,0-3.02,0-4.52,0-1.5,0-2.99,0-4.48,0-1.49,0-2.97,0-4.45,0-1.48,0-2.95,0-4.43s0-2.94,0-4.41c0-1.47,0-2.94,0-4.41,0-1.47,0-2.94,0-4.41,0-1.47,0-2.95,0-4.43,0-1.48,0-2.96,0-4.45,0-1.49,0-2.98,0-4.48s0-3,0-4.52c0-1.51,0-3.03,0-4.56,0-1.53,0-3.07,0-4.62,0-1.55,0-3.11,0-4.68,0-1.57,0-3.16,0-4.76,0-1.6,0-3.21,0-4.84,0-1.63,0-3.27,0-4.93,0-1.66,0-3.33,0-5.03,0-1.69,0-3.4,0-5.13,0-1.73,0-3.48,0-5.25,0-1.77,0-3.56,0-5.37,0-1.81,0-3.65,0-5.51,0-1.86,0-3.74,0-5.65,0-1.91,0-3.84,0-5.8,1.63-.28,3.09-.53,4.46-.76,1.37-.23,2.64-.45,3.87-.66s2.44-.42,3.68-.63c1.24-.21,2.51-.43,3.87-.66,1.37-.23,2.83-.48,4.46-.76,1.16-.2,2.24-.15,3.24.14,1,.29,1.93.83,2.77,1.61.85.78,1.62,1.81,2.31,3.08s1.31,2.79,1.85,4.55c.36,1.17.69,2.42.99,3.74s.57,2.71.81,4.17c.24,1.46.45,2.99.63,4.59.18,1.6.33,3.28.45,5.02s.21,3.56.27,5.45.09,3.84.09,5.87c0,1.94,0,3.83,0,5.67,0,1.85,0,3.66,0,5.42,0,1.77,0,3.5,0,5.2,0,1.7,0,3.37,0,5,0,1.64,0,3.25,0,4.83,0,1.59,0,3.15,0,4.69s0,3.06,0,4.57c0,1.51,0,3,0,4.48,0,1.48,0,2.95,0,4.41,0,1.46,0,2.92,0,4.37,0,1.45,0,2.9,0,4.36,0,1.45,0,2.91,0,4.37,0,1.46,0,2.93,0,4.41,0,1.48,0,2.97,0,4.48,0,1.51,0,3.03,0,4.57,0,1.54,0,3.1,0,4.69,0,1.59,0,3.19,0,4.83,0,1.64,0,3.3,0,5,0,1.7,0,3.43,0,5.2,0,1.77,0,3.58,0,5.42,0,1.85,0,3.74,0,5.68,0,1.82-.02,3.58-.06,5.29-.04,1.71-.1,3.37-.18,4.98-.08,1.61-.18,3.17-.31,4.67-.12,1.51-.27,2.96-.43,4.36s-.35,2.75-.55,4.05c-.2,1.3-.43,2.54-.68,3.73s-.51,2.33-.8,3.42c-.5,1.91-1.1,3.59-1.78,5.05-.68,1.46-1.46,2.7-2.33,3.71-.87,1.01-1.83,1.81-2.88,2.38-1.05.57-2.19.92-3.42,1.05-1.63.17-3.09.32-4.46.46s-2.64.27-3.88.4c-1.24.13-2.44.25-3.68.38-1.24.13-2.51.26-3.88.4s-2.83.29-4.46.46ZM1124.73,690.3c-.29-1.98-.58-3.94-.86-5.88-.28-1.94-.56-3.85-.84-5.75-.28-1.9-.55-3.77-.82-5.62-.27-1.85-.54-3.69-.81-5.5-.27-1.82-.53-3.61-.79-5.39-.26-1.78-.52-3.54-.78-5.28-.26-1.74-.51-3.47-.76-5.18s-.5-3.41-.75-5.09c-.25-1.68-.49-3.35-.73-5s-.48-3.29-.72-4.92-.48-3.24-.71-4.84c-.24-1.6-.47-3.19-.7-4.77-.23-1.58-.46-3.15-.69-4.71-.23-1.56-.46-3.11-.69-4.65s-.45-3.07-.68-4.6c-.22-1.53-.45-3.04-.67-4.56-.22-1.51-.45-3.02-.67-4.52-.22-1.5-.44-2.99-.66-4.48-.22-1.49-.44-2.98-.66-4.46-.22-1.48-.44-2.96-.66-4.44-.22-1.48-.44-2.95-.65-4.42s-.44-2.94-.65-4.42c-.22-1.47-.44-2.94-.65-4.41-.22-1.47-.44-2.94-.65-4.42s-.44-2.95-.66-4.43-.44-2.96-.66-4.44c-.22-1.48-.44-2.97-.66-4.47s-.44-2.99-.67-4.49c-.22-1.5-.45-3.01-.67-4.53-.22-1.52-.45-3.04-.68-4.57-.23-1.53-.46-3.07-.69-4.61-.23-1.55-.46-3.1-.69-4.67s-.47-3.14-.7-4.73-.47-3.18-.71-4.79c-.24-1.61-.48-3.23-.72-4.86-.24-1.63-.49-3.28-.73-4.94-.25-1.66-.5-3.33-.75-5.02-.25-1.69-.5-3.39-.76-5.11-.26-1.72-.51-3.45-.78-5.2-.26-1.75-.52-3.52-.79-5.3s-.53-3.58-.81-5.4-.55-3.66-.82-5.52-.56-3.73-.84-5.63c-.28-1.9-.57-3.82-.86-5.76-1.96.15-3.87.3-5.75.44-1.87.14-3.71.28-5.51.42-1.8.14-3.56.27-5.29.4s-3.43.26-5.09.39c-1.67.13-3.31.25-4.92.38s-3.21.24-4.78.36c-1.57.12-3.12.24-4.66.36s-3.05.23-4.56.35c-1.51.11-3,.23-4.49.34-1.49.11-2.96.23-4.44.34-1.47.11-2.94.22-4.41.34s-2.94.22-4.41.34c-1.47.11-2.95.23-4.44.34-1.49.11-2.98.23-4.49.34-1.51.12-3.02.23-4.56.35-1.53.12-3.09.24-4.66.36-1.57.12-3.16.24-4.78.36-1.62.12-3.26.25-4.92.38-1.67.13-3.36.26-5.09.39-1.73.13-3.49.27-5.29.4-1.8.14-3.63.28-5.51.42-1.87.14-3.79.29-5.75.44.28,1.96.55,3.89.82,5.8.27,1.91.54,3.8.8,5.67.26,1.87.53,3.72.79,5.55.26,1.83.52,3.64.77,5.43.25,1.79.5,3.56.75,5.32.25,1.76.49,3.49.74,5.22.24,1.72.48,3.43.72,5.12.24,1.69.48,3.37.71,5.03s.47,3.31.7,4.94c.23,1.63.46,3.26.69,4.87s.45,3.21.68,4.79c.22,1.59.45,3.16.67,4.73.22,1.57.44,3.12.66,4.67.22,1.55.43,3.09.65,4.62s.43,3.06.64,4.58c.21,1.52.43,3.03.64,4.54.21,1.51.42,3.01.63,4.51.21,1.5.42,2.99.63,4.48s.42,2.98.63,4.46c.21,1.49.42,2.97.63,4.45.21,1.48.42,2.97.62,4.45s.42,2.97.62,4.45.42,2.97.63,4.46.42,2.98.63,4.47.42,2.99.63,4.5c.21,1.5.42,3.01.63,4.52.21,1.51.42,3.03.64,4.56.21,1.53.43,3.06.64,4.6.22,1.54.43,3.09.65,4.65.22,1.56.44,3.13.66,4.71.22,1.58.44,3.17.67,4.77.22,1.6.45,3.22.68,4.84.23,1.63.46,3.27.69,4.92s.46,3.32.7,5,.47,3.38.71,5.09c.24,1.71.48,3.44.72,5.19.24,1.75.49,3.51.74,5.29s.5,3.58.75,5.41c.25,1.82.51,3.66.77,5.52s.52,3.74.79,5.65c.26,1.9.53,3.83.8,5.78s.55,3.92.82,5.92h110.57Z"/>
    </g>
    <g>
      <path class="cls-2" d="M242.24,685.3c0-2,0-3.97,0-5.94,0-1.96,0-3.91,0-5.85,0-1.93,0-3.85,0-5.76,0-1.9,0-3.8,0-5.67s0-3.74,0-5.59,0-3.69,0-5.51c0-1.82,0-3.63,0-5.43,0-1.8,0-3.58,0-5.36,0-1.77,0-3.54,0-5.29,0-1.75,0-3.49,0-5.22,0-1.73,0-3.45,0-5.16,0-1.71,0-3.41,0-5.09s0-3.37,0-5.03,0-3.33,0-4.98,0-3.29,0-4.93,0-3.26,0-4.88,0-3.23,0-4.83c0-1.6,0-3.2,0-4.79s0-3.17,0-4.75,0-3.14,0-4.71,0-3.12,0-4.67c0-1.55,0-3.1,0-4.64,0-1.54,0-3.08,0-4.61,0-1.53,0-3.06,0-4.59,0-1.53,0-3.05,0-4.56,0-1.52,0-3.03,0-4.54,0-1.51,0-3.02,0-4.53,0-1.51,0-3.01,0-4.51,0-1.5,0-3,0-4.5s0-3,0-4.5c0-1.5,0-3,0-4.49,0-1.5,0-2.99,0-4.49,0-1.5,0-2.99,0-4.49,0-1.5,0-3,0-4.5,0-1.5,0-3,0-4.5,0-1.5,0-3.01,0-4.51,0-1.51,0-3.02,0-4.53,0-1.51,0-3.03,0-4.54s0-3.04,0-4.56,0-3.05,0-4.59c0-1.53,0-3.07,0-4.61s0-3.09,0-4.64c0-1.55,0-3.11,0-4.67,0-1.56,0-3.13,0-4.71s0-3.16,0-4.75c0-1.59,0-3.18,0-4.79,0-1.6,0-3.21,0-4.83,0-1.62,0-3.24,0-4.88,0-1.63,0-3.28,0-4.93s0-3.31,0-4.98c0-1.67,0-3.35,0-5.04,0-1.69,0-3.39,0-5.09,0-1.71,0-3.43,0-5.16,0-1.73,0-3.47,0-5.22s0-3.51,0-5.29,0-3.56,0-5.36c0-1.8,0-3.61,0-5.43s0-3.66,0-5.51,0-3.71,0-5.59c0-1.88,0-3.77,0-5.67,0-1.91,0-3.82,0-5.76s0-3.88,0-5.85,0-3.94,0-5.94c1.88-.3,3.68-.58,5.41-.85,1.73-.27,3.39-.53,4.99-.79s3.15-.5,4.66-.74c1.51-.24,2.98-.47,4.43-.7,1.45-.23,2.87-.45,4.29-.68,1.42-.22,2.83-.45,4.24-.67,1.42-.22,2.84-.45,4.29-.68,1.45-.23,2.92-.46,4.43-.7,1.51-.24,3.06-.48,4.66-.74,1.6-.25,3.26-.52,4.99-.79,1.73-.27,3.53-.56,5.41-.85,0-1.91,0-3.78,0-5.61,0-1.83,0-3.61,0-5.36,0-1.75,0-3.46,0-5.14s0-3.32,0-4.94,0-3.21,0-4.77c0-1.57,0-3.11,0-4.63,0-1.52,0-3.03,0-4.51,0-1.49,0-2.96,0-4.42,0-1.46,0-2.91,0-4.36,0-1.44,0-2.88,0-4.32,0-1.44,0-2.87,0-4.3,0-1.44,0-2.87,0-4.32s0-2.89,0-4.36,0-2.93,0-4.42c0-1.49,0-2.99,0-4.51,0-1.52,0-3.06,0-4.63,0-1.57,0-3.15,0-4.77,0-1.62,0-3.26,0-4.94,0-1.68,0-3.39,0-5.14,0-1.75,0-3.53,0-5.36,0-1.83,0-3.69,0-5.6-1.95.4-3.88.8-5.79,1.2s-3.79.79-5.66,1.17-3.71.77-5.54,1.15-3.63.75-5.42,1.12c-1.79.37-3.56.74-5.32,1.1s-3.49.72-5.21,1.08c-1.72.36-3.43.71-5.12,1.06s-3.36.7-5.03,1.04-3.31.69-4.94,1.02c-1.63.34-3.25.67-4.86,1.01-1.61.33-3.2.66-4.79.99-1.58.33-3.16.65-4.72.98s-3.12.65-4.66.97c-1.54.32-3.08.64-4.61.95-1.53.32-3.05.63-4.56.94-1.51.31-3.02.63-4.52.94-1.5.31-2.99.62-4.48.93-1.49.31-2.97.62-4.45.92-1.48.31-2.95.61-4.43.92-1.47.3-2.94.61-4.41.91-1.47.3-2.93.61-4.4.91-1.46.3-2.93.61-4.39.91s-2.93.61-4.39.91c-1.46.3-2.93.61-4.4.91-1.47.3-2.94.61-4.41.91s-2.95.61-4.43.92c-1.48.31-2.96.61-4.45.92s-2.98.62-4.48.93c-1.5.31-3,.62-4.52.94-1.51.31-3.03.63-4.56.94-1.53.32-3.06.63-4.61.95-1.54.32-3.1.64-4.66.97s-3.14.65-4.72.98c-1.58.33-3.18.66-4.79.99-1.61.33-3.23.67-4.86,1.01-1.63.34-3.28.68-4.94,1.02-1.66.34-3.33.69-5.02,1.04-1.69.35-3.39.7-5.12,1.06-1.72.36-3.46.72-5.21,1.08-1.75.36-3.53.73-5.31,1.1s-3.6.75-5.42,1.12c-1.83.38-3.67.76-5.54,1.15s-3.75.78-5.66,1.17c-1.91.4-3.84.79-5.79,1.2,0,2,0,3.94,0,5.83,0,1.89,0,3.73,0,5.53,0,1.8,0,3.56,0,5.28s0,3.4,0,5.05,0,3.27,0,4.87c0,1.6,0,3.17,0,4.72s0,3.09,0,4.61c0,1.52,0,3.03,0,4.54,0,1.5,0,3,0,4.5s0,3,0,4.5c0,1.5,0,3.01,0,4.54s0,3.06,0,4.61c0,1.55,0,3.12,0,4.72s0,3.22,0,4.87,0,3.33,0,5.05c0,1.72,0,3.48,0,5.28,0,1.8,0,3.64,0,5.53,0,1.89,0,3.83,0,5.83,1.88-.3,3.68-.58,5.41-.85s3.39-.53,4.99-.79,3.15-.5,4.66-.74c1.51-.24,2.98-.47,4.43-.7,1.45-.23,2.87-.45,4.29-.68s2.83-.45,4.24-.67,2.84-.45,4.29-.68c1.45-.23,2.92-.46,4.43-.7,1.51-.24,3.06-.48,4.66-.74,1.6-.25,3.26-.52,4.99-.79s3.53-.56,5.41-.85c0,1.98,0,3.94,0,5.89,0,1.95,0,3.88,0,5.79,0,1.91,0,3.81,0,5.7s0,3.75,0,5.61c0,1.86,0,3.7,0,5.52,0,1.83,0,3.64,0,5.44,0,1.8,0,3.59,0,5.36s0,3.54,0,5.29c0,1.75,0,3.49,0,5.21s0,3.44,0,5.14c0,1.7,0,3.4,0,5.08s0,3.35,0,5.02c0,1.66,0,3.31,0,4.96,0,1.64,0,3.28,0,4.9,0,1.62,0,3.24,0,4.85s0,3.21,0,4.8,0,3.18,0,4.75c0,1.58,0,3.15,0,4.71s0,3.12,0,4.67c0,1.55,0,3.09,0,4.63s0,3.07,0,4.6c0,1.53,0,3.05,0,4.57,0,1.52,0,3.03,0,4.54,0,1.51,0,3.02,0,4.52,0,1.5,0,3,0,4.5,0,1.5,0,2.99,0,4.49,0,1.49,0,2.98,0,4.47s0,2.98,0,4.46,0,2.97,0,4.46,0,2.97,0,4.45c0,1.48,0,2.97,0,4.45,0,1.48,0,2.97,0,4.46,0,1.49,0,2.97,0,4.46,0,1.49,0,2.98,0,4.47,0,1.49,0,2.99,0,4.49s0,3,0,4.5c0,1.5,0,3.01,0,4.52,0,1.51,0,3.03,0,4.54s0,3.04,0,4.57c0,1.53,0,3.06,0,4.6,0,1.54,0,3.08,0,4.63s0,3.11,0,4.67c0,1.56,0,3.13,0,4.71s0,3.16,0,4.75,0,3.19,0,4.8,0,3.22,0,4.85,0,3.26,0,4.9,0,3.29,0,4.96c0,1.66,0,3.33,0,5.02s0,3.37,0,5.08,0,3.42,0,5.14c0,1.73,0,3.46,0,5.21,0,1.75,0,3.51,0,5.29,0,1.77,0,3.56,0,5.36,0,1.8,0,3.61,0,5.44,0,1.83,0,3.67,0,5.52,0,1.86,0,3.72,0,5.61,0,1.88,0,3.78,0,5.7,0,1.91,0,3.84,0,5.79,0,1.95,0,3.91,0,5.89h111.03Z"/>
      <path class="cls-2" d="M417.59,685.3c0-1.96,0-3.88,0-5.79,0-1.9,0-3.78,0-5.63,0-1.85,0-3.68,0-5.49s0-3.59,0-5.35,0-3.5,0-5.23c0-1.72,0-3.42,0-5.11s0-3.35,0-5c0-1.65,0-3.28,0-4.9,0-1.62,0-3.22,0-4.81,0-1.59,0-3.16,0-4.73,0-1.56,0-3.11,0-4.66,0-1.54,0-3.07,0-4.59,0-1.52,0-3.03,0-4.54,0-1.5,0-3,0-4.49,0-1.49,0-2.98,0-4.46,0-1.48,0-2.96,0-4.43,0-1.47,0-2.94,0-4.41,0-1.47,0-2.93,0-4.4,0-1.47,0-2.93,0-4.4s0-2.94,0-4.41,0-2.95,0-4.43,0-2.97,0-4.46c0-1.49,0-2.99,0-4.49,0-1.5,0-3.02,0-4.54,0-1.52,0-3.05,0-4.59,0-1.54,0-3.09,0-4.66,0-1.56,0-3.14,0-4.73,0-1.59,0-3.19,0-4.81,0-1.62,0-3.25,0-4.9,0-1.65,0-3.32,0-5,0-1.68,0-3.39,0-5.11,0-1.72,0-3.46,0-5.23,0-1.76,0-3.55,0-5.35,0-1.81,0-3.64,0-5.49,0-1.85,0-3.73,0-5.63,0-1.9,0-3.83,0-5.79,1.78-.14,3.45-.28,5.04-.41,1.59-.13,3.09-.25,4.54-.37,1.45-.12,2.84-.23,4.2-.34,1.36-.11,2.7-.22,4.04-.33,1.34-.11,2.67-.22,4.04-.33,1.36-.11,2.76-.22,4.2-.34,1.45-.12,2.95-.24,4.54-.37,1.59-.13,3.26-.26,5.04-.41,0,1.99,0,3.95,0,5.88s0,3.84,0,5.73,0,3.74,0,5.58,0,3.65,0,5.44c0,1.79,0,3.56,0,5.31,0,1.75,0,3.48,0,5.19,0,1.71,0,3.41,0,5.08,0,1.68,0,3.34,0,4.98,0,1.64,0,3.27,0,4.89,0,1.62,0,3.22,0,4.81,0,1.59,0,3.17,0,4.73,0,1.57,0,3.12,0,4.67,0,1.55,0,3.08,0,4.61,0,1.53,0,3.05,0,4.57,0,1.52,0,3.02,0,4.53,0,1.5,0,3,0,4.5,0,1.5,0,2.99,0,4.48s0,2.98,0,4.47c0,1.49,0,2.98,0,4.47,0,1.49,0,2.99,0,4.48s0,3,0,4.5c0,1.5,0,3.01,0,4.53s0,3.04,0,4.57c0,1.53,0,3.07,0,4.61,0,1.55,0,3.1,0,4.67,0,1.57,0,3.14,0,4.73,0,1.59,0,3.19,0,4.81,0,1.62,0,3.24,0,4.89,0,1.64,0,3.3,0,4.98,0,1.68,0,3.37,0,5.08,0,1.71,0,3.44,0,5.19,0,1.75,0,3.52,0,5.31s0,3.6,0,5.44c0,1.84,0,3.69,0,5.58,0,1.88,0,3.79,0,5.73s0,3.89,0,5.88h108.27c0-1.99,0-3.97,0-5.95,0-1.97,0-3.93,0-5.89,0-1.95,0-3.89,0-5.83,0-1.93,0-3.86,0-5.77,0-1.91,0-3.82,0-5.71,0-1.89,0-3.78,0-5.66,0-1.88,0-3.74,0-5.6,0-1.86,0-3.71,0-5.55s0-3.67,0-5.5c0-1.82,0-3.64,0-5.45s0-3.61,0-5.4c0-1.79,0-3.57,0-5.35,0-1.77,0-3.54,0-5.3s0-3.51,0-5.26,0-3.48,0-5.21c0-1.73,0-3.45,0-5.17,0-1.72,0-3.43,0-5.13,0-1.7,0-3.4,0-5.09,0-1.69,0-3.37,0-5.05,0-1.68,0-3.35,0-5.01s0-3.32,0-4.97c0-1.65,0-3.3,0-4.94,0-1.64,0-3.28,0-4.91,0-1.63,0-3.25,0-4.87,0-1.62,0-3.23,0-4.84s0-3.21,0-4.81c0-1.6,0-3.19,0-4.78s0-3.18,0-4.76c0-1.58,0-3.16,0-4.73,0-1.57,0-3.14,0-4.71,0-1.56,0-3.13,0-4.68,0-1.56,0-3.11,0-4.66,0-1.55,0-3.1,0-4.64,0-1.54,0-3.08,0-4.62,0-1.54,0-3.07,0-4.6,0-1.53,0-3.06,0-4.59,0-1.53,0-3.05,0-4.57,0-1.52,0-3.04,0-4.56,0-1.52,0-3.03,0-4.54,0-1.51,0-3.02,0-4.53,0-1.51,0-3.02,0-4.52,0-1.51,0-3.01,0-4.51,0-1.5,0-3,0-4.5,0-1.5,0-3,0-4.5,0-1.5,0-3,0-4.49,0-1.5,0-2.99,0-4.49,0-1.5,0-2.99,0-4.49,0-1.49,0-2.99,0-4.48,0-1.49,0-2.99,0-4.48,0-1.49,0-2.99,0-4.49,0-1.5,0-2.99,0-4.49,0-1.5,0-2.99,0-4.49s0-3,0-4.5c0-1.5,0-3,0-4.5,0-1.5,0-3.01,0-4.51,0-1.51,0-3.01,0-4.52,0-1.51,0-3.02,0-4.53,0-1.51,0-3.03,0-4.54,0-1.52,0-3.03,0-4.56,0-1.52,0-3.04,0-4.57,0-1.53,0-3.05,0-4.59s0-3.07,0-4.6c0-1.54,0-3.08,0-4.62,0-1.54,0-3.09,0-4.64s0-3.1,0-4.66c0-1.56,0-3.12,0-4.68,0-1.56,0-3.13,0-4.71,0-1.57,0-3.15,0-4.73,0-1.58,0-3.17,0-4.76,0-1.59,0-3.18,0-4.78,0-1.6,0-3.2,0-4.81,0-1.61,0-3.22,0-4.84,0-1.62,0-3.24,0-4.87,0-1.63,0-3.27,0-4.91,0-1.64,0-3.29,0-4.94,0-1.65,0-3.31,0-4.97s0-3.33,0-5.01c0-1.68,0-3.36,0-5.05s0-3.39,0-5.09c0-1.7,0-3.41,0-5.13,0-1.72,0-3.44,0-5.17,0-1.73,0-3.47,0-5.21,0-1.74,0-3.5,0-5.26,0-1.76,0-3.53,0-5.3s0-3.56,0-5.35,0-3.59,0-5.4c0-1.81,0-3.62,0-5.45s0-3.66,0-5.5c0-1.84,0-3.69,0-5.55s0-3.72,0-5.6c0-1.88,0-3.76,0-5.66s0-3.8,0-5.71c0-1.91,0-3.84,0-5.77,0-1.93,0-3.87,0-5.83,0-1.95,0-3.91,0-5.89,0-1.97,0-3.95,0-5.95-1.88.39-3.72.77-5.53,1.15-1.8.37-3.57.74-5.3,1.1-1.73.36-3.43.71-5.1,1.06-1.67.35-3.31.69-4.92,1.02s-3.2.66-4.76.99-3.1.64-4.62.96c-1.52.31-3.02.63-4.5.93-1.48.31-2.95.61-4.41.91-1.46.3-2.9.6-4.33.9-1.43.3-2.86.59-4.28.89s-2.83.59-4.25.88-2.82.58-4.24.88-2.83.59-4.25.88-2.84.59-4.28.89c-1.43.3-2.88.6-4.33.9-1.46.3-2.92.61-4.41.91s-2.98.62-4.5.93c-1.52.31-3.06.63-4.62.96-1.56.32-3.15.65-4.76.99-1.61.33-3.25.67-4.92,1.02-1.67.35-3.37.7-5.1,1.06-1.73.36-3.5.72-5.3,1.1s-3.65.76-5.53,1.15c0,1.99,0,3.94,0,5.87,0,1.93,0,3.82,0,5.69,0,1.87,0,3.71,0,5.52,0,1.81,0,3.6,0,5.37,0,1.76,0,3.51,0,5.22,0,1.72,0,3.42,0,5.09,0,1.68,0,3.34,0,4.98,0,1.64,0,3.26,0,4.87,0,1.61,0,3.2,0,4.78,0,1.58,0,3.14,0,4.7,0,1.55,0,3.1,0,4.63,0,1.53,0,3.06,0,4.57s0,3.03,0,4.53,0,3,0,4.5c0,1.5,0,2.99,0,4.48s0,2.98,0,4.47c0,1.49,0,2.98,0,4.48s0,2.99,0,4.5,0,3.01,0,4.53,0,3.04,0,4.57,0,3.08,0,4.63,0,3.12,0,4.7c0,1.58,0,3.17,0,4.78,0,1.61,0,3.23,0,4.87,0,1.64,0,3.3,0,4.98,0,1.68,0,3.38,0,5.09,0,1.72,0,3.46,0,5.22,0,1.76,0,3.55,0,5.37s0,3.65,0,5.52,0,3.76,0,5.69c0,1.93,0,3.88,0,5.87-1.78.24-3.45.47-5.04.69-1.59.22-3.09.42-4.54.62-1.45.2-2.84.39-4.2.58-1.36.19-2.7.37-4.03.55-1.34.18-2.67.37-4.03.55-1.36.19-2.75.38-4.2.58-1.45.2-2.95.4-4.54.62-1.59.22-3.26.45-5.04.69,0-1.96,0-3.88,0-5.78,0-1.89,0-3.76,0-5.6,0-1.84,0-3.65,0-5.43,0-1.78,0-3.54,0-5.28s0-3.45,0-5.14c0-1.69,0-3.36,0-5.01s0-3.28,0-4.9,0-3.21,0-4.79c0-1.58,0-3.15,0-4.7,0-1.55,0-3.09,0-4.62,0-1.53,0-3.05,0-4.55,0-1.51,0-3.01,0-4.5,0-1.49,0-2.98,0-4.46s0-2.95,0-4.43c0-1.47,0-2.94,0-4.41,0-1.47,0-2.93,0-4.4,0-1.47,0-2.94,0-4.41,0-1.47,0-2.95,0-4.43,0-1.48,0-2.96,0-4.46,0-1.49,0-2.99,0-4.5,0-1.51,0-3.03,0-4.55,0-1.53,0-3.07,0-4.62,0-1.55,0-3.12,0-4.7,0-1.58,0-3.18,0-4.79,0-1.61,0-3.25,0-4.9,0-1.65,0-3.32,0-5.01,0-1.69,0-3.4,0-5.14,0-1.74,0-3.5,0-5.28,0-1.78,0-3.59,0-5.43,0-1.84,0-3.7,0-5.6,0-1.89,0-3.82,0-5.77-1.87.39-3.71.77-5.5,1.14-1.8.37-3.56.74-5.28,1.09s-3.42.71-5.08,1.05-3.29.68-4.9,1.01c-1.6.33-3.18.66-4.74.98-1.56.32-3.09.64-4.6.95-1.51.31-3.01.62-4.48.93-1.48.31-2.94.61-4.39.91s-2.89.6-4.31.89-2.85.59-4.26.88-2.82.58-4.23.88c-1.41.29-2.81.58-4.22.87s-2.81.58-4.23.88-2.83.59-4.26.88-2.86.59-4.31.89c-1.45.3-2.91.6-4.39.91s-2.97.62-4.48.93c-1.51.31-3.05.63-4.6.95-1.56.32-3.13.65-4.74.98-1.6.33-3.24.67-4.9,1.01-1.66.34-3.35.69-5.08,1.05s-3.48.72-5.28,1.09-3.63.75-5.5,1.14c0,1.98,0,3.95,0,5.91,0,1.96,0,3.91,0,5.84,0,1.94,0,3.86,0,5.78s0,3.82,0,5.71c0,1.89,0,3.78,0,5.65,0,1.87,0,3.74,0,5.59s0,3.7,0,5.53,0,3.66,0,5.47,0,3.62,0,5.42c0,1.8,0,3.58,0,5.36,0,1.78,0,3.55,0,5.31,0,1.76,0,3.51,0,5.26,0,1.74,0,3.48,0,5.21s0,3.45,0,5.16c0,1.71,0,3.42,0,5.11s0,3.39,0,5.07c0,1.68,0,3.36,0,5.02,0,1.67,0,3.33,0,4.98,0,1.65,0,3.3,0,4.94,0,1.64,0,3.28,0,4.9,0,1.63,0,3.25,0,4.87,0,1.62,0,3.23,0,4.83,0,1.6,0,3.2,0,4.8,0,1.59,0,3.18,0,4.77,0,1.58,0,3.16,0,4.74,0,1.57,0,3.14,0,4.71,0,1.56,0,3.12,0,4.68,0,1.56,0,3.11,0,4.65,0,1.55,0,3.09,0,4.63s0,3.07,0,4.61,0,3.06,0,4.59,0,3.05,0,4.57c0,1.52,0,3.04,0,4.55s0,3.02,0,4.53c0,1.51,0,3.01,0,4.52,0,1.5,0,3.01,0,4.51s0,3,0,4.49,0,2.99,0,4.48c0,1.49,0,2.99,0,4.48s0,2.98,0,4.47c0,1.49,0,2.98,0,4.47s0,2.97,0,4.46,0,2.97,0,4.46c0,1.49,0,2.97,0,4.46,0,1.49,0,2.97,0,4.46,0,1.49,0,2.98,0,4.47s0,2.98,0,4.47,0,2.98,0,4.48c0,1.49,0,2.99,0,4.48,0,1.5,0,2.99,0,4.49,0,1.5,0,3,0,4.51,0,1.5,0,3.01,0,4.52,0,1.51,0,3.02,0,4.53,0,1.51,0,3.03,0,4.55,0,1.52,0,3.04,0,4.57,0,1.53,0,3.05,0,4.59,0,1.53,0,3.07,0,4.61s0,3.08,0,4.63c0,1.55,0,3.1,0,4.65,0,1.56,0,3.11,0,4.68,0,1.56,0,3.13,0,4.71,0,1.57,0,3.15,0,4.74,0,1.58,0,3.17,0,4.77,0,1.59,0,3.19,0,4.8,0,1.6,0,3.22,0,4.83,0,1.62,0,3.24,0,4.87,0,1.63,0,3.26,0,4.9,0,1.64,0,3.29,0,4.94,0,1.65,0,3.31,0,4.98,0,1.67,0,3.34,0,5.02,0,1.68,0,3.37,0,5.07,0,1.7,0,3.4,0,5.11s0,3.43,0,5.16,0,3.46,0,5.21c0,1.74,0,3.5,0,5.26s0,3.53,0,5.31,0,3.57,0,5.36,0,3.6,0,5.42,0,3.64,0,5.47c0,1.83,0,3.68,0,5.53s0,3.72,0,5.59,0,3.76,0,5.65,0,3.8,0,5.71c0,1.92,0,3.84,0,5.78,0,1.94,0,3.88,0,5.84,0,1.96,0,3.93,0,5.91h107.8Z"/>
      <path class="cls-2" d="M801.15,685.3c1.37,0,2.7-.12,3.99-.35,1.3-.24,2.56-.59,3.79-1.06,1.23-.47,2.42-1.07,3.58-1.78,1.16-.71,2.28-1.54,3.37-2.49s2.14-2.02,3.16-3.21c1.02-1.19,2.01-2.5,2.96-3.93.95-1.43,1.87-2.98,2.75-4.65.62-1.17,1.2-2.37,1.76-3.6s1.08-2.48,1.57-3.77.96-2.6,1.39-3.94c.43-1.34.83-2.72,1.2-4.12.37-1.4.71-2.83,1.02-4.29s.59-2.95.83-4.46c.25-1.52.46-3.06.65-4.64.19-1.57.34-3.18.46-4.81.12-1.63.22-3.29.28-4.98.06-1.69.09-3.4.09-5.15,0-1.99,0-3.96,0-5.92,0-1.96,0-3.91,0-5.85,0-1.94,0-3.87,0-5.79,0-1.92,0-3.82,0-5.72,0-1.9,0-3.78,0-5.65,0-1.87,0-3.74,0-5.59,0-1.85,0-3.7,0-5.53,0-1.83,0-3.66,0-5.47,0-1.81,0-3.62,0-5.41,0-1.79,0-3.58,0-5.36,0-1.78,0-3.54,0-5.3,0-1.76,0-3.51,0-5.25,0-1.74,0-3.47,0-5.2,0-1.72,0-3.44,0-5.15s0-3.41,0-5.1,0-3.38,0-5.06c0-1.68,0-3.35,0-5.01,0-1.66,0-3.32,0-4.97,0-1.65,0-3.29,0-4.93,0-1.64,0-3.27,0-4.89,0-1.62,0-3.24,0-4.85s0-3.22,0-4.82c0-1.6,0-3.19,0-4.78,0-1.59,0-3.17,0-4.75,0-1.58,0-3.15,0-4.72,0-1.57,0-3.13,0-4.69,0-1.56,0-3.11,0-4.66s0-3.1,0-4.64,0-3.08,0-4.62,0-3.07,0-4.59,0-3.05,0-4.58c0-1.52,0-3.04,0-4.56,0-1.52,0-3.03,0-4.54s0-3.02,0-4.53,0-3.01,0-4.51c0-1.5,0-3,0-4.5s0-3,0-4.49c0-1.5,0-2.99,0-4.48,0-1.49,0-2.99,0-4.48,0-1.49,0-2.98,0-4.47,0-1.49,0-2.98,0-4.47,0-1.49,0-2.98,0-4.47,0-1.49,0-2.98,0-4.47,0-1.49,0-2.98,0-4.47,0-1.49,0-2.98,0-4.48s0-2.99,0-4.48c0-1.5,0-2.99,0-4.49,0-1.5,0-3,0-4.5,0-1.5,0-3.01,0-4.51s0-3.01,0-4.53c0-1.51,0-3.02,0-4.54,0-1.52,0-3.03,0-4.56s0-3.05,0-4.58c0-1.53,0-3.06,0-4.59s0-3.07,0-4.62c0-1.54,0-3.09,0-4.64,0-1.55,0-3.11,0-4.66s0-3.12,0-4.69,0-3.14,0-4.72c0-1.58,0-3.16,0-4.75s0-3.18,0-4.78c0-1.6,0-3.21,0-4.82,0-1.61,0-3.23,0-4.85,0-1.62,0-3.25,0-4.89,0-1.64,0-3.28,0-4.93,0-1.65,0-3.31,0-4.97,0-1.66,0-3.33,0-5.01,0-1.68,0-3.36,0-5.06,0-1.69,0-3.39,0-5.1s0-3.42,0-5.15c0-1.72,0-3.46,0-5.2,0-1.74,0-3.49,0-5.25s0-3.53,0-5.3c0-1.78,0-3.56,0-5.36,0-1.79,0-3.6,0-5.41,0-1.81,0-3.64,0-5.47s0-3.68,0-5.53c0-1.85,0-3.72,0-5.59,0-1.87,0-3.76,0-5.65,0-1.9,0-3.8,0-5.72,0-1.92,0-3.85,0-5.79,0-1.94,0-3.89,0-5.85,0-1.96,0-3.94,0-5.92,0-1.94-.04-3.83-.11-5.68-.08-1.85-.19-3.66-.34-5.42s-.34-3.49-.57-5.17-.49-3.32-.8-4.91c-.3-1.59-.65-3.14-1.03-4.65s-.8-2.97-1.26-4.39c-.46-1.42-.95-2.8-1.48-4.13-.53-1.33-1.1-2.62-1.71-3.87-.61-1.25-1.26-2.45-1.94-3.61-1.03-1.74-2.1-3.3-3.23-4.69-1.12-1.39-2.29-2.61-3.51-3.65-1.22-1.04-2.48-1.91-3.79-2.61-1.31-.7-2.67-1.22-4.07-1.58s-2.86-.54-4.35-.55-3.04.15-4.64.48c-1.93.4-3.84.8-5.72,1.19s-3.74.78-5.58,1.16c-1.84.38-3.65.76-5.44,1.13-1.79.37-3.56.74-5.31,1.1-1.75.36-3.48.72-5.19,1.08s-3.41.71-5.08,1.05c-1.68.35-3.33.69-4.98,1.03s-3.27.68-4.88,1.01-3.21.66-4.79.99c-1.58.33-3.15.65-4.71.98s-3.1.64-4.64.96c-1.54.32-3.06.63-4.57.95-1.52.31-3.02.63-4.52.94s-2.99.62-4.47.93c-1.48.31-2.96.61-4.43.92-1.47.3-2.94.61-4.4.91-1.46.3-2.92.6-4.37.91s-2.91.6-4.36.9c-1.45.3-2.9.6-4.35.9s-2.9.6-4.35.9c-1.45.3-2.9.6-4.36.9s-2.91.6-4.37.91c-1.46.3-2.93.61-4.4.91-1.47.3-2.95.61-4.43.92s-2.97.62-4.47.93-3,.62-4.52.94c-1.52.31-3.04.63-4.58.95-1.54.32-3.08.64-4.64.96s-3.13.65-4.71.98c-1.58.33-3.18.66-4.79.99s-3.24.67-4.88,1.01c-1.64.34-3.3.68-4.98,1.03s-3.37.7-5.08,1.05c-1.71.35-3.44.71-5.19,1.08-1.75.36-3.52.73-5.31,1.1-1.79.37-3.61.75-5.44,1.13-1.84.38-3.7.77-5.58,1.16-1.88.39-3.79.79-5.72,1.19-1.37.28-2.7.67-3.99,1.16-1.3.49-2.56,1.08-3.79,1.77-1.23.69-2.42,1.48-3.58,2.37-1.16.89-2.28,1.88-3.37,2.98s-2.14,2.29-3.16,3.58c-1.02,1.29-2,2.69-2.96,4.18s-1.87,3.08-2.75,4.78c-.69,1.32-1.33,2.66-1.94,4.02-.61,1.36-1.18,2.75-1.72,4.16-.53,1.41-1.03,2.84-1.49,4.3-.46,1.46-.88,2.94-1.26,4.44-.38,1.51-.72,3.03-1.03,4.59-.3,1.55-.57,3.13-.8,4.73-.23,1.6-.42,3.23-.57,4.88-.15,1.65-.27,3.32-.34,5.02-.08,1.7-.12,3.42-.12,5.17,0,1.99,0,3.96,0,5.92s0,3.91,0,5.84c0,1.93,0,3.86,0,5.77,0,1.91,0,3.81,0,5.69,0,1.89,0,3.76,0,5.62s0,3.71,0,5.55,0,3.67,0,5.49c0,1.82,0,3.63,0,5.42,0,1.8,0,3.58,0,5.36,0,1.78,0,3.54,0,5.3,0,1.76,0,3.5,0,5.24,0,1.74,0,3.47,0,5.19s0,3.43,0,5.13c0,1.7,0,3.39,0,5.08,0,1.68,0,3.36,0,5.03,0,1.67,0,3.33,0,4.98,0,1.65,0,3.3,0,4.94,0,1.64,0,3.27,0,4.89,0,1.62,0,3.24,0,4.85,0,1.61,0,3.21,0,4.81,0,1.6,0,3.19,0,4.78,0,1.59,0,3.17,0,4.74,0,1.57,0,3.14,0,4.71,0,1.56,0,3.12,0,4.68,0,1.55,0,3.1,0,4.65,0,1.54,0,3.09,0,4.62,0,1.54,0,3.07,0,4.6,0,1.53,0,3.05,0,4.58,0,1.52,0,3.04,0,4.56,0,1.52,0,3.03,0,4.54,0,1.51,0,3.02,0,4.52,0,1.5,0,3.01,0,4.51,0,1.5,0,3,0,4.5,0,1.5,0,2.99,0,4.49,0,1.49,0,2.99,0,4.48,0,1.49,0,2.98,0,4.47,0,1.49,0,2.98,0,4.47,0,1.49,0,2.98,0,4.47s0,2.98,0,4.47c0,1.49,0,2.98,0,4.47,0,1.49,0,2.98,0,4.48,0,1.49,0,2.99,0,4.49,0,1.5,0,3,0,4.5,0,1.5,0,3,0,4.51,0,1.5,0,3.01,0,4.52,0,1.51,0,3.02,0,4.54,0,1.52,0,3.03,0,4.56,0,1.52,0,3.05,0,4.58,0,1.53,0,3.06,0,4.6,0,1.54,0,3.08,0,4.62,0,1.54,0,3.09,0,4.65,0,1.55,0,3.11,0,4.68,0,1.56,0,3.13,0,4.71,0,1.57,0,3.15,0,4.74,0,1.59,0,3.18,0,4.78,0,1.6,0,3.2,0,4.81,0,1.61,0,3.23,0,4.85,0,1.62,0,3.25,0,4.89s0,3.28,0,4.94c0,1.65,0,3.31,0,4.98,0,1.67,0,3.34,0,5.03,0,1.68,0,3.38,0,5.08,0,1.7,0,3.41,0,5.13,0,1.72,0,3.45,0,5.19,0,1.74,0,3.48,0,5.24,0,1.76,0,3.52,0,5.3,0,1.78,0,3.56,0,5.36s0,3.6,0,5.42c0,1.82,0,3.65,0,5.49,0,1.84,0,3.69,0,5.55s0,3.74,0,5.62,0,3.78,0,5.69c0,1.91,0,3.83,0,5.77,0,1.93,0,3.88,0,5.84,0,1.96,0,3.93,0,5.92,0,1.75.04,3.47.11,5.15s.19,3.34.34,4.96.34,3.21.57,4.76c.23,1.55.49,3.08.8,4.57s.65,2.95,1.03,4.37.8,2.82,1.25,4.18.95,2.69,1.48,3.99,1.1,2.57,1.71,3.8c.61,1.24,1.26,2.44,1.94,3.62,1.03,1.76,2.1,3.38,3.22,4.85,1.12,1.47,2.29,2.8,3.51,3.97,1.22,1.18,2.48,2.21,3.79,3.1,1.31.89,2.67,1.62,4.07,2.22,1.41.59,2.86,1.04,4.36,1.33,1.5.3,3.05.45,4.64.45h183.69ZM696.38,585.62c-.81-.91-1.52-1.98-2.12-3.22-.61-1.24-1.11-2.64-1.52-4.22-.4-1.57-.71-3.31-.91-5.21-.2-1.9-.3-3.97-.3-6.21,0-1.99,0-3.96,0-5.92s0-3.89,0-5.81,0-3.82,0-5.71c0-1.89,0-3.76,0-5.61,0-1.85,0-3.69,0-5.52,0-1.82,0-3.63,0-5.43,0-1.79,0-3.58,0-5.34s0-3.52,0-5.26c0-1.74,0-3.47,0-5.18s0-3.42,0-5.11,0-3.37,0-5.04,0-3.33,0-4.97,0-3.28,0-4.91c0-1.63,0-3.25,0-4.85,0-1.61,0-3.21,0-4.8,0-1.59,0-3.18,0-4.75,0-1.58,0-3.14,0-4.71,0-1.56,0-3.12,0-4.67s0-3.09,0-4.63c0-1.54,0-3.07,0-4.6,0-1.53,0-3.05,0-4.57,0-1.52,0-3.03,0-4.54,0-1.51,0-3.02,0-4.52,0-1.5,0-3.01,0-4.51s0-3,0-4.49c0-1.5,0-2.99,0-4.49s0-2.99,0-4.48c0-1.49,0-2.99,0-4.48s0-2.99,0-4.49,0-2.99,0-4.49c0-1.5,0-3,0-4.51s0-3.01,0-4.52c0-1.51,0-3.02,0-4.54s0-3.04,0-4.57c0-1.53,0-3.06,0-4.6,0-1.54,0-3.08,0-4.63,0-1.55,0-3.1,0-4.67s0-3.13,0-4.71c0-1.58,0-3.16,0-4.75,0-1.59,0-3.19,0-4.8s0-3.23,0-4.85,0-3.26,0-4.91,0-3.3,0-4.97c0-1.67,0-3.35,0-5.04s0-3.39,0-5.11,0-3.44,0-5.18c0-1.74,0-3.49,0-5.26s0-3.55,0-5.34c0-1.79,0-3.6,0-5.43s0-3.66,0-5.52c0-1.85,0-3.73,0-5.61,0-1.89,0-3.79,0-5.71,0-1.92,0-3.86,0-5.81s0-3.93,0-5.92c0-1.79.06-3.47.19-5.06.12-1.59.31-3.08.56-4.48.25-1.4.56-2.69.93-3.89.37-1.2.8-2.3,1.3-3.31s1.05-1.91,1.67-2.72c.77-1.01,1.62-1.93,2.54-2.75.93-.82,1.93-1.54,3.01-2.16,1.08-.62,2.24-1.15,3.47-1.58s2.54-.76,3.93-1c1.95-.33,3.75-.42,5.39-.28,1.64.15,3.13.53,4.47,1.15,1.34.62,2.52,1.48,3.55,2.58.77.82,1.44,1.83,2.02,3.02s1.06,2.55,1.44,4.1c.39,1.55.67,3.27.87,5.18.19,1.91.29,3.99.29,6.26,0,1.98,0,3.95,0,5.9,0,1.95,0,3.88,0,5.79,0,1.91,0,3.81,0,5.69,0,1.88,0,3.75,0,5.6s0,3.68,0,5.5c0,1.82,0,3.62,0,5.42,0,1.79,0,3.57,0,5.33,0,1.76,0,3.51,0,5.25,0,1.74,0,3.46,0,5.17s0,3.41,0,5.1c0,1.69,0,3.37,0,5.03s0,3.32,0,4.97c0,1.65,0,3.28,0,4.91,0,1.63,0,3.24,0,4.85,0,1.61,0,3.21,0,4.8,0,1.59,0,3.17,0,4.75,0,1.57,0,3.14,0,4.7,0,1.56,0,3.11,0,4.66,0,1.55,0,3.09,0,4.62,0,1.54,0,3.06,0,4.59,0,1.52,0,3.04,0,4.56,0,1.52,0,3.03,0,4.53,0,1.51,0,3.01,0,4.51,0,1.5,0,3,0,4.5,0,1.5,0,2.99,0,4.48,0,1.49,0,2.98,0,4.47,0,1.49,0,2.98,0,4.47,0,1.49,0,2.98,0,4.46,0,1.49,0,2.98,0,4.47,0,1.49,0,2.98,0,4.47,0,1.49,0,2.99,0,4.48,0,1.5,0,2.99,0,4.5,0,1.5,0,3.01,0,4.51s0,3.02,0,4.53c0,1.52,0,3.04,0,4.56,0,1.52,0,3.05,0,4.59,0,1.54,0,3.08,0,4.62,0,1.55,0,3.1,0,4.66,0,1.56,0,3.13,0,4.7,0,1.57,0,3.16,0,4.75,0,1.59,0,3.19,0,4.8,0,1.61,0,3.22,0,4.85,0,1.63,0,3.26,0,4.91s0,3.3,0,4.97c0,1.67,0,3.34,0,5.03s0,3.39,0,5.1,0,3.44,0,5.17,0,3.49,0,5.25c0,1.76,0,3.54,0,5.33s0,3.6,0,5.42,0,3.65,0,5.5c0,1.85,0,3.72,0,5.6s0,3.78,0,5.69c0,1.91,0,3.85,0,5.79s0,3.91,0,5.9c0,1.81-.06,3.52-.19,5.12-.12,1.6-.31,3.09-.56,4.48-.25,1.39-.56,2.66-.93,3.83s-.8,2.23-1.3,3.19c-.49.95-1.05,1.8-1.66,2.54-1.03,1.23-2.19,2.27-3.5,3.12s-2.74,1.49-4.32,1.95-3.29.72-5.14.79c-1.85.07-3.57-.07-5.17-.43-1.59-.36-3.06-.93-4.39-1.72-1.34-.79-2.54-1.79-3.62-3Z"/>
      <path class="cls-2" d="M964,685.3c0-1.96,0-3.89,0-5.8,0-1.91,0-3.79,0-5.65,0-1.86,0-3.69,0-5.51s0-3.6,0-5.37,0-3.52,0-5.25,0-3.44,0-5.13c0-1.69,0-3.37,0-5.03,0-1.66,0-3.3,0-4.93,0-1.63,0-3.24,0-4.84,0-1.6,0-3.18,0-4.76,0-1.57,0-3.13,0-4.68s0-3.09,0-4.62c0-1.53,0-3.05,0-4.56,0-1.51,0-3.02,0-4.52,0-1.5,0-2.99,0-4.48,0-1.49,0-2.97,0-4.45,0-1.48,0-2.95,0-4.42,0-1.47,0-2.94,0-4.41,0-1.47,0-2.94,0-4.41,0-1.47,0-2.94,0-4.41,0-1.47,0-2.95,0-4.43,0-1.48,0-2.96,0-4.45,0-1.49,0-2.98,0-4.48,0-1.5,0-3,0-4.52,0-1.51,0-3.03,0-4.56,0-1.53,0-3.07,0-4.62,0-1.55,0-3.11,0-4.68s0-3.16,0-4.76c0-1.6,0-3.21,0-4.84,0-1.63,0-3.27,0-4.93,0-1.66,0-3.33,0-5.03,0-1.69,0-3.4,0-5.13,0-1.73,0-3.48,0-5.25,0-1.77,0-3.56,0-5.37,0-1.81,0-3.65,0-5.51,0-1.86,0-3.74,0-5.65,0-1.91,0-3.84,0-5.8,1.96-.13,3.87-.26,5.75-.38,1.87-.13,3.71-.25,5.51-.37,1.8-.12,3.56-.24,5.29-.35,1.73-.12,3.43-.23,5.09-.34s3.31-.22,4.92-.33c1.62-.11,3.21-.21,4.78-.32,1.57-.1,3.12-.21,4.66-.31,1.53-.1,3.05-.2,4.56-.3,1.51-.1,3-.2,4.49-.3,1.49-.1,2.96-.2,4.44-.3,1.47-.1,2.94-.2,4.41-.29,1.47-.1,2.94-.2,4.41-.29,1.47-.1,2.95-.2,4.44-.3,1.49-.1,2.98-.2,4.49-.3,1.51-.1,3.02-.2,4.56-.3,1.53-.1,3.09-.21,4.66-.31,1.57-.1,3.16-.21,4.78-.32,1.62-.11,3.26-.22,4.92-.33,1.67-.11,3.36-.22,5.09-.34,1.73-.12,3.49-.23,5.29-.35s3.63-.24,5.51-.37c1.87-.13,3.79-.25,5.75-.38,1.36-.09,2.7-.31,3.99-.66,1.3-.35,2.56-.82,3.78-1.43,1.23-.61,2.42-1.34,3.58-2.2s2.28-1.86,3.37-2.98c1.09-1.12,2.14-2.38,3.16-3.76,1.02-1.38,2.01-2.9,2.96-4.54.95-1.64,1.87-3.42,2.75-5.33.56-1.21,1.1-2.45,1.61-3.71s.99-2.55,1.45-3.86c.46-1.31.89-2.65,1.3-4.01s.79-2.75,1.15-4.16c.36-1.41.69-2.85.99-4.31s.59-2.94.84-4.45c.25-1.51.48-3.04.69-4.6.2-1.56.38-3.14.54-4.75.15-1.61.28-3.24.38-4.89s.18-3.33.23-5.04.08-3.43.08-5.18v-49.91c0-1.72,0-3.42,0-5.11v-75.16c0-1.5,0-3,0-4.5v-75.16c0-1.69,0-3.4,0-5.11v-49.91c0-1.92-.03-3.81-.09-5.66-.06-1.85-.15-3.66-.28-5.44-.12-1.78-.28-3.51-.46-5.21-.19-1.7-.4-3.36-.65-4.99-.25-1.62-.52-3.21-.83-4.76s-.65-3.06-1.02-4.53c-.37-1.47-.77-2.91-1.2-4.3-.43-1.4-.89-2.75-1.39-4.07-.49-1.32-1.02-2.6-1.57-3.84-.55-1.24-1.14-2.45-1.76-3.61-1.03-1.94-2.1-3.69-3.23-5.25-1.12-1.56-2.29-2.93-3.51-4.11-1.22-1.18-2.48-2.17-3.79-2.97s-2.67-1.41-4.07-1.83c-1.4-.42-2.86-.66-4.35-.7s-3.04.1-4.64.43c-1.95.4-3.88.8-5.79,1.2s-3.79.79-5.66,1.17c-1.87.39-3.71.77-5.54,1.15s-3.63.75-5.42,1.12-3.56.74-5.32,1.1c-1.75.36-3.49.72-5.21,1.08-1.72.36-3.43.71-5.12,1.06-1.69.35-3.36.7-5.03,1.04s-3.31.69-4.94,1.02c-1.63.34-3.25.67-4.86,1.01-1.61.33-3.2.66-4.79.99-1.58.33-3.16.65-4.72.98-1.56.32-3.12.65-4.66.97-1.54.32-3.08.64-4.61.95-1.53.32-3.05.63-4.56.94-1.51.31-3.02.63-4.52.94-1.5.31-2.99.62-4.48.93s-2.97.62-4.45.92-2.95.61-4.43.92c-1.47.31-2.94.61-4.41.91-1.47.3-2.93.61-4.4.91-1.46.3-2.93.61-4.39.91s-2.93.61-4.39.91-2.93.61-4.4.91c-1.47.3-2.94.61-4.41.91-1.47.31-2.95.61-4.43.92-1.48.31-2.96.61-4.45.92-1.49.31-2.98.62-4.48.93-1.5.31-3,.62-4.52.94-1.51.31-3.03.63-4.56.94-1.53.32-3.06.63-4.61.95-1.54.32-3.1.64-4.66.97s-3.14.65-4.72.98c-1.59.33-3.18.66-4.79.99-1.61.33-3.23.67-4.86,1.01-1.63.34-3.28.68-4.94,1.02s-3.34.69-5.03,1.04c-1.69.35-3.4.7-5.12,1.06-1.72.36-3.46.72-5.21,1.08s-3.53.73-5.32,1.1c-1.79.37-3.6.75-5.42,1.12s-3.67.76-5.54,1.15-3.75.78-5.66,1.17c-1.91.4-3.84.79-5.79,1.2,0,2,0,3.99,0,5.97,0,1.98,0,3.95,0,5.91,0,1.96,0,3.91,0,5.86,0,1.94,0,3.88,0,5.81,0,1.93,0,3.84,0,5.75,0,1.91,0,3.81,0,5.7,0,1.89,0,3.78,0,5.66s0,3.75,0,5.61c0,1.86,0,3.71,0,5.56,0,1.85,0,3.68,0,5.51,0,1.83,0,3.65,0,5.47,0,1.82,0,3.62,0,5.42s0,3.59,0,5.38c0,1.79,0,3.57,0,5.34s0,3.54,0,5.3c0,1.76,0,3.51,0,5.26s0,3.49,0,5.22,0,3.46,0,5.18c0,1.72,0,3.44,0,5.14s0,3.41,0,5.11,0,3.39,0,5.07,0,3.36,0,5.04,0,3.34,0,5.01c0,1.66,0,3.32,0,4.97s0,3.3,0,4.94,0,3.28,0,4.91,0,3.26,0,4.88,0,3.24,0,4.86,0,3.22,0,4.83,0,3.21,0,4.8c0,1.6,0,3.19,0,4.78,0,1.59,0,3.17,0,4.76,0,1.58,0,3.16,0,4.73s0,3.14,0,4.71c0,1.57,0,3.13,0,4.69s0,3.12,0,4.67,0,3.11,0,4.65c0,1.55,0,3.09,0,4.64,0,1.54,0,3.08,0,4.62s0,3.07,0,4.6c0,1.53,0,3.06,0,4.59,0,1.53,0,3.05,0,4.58s0,3.04,0,4.56,0,3.04,0,4.55c0,1.52,0,3.03,0,4.54s0,3.02,0,4.53,0,3.02,0,4.53,0,3.01,0,4.52c0,1.5,0,3.01,0,4.51,0,1.5,0,3.01,0,4.51s0,3,0,4.5,0,3,0,4.5,0,3,0,4.5c0,1.5,0,3,0,4.5s0,3,0,4.5c0,1.5,0,3,0,4.5s0,3,0,4.5,0,3,0,4.5,0,3,0,4.51c0,1.5,0,3.01,0,4.51s0,3.01,0,4.52c0,1.51,0,3.02,0,4.52,0,1.51,0,3.02,0,4.53,0,1.51,0,3.03,0,4.54s0,3.03,0,4.55,0,3.04,0,4.56,0,3.05,0,4.58,0,3.06,0,4.59,0,3.07,0,4.6,0,3.08,0,4.62,0,3.09,0,4.64c0,1.55,0,3.1,0,4.65,0,1.55,0,3.11,0,4.67,0,1.56,0,3.12,0,4.69s0,3.14,0,4.71,0,3.15,0,4.73c0,1.58,0,3.17,0,4.76s0,3.18,0,4.78,0,3.2,0,4.8c0,1.61,0,3.22,0,4.83,0,1.61,0,3.23,0,4.86s0,3.25,0,4.88c0,1.63,0,3.27,0,4.91,0,1.64,0,3.29,0,4.94s0,3.31,0,4.97,0,3.33,0,5.01c0,1.67,0,3.35,0,5.04s0,3.38,0,5.07c0,1.7,0,3.4,0,5.11,0,1.71,0,3.42,0,5.14,0,1.72,0,3.45,0,5.18,0,1.73,0,3.47,0,5.22,0,1.75,0,3.5,0,5.26s0,3.52,0,5.3c0,1.77,0,3.55,0,5.34,0,1.79,0,3.58,0,5.38,0,1.8,0,3.61,0,5.42,0,1.82,0,3.64,0,5.47,0,1.83,0,3.67,0,5.51,0,1.85,0,3.7,0,5.56s0,3.73,0,5.61c0,1.88,0,3.76,0,5.66,0,1.89,0,3.79,0,5.7,0,1.91,0,3.83,0,5.75,0,1.93,0,3.86,0,5.81,0,1.94,0,3.9,0,5.86,0,1.96,0,3.93,0,5.91,0,1.98,0,3.97,0,5.97h106.87ZM964.03,404.49c0-1.96,0-3.89,0-5.8,0-1.91,0-3.79,0-5.65,0-1.86,0-3.69,0-5.51,0-1.81,0-3.6,0-5.37,0-1.77,0-3.52,0-5.25,0-1.73,0-3.44,0-5.13,0-1.69,0-3.37,0-5.03,0-1.66,0-3.3,0-4.93,0-1.63,0-3.24,0-4.84,0-1.6,0-3.18,0-4.76s0-3.13,0-4.68c0-1.55,0-3.09,0-4.62,0-1.53,0-3.05,0-4.56,0-1.51,0-3.02,0-4.52,0-1.5,0-2.99,0-4.48,0-1.49,0-2.97,0-4.45,0-1.48,0-2.95,0-4.43,0-1.47,0-2.94,0-4.41,0-1.47,0-2.94,0-4.41,0-1.47,0-2.94,0-4.41s0-2.95,0-4.43c0-1.48,0-2.96,0-4.45,0-1.49,0-2.98,0-4.48s0-3,0-4.52c0-1.51,0-3.03,0-4.56,0-1.53,0-3.07,0-4.62,0-1.55,0-3.11,0-4.68,0-1.57,0-3.16,0-4.76,0-1.6,0-3.21,0-4.84,0-1.63,0-3.27,0-4.93,0-1.66,0-3.33,0-5.03,0-1.69,0-3.4,0-5.13,0-1.73,0-3.48,0-5.25,0-1.77,0-3.56,0-5.37,0-1.81,0-3.65,0-5.51,0-1.86,0-3.74,0-5.65,0-1.91,0-3.84,0-5.8,1.63-.28,3.09-.53,4.46-.76,1.37-.23,2.64-.45,3.87-.66s2.44-.42,3.68-.63c1.24-.21,2.51-.43,3.87-.66,1.37-.23,2.83-.48,4.46-.76,1.16-.2,2.24-.15,3.24.14,1,.29,1.93.83,2.77,1.61.85.78,1.62,1.81,2.31,3.08s1.31,2.79,1.85,4.55c.36,1.17.69,2.42.99,3.74s.57,2.71.81,4.17c.24,1.46.45,2.99.63,4.59.18,1.6.33,3.28.45,5.02s.21,3.56.27,5.45.09,3.84.09,5.87c0,1.94,0,3.83,0,5.67,0,1.85,0,3.66,0,5.42,0,1.77,0,3.5,0,5.2,0,1.7,0,3.37,0,5,0,1.64,0,3.25,0,4.83,0,1.59,0,3.15,0,4.69s0,3.06,0,4.57c0,1.51,0,3,0,4.48,0,1.48,0,2.95,0,4.41,0,1.46,0,2.92,0,4.37,0,1.45,0,2.9,0,4.36,0,1.45,0,2.91,0,4.37,0,1.46,0,2.93,0,4.41,0,1.48,0,2.97,0,4.48,0,1.51,0,3.03,0,4.57,0,1.54,0,3.1,0,4.69,0,1.59,0,3.19,0,4.83,0,1.64,0,3.3,0,5,0,1.7,0,3.43,0,5.2,0,1.77,0,3.58,0,5.42,0,1.85,0,3.74,0,5.68,0,1.82-.02,3.58-.06,5.29-.04,1.71-.1,3.37-.18,4.98-.08,1.61-.18,3.17-.31,4.67-.12,1.51-.27,2.96-.43,4.36s-.35,2.75-.55,4.05c-.2,1.3-.43,2.54-.68,3.73s-.51,2.33-.8,3.42c-.5,1.91-1.1,3.59-1.78,5.05-.68,1.46-1.46,2.7-2.33,3.71-.87,1.01-1.83,1.81-2.88,2.38-1.05.57-2.19.92-3.42,1.05-1.63.17-3.09.32-4.46.46s-2.64.27-3.88.4c-1.24.13-2.44.25-3.68.38-1.24.13-2.51.26-3.88.4s-2.83.29-4.46.46ZM1109.73,685.3c-.29-1.98-.58-3.94-.86-5.88-.28-1.94-.56-3.85-.84-5.75-.28-1.9-.55-3.77-.82-5.62-.27-1.85-.54-3.69-.81-5.5-.27-1.82-.53-3.61-.79-5.39-.26-1.78-.52-3.54-.78-5.28-.26-1.74-.51-3.47-.76-5.18s-.5-3.41-.75-5.09c-.25-1.68-.49-3.35-.73-5s-.48-3.29-.72-4.92-.48-3.24-.71-4.84c-.24-1.6-.47-3.19-.7-4.77-.23-1.58-.46-3.15-.69-4.71-.23-1.56-.46-3.11-.69-4.65s-.45-3.07-.68-4.6c-.22-1.53-.45-3.04-.67-4.56-.22-1.51-.45-3.02-.67-4.52-.22-1.5-.44-2.99-.66-4.48-.22-1.49-.44-2.98-.66-4.46-.22-1.48-.44-2.96-.66-4.44-.22-1.48-.44-2.95-.65-4.42s-.44-2.94-.65-4.42c-.22-1.47-.44-2.94-.65-4.41-.22-1.47-.44-2.94-.65-4.42s-.44-2.95-.66-4.43-.44-2.96-.66-4.44c-.22-1.48-.44-2.97-.66-4.47s-.44-2.99-.67-4.49c-.22-1.5-.45-3.01-.67-4.53-.22-1.52-.45-3.04-.68-4.57-.23-1.53-.46-3.07-.69-4.61-.23-1.55-.46-3.1-.69-4.67s-.47-3.14-.7-4.73-.47-3.18-.71-4.79c-.24-1.61-.48-3.23-.72-4.86-.24-1.63-.49-3.28-.73-4.94-.25-1.66-.5-3.33-.75-5.02-.25-1.69-.5-3.39-.76-5.11-.26-1.72-.51-3.45-.78-5.2-.26-1.75-.52-3.52-.79-5.3s-.53-3.58-.81-5.4-.55-3.66-.82-5.52-.56-3.73-.84-5.63c-.28-1.9-.57-3.82-.86-5.76-1.96.15-3.87.3-5.75.44-1.87.14-3.71.28-5.51.42-1.8.14-3.56.27-5.29.4s-3.43.26-5.09.39c-1.67.13-3.31.25-4.92.38s-3.21.24-4.78.36c-1.57.12-3.12.24-4.66.36s-3.05.23-4.56.35c-1.51.11-3,.23-4.49.34-1.49.11-2.96.23-4.44.34-1.47.11-2.94.22-4.41.34s-2.94.22-4.41.34c-1.47.11-2.95.23-4.44.34-1.49.11-2.98.23-4.49.34-1.51.12-3.02.23-4.56.35-1.53.12-3.09.24-4.66.36-1.57.12-3.16.24-4.78.36-1.62.12-3.26.25-4.92.38-1.67.13-3.36.26-5.09.39-1.73.13-3.49.27-5.29.4-1.8.14-3.63.28-5.51.42-1.87.14-3.79.29-5.75.44.28,1.96.55,3.89.82,5.8.27,1.91.54,3.8.8,5.67.26,1.87.53,3.72.79,5.55.26,1.83.52,3.64.77,5.43.25,1.79.5,3.56.75,5.32.25,1.76.49,3.49.74,5.22.24,1.72.48,3.43.72,5.12.24,1.69.48,3.37.71,5.03s.47,3.31.7,4.94c.23,1.63.46,3.26.69,4.87s.45,3.21.68,4.79c.22,1.59.45,3.16.67,4.73.22,1.57.44,3.12.66,4.67.22,1.55.43,3.09.65,4.62s.43,3.06.64,4.58c.21,1.52.43,3.03.64,4.54.21,1.51.42,3.01.63,4.51.21,1.5.42,2.99.63,4.48s.42,2.98.63,4.46c.21,1.49.42,2.97.63,4.45.21,1.48.42,2.97.62,4.45s.42,2.97.62,4.45.42,2.97.63,4.46.42,2.98.63,4.47.42,2.99.63,4.5c.21,1.5.42,3.01.63,4.52.21,1.51.42,3.03.64,4.56.21,1.53.43,3.06.64,4.6.22,1.54.43,3.09.65,4.65.22,1.56.44,3.13.66,4.71.22,1.58.44,3.17.67,4.77.22,1.6.45,3.22.68,4.84.23,1.63.46,3.27.69,4.92s.46,3.32.7,5,.47,3.38.71,5.09c.24,1.71.48,3.44.72,5.19.24,1.75.49,3.51.74,5.29s.5,3.58.75,5.41c.25,1.82.51,3.66.77,5.52s.52,3.74.79,5.65c.26,1.9.53,3.83.8,5.78s.55,3.92.82,5.92h110.57Z"/>
    </g>
  </g>
</svg>