<?xml version="1.0" encoding="UTF-8"?>
<svg id="Layer_2" data-name="Layer 2" xmlns="http://www.w3.org/2000/svg" viewBox="0 0 1200 770.12">
  <defs>
    <style>
      .cls-1 {
        fill: #dd1f26;
      }

      .cls-1, .cls-2 {
        stroke-width: 0px;
      }

      .cls-2 {
        fill: #fff;
      }

      .cls-3 {
        fill: #f5ae27;
      }
    </style>
  </defs>
  <g id="Layer_4" data-name="Layer 4">
    <path class="cls-3" d="M34.1,231.7L1148.22.9c26.54-5.5,51.44,14.76,51.46,41.87l.32,684.55c.01,23.64-19.15,42.81-42.79,42.8l-1114.44-.34c-23.62,0-42.77-19.16-42.77-42.78v-453.41c0-20.28,14.24-37.78,34.1-41.89Z"/>
    <g>
      <path class="cls-1" d="M229.14,690.3c1.38,0,2.7-.26,3.95-.78,1.26-.52,2.45-1.3,3.58-2.35,1.13-1.05,2.2-2.35,3.21-3.93s1.95-3.41,2.83-5.51c.5-1.2.97-2.44,1.4-3.72.43-1.28.83-2.6,1.19-3.96.36-1.36.68-2.76.97-4.19s.54-2.91.76-4.43c.22-1.51.4-3.07.54-4.66s.25-3.22.33-4.89c.07-1.67.11-3.38.11-5.13,0-1.93,0-3.83,0-5.69,0-1.86,0-3.68,0-5.48,0-1.79,0-3.55,0-5.28,0-1.73,0-3.43,0-5.1s0-3.32,0-4.95c0-1.62,0-3.23,0-4.81s0-3.14,0-4.69c0-1.54,0-3.07,0-4.59s0-3.01,0-4.5c0-1.49,0-2.97,0-4.44,0-1.47,0-2.93,0-4.39,0-1.46,0-2.91,0-4.36,0-1.45,0-2.9,0-4.35,0-1.45,0-2.9,0-4.36,0-1.46,0-2.92,0-4.39,0-1.47,0-2.95,0-4.44,0-1.49,0-2.99,0-4.5,0-1.51,0-3.04,0-4.59,0-1.54,0-3.11,0-4.69s0-3.18,0-4.81,0-3.27,0-4.95c0-1.67,0-3.38,0-5.11,0-1.73,0-3.49,0-5.28,0-1.79,0-3.62,0-5.48,0-1.86,0-3.76,0-5.69,0-1.96-.03-3.86-.08-5.7-.06-1.84-.14-3.63-.26-5.37-.11-1.73-.26-3.41-.43-5.03-.17-1.62-.37-3.18-.61-4.69-.23-1.51-.49-2.95-.78-4.34s-.61-2.73-.95-4c-.35-1.28-.72-2.5-1.13-3.66-.4-1.16-.84-2.27-1.3-3.32-.74-1.68-1.53-3.19-2.38-4.53-.84-1.34-1.74-2.52-2.69-3.53s-1.94-1.85-2.99-2.53-2.15-1.19-3.3-1.53c-1.15-.35-2.36-.53-3.61-.54,0-1.02,0-1.79,0-2.55,0-.77,0-1.53,0-2.55,1.18-.36,2.31-.85,3.39-1.49s2.11-1.41,3.1-2.33c.98-.91,1.92-1.97,2.8-3.16.88-1.2,1.72-2.53,2.5-4.01.79-1.48,1.52-3.09,2.21-4.85.43-1.1.83-2.24,1.21-3.44s.72-2.44,1.05-3.72.62-2.63.89-4.01c.27-1.39.51-2.82.73-4.3.22-1.48.4-3.01.57-4.59.16-1.58.3-3.2.41-4.87.11-1.67.19-3.39.24-5.16.05-1.77.08-3.58.08-5.44,0-1.88,0-3.69,0-5.45,0-1.76,0-3.47,0-5.13,0-1.66,0-3.28,0-4.85,0-1.58,0-3.12,0-4.63,0-1.51,0-2.99,0-4.45,0-1.46,0-2.9,0-4.33,0-1.43,0-2.84,0-4.25s0-2.82,0-4.23c0-1.41,0-2.83,0-4.25,0-1.43,0-2.87,0-4.33,0-1.46,0-2.94,0-4.45s0-3.05,0-4.63c0-1.58,0-3.19,0-4.85s0-3.37,0-5.13c0-1.76,0-3.58,0-5.45,0-1.76,0-3.37,0-4.88,0-1.51,0-2.93,0-4.29s0-2.68,0-4,0-2.63,0-4c0-1.37,0-2.78,0-4.29s0-3.12,0-4.88c0-1.74-.03-3.44-.1-5.1-.07-1.65-.18-3.26-.32-4.82s-.32-3.08-.54-4.55c-.21-1.47-.46-2.89-.75-4.27-.29-1.38-.61-2.71-.97-3.99s-.75-2.52-1.18-3.71-.9-2.33-1.4-3.43c-.88-1.91-1.82-3.55-2.82-4.92s-2.07-2.45-3.2-3.26c-1.13-.81-2.32-1.35-3.57-1.61-1.25-.26-2.57-.25-3.95.04-1.9.39-3.77.78-5.61,1.16-1.84.38-3.65.76-5.42,1.12s-3.53.73-5.25,1.09c-1.72.36-3.42.71-5.09,1.05-1.67.35-3.32.69-4.94,1.02-1.62.34-3.23.67-4.81,1-1.58.33-3.15.65-4.69.97-1.55.32-3.08.64-4.59.95-1.52.31-3.02.62-4.5.93s-2.97.61-4.43.92c-1.47.3-2.92.61-4.37.91s-2.89.6-4.33.9-2.87.59-4.3.89c-1.43.3-2.86.59-4.29.89-1.43.3-2.86.59-4.29.89s-2.86.59-4.3.89-2.88.6-4.33.9-2.91.6-4.37.91-2.94.61-4.43.92c-1.49.31-2.99.62-4.5.93-1.52.31-3.05.63-4.59.95-1.55.32-3.11.64-4.69.97-1.58.33-3.19.66-4.81,1-1.62.34-3.27.68-4.94,1.02-1.67.35-3.37.7-5.09,1.05-1.72.36-3.47.72-5.25,1.09-1.78.37-3.58.74-5.42,1.12-1.84.38-3.71.77-5.61,1.16,0,1.99,0,3.97,0,5.94s0,3.92,0,5.86,0,3.87,0,5.79c0,1.92,0,3.82,0,5.71,0,1.89,0,3.77,0,5.64,0,1.87,0,3.73,0,5.57s0,3.68,0,5.51c0,1.83,0,3.64,0,5.44,0,1.8,0,3.6,0,5.38,0,1.78,0,3.56,0,5.32,0,1.76,0,3.52,0,5.26,0,1.75,0,3.48,0,5.21,0,1.73,0,3.45,0,5.15,0,1.71,0,3.41,0,5.1,0,1.69,0,3.38,0,5.05,0,1.68,0,3.34,0,5.01,0,1.66,0,3.31,0,4.96,0,1.65,0,3.28,0,4.92,0,1.63,0,3.26,0,4.88s0,3.23,0,4.84,0,3.21,0,4.8c0,1.59,0,3.18,0,4.76,0,1.58,0,3.16,0,4.73,0,1.57,0,3.14,0,4.7s0,3.12,0,4.67,0,3.1,0,4.64c0,1.54,0,3.08,0,4.62,0,1.54,0,3.07,0,4.6,0,1.53,0,3.05,0,4.58s0,3.04,0,4.56,0,3.03,0,4.54c0,1.51,0,3.02,0,4.53s0,3.01,0,4.51c0,1.5,0,3,0,4.5,0,1.5,0,3,0,4.49s0,2.99,0,4.49,0,2.99,0,4.48c0,1.49,0,2.99,0,4.48,0,1.49,0,2.99,0,4.48,0,1.49,0,2.99,0,4.48s0,2.99,0,4.49c0,1.5,0,3,0,4.49s0,3,0,4.5c0,1.5,0,3.01,0,4.51s0,3.01,0,4.53c0,1.51,0,3.02,0,4.54,0,1.52,0,3.03,0,4.56,0,1.52,0,3.05,0,4.58,0,1.53,0,3.06,0,4.6s0,3.07,0,4.62,0,3.09,0,4.64,0,3.11,0,4.67,0,3.13,0,4.7,0,3.15,0,4.73c0,1.58,0,3.17,0,4.76,0,1.59,0,3.19,0,4.8,0,1.61,0,3.22,0,4.84s0,3.24,0,4.88c0,1.63,0,3.27,0,4.92,0,1.65,0,3.3,0,4.96s0,3.33,0,5.01c0,1.68,0,3.36,0,5.05,0,1.69,0,3.39,0,5.1,0,1.71,0,3.43,0,5.15,0,1.73,0,3.46,0,5.21,0,1.75,0,3.5,0,5.26,0,1.76,0,3.54,0,5.32,0,1.78,0,3.58,0,5.38,0,1.8,0,3.62,0,5.44s0,3.66,0,5.51,0,3.7,0,5.57,0,3.75,0,5.64,0,3.8,0,5.71c0,1.92,0,3.84,0,5.79s0,3.89,0,5.86c0,1.97,0,3.94,0,5.94h134.74ZM160.48,523.83c1.98-.17,3.63-.32,5.17-.45,1.54-.14,2.97-.26,4.51-.4,1.54-.14,3.19-.28,5.17-.45,1.33-.12,2.46.27,3.39,1.15.93.89,1.65,2.28,2.17,4.17.26.95.49,1.99.68,3.14.2,1.15.36,2.4.49,3.75.13,1.35.23,2.8.29,4.36.06,1.55.1,3.21.09,4.96,0,1.99,0,3.9,0,5.73,0,1.83,0,3.59,0,5.28s0,3.34,0,4.94,0,3.16,0,4.69c0,1.53,0,3.04,0,4.54,0,1.5,0,2.99,0,4.49,0,1.5,0,3.01,0,4.54,0,1.53,0,3.09,0,4.69s0,3.24,0,4.94,0,3.45,0,5.28c0,1.83,0,3.73,0,5.73,0,1.75-.04,3.42-.1,4.99-.07,1.57-.17,3.05-.3,4.44-.13,1.39-.3,2.69-.49,3.9-.2,1.21-.43,2.32-.69,3.35-.52,2.05-1.25,3.6-2.18,4.65-.93,1.05-2.06,1.59-3.39,1.64-1.98.07-3.63.13-5.17.19-1.54.06-2.97.11-4.51.16-1.54.06-3.19.11-5.17.19,0-1.97,0-3.89,0-5.77,0-1.88,0-3.71,0-5.51,0-1.79,0-3.55,0-5.27s0-3.41,0-5.06c0-1.66,0-3.28,0-4.88s0-3.18,0-4.74c0-1.56,0-3.1,0-4.62s0-3.03,0-4.53c0-1.5,0-2.99,0-4.47,0-1.48,0-2.96,0-4.44,0-1.48,0-2.96,0-4.44,0-1.48,0-2.97,0-4.47,0-1.5,0-3.01,0-4.53,0-1.52,0-3.06,0-4.62,0-1.56,0-3.13,0-4.74,0-1.6,0-3.23,0-4.88,0-1.66,0-3.34,0-5.06s0-3.47,0-5.27,0-3.63,0-5.51c0-1.88,0-3.8,0-5.77ZM160.62,366.1c1.94-.33,3.56-.61,5.07-.87,1.51-.26,2.91-.5,4.42-.76,1.51-.26,3.13-.54,5.07-.87,1.14-.2,2.14.07,3,.8.86.73,1.57,1.92,2.14,3.58.28.83.53,1.76.75,2.8.21,1.04.39,2.18.53,3.42.14,1.24.25,2.59.32,4.05s.1,3.01.1,4.67c0,1.88,0,3.67,0,5.39,0,1.71,0,3.35,0,4.93,0,1.58,0,3.11,0,4.59,0,1.49,0,2.94,0,4.37,0,1.43,0,2.84,0,4.26,0,1.41,0,2.82,0,4.26,0,1.43,0,2.88,0,4.37,0,1.49,0,3.01,0,4.59,0,1.58,0,3.22,0,4.93,0,1.71,0,3.5,0,5.39,0,1.57-.04,3.07-.1,4.5-.07,1.43-.17,2.79-.3,4.07-.13,1.29-.3,2.5-.49,3.64-.2,1.14-.43,2.22-.69,3.22-.52,2-1.23,3.54-2.11,4.62-.88,1.08-1.94,1.69-3.17,1.85-1.94.24-3.56.44-5.07.63-1.51.19-2.91.36-4.42.55-1.51.19-3.13.39-5.07.63,0-1.95,0-3.84,0-5.69,0-1.85,0-3.64,0-5.4s0-3.47,0-5.14,0-3.32,0-4.93c0-1.61,0-3.19,0-4.75,0-1.56,0-3.09,0-4.6,0-1.51,0-3.01,0-4.5,0-1.48,0-2.96,0-4.42,0-1.47,0-2.93,0-4.39,0-1.46,0-2.92,0-4.39,0-1.47,0-2.94,0-4.42s0-2.98,0-4.5c0-1.51,0-3.05,0-4.6,0-1.56,0-3.14,0-4.75s0-3.25,0-4.93,0-3.39,0-5.14,0-3.55,0-5.4c0-1.84,0-3.74,0-5.69Z"/>
      <path class="cls-1" d="M393.58,690.3c1.18,0,2.32-.19,3.41-.58s2.15-.97,3.16-1.74,1.98-1.74,2.91-2.91,1.82-2.52,2.66-4.08c.85-1.55,1.65-3.3,2.41-5.25.48-1.22.92-2.47,1.34-3.76s.8-2.62,1.16-3.99c.36-1.37.69-2.77.98-4.21.3-1.44.57-2.92.81-4.44s.45-3.07.63-4.66c.18-1.59.33-3.22.45-4.88.12-1.66.21-3.37.27-5.1.06-1.74.09-3.51.09-5.33,0-1.99,0-3.97,0-5.94,0-1.97,0-3.92,0-5.87,0-1.94,0-3.88,0-5.8,0-1.92,0-3.83,0-5.73,0-1.9,0-3.78,0-5.66,0-1.88,0-3.74,0-5.59,0-1.85,0-3.7,0-5.53,0-1.83,0-3.65,0-5.47,0-1.81,0-3.61,0-5.41s0-3.57,0-5.35c0-1.77,0-3.54,0-5.29,0-1.75,0-3.5,0-5.24s0-3.46,0-5.18c0-1.72,0-3.43,0-5.13,0-1.7,0-3.4,0-5.08s0-3.37,0-5.04c0-1.67,0-3.34,0-4.99s0-3.31,0-4.95c0-1.64,0-3.28,0-4.91,0-1.63,0-3.25,0-4.87,0-1.62,0-3.23,0-4.83,0-1.6,0-3.2,0-4.8,0-1.59,0-3.18,0-4.76,0-1.58,0-3.16,0-4.73,0-1.57,0-3.14,0-4.7,0-1.56,0-3.12,0-4.67,0-1.55,0-3.1,0-4.65,0-1.54,0-3.09,0-4.62s0-3.07,0-4.6c0-1.53,0-3.06,0-4.58,0-1.52,0-3.04,0-4.56,0-1.52,0-3.03,0-4.55,0-1.51,0-3.02,0-4.53,0-1.51,0-3.02,0-4.52,0-1.5,0-3.01,0-4.51,0-1.5,0-3,0-4.5,0-1.5,0-3,0-4.49,0-1.5,0-2.99,0-4.49,0-1.5,0-2.99,0-4.49,0-1.5,0-2.99,0-4.49,0-1.5,0-2.99,0-4.49,0-1.5,0-2.99,0-4.49s0-2.99,0-4.49c0-1.5,0-3,0-4.5,0-1.5,0-3,0-4.51,0-1.5,0-3.01,0-4.52,0-1.51,0-3.02,0-4.53,0-1.51,0-3.03,0-4.55,0-1.52,0-3.04,0-4.56,0-1.52,0-3.05,0-4.58,0-1.53,0-3.06,0-4.6,0-1.54,0-3.08,0-4.62,0-1.55,0-3.09,0-4.65,0-1.55,0-3.11,0-4.67,0-1.56,0-3.13,0-4.7,0-1.57,0-3.15,0-4.73,0-1.58,0-3.17,0-4.76,0-1.59,0-3.19,0-4.8,0-1.6,0-3.21,0-4.83,0-1.62,0-3.24,0-4.87s0-3.27,0-4.91c0-1.64,0-3.29,0-4.95,0-1.66,0-3.32,0-4.99,0-1.67,0-3.35,0-5.04s0-3.38,0-5.08,0-3.41,0-5.13c0-1.72,0-3.45,0-5.18s0-3.48,0-5.24c0-1.75,0-3.52,0-5.29,0-1.77,0-3.56,0-5.35s0-3.59,0-5.41c0-1.81,0-3.63,0-5.47s0-3.68,0-5.53,0-3.72,0-5.59,0-3.76,0-5.66,0-3.81,0-5.73c0-1.92,0-3.85,0-5.8,0-1.94,0-3.9,0-5.87,0-1.97,0-3.95,0-5.94-1.95.4-3.82.79-5.64,1.17-1.81.38-3.56.74-5.25,1.09s-3.34.69-4.94,1.02c-1.6.33-3.17.66-4.7.97s-3.04.63-4.53.94c-1.49.31-2.96.61-4.42.92-1.46.3-2.92.61-4.39.91s-2.94.61-4.42.92c-1.49.31-2.99.62-4.53.94-1.53.32-3.1.64-4.7.97-1.6.33-3.25.67-4.94,1.02s-3.44.71-5.25,1.09c-1.81.38-3.69.76-5.64,1.17,0,2,0,3.98,0,5.95s0,3.92,0,5.86c0,1.94,0,3.86,0,5.77s0,3.81,0,5.69,0,3.75,0,5.61,0,3.7,0,5.53c0,1.83,0,3.65,0,5.45,0,1.8,0,3.6,0,5.38,0,1.78,0,3.55,0,5.31,0,1.76,0,3.51,0,5.24,0,1.74,0,3.46,0,5.18,0,1.72,0,3.42,0,5.12,0,1.7,0,3.38,0,5.06,0,1.68,0,3.34,0,5,0,1.66,0,3.31,0,4.95s0,3.27,0,4.9,0,3.24,0,4.85c0,1.61,0,3.21,0,4.81s0,3.18,0,4.77c0,1.58,0,3.16,0,4.73s0,3.13,0,4.69,0,3.11,0,4.66,0,3.09,0,4.63,0,3.07,0,4.61,0,3.06,0,4.58,0,3.04,0,4.56,0,3.03,0,4.54,0,3.02,0,4.53c0,1.51,0,3.01,0,4.52s0,3.01,0,4.51,0,3,0,4.5,0,3,0,4.5c0,1.5,0,3,0,4.5,0,1.5,0,3,0,4.5s0,3.01,0,4.51,0,3.01,0,4.52,0,3.02,0,4.53c0,1.51,0,3.03,0,4.54,0,1.52,0,3.04,0,4.56,0,1.52,0,3.05,0,4.58s0,3.07,0,4.61c0,1.54,0,3.08,0,4.63s0,3.1,0,4.66c0,1.56,0,3.12,0,4.69s0,3.15,0,4.73,0,3.17,0,4.77c0,1.6,0,3.2,0,4.81s0,3.23,0,4.85c0,1.63,0,3.26,0,4.9,0,1.64,0,3.29,0,4.95,0,1.66,0,3.33,0,5,0,1.68,0,3.36,0,5.06,0,1.7,0,3.4,0,5.12s0,3.44,0,5.18c0,1.74,0,3.48,0,5.24,0,1.76,0,3.53,0,5.31,0,1.78,0,3.57,0,5.38s0,3.62,0,5.45,0,3.67,0,5.53c0,1.86,0,3.73,0,5.61s0,3.78,0,5.69,0,3.84,0,5.77,0,3.89,0,5.86c0,1.97,0,3.95,0,5.95,0,2.21-.07,4.27-.2,6.17-.13,1.9-.33,3.65-.59,5.25-.26,1.59-.59,3.03-.98,4.32s-.85,2.41-1.38,3.39c-.7,1.3-1.48,2.4-2.35,3.28s-1.82,1.56-2.86,2.02c-1.04.47-2.16.72-3.36.77-1.21.05-2.33-.12-3.36-.52-1.04-.4-1.99-1.02-2.85-1.87-.87-.85-1.65-1.92-2.34-3.22-.52-.97-.98-2.09-1.37-3.36s-.72-2.7-.98-4.28c-.26-1.58-.46-3.31-.58-5.19-.13-1.88-.19-3.91-.19-6.1,0-1.97,0-3.93,0-5.88,0-1.94,0-3.87,0-5.79s0-3.81,0-5.7c0-1.89,0-3.76,0-5.62,0-1.86,0-3.7,0-5.53,0-1.83,0-3.65,0-5.46,0-1.81,0-3.6,0-5.38,0-1.78,0-3.55,0-5.31,0-1.76,0-3.5,0-5.24,0-1.74,0-3.46,0-5.17,0-1.71,0-3.42,0-5.11,0-1.69,0-3.38,0-5.05,0-1.67,0-3.34,0-4.99,0-1.65,0-3.3,0-4.94,0-1.64,0-3.26,0-4.88,0-1.62,0-3.23,0-4.83,0-1.6,0-3.2,0-4.79,0-1.59,0-3.17,0-4.75,0-1.57,0-3.14,0-4.7,0-1.56,0-3.12,0-4.67s0-3.09,0-4.63c0-1.54,0-3.07,0-4.6s0-3.05,0-4.57,0-3.03,0-4.55,0-3.02,0-4.52c0-1.5,0-3,0-4.5,0-1.5,0-2.99,0-4.49s0-2.98,0-4.47,0-2.97,0-4.46,0-2.97,0-4.45c0-1.48,0-2.96,0-4.44,0-1.48,0-2.96,0-4.44,0-1.48,0-2.96,0-4.44,0-1.48,0-2.96,0-4.44,0-1.48,0-2.97,0-4.45,0-1.48,0-2.97,0-4.46,0-1.49,0-2.98,0-4.47s0-2.99,0-4.49c0-1.5,0-3,0-4.5s0-3.01,0-4.52,0-3.03,0-4.55c0-1.52,0-3.04,0-4.57,0-1.53,0-3.06,0-4.6,0-1.54,0-3.08,0-4.63,0-1.55,0-3.11,0-4.67,0-1.56,0-3.13,0-4.7,0-1.57,0-3.16,0-4.75,0-1.59,0-3.18,0-4.79,0-1.6,0-3.22,0-4.83,0-1.62,0-3.25,0-4.88s0-3.28,0-4.94c0-1.65,0-3.32,0-4.99,0-1.67,0-3.36,0-5.05,0-1.69,0-3.4,0-5.11,0-1.71,0-3.44,0-5.17,0-1.74,0-3.48,0-5.24s0-3.53,0-5.31,0-3.57,0-5.38,0-3.62,0-5.46c0-1.83,0-3.68,0-5.53s0-3.73,0-5.61c0-1.89,0-3.78,0-5.7,0-1.91,0-3.84,0-5.79,0-1.94,0-3.9,0-5.88-1.9.39-3.73.77-5.51,1.14-1.77.37-3.49.72-5.16,1.07-1.67.35-3.29.68-4.87,1.01-1.58.33-3.12.65-4.63.96-1.51.31-3,.62-4.46.92-1.46.3-2.91.6-4.34.9-1.43.3-2.86.59-4.28.89-1.42.3-2.85.59-4.28.89-1.43.3-2.88.6-4.34.9-1.46.3-2.95.61-4.46.92s-3.05.63-4.63.96c-1.58.33-3.2.66-4.87,1.01-1.67.35-3.38.7-5.16,1.07-1.77.37-3.61.75-5.51,1.14,0,1.98,0,3.94,0,5.89,0,1.95,0,3.89,0,5.81,0,1.92,0,3.84,0,5.73,0,1.9,0,3.79,0,5.66,0,1.87,0,3.74,0,5.59,0,1.85,0,3.69,0,5.52,0,1.83,0,3.65,0,5.45,0,1.81,0,3.6,0,5.39,0,1.79,0,3.56,0,5.33,0,1.76,0,3.52,0,5.26,0,1.75,0,3.48,0,5.21,0,1.73,0,3.44,0,5.15s0,3.41,0,5.1,0,3.37,0,5.04c0,1.67,0,3.34,0,4.99s0,3.31,0,4.95c0,1.64,0,3.27,0,4.9,0,1.63,0,3.25,0,4.86,0,1.61,0,3.22,0,4.82,0,1.6,0,3.19,0,4.78,0,1.59,0,3.17,0,4.74s0,3.14,0,4.71c0,1.56,0,3.12,0,4.67,0,1.55,0,3.1,0,4.64,0,1.54,0,3.08,0,4.62,0,1.53,0,3.06,0,4.59,0,1.53,0,3.05,0,4.57,0,1.52,0,3.03,0,4.54,0,1.51,0,3.02,0,4.52,0,1.51,0,3.01,0,4.51,0,1.5,0,3,0,4.49,0,1.5,0,2.99,0,4.48,0,1.49,0,2.98,0,4.47,0,1.49,0,2.97,0,4.46,0,1.49,0,2.97,0,4.45,0,1.48,0,2.97,0,4.45,0,1.48,0,2.96,0,4.45,0,1.48,0,2.96,0,4.45,0,1.48,0,2.97,0,4.45,0,1.48,0,2.97,0,4.45,0,1.49,0,2.97,0,4.46,0,1.49,0,2.98,0,4.47,0,1.49,0,2.98,0,4.48,0,1.5,0,2.99,0,4.49s0,3,0,4.51c0,1.51,0,3.01,0,4.52,0,1.51,0,3.03,0,4.54,0,1.52,0,3.04,0,4.57,0,1.53,0,3.06,0,4.59s0,3.07,0,4.62c0,1.54,0,3.09,0,4.64,0,1.55,0,3.11,0,4.67,0,1.56,0,3.13,0,4.71,0,1.57,0,3.15,0,4.74s0,3.18,0,4.78c0,1.6,0,3.2,0,4.82,0,1.61,0,3.23,0,4.86s0,3.26,0,4.9c0,1.64,0,3.29,0,4.95s0,3.32,0,4.99c0,1.67,0,3.35,0,5.04s0,3.39,0,5.1c0,1.71,0,3.42,0,5.15s0,3.46,0,5.21c0,1.75,0,3.5,0,5.26,0,1.77,0,3.54,0,5.33,0,1.79,0,3.58,0,5.39,0,1.81,0,3.62,0,5.45,0,1.83,0,3.67,0,5.52,0,1.85,0,3.71,0,5.59,0,1.88,0,3.76,0,5.66s0,3.81,0,5.73,0,3.86,0,5.81c0,1.95,0,3.91,0,5.89,0,1.92.04,3.8.11,5.63.08,1.83.19,3.62.35,5.36.15,1.74.35,3.43.58,5.08.23,1.65.5,3.25.81,4.81s.66,3.07,1.05,4.54c.39,1.47.81,2.89,1.28,4.27.47,1.38.97,2.71,1.51,4,.76,1.81,1.56,3.43,2.41,4.88.84,1.45,1.73,2.72,2.66,3.8s1.9,1.99,2.91,2.72c1.01.73,2.07,1.27,3.16,1.64,1.1.36,2.23.55,3.41.55h112.77Z"/>
      <path class="cls-1" d="M495.5,690.3c0-1.96,0-3.89,0-5.79s0-3.77,0-5.62c0-1.84,0-3.66,0-5.45,0-1.79,0-3.56,0-5.3,0-1.74,0-3.46,0-5.16,0-1.7,0-3.37,0-5.03,0-1.66,0-3.29,0-4.91s0-3.22,0-4.81,0-3.16,0-4.72,0-3.1,0-4.64,0-3.06,0-4.57,0-3.02,0-4.51c0-1.5,0-2.99,0-4.47s0-2.96,0-4.44c0-1.48,0-2.95,0-4.42s0-2.94,0-4.42c0-1.47,0-2.95,0-4.42,0-1.48,0-2.96,0-4.44s0-2.97,0-4.47c0-1.5,0-3,0-4.51s0-3.04,0-4.57,0-3.08,0-4.64c0-1.56,0-3.13,0-4.72,0-1.59,0-3.19,0-4.81,0-1.62,0-3.26,0-4.91,0-1.66,0-3.33,0-5.03,0-1.7,0-3.42,0-5.16,0-1.74,0-3.51,0-5.3,0-1.79,0-3.61,0-5.45,0-1.84,0-3.72,0-5.62,0-1.9,0-3.83,0-5.8,1.99-.14,3.87-.26,5.68-.39,1.81-.12,3.54-.24,5.21-.36,1.67-.11,3.28-.22,4.85-.33,1.57-.11,3.1-.21,4.61-.31s3-.2,4.49-.31c1.49-.1,2.98-.2,4.49-.31s3.04-.21,4.61-.31,3.18-.22,4.85-.33c1.67-.11,3.4-.23,5.21-.36,1.81-.12,3.7-.25,5.68-.39,0-1.98,0-3.91,0-5.8s0-3.74,0-5.55,0-3.59,0-5.33,0-3.46,0-5.14c0-1.68,0-3.34,0-4.97,0-1.63,0-3.23,0-4.82,0-1.58,0-3.15,0-4.7,0-1.55,0-3.08,0-4.6,0-1.52,0-3.03,0-4.53,0-1.5,0-2.99,0-4.48,0-1.49,0-2.97,0-4.45,0-1.48,0-2.97,0-4.45,0-1.49,0-2.98,0-4.48,0-1.5,0-3.01,0-4.53,0-1.52,0-3.05,0-4.6s0-3.11,0-4.7c0-1.58,0-3.19,0-4.82s0-3.28,0-4.97,0-3.39,0-5.14c0-1.74,0-3.52,0-5.33,0-1.81,0-3.66,0-5.55,0-1.89,0-3.82,0-5.8-1.81.21-3.53.41-5.19.6-1.66.19-3.25.38-4.78.55-1.54.18-3.02.35-4.47.52s-2.86.33-4.25.49c-1.39.16-2.75.32-4.11.48-1.36.16-2.71.31-4.07.47s-2.72.32-4.11.48-2.8.32-4.25.49c-1.45.17-2.93.34-4.47.52-1.54.18-3.13.36-4.78.55-1.66.19-3.38.39-5.19.6,0-1.97,0-3.88,0-5.75s0-3.69,0-5.48c0-1.78,0-3.52,0-5.23s0-3.38,0-5.02c0-1.64,0-3.25,0-4.84,0-1.59,0-3.15,0-4.69,0-1.54,0-3.07,0-4.58,0-1.51,0-3.01,0-4.49s0-2.97,0-4.45c0-1.48,0-2.95,0-4.43,0-1.48,0-2.96,0-4.45,0-1.49,0-2.98,0-4.49,0-1.51,0-3.03,0-4.58s0-3.1,0-4.69c0-1.59,0-3.2,0-4.84s0-3.31,0-5.02,0-3.45,0-5.23c0-1.78,0-3.61,0-5.48,0-1.87,0-3.79,0-5.75,1.83-.29,3.58-.56,5.26-.83,1.69-.27,3.31-.52,4.88-.77s3.1-.49,4.58-.72c1.48-.23,2.93-.46,4.35-.69,1.42-.22,2.82-.44,4.2-.66s2.75-.43,4.12-.65c1.37-.22,2.74-.43,4.12-.65s2.78-.44,4.2-.66,2.87-.45,4.35-.69c1.48-.23,3.01-.47,4.58-.72s3.2-.5,4.88-.77,3.44-.54,5.26-.83c0-1.95,0-3.86,0-5.73,0-1.87,0-3.7,0-5.5,0-1.8,0-3.56,0-5.29s0-3.43,0-5.1c0-1.67,0-3.32,0-4.94,0-1.62,0-3.22,0-4.79,0-1.58,0-3.13,0-4.67,0-1.54,0-3.06,0-4.57,0-1.51,0-3.01,0-4.49,0-1.49,0-2.97,0-4.44s0-2.94,0-4.41c0-1.47,0-2.93,0-4.39,0-1.47,0-2.93,0-4.41,0-1.47,0-2.95,0-4.44,0-1.49,0-2.98,0-4.49s0-3.03,0-4.57,0-3.09,0-4.67c0-1.58,0-3.17,0-4.79,0-1.62,0-3.26,0-4.94,0-1.67,0-3.37,0-5.1,0-1.73,0-3.49,0-5.29,0-1.8,0-3.63,0-5.5,0-1.87,0-3.78,0-5.73-1.95.4-3.85.8-5.72,1.19s-3.71.77-5.51,1.14c-1.8.37-3.57.74-5.31,1.1-1.74.36-3.45.71-5.13,1.06s-3.34.69-4.98,1.03c-1.63.34-3.24.67-4.84,1-1.59.33-3.16.65-4.71.98s-3.09.64-4.61.96c-1.52.32-3.03.63-4.53.94s-2.98.62-4.46.92c-1.48.31-2.95.61-4.42.91s-2.93.61-4.39.91c-1.46.3-2.92.6-4.38.91-1.46.3-2.92.61-4.39.91-1.47.3-2.94.61-4.42.91-1.48.31-2.96.61-4.46.92-1.5.31-3.01.62-4.53.94-1.52.32-3.06.63-4.61.96s-3.12.65-4.71.98c-1.59.33-3.2.66-4.84,1-1.63.34-3.29.68-4.98,1.03-1.68.35-3.39.7-5.13,1.06-1.74.36-3.51.73-5.31,1.1-1.8.37-3.64.75-5.51,1.14-1.87.39-3.78.78-5.72,1.19,0,1.99,0,3.97,0,5.94,0,1.97,0,3.92,0,5.87,0,1.95,0,3.88,0,5.81,0,1.93,0,3.84,0,5.75s0,3.8,0,5.69c0,1.89,0,3.76,0,5.63,0,1.87,0,3.72,0,5.57,0,1.85,0,3.68,0,5.51,0,1.83,0,3.65,0,5.46s0,3.61,0,5.41c0,1.79,0,3.58,0,5.35s0,3.54,0,5.3,0,3.51,0,5.26c0,1.74,0,3.48,0,5.21s0,3.45,0,5.16c0,1.71,0,3.42,0,5.12,0,1.7,0,3.39,0,5.08,0,1.68,0,3.36,0,5.03s0,3.34,0,4.99c0,1.66,0,3.31,0,4.96,0,1.65,0,3.29,0,4.92,0,1.63,0,3.26,0,4.88,0,1.62,0,3.24,0,4.85,0,1.61,0,3.22,0,4.82,0,1.6,0,3.2,0,4.79,0,1.59,0,3.18,0,4.76,0,1.58,0,3.16,0,4.73,0,1.57,0,3.14,0,4.7,0,1.56,0,3.12,0,4.68,0,1.56,0,3.11,0,4.65,0,1.55,0,3.09,0,4.63,0,1.54,0,3.08,0,4.61,0,1.53,0,3.06,0,4.59,0,1.53,0,3.05,0,4.57,0,1.52,0,3.04,0,4.56,0,1.52,0,3.03,0,4.54,0,1.51,0,3.02,0,4.53,0,1.51,0,3.01,0,4.52,0,1.5,0,3.01,0,4.51s0,3,0,4.5c0,1.5,0,3,0,4.49,0,1.5,0,2.99,0,4.49,0,1.49,0,2.99,0,4.48,0,1.49,0,2.99,0,4.48,0,1.49,0,2.99,0,4.48,0,1.49,0,2.98,0,4.48s0,2.99,0,4.48c0,1.49,0,2.99,0,4.48,0,1.49,0,2.99,0,4.49,0,1.5,0,2.99,0,4.49,0,1.5,0,3,0,4.5,0,1.5,0,3,0,4.51,0,1.5,0,3.01,0,4.52s0,3.02,0,4.53c0,1.51,0,3.03,0,4.54,0,1.52,0,3.04,0,4.56,0,1.52,0,3.05,0,4.57,0,1.53,0,3.06,0,4.59,0,1.53,0,3.07,0,4.61,0,1.54,0,3.08,0,4.63,0,1.55,0,3.1,0,4.65,0,1.56,0,3.11,0,4.68,0,1.56,0,3.13,0,4.7,0,1.57,0,3.15,0,4.73,0,1.58,0,3.17,0,4.76,0,1.59,0,3.19,0,4.79,0,1.6,0,3.21,0,4.82,0,1.61,0,3.23,0,4.85,0,1.62,0,3.25,0,4.88,0,1.63,0,3.27,0,4.92,0,1.65,0,3.3,0,4.96,0,1.66,0,3.32,0,4.99s0,3.35,0,5.03,0,3.38,0,5.08c0,1.7,0,3.4,0,5.12,0,1.71,0,3.43,0,5.16s0,3.46,0,5.21c0,1.74,0,3.5,0,5.26,0,1.76,0,3.53,0,5.3s0,3.56,0,5.35c0,1.79,0,3.59,0,5.41,0,1.81,0,3.63,0,5.46s0,3.67,0,5.51c0,1.85,0,3.7,0,5.57s0,3.74,0,5.63,0,3.78,0,5.69c0,1.91,0,3.82,0,5.75,0,1.93,0,3.86,0,5.81,0,1.95,0,3.9,0,5.87,0,1.97,0,3.95,0,5.94h66.81Z"/>
      <path class="cls-1" d="M599.43,690.3c.14-1.95.28-3.84.41-5.69s.26-3.65.39-5.4.25-3.47.37-5.15c.12-1.68.24-3.32.36-4.94.12-1.61.23-3.2.34-4.76.11-1.56.22-3.1.33-4.62s.22-3.02.32-4.51c.11-1.49.21-2.97.32-4.44.11-1.47.21-2.94.32-4.4.11-1.47.21-2.93.32-4.4.11-1.47.21-2.95.32-4.44s.21-2.99.32-4.51c.11-1.52.22-3.06.33-4.62.11-1.56.23-3.15.34-4.77.12-1.62.23-3.27.36-4.95s.24-3.41.37-5.17.26-3.57.39-5.43c.13-1.86.27-3.76.41-5.72,1.79-.07,3.46-.13,5.04-.19,1.57-.06,3.06-.11,4.49-.17,1.43-.05,2.8-.11,4.16-.16,1.35-.05,2.69-.1,4.05-.15,1.36-.05,2.73-.1,4.16-.16,1.43-.05,2.91-.11,4.49-.17,1.57-.06,3.24-.12,5.04-.19.13,1.98.26,3.9.39,5.77.13,1.87.25,3.7.37,5.48.12,1.78.24,3.52.35,5.22s.23,3.37.34,5,.22,3.24.32,4.82c.11,1.58.21,3.14.31,4.68s.2,3.06.31,4.57c.1,1.51.2,3.01.3,4.5s.2,2.98.3,4.46c.1,1.49.2,2.97.3,4.46s.2,2.99.3,4.5c.1,1.51.2,3.03.31,4.57.1,1.54.21,3.1.31,4.69s.21,3.19.32,4.83.22,3.31.34,5.02c.11,1.71.23,3.45.35,5.24.12,1.79.24,3.62.37,5.5.13,1.88.25,3.81.39,5.8h70.24c-.15-2.01-.3-4-.44-5.99s-.29-3.96-.44-5.93c-.15-1.97-.29-3.92-.44-5.87-.14-1.95-.29-3.88-.43-5.81s-.29-3.84-.43-5.75c-.14-1.91-.28-3.81-.42-5.7s-.28-3.77-.42-5.64-.28-3.74-.42-5.59c-.14-1.85-.28-3.7-.41-5.54-.14-1.84-.27-3.67-.41-5.49-.14-1.82-.27-3.63-.4-5.44s-.27-3.6-.4-5.39c-.13-1.79-.27-3.57-.4-5.34-.13-1.77-.26-3.54-.39-5.3-.13-1.76-.26-3.51-.39-5.25-.13-1.74-.26-3.48-.39-5.21s-.26-3.45-.39-5.17-.26-3.42-.38-5.13-.25-3.4-.38-5.09-.25-3.37-.38-5.05c-.13-1.68-.25-3.35-.37-5.01-.12-1.66-.25-3.32-.37-4.98-.12-1.65-.25-3.3-.37-4.94-.12-1.64-.24-3.28-.37-4.91-.12-1.63-.24-3.25-.36-4.87-.12-1.62-.24-3.23-.36-4.84-.12-1.61-.24-3.21-.36-4.81s-.24-3.19-.36-4.78-.24-3.18-.36-4.76c-.12-1.58-.24-3.16-.35-4.73-.12-1.57-.23-3.14-.35-4.7-.12-1.56-.23-3.12-.35-4.68s-.23-3.11-.35-4.66-.23-3.09-.35-4.64c-.12-1.54-.23-3.08-.35-4.61-.11-1.53-.23-3.07-.34-4.6-.11-1.53-.23-3.05-.34-4.58-.11-1.52-.23-3.04-.34-4.56s-.23-3.03-.34-4.54c-.11-1.51-.23-3.02-.34-4.53-.11-1.51-.23-3.01-.34-4.52-.11-1.5-.23-3-.34-4.5s-.22-3-.34-4.49c-.11-1.5-.22-2.99-.34-4.48-.11-1.49-.22-2.98-.34-4.47-.11-1.49-.22-2.98-.34-4.47-.11-1.49-.22-2.97-.34-4.46-.11-1.49-.22-2.97-.33-4.45-.11-1.48-.22-2.97-.33-4.45-.11-1.48-.22-2.97-.33-4.45-.11-1.48-.22-2.96-.33-4.45-.11-1.48-.22-2.96-.33-4.44-.11-1.48-.22-2.96-.33-4.45-.11-1.48-.22-2.96-.33-4.45s-.22-2.97-.33-4.45c-.11-1.48-.22-2.97-.34-4.45-.11-1.49-.22-2.97-.34-4.46-.11-1.49-.22-2.98-.34-4.46s-.22-2.98-.34-4.47-.23-2.99-.34-4.48-.23-2.99-.34-4.49c-.11-1.5-.23-3-.34-4.5-.11-1.5-.23-3.01-.34-4.51-.11-1.51-.23-3.02-.34-4.53-.11-1.51-.23-3.02-.34-4.54-.11-1.52-.23-3.03-.34-4.56-.11-1.52-.23-3.05-.35-4.57-.12-1.53-.23-3.06-.35-4.59s-.23-3.07-.35-4.61-.23-3.08-.35-4.63c-.12-1.55-.23-3.1-.35-4.65-.12-1.55-.24-3.11-.35-4.67-.12-1.56-.24-3.13-.36-4.7-.12-1.57-.24-3.14-.36-4.72-.12-1.58-.24-3.16-.36-4.75-.12-1.59-.24-3.18-.36-4.77-.12-1.6-.24-3.2-.36-4.8-.12-1.61-.24-3.22-.37-4.83-.12-1.62-.25-3.24-.37-4.86s-.25-3.26-.37-4.89c-.12-1.64-.25-3.28-.37-4.92-.12-1.65-.25-3.3-.38-4.96s-.25-3.32-.38-4.99c-.13-1.67-.25-3.35-.38-5.03s-.26-3.37-.38-5.07c-.13-1.69-.26-3.4-.39-5.1-.13-1.71-.26-3.42-.39-5.14-.13-1.72-.26-3.45-.39-5.18-.13-1.73-.26-3.48-.4-5.22-.13-1.75-.27-3.5-.4-5.27-.13-1.76-.27-3.53-.4-5.31-.14-1.78-.27-3.56-.41-5.35s-.27-3.59-.41-5.4c-.14-1.81-.28-3.62-.42-5.45-.14-1.82-.28-3.66-.42-5.5-.14-1.84-.28-3.69-.42-5.54-.14-1.86-.28-3.72-.43-5.59-.14-1.87-.29-3.76-.43-5.65s-.29-3.79-.43-5.7c-.15-1.91-.29-3.82-.44-5.75-.15-1.93-.3-3.86-.44-5.81-1.87.39-3.69.76-5.46,1.13-1.78.37-3.51.73-5.21,1.08-1.7.35-3.36.7-4.99,1.03-1.63.34-3.22.67-4.79.99-1.57.32-3.11.64-4.62.96-1.52.31-3.01.62-4.48.93-1.47.31-2.93.61-4.37.91-1.44.3-2.87.59-4.29.89-1.42.29-2.83.59-4.23.88-1.4.29-2.8.58-4.2.87s-2.8.58-4.2.87c-1.4.29-2.81.58-4.23.88-1.42.29-2.85.59-4.29.89-1.44.3-2.9.6-4.37.91-1.47.31-2.97.61-4.48.93s-3.06.63-4.62.96c-1.57.32-3.16.66-4.79.99s-3.29.68-4.99,1.03c-1.7.35-3.43.71-5.21,1.08-1.78.37-3.6.75-5.46,1.13-.16,2.01-.32,4.01-.48,6-.16,1.99-.32,3.97-.47,5.93s-.31,3.93-.47,5.87c-.15,1.95-.31,3.88-.46,5.81s-.31,3.85-.46,5.75-.3,3.81-.45,5.7-.3,3.77-.45,5.64c-.15,1.87-.3,3.73-.45,5.58-.15,1.85-.29,3.7-.44,5.53s-.29,3.66-.44,5.48c-.15,1.82-.29,3.63-.43,5.43-.14,1.8-.29,3.59-.43,5.38-.14,1.78-.28,3.56-.43,5.33s-.28,3.53-.42,5.28c-.14,1.75-.28,3.5-.42,5.23-.14,1.74-.28,3.47-.41,5.19s-.27,3.44-.41,5.15c-.14,1.71-.27,3.41-.41,5.11-.14,1.69-.27,3.38-.41,5.06-.13,1.68-.27,3.36-.4,5.03-.13,1.67-.27,3.33-.4,4.99s-.26,3.31-.4,4.95c-.13,1.64-.26,3.28-.39,4.92s-.26,3.26-.39,4.88c-.13,1.62-.26,3.24-.39,4.85-.13,1.61-.26,3.22-.39,4.82-.13,1.6-.26,3.2-.38,4.79-.13,1.59-.26,3.18-.38,4.76-.13,1.58-.25,3.16-.38,4.73s-.25,3.14-.38,4.7-.25,3.12-.38,4.68-.25,3.11-.37,4.66c-.12,1.55-.25,3.09-.37,4.63-.12,1.54-.25,3.08-.37,4.61s-.25,3.06-.37,4.59c-.12,1.53-.25,3.05-.37,4.57-.12,1.52-.24,3.04-.37,4.56-.12,1.52-.24,3.03-.37,4.54-.12,1.51-.24,3.02-.36,4.53-.12,1.51-.24,3.01-.36,4.51-.12,1.5-.24,3-.36,4.5s-.24,2.99-.36,4.49c-.12,1.49-.24,2.99-.36,4.48-.12,1.49-.24,2.98-.36,4.47s-.24,2.98-.36,4.46c-.12,1.49-.24,2.97-.36,4.46-.12,1.49-.24,2.97-.36,4.45-.12,1.48-.24,2.97-.36,4.45s-.24,2.97-.36,4.45c-.12,1.48-.24,2.97-.36,4.45s-.24,2.97-.36,4.45-.24,2.97-.36,4.45c-.12,1.48-.24,2.97-.36,4.45-.12,1.49-.24,2.97-.36,4.46s-.24,2.97-.36,4.46c-.12,1.49-.24,2.98-.36,4.47-.12,1.49-.24,2.98-.36,4.48-.12,1.49-.24,2.99-.36,4.49s-.24,3-.36,4.5c-.12,1.5-.24,3-.37,4.51s-.24,3.01-.37,4.52c-.12,1.51-.25,3.02-.37,4.54-.12,1.51-.25,3.03-.37,4.55-.12,1.52-.25,3.04-.37,4.57-.12,1.53-.25,3.06-.37,4.59-.12,1.53-.25,3.07-.37,4.61-.12,1.54-.25,3.08-.38,4.63-.13,1.55-.25,3.1-.38,4.65s-.25,3.11-.38,4.67c-.13,1.56-.25,3.13-.38,4.7-.13,1.57-.26,3.14-.38,4.72-.13,1.58-.26,3.16-.39,4.75s-.26,3.18-.39,4.78c-.13,1.6-.26,3.2-.39,4.8s-.26,3.22-.39,4.83c-.13,1.62-.26,3.24-.4,4.87-.13,1.63-.27,3.26-.4,4.9-.13,1.64-.27,3.28-.4,4.93-.13,1.65-.27,3.31-.41,4.97-.14,1.66-.27,3.33-.41,5-.14,1.67-.27,3.35-.41,5.04-.14,1.69-.28,3.38-.41,5.08s-.28,3.41-.42,5.12c-.14,1.71-.28,3.43-.42,5.16-.14,1.73-.28,3.46-.43,5.2-.14,1.74-.29,3.49-.43,5.25-.14,1.76-.29,3.52-.43,5.29-.15,1.77-.29,3.55-.44,5.34s-.29,3.58-.44,5.38c-.15,1.8-.3,3.61-.45,5.43-.15,1.82-.3,3.65-.45,5.48-.15,1.84-.3,3.68-.45,5.53-.15,1.85-.3,3.71-.46,5.58-.15,1.87-.31,3.75-.46,5.64s-.31,3.79-.47,5.69-.31,3.82-.47,5.75c-.16,1.93-.32,3.86-.48,5.8h55.67ZM620.96,357.38c.57-.08.86-.12,1.43-.2.12,1.97.23,3.91.35,5.82.11,1.91.23,3.79.34,5.64.11,1.85.22,3.68.33,5.48.11,1.8.21,3.57.32,5.32.1,1.75.21,3.48.31,5.18s.2,3.39.3,5.06.2,3.31.29,4.94.19,3.24.29,4.84c.09,1.6.19,3.18.28,4.75s.19,3.12.28,4.67c.09,1.54.18,3.08.27,4.6s.18,3.04.27,4.54.18,3.01.27,4.5c.09,1.5.18,2.99.26,4.47s.18,2.97.26,4.46.18,2.97.26,4.45.18,2.97.26,4.46c.09,1.49.18,2.98.26,4.48s.18,3,.27,4.51c.09,1.51.18,3.03.27,4.55.09,1.53.18,3.06.27,4.61.09,1.55.18,3.11.28,4.68.09,1.57.19,3.16.28,4.76s.19,3.22.29,4.85c.1,1.64.19,3.29.29,4.96.1,1.67.2,3.37.3,5.08.1,1.71.2,3.45.31,5.21s.21,3.54.32,5.35.22,3.65.33,5.51.22,3.76.34,5.68.23,3.88.35,5.86c-1.6.12-3.04.23-4.38.33-1.34.1-2.59.2-3.8.29-1.22.09-2.4.18-3.61.27-1.21.09-2.46.19-3.8.29-1.34.1-2.78.21-4.38.33.12-1.99.24-3.94.36-5.87.12-1.93.24-3.82.35-5.69s.23-3.71.34-5.52c.11-1.81.22-3.6.33-5.37.11-1.77.22-3.51.32-5.23s.21-3.42.31-5.1c.1-1.68.21-3.34.31-4.98.1-1.64.2-3.27.3-4.88s.2-3.2.29-4.79c.1-1.58.19-3.15.29-4.71.1-1.56.19-3.1.28-4.64.09-1.54.19-3.06.28-4.58.09-1.52.19-3.03.28-4.54.09-1.51.18-3.01.28-4.51s.18-3,.28-4.49c.09-1.5.18-2.99.28-4.49.09-1.5.18-2.99.28-4.5.09-1.5.18-3.01.28-4.52.09-1.51.19-3.03.28-4.55.09-1.52.19-3.05.28-4.59.09-1.54.19-3.09.28-4.65.1-1.56.19-3.13.29-4.72.1-1.59.19-3.19.29-4.8.1-1.62.2-3.25.3-4.9.1-1.65.2-3.32.31-5s.21-3.39.31-5.12.21-3.48.32-5.26c.11-1.78.22-3.58.33-5.4.11-1.83.22-3.68.34-5.56.11-1.88.23-3.79.35-5.73.12-1.94.24-3.91.36-5.91Z"/>
      <path class="cls-1" d="M836.11,690.3c0-1.93,0-3.83,0-5.69,0-1.86,0-3.69,0-5.48s0-3.56,0-5.29c0-1.73,0-3.44,0-5.12,0-1.68,0-3.33,0-4.97s0-3.24,0-4.83c0-1.59,0-3.16,0-4.71,0-1.55,0-3.09,0-4.61,0-1.52,0-3.03,0-4.52s0-2.98,0-4.45c0-1.47,0-2.94,0-4.4,0-1.46,0-2.92,0-4.37,0-1.45,0-2.9,0-4.35,0-1.45,0-2.9,0-4.35,0-1.45,0-2.91,0-4.37,0-1.46,0-2.93,0-4.4,0-1.47,0-2.96,0-4.45,0-1.49,0-3,0-4.52,0-1.52,0-3.05,0-4.61,0-1.55,0-3.12,0-4.71,0-1.59,0-3.2,0-4.83,0-1.63,0-3.29,0-4.97,0-1.68,0-3.39,0-5.12,0-1.73,0-3.5,0-5.29,0-1.79,0-3.62,0-5.48,0-1.86,0-3.76,0-5.69-1.96.1-3.83.19-5.62.27-1.79.09-3.5.17-5.15.25-1.65.08-3.24.16-4.79.23-1.55.08-3.06.15-4.56.22-1.49.07-2.97.14-4.44.22-1.47.07-2.95.14-4.44.22s-3.01.15-4.56.22c-1.55.08-3.14.15-4.79.23-1.65.08-3.36.16-5.15.25s-3.65.18-5.62.27c0-1.99,0-3.97,0-5.94,0-1.97,0-3.93,0-5.87,0-1.94,0-3.88,0-5.8,0-1.92,0-3.83,0-5.73,0-1.9,0-3.79,0-5.66,0-1.88,0-3.74,0-5.6,0-1.86,0-3.7,0-5.53s0-3.66,0-5.47,0-3.62,0-5.41c0-1.79,0-3.58,0-5.35,0-1.78,0-3.54,0-5.3,0-1.76,0-3.51,0-5.24,0-1.74,0-3.47,0-5.19s0-3.44,0-5.14c0-1.71,0-3.4,0-5.09,0-1.69,0-3.37,0-5.05,0-1.67,0-3.34,0-5,0-1.66,0-3.31,0-4.96,0-1.65,0-3.28,0-4.92,0-1.63,0-3.26,0-4.88,0-1.62,0-3.23,0-4.84,0-1.61,0-3.21,0-4.81,0-1.6,0-3.19,0-4.77,0-1.59,0-3.17,0-4.74,0-1.57,0-3.14,0-4.71,0-1.57,0-3.13,0-4.68,0-1.56,0-3.11,0-4.66,0-1.55,0-3.09,0-4.63,0-1.54,0-3.08,0-4.61,0-1.53,0-3.06,0-4.59s0-3.05,0-4.57c0-1.52,0-3.04,0-4.55,0-1.52,0-3.03,0-4.54,0-1.51,0-3.02,0-4.53,0-1.51,0-3.01,0-4.51,0-1.5,0-3,0-4.5,0-1.5,0-3,0-4.5,0-1.5,0-3,0-4.49,0-1.5,0-2.99,0-4.49,0-1.5,0-2.99,0-4.49,0-1.5,0-2.99,0-4.49,0-1.5,0-2.99,0-4.49s0-2.99,0-4.49c0-1.5,0-3,0-4.5,0-1.5,0-3,0-4.5,0-1.5,0-3.01,0-4.51,0-1.51,0-3.01,0-4.52,0-1.51,0-3.02,0-4.54,0-1.51,0-3.03,0-4.55,0-1.52,0-3.04,0-4.57s0-3.06,0-4.59c0-1.53,0-3.07,0-4.61,0-1.54,0-3.08,0-4.63,0-1.55,0-3.1,0-4.66,0-1.56,0-3.12,0-4.68,0-1.57,0-3.14,0-4.71,0-1.57,0-3.15,0-4.74,0-1.58,0-3.18,0-4.77,0-1.6,0-3.2,0-4.81,0-1.61,0-3.22,0-4.84,0-1.62,0-3.25,0-4.88,0-1.63,0-3.27,0-4.92,0-1.65,0-3.3,0-4.96,0-1.66,0-3.33,0-5,0-1.67,0-3.36,0-5.05,0-1.69,0-3.39,0-5.09,0-1.71,0-3.42,0-5.14,0-1.72,0-3.45,0-5.19s0-3.49,0-5.24,0-3.52,0-5.3,0-3.56,0-5.35c0-1.79,0-3.6,0-5.41s0-3.64,0-5.47,0-3.68,0-5.53c0-1.85,0-3.72,0-5.6,0-1.88,0-3.76,0-5.66s0-3.81,0-5.73c0-1.92,0-3.85,0-5.8,0-1.94,0-3.9,0-5.87,0-1.97,0-3.95,0-5.94-1.94.4-3.81.79-5.62,1.17-1.81.38-3.56.74-5.27,1.09-1.7.35-3.36.7-4.97,1.03-1.61.33-3.19.66-4.73.98-1.54.32-3.06.63-4.55.94-1.5.31-2.97.62-4.44.92-1.47.3-2.92.61-4.38.91s-2.91.6-4.38.91c-1.47.3-2.94.61-4.44.92-1.5.31-3.01.62-4.55.94-1.54.32-3.12.65-4.73.98-1.61.33-3.27.68-4.97,1.03s-3.46.72-5.27,1.09c-1.81.38-3.68.76-5.62,1.17,0,1.99,0,3.97,0,5.94,0,1.97,0,3.93,0,5.89,0,1.95,0,3.9,0,5.83,0,1.93,0,3.86,0,5.78s0,3.82,0,5.72,0,3.79,0,5.67c0,1.88,0,3.75,0,5.62s0,3.72,0,5.57,0,3.69,0,5.52,0,3.65,0,5.47,0,3.62,0,5.42,0,3.59,0,5.38c0,1.78,0,3.56,0,5.33,0,1.77,0,3.53,0,5.29,0,1.76,0,3.5,0,5.25,0,1.74,0,3.48,0,5.2s0,3.45,0,5.16,0,3.42,0,5.12c0,1.7,0,3.4,0,5.09,0,1.69,0,3.37,0,5.05s0,3.35,0,5.01c0,1.67,0,3.33,0,4.98s0,3.3,0,4.95c0,1.64,0,3.28,0,4.91,0,1.63,0,3.26,0,4.88,0,1.62,0,3.24,0,4.85s0,3.22,0,4.83,0,3.2,0,4.8c0,1.59,0,3.19,0,4.77,0,1.59,0,3.17,0,4.75,0,1.58,0,3.15,0,4.72s0,3.14,0,4.7,0,3.12,0,4.68c0,1.56,0,3.11,0,4.66,0,1.55,0,3.09,0,4.64,0,1.54,0,3.08,0,4.62s0,3.07,0,4.6,0,3.06,0,4.59c0,1.53,0,3.05,0,4.57,0,1.52,0,3.04,0,4.56,0,1.52,0,3.03,0,4.54,0,1.51,0,3.02,0,4.53,0,1.51,0,3.02,0,4.52s0,3.01,0,4.51,0,3,0,4.51c0,1.5,0,3,0,4.5,0,1.5,0,3,0,4.49,0,1.5,0,2.99,0,4.49s0,2.99,0,4.48,0,2.99,0,4.48c0,1.49,0,2.99,0,4.48,0,1.49,0,2.99,0,4.48,0,1.49,0,2.99,0,4.48s0,2.99,0,4.48,0,2.99,0,4.49c0,1.5,0,2.99,0,4.49,0,1.5,0,3,0,4.5s0,3,0,4.51c0,1.5,0,3.01,0,4.51,0,1.51,0,3.01,0,4.52,0,1.51,0,3.02,0,4.53s0,3.03,0,4.54,0,3.04,0,4.56c0,1.52,0,3.04,0,4.57,0,1.53,0,3.05,0,4.59,0,1.53,0,3.06,0,4.6,0,1.54,0,3.08,0,4.62,0,1.54,0,3.09,0,4.64,0,1.55,0,3.1,0,4.66,0,1.56,0,3.11,0,4.68,0,1.56,0,3.13,0,4.7,0,1.57,0,3.14,0,4.72,0,1.58,0,3.16,0,4.75,0,1.59,0,3.18,0,4.77,0,1.59,0,3.19,0,4.8,0,1.6,0,3.21,0,4.83,0,1.61,0,3.23,0,4.85,0,1.62,0,3.25,0,4.88s0,3.27,0,4.92,0,3.29,0,4.95c0,1.65,0,3.31,0,4.98,0,1.67,0,3.34,0,5.01s0,3.36,0,5.05,0,3.39,0,5.09,0,3.41,0,5.12c0,1.71,0,3.44,0,5.16,0,1.73,0,3.46,0,5.2,0,1.74,0,3.49,0,5.25,0,1.76,0,3.52,0,5.29,0,1.77,0,3.55,0,5.33s0,3.58,0,5.38c0,1.8,0,3.61,0,5.42,0,1.82,0,3.64,0,5.47,0,1.83,0,3.67,0,5.52,0,1.85,0,3.7,0,5.57,0,1.86,0,3.74,0,5.62s0,3.77,0,5.67c0,1.9,0,3.81,0,5.72,0,1.92,0,3.84,0,5.78,0,1.93,0,3.88,0,5.83,0,1.95,0,3.92,0,5.89,0,1.97,0,3.95,0,5.94h117.06Z"/>
      <path class="cls-1" d="M962.58,690.3c0-1.95,0-3.87,0-5.75,0-1.88,0-3.73,0-5.55,0-1.82,0-3.61,0-5.36,0-1.76,0-3.49,0-5.2,0-1.71,0-3.39,0-5.04s0-3.29,0-4.91,0-3.21,0-4.79c0-1.58,0-3.14,0-4.68s0-3.07,0-4.59c0-1.52,0-3.02,0-4.52,0-1.5,0-2.98,0-4.46,0-1.48,0-2.95,0-4.42,0-1.47,0-2.94,0-4.4,0-1.46,0-2.93,0-4.39,0-1.46,0-2.93,0-4.4,0-1.47,0-2.94,0-4.42s0-2.97,0-4.46c0-1.5,0-3,0-4.52,0-1.52,0-3.05,0-4.59,0-1.54,0-3.1,0-4.68,0-1.58,0-3.17,0-4.79,0-1.61,0-3.25,0-4.91,0-1.66,0-3.34,0-5.04,0-1.71,0-3.44,0-5.2s0-3.55,0-5.36c0-1.82,0-3.67,0-5.55,0-1.88,0-3.8,0-5.75-1.96.1-3.83.19-5.62.27-1.79.09-3.5.17-5.15.25-1.65.08-3.24.16-4.79.23-1.55.08-3.06.15-4.56.22s-2.97.15-4.44.22c-1.47.07-2.95.14-4.44.22-1.49.07-3.01.15-4.56.22-1.55.08-3.14.15-4.79.23-1.65.08-3.36.16-5.15.25-1.79.09-3.65.18-5.62.27,0-1.99,0-3.98,0-5.95s0-3.93,0-5.88,0-3.88,0-5.81c0-1.93,0-3.84,0-5.74,0-1.9,0-3.8,0-5.68s0-3.75,0-5.62,0-3.71,0-5.55,0-3.67,0-5.5c0-1.82,0-3.63,0-5.44,0-1.8,0-3.6,0-5.38,0-1.78,0-3.56,0-5.33,0-1.77,0-3.53,0-5.27s0-3.49,0-5.22c0-1.73,0-3.46,0-5.18s0-3.43,0-5.13,0-3.4,0-5.08,0-3.37,0-5.04c0-1.67,0-3.34,0-5s0-3.31,0-4.95,0-3.28,0-4.92c0-1.63,0-3.26,0-4.88,0-1.62,0-3.23,0-4.84,0-1.61,0-3.21,0-4.81,0-1.6,0-3.19,0-4.78,0-1.59,0-3.17,0-4.75s0-3.15,0-4.72,0-3.13,0-4.69c0-1.56,0-3.11,0-4.66s0-3.1,0-4.64,0-3.08,0-4.62c0-1.54,0-3.07,0-4.6s0-3.06,0-4.58c0-1.52,0-3.04,0-4.56s0-3.03,0-4.55c0-1.51,0-3.02,0-4.53s0-3.02,0-4.52,0-3.01,0-4.51c0-1.5,0-3,0-4.5s0-3,0-4.5,0-3,0-4.49,0-2.99,0-4.49c0-1.5,0-2.99,0-4.49,0-1.5,0-2.99,0-4.49,0-1.5,0-2.99,0-4.49,0-1.5,0-2.99,0-4.49,0-1.5,0-3,0-4.5s0-3,0-4.5c0-1.5,0-3.01,0-4.51s0-3.01,0-4.52c0-1.51,0-3.02,0-4.53s0-3.03,0-4.55c0-1.52,0-3.04,0-4.56s0-3.05,0-4.58,0-3.06,0-4.6,0-3.08,0-4.62c0-1.54,0-3.09,0-4.64,0-1.55,0-3.11,0-4.66,0-1.56,0-3.12,0-4.69,0-1.57,0-3.14,0-4.72,0-1.58,0-3.16,0-4.75s0-3.18,0-4.78,0-3.2,0-4.81,0-3.22,0-4.84c0-1.62,0-3.25,0-4.88,0-1.63,0-3.27,0-4.92,0-1.64,0-3.3,0-4.95,0-1.66,0-3.32,0-5s0-3.35,0-5.04,0-3.38,0-5.08c0-1.7,0-3.41,0-5.13,0-1.72,0-3.44,0-5.17,0-1.73,0-3.47,0-5.22,0-1.75,0-3.51,0-5.27s0-3.54,0-5.33,0-3.58,0-5.38,0-3.62,0-5.44,0-3.65,0-5.49c0-1.84,0-3.69,0-5.55,0-1.86,0-3.73,0-5.62s0-3.77,0-5.68,0-3.82,0-5.74,0-3.86,0-5.81c0-1.95,0-3.91,0-5.88s0-3.95,0-5.95c-1.94.4-3.81.79-5.62,1.17-1.81.38-3.56.74-5.27,1.09s-3.36.7-4.97,1.03c-1.61.33-3.19.66-4.73.98-1.54.32-3.06.63-4.55.94-1.5.31-2.97.62-4.44.92-1.47.3-2.92.61-4.38.91-1.46.3-2.91.6-4.38.91-1.47.3-2.94.61-4.44.92s-3.01.62-4.55.94c-1.54.32-3.12.65-4.73.98-1.61.33-3.27.68-4.97,1.03s-3.46.72-5.27,1.09c-1.81.38-3.68.76-5.62,1.17,0,2,0,3.98,0,5.96,0,1.98,0,3.95,0,5.91,0,1.96,0,3.91,0,5.85s0,3.87,0,5.8c0,1.92,0,3.84,0,5.75,0,1.91,0,3.81,0,5.7,0,1.89,0,3.77,0,5.65,0,1.87,0,3.74,0,5.6,0,1.86,0,3.71,0,5.55,0,1.84,0,3.68,0,5.5,0,1.83,0,3.65,0,5.46,0,1.81,0,3.62,0,5.41,0,1.8,0,3.59,0,5.37,0,1.78,0,3.56,0,5.33,0,1.77,0,3.53,0,5.29,0,1.76,0,3.5,0,5.25,0,1.74,0,3.48,0,5.21,0,1.73,0,3.45,0,5.17,0,1.72,0,3.43,0,5.13,0,1.7,0,3.4,0,5.1s0,3.38,0,5.06,0,3.36,0,5.03c0,1.67,0,3.33,0,4.99,0,1.66,0,3.31,0,4.96,0,1.65,0,3.29,0,4.93,0,1.64,0,3.27,0,4.9s0,3.25,0,4.87c0,1.62,0,3.23,0,4.85s0,3.22,0,4.82c0,1.6,0,3.2,0,4.79,0,1.59,0,3.18,0,4.77s0,3.17,0,4.74,0,3.15,0,4.72,0,3.14,0,4.7c0,1.56,0,3.12,0,4.68,0,1.56,0,3.11,0,4.66,0,1.55,0,3.1,0,4.64,0,1.54,0,3.09,0,4.63s0,3.08,0,4.61c0,1.53,0,3.07,0,4.59s0,3.06,0,4.58c0,1.52,0,3.05,0,4.57,0,1.52,0,3.04,0,4.56,0,1.52,0,3.03,0,4.54s0,3.02,0,4.53c0,1.51,0,3.02,0,4.53s0,3.01,0,4.52,0,3.01,0,4.51c0,1.5,0,3,0,4.51,0,1.5,0,3,0,4.5,0,1.5,0,3,0,4.5s0,3,0,4.49c0,1.5,0,3,0,4.49s0,2.99,0,4.49c0,1.5,0,2.99,0,4.49,0,1.5,0,3,0,4.49,0,1.5,0,3,0,4.5,0,1.5,0,3,0,4.5s0,3,0,4.5,0,3.01,0,4.51c0,1.5,0,3.01,0,4.52s0,3.02,0,4.53c0,1.51,0,3.02,0,4.53,0,1.51,0,3.03,0,4.54,0,1.52,0,3.03,0,4.56s0,3.04,0,4.57,0,3.05,0,4.58c0,1.53,0,3.06,0,4.59s0,3.07,0,4.61c0,1.54,0,3.08,0,4.63s0,3.09,0,4.64c0,1.55,0,3.1,0,4.66,0,1.56,0,3.12,0,4.68s0,3.13,0,4.7c0,1.57,0,3.14,0,4.72s0,3.16,0,4.74c0,1.59,0,3.18,0,4.77,0,1.59,0,3.19,0,4.79,0,1.6,0,3.21,0,4.82,0,1.61,0,3.23,0,4.85,0,1.62,0,3.24,0,4.87,0,1.63,0,3.26,0,4.9,0,1.64,0,3.28,0,4.93,0,1.65,0,3.3,0,4.96s0,3.32,0,4.99,0,3.35,0,5.03c0,1.68,0,3.37,0,5.06,0,1.69,0,3.39,0,5.1,0,1.7,0,3.42,0,5.13,0,1.72,0,3.44,0,5.17,0,1.73,0,3.47,0,5.21,0,1.74,0,3.49,0,5.25,0,1.76,0,3.52,0,5.29,0,1.77,0,3.55,0,5.33,0,1.78,0,3.57,0,5.37,0,1.8,0,3.6,0,5.41,0,1.81,0,3.63,0,5.46,0,1.83,0,3.66,0,5.5,0,1.84,0,3.69,0,5.55,0,1.86,0,3.72,0,5.6,0,1.87,0,3.76,0,5.65,0,1.89,0,3.79,0,5.7s0,3.82,0,5.75c0,1.92,0,3.86,0,5.8,0,1.94,0,3.89,0,5.85,0,1.96,0,3.93,0,5.91,0,1.98,0,3.96,0,5.96h117.05Z"/>
      <path class="cls-1" d="M1104.47,690.3c.98,0,1.94-.18,2.86-.54.92-.36,1.82-.89,2.69-1.61s1.7-1.61,2.51-2.69c.81-1.08,1.59-2.33,2.34-3.77.75-1.44,1.47-3.05,2.17-4.85.69-1.8,1.36-3.77,1.99-5.93.38-1.29.74-2.62,1.08-3.98.34-1.36.67-2.75.97-4.17s.59-2.88.86-4.36c.27-1.49.51-3,.74-4.55.23-1.55.44-3.13.63-4.75.19-1.61.36-3.26.51-4.94s.29-3.39.4-5.13c.11-1.74.21-3.51.29-5.32s.13-3.64.17-5.51.06-3.76.06-5.69V166.26c0-1.93-.02-3.82-.06-5.68-.04-1.86-.1-3.68-.17-5.47-.08-1.79-.17-3.54-.29-5.26s-.25-3.4-.4-5.04c-.15-1.65-.32-3.26-.51-4.83-.19-1.57-.4-3.11-.63-4.62-.23-1.5-.48-2.97-.74-4.4s-.55-2.83-.86-4.19c-.3-1.36-.63-2.68-.97-3.97-.34-1.29-.7-2.54-1.08-3.76-.76-2.43-1.56-4.59-2.41-6.49-.85-1.89-1.73-3.52-2.66-4.88-.93-1.36-1.9-2.45-2.91-3.27-1.01-.82-2.07-1.38-3.16-1.67-1.1-.29-2.23-.31-3.41-.07-1.89.39-3.74.77-5.55,1.15-1.81.38-3.59.74-5.33,1.1s-3.46.72-5.14,1.06-3.33.69-4.96,1.03c-1.63.34-3.23.67-4.8.99-1.58.33-3.13.65-4.66.97s-3.05.63-4.55.94c-1.5.31-2.98.62-4.45.92-1.47.3-2.92.61-4.37.91-1.45.3-2.88.6-4.31.89-1.43.3-2.85.59-4.27.89-1.42.29-2.84.59-4.25.88-1.42.29-2.83.59-4.25.88-1.42.29-2.84.59-4.27.89-1.43.3-2.87.59-4.31.89-1.45.3-2.9.6-4.37.91-1.47.3-2.95.61-4.45.92-1.5.31-3.01.62-4.55.94-1.53.32-3.09.64-4.66.97s-3.18.66-4.8.99c-1.63.34-3.28.68-4.96,1.03-1.68.35-3.39.7-5.14,1.06-1.74.36-3.52.73-5.33,1.1-1.81.38-3.66.76-5.55,1.15-.98.2-1.94.57-2.86,1.11s-1.82,1.23-2.69,2.1c-.87.86-1.7,1.89-2.51,3.08-.81,1.19-1.59,2.55-2.34,4.07-.75,1.52-1.47,3.2-2.16,5.05-.69,1.85-1.36,3.86-1.99,6.03-.38,1.3-.74,2.63-1.09,3.99s-.67,2.74-.97,4.14c-.3,1.41-.59,2.84-.86,4.3s-.51,2.94-.74,4.45-.44,3.05-.63,4.61c-.19,1.56-.36,3.15-.51,4.76-.15,1.61-.29,3.25-.4,4.92-.11,1.67-.21,3.36-.29,5.08s-.13,3.46-.17,5.24-.06,3.57-.06,5.39c0,1.98,0,3.96,0,5.92s0,3.91,0,5.85c0,1.94,0,3.87,0,5.79,0,1.92,0,3.83,0,5.72s0,3.79,0,5.66,0,3.74,0,5.6c0,1.86,0,3.7,0,5.54,0,1.84,0,3.67,0,5.49s0,3.63,0,5.43c0,1.8,0,3.59,0,5.38,0,1.78,0,3.56,0,5.32,0,1.77,0,3.52,0,5.27,0,1.75,0,3.49,0,5.22,0,1.73,0,3.46,0,5.17,0,1.72,0,3.43,0,5.13,0,1.7,0,3.4,0,5.08,0,1.69,0,3.37,0,5.04,0,1.67,0,3.34,0,5,0,1.66,0,3.31,0,4.96,0,1.65,0,3.29,0,4.92,0,1.63,0,3.26,0,4.88,0,1.62,0,3.24,0,4.85,0,1.61,0,3.21,0,4.81,0,1.6,0,3.19,0,4.78,0,1.59,0,3.17,0,4.75,0,1.58,0,3.15,0,4.72,0,1.57,0,3.13,0,4.69s0,3.12,0,4.67c0,1.55,0,3.1,0,4.64,0,1.54,0,3.08,0,4.62,0,1.54,0,3.07,0,4.6,0,1.53,0,3.06,0,4.58,0,1.52,0,3.04,0,4.56s0,3.03,0,4.54c0,1.51,0,3.02,0,4.53,0,1.51,0,3.01,0,4.52,0,1.5,0,3,0,4.5,0,1.5,0,3,0,4.49s0,2.99,0,4.49c0,1.49,0,2.99,0,4.48,0,1.49,0,2.98,0,4.47,0,1.49,0,2.98,0,4.47,0,1.49,0,2.98,0,4.47,0,1.49,0,2.98,0,4.47,0,1.49,0,2.98,0,4.47,0,1.49,0,2.98,0,4.47,0,1.49,0,2.98,0,4.47s0,2.98,0,4.48c0,1.49,0,2.99,0,4.49,0,1.5,0,2.99,0,4.49,0,1.5,0,3,0,4.5,0,1.5,0,3.01,0,4.52s0,3.02,0,4.53c0,1.51,0,3.03,0,4.54,0,1.52,0,3.04,0,4.56,0,1.52,0,3.05,0,4.58,0,1.53,0,3.06,0,4.6,0,1.54,0,3.08,0,4.62s0,3.09,0,4.64c0,1.55,0,3.11,0,4.67,0,1.56,0,3.12,0,4.69,0,1.57,0,3.14,0,4.72,0,1.58,0,3.16,0,4.75,0,1.59,0,3.18,0,4.78,0,1.6,0,3.2,0,4.81,0,1.61,0,3.23,0,4.85,0,1.62,0,3.25,0,4.88,0,1.63,0,3.27,0,4.92,0,1.65,0,3.3,0,4.96s0,3.32,0,5c0,1.67,0,3.35,0,5.04,0,1.69,0,3.38,0,5.08s0,3.41,0,5.13,0,3.44,0,5.17c0,1.73,0,3.47,0,5.22,0,1.75,0,3.51,0,5.27,0,1.77,0,3.54,0,5.32,0,1.78,0,3.57,0,5.38,0,1.8,0,3.61,0,5.43s0,3.65,0,5.49,0,3.69,0,5.54c0,1.86,0,3.72,0,5.6,0,1.88,0,3.76,0,5.66,0,1.9,0,3.81,0,5.72s0,3.85,0,5.79c0,1.94,0,3.89,0,5.85,0,1.96,0,3.94,0,5.92,0,1.83.02,3.62.06,5.39s.09,3.5.17,5.2c.08,1.7.17,3.38.28,5.02.11,1.64.25,3.26.4,4.84.15,1.58.32,3.14.51,4.66.19,1.52.4,3.02.63,4.48.23,1.46.48,2.9.74,4.3.27,1.4.55,2.78.86,4.12.3,1.34.63,2.66.97,3.94.34,1.28.7,2.54,1.09,3.76.76,2.45,1.56,4.66,2.41,6.62.84,1.96,1.73,3.68,2.66,5.15.93,1.47,1.9,2.7,2.91,3.69s2.07,1.72,3.16,2.21c1.1.49,2.23.74,3.42.74h113.33ZM1039.81,577.23c-.4-.84-.76-1.8-1.08-2.87-.32-1.08-.6-2.27-.84-3.59-.24-1.31-.44-2.75-.6-4.3-.16-1.55-.28-3.22-.36-5.02s-.12-3.7-.12-5.73c0-1.97,0-3.92,0-5.86,0-1.94,0-3.86,0-5.77,0-1.91,0-3.8,0-5.68s0-3.74,0-5.59c0-1.85,0-3.69,0-5.51,0-1.82,0-3.63,0-5.43,0-1.8,0-3.58,0-5.35,0-1.77,0-3.53,0-5.28s0-3.48,0-5.21c0-1.72,0-3.44,0-5.14,0-1.7,0-3.4,0-5.08,0-1.68,0-3.35,0-5.02,0-1.66,0-3.31,0-4.96,0-1.64,0-3.28,0-4.9,0-1.62,0-3.24,0-4.85s0-3.21,0-4.8,0-3.18,0-4.75,0-3.15,0-4.71,0-3.12,0-4.67,0-3.1,0-4.63,0-3.07,0-4.6c0-1.53,0-3.05,0-4.57,0-1.52,0-3.03,0-4.54,0-1.51,0-3.02,0-4.52,0-1.5,0-3,0-4.5,0-1.5,0-2.99,0-4.48,0-1.49,0-2.98,0-4.46,0-1.49,0-2.97,0-4.45,0-1.48,0-2.96,0-4.44s0-2.96,0-4.43,0-2.95,0-4.43,0-2.95,0-4.43,0-2.96,0-4.43,0-2.96,0-4.44,0-2.96,0-4.45,0-2.97,0-4.46,0-2.98,0-4.48,0-2.99,0-4.5,0-3.01,0-4.52,0-3.02,0-4.54,0-3.04,0-4.57,0-3.06,0-4.6,0-3.08,0-4.63c0-1.55,0-3.11,0-4.67,0-1.56,0-3.13,0-4.71,0-1.58,0-3.16,0-4.75,0-1.59,0-3.19,0-4.8,0-1.61,0-3.22,0-4.85,0-1.63,0-3.26,0-4.9,0-1.64,0-3.3,0-4.96,0-1.66,0-3.33,0-5.02,0-1.68,0-3.37,0-5.08s0-3.42,0-5.14,0-3.46,0-5.21c0-1.75,0-3.51,0-5.28,0-1.77,0-3.56,0-5.35,0-1.8,0-3.61,0-5.43,0-1.82,0-3.66,0-5.51s0-3.71,0-5.59c0-1.88,0-3.77,0-5.68,0-1.91,0-3.83,0-5.77,0-1.94,0-3.89,0-5.86,0-2.03.04-3.94.11-5.74.08-1.8.19-3.48.34-5.04.15-1.56.34-3.01.57-4.34.23-1.33.49-2.55.8-3.64.3-1.1.65-2.08,1.03-2.95.63-1.44,1.35-2.68,2.16-3.7.8-1.03,1.69-1.84,2.66-2.45.97-.61,2.03-1.01,3.17-1.2,1.2-.2,2.31-.15,3.33.16,1.01.31,1.93.87,2.76,1.69.82.82,1.56,1.89,2.19,3.22.38.8.72,1.72,1.03,2.77s.57,2.22.8,3.52c.23,1.3.42,2.72.57,4.27s.27,3.22.34,5.01c.08,1.8.11,3.71.11,5.76,0,1.98,0,3.95,0,5.91,0,1.95,0,3.89,0,5.81,0,1.92,0,3.83,0,5.72,0,1.89,0,3.77,0,5.64,0,1.87,0,3.72,0,5.55,0,1.84,0,3.66,0,5.47s0,3.61,0,5.4,0,3.56,0,5.32,0,3.51,0,5.25c0,1.74,0,3.47,0,5.18v5.12c0,1.7,0,3.38,0,5.06,0,1.68,0,3.34,0,5s0,3.3,0,4.94,0,3.27,0,4.89,0,3.23,0,4.84v4.79c0,1.59,0,3.17,0,4.75s0,3.15,0,4.71,0,3.12,0,4.67v4.64c0,1.54,0,3.08,0,4.61s0,3.06,0,4.58,0,3.04,0,4.55,0,3.02,0,4.53v4.51c0,1.5,0,3,0,4.5s0,2.99,0,4.49v4.48c0,1.49,0,2.98,0,4.47s0,2.98,0,4.47,0,2.98,0,4.47v4.47c0,1.49,0,2.98,0,4.48s0,2.99,0,4.49,0,3,0,4.5v4.51c0,1.51,0,3.02,0,4.53s0,3.03,0,4.55,0,3.05,0,4.58v4.61c0,1.54,0,3.09,0,4.64s0,3.11,0,4.67,0,3.13,0,4.71,0,3.16,0,4.75v4.79c0,1.6,0,3.22,0,4.84s0,3.25,0,4.89,0,3.28,0,4.94,0,3.32,0,5v5.06c0,1.7,0,3.4,0,5.12,0,1.72,0,3.44,0,5.18s0,3.49,0,5.25,0,3.54,0,5.32,0,3.58,0,5.4,0,3.64,0,5.47c0,1.84,0,3.69,0,5.55,0,1.86,0,3.74,0,5.64,0,1.89,0,3.8,0,5.72v5.81c0,1.95,0,3.92,0,5.91,0,2.05-.04,3.97-.11,5.77s-.19,3.48-.34,5.04c-.15,1.56-.34,2.99-.57,4.3-.23,1.31-.5,2.5-.8,3.57-.3,1.07-.65,2.01-1.03,2.83-.63,1.37-1.35,2.52-2.16,3.45s-1.69,1.63-2.66,2.12c-.97.48-2.03.75-3.17.79-1.14.04-2.2-.15-3.19-.59s-1.89-1.11-2.71-2.03c-.82-.92-1.57-2.08-2.24-3.48Z"/>
    </g>
    <g>
      <path class="cls-2" d="M214.14,685.3c1.38,0,2.7-.26,3.95-.78,1.26-.52,2.45-1.3,3.58-2.35,1.13-1.05,2.2-2.35,3.21-3.93s1.95-3.41,2.83-5.51c.5-1.2.97-2.44,1.4-3.72.43-1.28.83-2.6,1.19-3.96.36-1.36.68-2.76.97-4.19s.54-2.91.76-4.43c.22-1.51.4-3.07.54-4.66s.25-3.22.33-4.89c.07-1.67.11-3.38.11-5.13,0-1.93,0-3.83,0-5.69,0-1.86,0-3.68,0-5.48,0-1.79,0-3.55,0-5.28,0-1.73,0-3.43,0-5.1s0-3.32,0-4.95c0-1.62,0-3.23,0-4.81s0-3.14,0-4.69c0-1.54,0-3.07,0-4.59s0-3.01,0-4.5c0-1.49,0-2.97,0-4.44,0-1.47,0-2.93,0-4.39,0-1.46,0-2.91,0-4.36,0-1.45,0-2.9,0-4.35,0-1.45,0-2.9,0-4.36,0-1.46,0-2.92,0-4.39,0-1.47,0-2.95,0-4.44,0-1.49,0-2.99,0-4.5,0-1.51,0-3.04,0-4.59,0-1.54,0-3.11,0-4.69s0-3.18,0-4.81,0-3.27,0-4.95c0-1.67,0-3.38,0-5.11,0-1.73,0-3.49,0-5.28,0-1.79,0-3.62,0-5.48,0-1.86,0-3.76,0-5.69,0-1.96-.03-3.86-.08-5.7-.06-1.84-.14-3.63-.26-5.37-.11-1.73-.26-3.41-.43-5.03-.17-1.62-.37-3.18-.61-4.69-.23-1.51-.49-2.95-.78-4.34s-.61-2.73-.95-4c-.35-1.28-.72-2.5-1.13-3.66-.4-1.16-.84-2.27-1.3-3.32-.74-1.68-1.53-3.19-2.38-4.53-.84-1.34-1.74-2.52-2.69-3.53s-1.94-1.85-2.99-2.53-2.15-1.19-3.3-1.53c-1.15-.35-2.36-.53-3.61-.54,0-1.02,0-1.79,0-2.55,0-.77,0-1.53,0-2.55,1.18-.36,2.31-.85,3.39-1.49s2.11-1.41,3.1-2.33c.98-.91,1.92-1.97,2.8-3.16.88-1.2,1.72-2.53,2.5-4.01.79-1.48,1.52-3.09,2.21-4.85.43-1.1.83-2.24,1.21-3.44s.72-2.44,1.05-3.72.62-2.63.89-4.01c.27-1.39.51-2.82.73-4.3.22-1.48.4-3.01.57-4.59.16-1.58.3-3.2.41-4.87.11-1.67.19-3.39.24-5.16.05-1.77.08-3.58.08-5.44,0-1.88,0-3.69,0-5.45,0-1.76,0-3.47,0-5.13,0-1.66,0-3.28,0-4.85,0-1.58,0-3.12,0-4.63,0-1.51,0-2.99,0-4.45,0-1.46,0-2.9,0-4.33,0-1.43,0-2.84,0-4.25s0-2.82,0-4.23c0-1.41,0-2.83,0-4.25,0-1.43,0-2.87,0-4.33,0-1.46,0-2.94,0-4.45s0-3.05,0-4.63c0-1.58,0-3.19,0-4.85s0-3.37,0-5.13c0-1.76,0-3.58,0-5.45,0-1.76,0-3.37,0-4.88,0-1.51,0-2.93,0-4.29s0-2.68,0-4,0-2.63,0-4c0-1.37,0-2.78,0-4.29s0-3.12,0-4.88c0-1.74-.03-3.44-.1-5.1-.07-1.65-.18-3.26-.32-4.82s-.32-3.08-.54-4.55c-.21-1.47-.46-2.89-.75-4.27-.29-1.38-.61-2.71-.97-3.99s-.75-2.52-1.18-3.71-.9-2.33-1.4-3.43c-.88-1.91-1.82-3.55-2.82-4.92s-2.07-2.45-3.2-3.26c-1.13-.81-2.32-1.35-3.57-1.61-1.25-.26-2.57-.25-3.95.04-1.9.39-3.77.78-5.61,1.16-1.84.38-3.65.76-5.42,1.12s-3.53.73-5.25,1.09c-1.72.36-3.42.71-5.09,1.05-1.67.35-3.32.69-4.94,1.02-1.62.34-3.23.67-4.81,1-1.58.33-3.15.65-4.69.97s-3.08.64-4.59.95c-1.52.31-3.02.62-4.5.93s-2.97.61-4.43.92c-1.47.3-2.92.61-4.37.91-1.45.3-2.89.6-4.33.9s-2.87.59-4.3.89c-1.43.3-2.86.59-4.29.89-1.43.3-2.86.59-4.29.89s-2.86.59-4.3.89c-1.44.3-2.88.6-4.33.9s-2.91.6-4.37.91c-1.47.3-2.94.61-4.43.92-1.49.31-2.99.62-4.5.93-1.52.31-3.04.63-4.59.95-1.55.32-3.11.64-4.69.97-1.58.33-3.19.66-4.81,1-1.62.34-3.27.68-4.94,1.02-1.67.35-3.37.7-5.09,1.05-1.72.36-3.47.72-5.25,1.09-1.78.37-3.58.74-5.42,1.12-1.84.38-3.71.77-5.61,1.16,0,1.99,0,3.97,0,5.94s0,3.92,0,5.86,0,3.87,0,5.79c0,1.92,0,3.82,0,5.71,0,1.89,0,3.77,0,5.64,0,1.87,0,3.73,0,5.57s0,3.68,0,5.51c0,1.83,0,3.64,0,5.44,0,1.8,0,3.6,0,5.38,0,1.78,0,3.56,0,5.32,0,1.76,0,3.52,0,5.26,0,1.75,0,3.48,0,5.21,0,1.73,0,3.45,0,5.15,0,1.71,0,3.41,0,5.1,0,1.69,0,3.38,0,5.05,0,1.68,0,3.34,0,5.01,0,1.66,0,3.31,0,4.96,0,1.65,0,3.28,0,4.92,0,1.63,0,3.26,0,4.88s0,3.23,0,4.84,0,3.21,0,4.8c0,1.59,0,3.18,0,4.76,0,1.58,0,3.16,0,4.73,0,1.57,0,3.14,0,4.7s0,3.12,0,4.67,0,3.1,0,4.64c0,1.54,0,3.08,0,4.62,0,1.54,0,3.07,0,4.6,0,1.53,0,3.05,0,4.58s0,3.04,0,4.56,0,3.03,0,4.54c0,1.51,0,3.02,0,4.53s0,3.01,0,4.51c0,1.5,0,3,0,4.5,0,1.5,0,3,0,4.49s0,2.99,0,4.49,0,2.99,0,4.48c0,1.49,0,2.99,0,4.48,0,1.49,0,2.99,0,4.48,0,1.49,0,2.99,0,4.48s0,2.99,0,4.49c0,1.5,0,3,0,4.49s0,3,0,4.5c0,1.5,0,3.01,0,4.51s0,3.01,0,4.53c0,1.51,0,3.02,0,4.54,0,1.52,0,3.03,0,4.56,0,1.52,0,3.05,0,4.58,0,1.53,0,3.06,0,4.6s0,3.07,0,4.62,0,3.09,0,4.64,0,3.11,0,4.67,0,3.13,0,4.7,0,3.15,0,4.73c0,1.58,0,3.17,0,4.76,0,1.59,0,3.19,0,4.8,0,1.61,0,3.22,0,4.84s0,3.24,0,4.88c0,1.63,0,3.27,0,4.92,0,1.65,0,3.3,0,4.96s0,3.33,0,5.01c0,1.68,0,3.36,0,5.05,0,1.69,0,3.39,0,5.1,0,1.71,0,3.43,0,5.15,0,1.73,0,3.46,0,5.21,0,1.75,0,3.5,0,5.26,0,1.76,0,3.54,0,5.32,0,1.78,0,3.58,0,5.38,0,1.8,0,3.62,0,5.44s0,3.66,0,5.51,0,3.7,0,5.57,0,3.75,0,5.64,0,3.8,0,5.71c0,1.92,0,3.84,0,5.79s0,3.89,0,5.86c0,1.97,0,3.94,0,5.94h134.74ZM145.48,518.83c1.98-.17,3.63-.32,5.17-.45,1.54-.14,2.97-.26,4.51-.4,1.54-.14,3.19-.28,5.17-.45,1.33-.12,2.46.27,3.39,1.15.93.89,1.65,2.28,2.17,4.17.26.95.49,1.99.68,3.14.2,1.15.36,2.4.49,3.75.13,1.35.23,2.8.29,4.36.06,1.55.1,3.21.09,4.96,0,1.99,0,3.9,0,5.73,0,1.83,0,3.59,0,5.28s0,3.34,0,4.94,0,3.16,0,4.69c0,1.53,0,3.04,0,4.54,0,1.5,0,2.99,0,4.49,0,1.5,0,3.01,0,4.54,0,1.53,0,3.09,0,4.69s0,3.24,0,4.94,0,3.45,0,5.28c0,1.83,0,3.73,0,5.73,0,1.75-.04,3.42-.1,4.99-.07,1.57-.17,3.05-.3,4.44-.13,1.39-.3,2.69-.49,3.9-.2,1.21-.43,2.32-.69,3.35-.52,2.05-1.25,3.6-2.18,4.65-.93,1.05-2.06,1.59-3.39,1.64-1.98.07-3.63.13-5.17.19-1.54.06-2.97.11-4.51.16-1.54.06-3.19.11-5.17.19,0-1.97,0-3.89,0-5.77,0-1.88,0-3.71,0-5.51,0-1.79,0-3.55,0-5.27s0-3.41,0-5.06c0-1.66,0-3.28,0-4.88s0-3.18,0-4.74c0-1.56,0-3.1,0-4.62s0-3.03,0-4.53c0-1.5,0-2.99,0-4.47,0-1.48,0-2.96,0-4.44,0-1.48,0-2.96,0-4.44,0-1.48,0-2.97,0-4.47,0-1.5,0-3.01,0-4.53,0-1.52,0-3.06,0-4.62,0-1.56,0-3.13,0-4.74,0-1.6,0-3.23,0-4.88,0-1.66,0-3.34,0-5.06s0-3.47,0-5.27,0-3.63,0-5.51c0-1.88,0-3.8,0-5.77ZM145.62,361.1c1.94-.33,3.56-.61,5.07-.87,1.51-.26,2.91-.5,4.42-.76,1.51-.26,3.13-.54,5.07-.87,1.14-.2,2.14.07,3,.8.86.73,1.57,1.92,2.14,3.58.28.83.53,1.76.75,2.8.21,1.04.39,2.18.53,3.42.14,1.24.25,2.59.32,4.05s.1,3.01.1,4.67c0,1.88,0,3.67,0,5.39,0,1.71,0,3.35,0,4.93,0,1.58,0,3.11,0,4.59,0,1.49,0,2.94,0,4.37,0,1.43,0,2.84,0,4.26,0,1.41,0,2.82,0,4.26,0,1.43,0,2.88,0,4.37,0,1.49,0,3.01,0,4.59,0,1.58,0,3.22,0,4.93,0,1.71,0,3.5,0,5.39,0,1.57-.04,3.07-.1,4.5-.07,1.43-.17,2.79-.3,4.07-.13,1.29-.3,2.5-.49,3.64-.2,1.14-.43,2.22-.69,3.22-.52,2-1.23,3.54-2.11,4.62-.88,1.08-1.94,1.69-3.17,1.85-1.94.24-3.56.44-5.07.63-1.51.19-2.91.36-4.42.55-1.51.19-3.13.39-5.07.63,0-1.95,0-3.84,0-5.69,0-1.85,0-3.64,0-5.4s0-3.47,0-5.14,0-3.32,0-4.93c0-1.61,0-3.19,0-4.75,0-1.56,0-3.09,0-4.6,0-1.51,0-3.01,0-4.5,0-1.48,0-2.96,0-4.42,0-1.47,0-2.93,0-4.39,0-1.46,0-2.92,0-4.39,0-1.47,0-2.94,0-4.42s0-2.98,0-4.5c0-1.51,0-3.05,0-4.6,0-1.56,0-3.14,0-4.75s0-3.25,0-4.93,0-3.39,0-5.14,0-3.55,0-5.4c0-1.84,0-3.74,0-5.69Z"/>
      <path class="cls-2" d="M378.58,685.3c1.18,0,2.32-.19,3.41-.58s2.15-.97,3.16-1.74,1.98-1.74,2.91-2.91,1.82-2.52,2.66-4.08c.85-1.55,1.65-3.3,2.41-5.25.48-1.22.92-2.47,1.34-3.76s.8-2.62,1.16-3.99c.36-1.37.69-2.77.98-4.21.3-1.44.57-2.92.81-4.44s.45-3.07.63-4.66c.18-1.59.33-3.22.45-4.88.12-1.66.21-3.37.27-5.1.06-1.74.09-3.51.09-5.33,0-1.99,0-3.97,0-5.94,0-1.97,0-3.92,0-5.87,0-1.94,0-3.88,0-5.8,0-1.92,0-3.83,0-5.73,0-1.9,0-3.78,0-5.66,0-1.88,0-3.74,0-5.59,0-1.85,0-3.7,0-5.53,0-1.83,0-3.65,0-5.47,0-1.81,0-3.61,0-5.41s0-3.57,0-5.35c0-1.77,0-3.54,0-5.29,0-1.75,0-3.5,0-5.24s0-3.46,0-5.18c0-1.72,0-3.43,0-5.13,0-1.7,0-3.4,0-5.08s0-3.37,0-5.04c0-1.67,0-3.34,0-4.99s0-3.31,0-4.95c0-1.64,0-3.28,0-4.91,0-1.63,0-3.25,0-4.87,0-1.62,0-3.23,0-4.83,0-1.6,0-3.2,0-4.8,0-1.59,0-3.18,0-4.76,0-1.58,0-3.16,0-4.73,0-1.57,0-3.14,0-4.7,0-1.56,0-3.12,0-4.67,0-1.55,0-3.1,0-4.65,0-1.54,0-3.09,0-4.62s0-3.07,0-4.6c0-1.53,0-3.06,0-4.58,0-1.52,0-3.04,0-4.56,0-1.52,0-3.03,0-4.55,0-1.51,0-3.02,0-4.53,0-1.51,0-3.02,0-4.52,0-1.5,0-3.01,0-4.51,0-1.5,0-3,0-4.5,0-1.5,0-3,0-4.49,0-1.5,0-2.99,0-4.49,0-1.5,0-2.99,0-4.49,0-1.5,0-2.99,0-4.49,0-1.5,0-2.99,0-4.49,0-1.5,0-2.99,0-4.49s0-2.99,0-4.49c0-1.5,0-3,0-4.5,0-1.5,0-3,0-4.51,0-1.5,0-3.01,0-4.52,0-1.51,0-3.02,0-4.53,0-1.51,0-3.03,0-4.55,0-1.52,0-3.04,0-4.56,0-1.52,0-3.05,0-4.58,0-1.53,0-3.06,0-4.6,0-1.54,0-3.08,0-4.62,0-1.55,0-3.09,0-4.65,0-1.55,0-3.11,0-4.67,0-1.56,0-3.13,0-4.7,0-1.57,0-3.15,0-4.73,0-1.58,0-3.17,0-4.76,0-1.59,0-3.19,0-4.8,0-1.6,0-3.21,0-4.83,0-1.62,0-3.24,0-4.87s0-3.27,0-4.91c0-1.64,0-3.29,0-4.95,0-1.66,0-3.32,0-4.99,0-1.67,0-3.35,0-5.04s0-3.38,0-5.08,0-3.41,0-5.13c0-1.72,0-3.45,0-5.18s0-3.48,0-5.24c0-1.75,0-3.52,0-5.29,0-1.77,0-3.56,0-5.35s0-3.59,0-5.41c0-1.81,0-3.63,0-5.47s0-3.68,0-5.53,0-3.72,0-5.59,0-3.76,0-5.66,0-3.81,0-5.73c0-1.92,0-3.85,0-5.8,0-1.94,0-3.9,0-5.87,0-1.97,0-3.95,0-5.94-1.95.4-3.82.79-5.64,1.17-1.81.38-3.56.74-5.25,1.09s-3.34.69-4.94,1.02c-1.6.33-3.17.66-4.7.97s-3.04.63-4.53.94c-1.49.31-2.96.61-4.42.92-1.46.3-2.92.61-4.39.91s-2.94.61-4.42.92c-1.49.31-2.99.62-4.53.94-1.53.32-3.1.64-4.7.97-1.6.33-3.25.67-4.94,1.02s-3.44.71-5.25,1.09c-1.81.38-3.69.76-5.64,1.17,0,2,0,3.98,0,5.95s0,3.92,0,5.86c0,1.94,0,3.86,0,5.77s0,3.81,0,5.69,0,3.75,0,5.61,0,3.7,0,5.53c0,1.83,0,3.65,0,5.45,0,1.8,0,3.6,0,5.38,0,1.78,0,3.55,0,5.31,0,1.76,0,3.51,0,5.24,0,1.74,0,3.46,0,5.18,0,1.72,0,3.42,0,5.12,0,1.7,0,3.38,0,5.06,0,1.68,0,3.34,0,5,0,1.66,0,3.31,0,4.95s0,3.27,0,4.9,0,3.24,0,4.85c0,1.61,0,3.21,0,4.81s0,3.18,0,4.77c0,1.58,0,3.16,0,4.73s0,3.13,0,4.69,0,3.11,0,4.66,0,3.09,0,4.63,0,3.07,0,4.61,0,3.06,0,4.58,0,3.04,0,4.56,0,3.03,0,4.54,0,3.02,0,4.53c0,1.51,0,3.01,0,4.52s0,3.01,0,4.51,0,3,0,4.5,0,3,0,4.5c0,1.5,0,3,0,4.5,0,1.5,0,3,0,4.5s0,3.01,0,4.51,0,3.01,0,4.52,0,3.02,0,4.53c0,1.51,0,3.03,0,4.54,0,1.52,0,3.04,0,4.56,0,1.52,0,3.05,0,4.58s0,3.07,0,4.61c0,1.54,0,3.08,0,4.63s0,3.1,0,4.66c0,1.56,0,3.12,0,4.69s0,3.15,0,4.73,0,3.17,0,4.77c0,1.6,0,3.2,0,4.81s0,3.23,0,4.85c0,1.63,0,3.26,0,4.9,0,1.64,0,3.29,0,4.95,0,1.66,0,3.33,0,5,0,1.68,0,3.36,0,5.06,0,1.7,0,3.4,0,5.12s0,3.44,0,5.18c0,1.74,0,3.48,0,5.24,0,1.76,0,3.53,0,5.31,0,1.78,0,3.57,0,5.38s0,3.62,0,5.45,0,3.67,0,5.53c0,1.86,0,3.73,0,5.61s0,3.78,0,5.69,0,3.84,0,5.77,0,3.89,0,5.86c0,1.97,0,3.95,0,5.95,0,2.21-.07,4.27-.2,6.17-.13,1.9-.33,3.65-.59,5.25-.26,1.59-.59,3.03-.98,4.32s-.85,2.41-1.38,3.39c-.7,1.3-1.48,2.4-2.35,3.28s-1.82,1.56-2.86,2.02c-1.04.47-2.16.72-3.36.77-1.21.05-2.33-.12-3.36-.52-1.04-.4-1.99-1.02-2.85-1.87-.87-.85-1.65-1.92-2.34-3.22-.52-.97-.98-2.09-1.37-3.36s-.72-2.7-.98-4.28c-.26-1.58-.46-3.31-.58-5.19-.13-1.88-.19-3.91-.19-6.1,0-1.97,0-3.93,0-5.88,0-1.94,0-3.87,0-5.79s0-3.81,0-5.7c0-1.89,0-3.76,0-5.62,0-1.86,0-3.7,0-5.53,0-1.83,0-3.65,0-5.46,0-1.81,0-3.6,0-5.38,0-1.78,0-3.55,0-5.31,0-1.76,0-3.5,0-5.24,0-1.74,0-3.46,0-5.17,0-1.71,0-3.42,0-5.11,0-1.69,0-3.38,0-5.05,0-1.67,0-3.34,0-4.99,0-1.65,0-3.3,0-4.94,0-1.64,0-3.26,0-4.88,0-1.62,0-3.23,0-4.83,0-1.6,0-3.2,0-4.79,0-1.59,0-3.17,0-4.75,0-1.57,0-3.14,0-4.7,0-1.56,0-3.12,0-4.67s0-3.09,0-4.63c0-1.54,0-3.07,0-4.6s0-3.05,0-4.57,0-3.03,0-4.55,0-3.02,0-4.52c0-1.5,0-3,0-4.5,0-1.5,0-2.99,0-4.49s0-2.98,0-4.47,0-2.97,0-4.46,0-2.97,0-4.45c0-1.48,0-2.96,0-4.44,0-1.48,0-2.96,0-4.44,0-1.48,0-2.96,0-4.44,0-1.48,0-2.96,0-4.44,0-1.48,0-2.97,0-4.45,0-1.48,0-2.97,0-4.46,0-1.49,0-2.98,0-4.47s0-2.99,0-4.49c0-1.5,0-3,0-4.5s0-3.01,0-4.52,0-3.03,0-4.55c0-1.52,0-3.04,0-4.57,0-1.53,0-3.06,0-4.6,0-1.54,0-3.08,0-4.63,0-1.55,0-3.11,0-4.67,0-1.56,0-3.13,0-4.7,0-1.57,0-3.16,0-4.75,0-1.59,0-3.18,0-4.79,0-1.6,0-3.22,0-4.83,0-1.62,0-3.25,0-4.88s0-3.28,0-4.94c0-1.65,0-3.32,0-4.99,0-1.67,0-3.36,0-5.05,0-1.69,0-3.4,0-5.11,0-1.71,0-3.44,0-5.17,0-1.74,0-3.48,0-5.24s0-3.53,0-5.31,0-3.57,0-5.38,0-3.62,0-5.46c0-1.83,0-3.68,0-5.53s0-3.73,0-5.61c0-1.89,0-3.78,0-5.7,0-1.91,0-3.84,0-5.79,0-1.94,0-3.9,0-5.88-1.9.39-3.73.77-5.51,1.14-1.77.37-3.49.72-5.16,1.07-1.67.35-3.29.68-4.87,1.01-1.58.33-3.12.65-4.63.96-1.51.31-3,.62-4.46.92-1.46.3-2.91.6-4.34.9-1.43.3-2.86.59-4.28.89-1.42.3-2.85.59-4.28.89-1.43.3-2.88.6-4.34.9-1.46.3-2.95.61-4.46.92s-3.05.63-4.63.96c-1.58.33-3.2.66-4.87,1.01-1.67.35-3.38.7-5.16,1.07-1.77.37-3.61.75-5.51,1.14,0,1.98,0,3.94,0,5.89,0,1.95,0,3.89,0,5.81,0,1.92,0,3.84,0,5.73,0,1.9,0,3.79,0,5.66,0,1.87,0,3.74,0,5.59,0,1.85,0,3.69,0,5.52,0,1.83,0,3.65,0,5.45,0,1.81,0,3.6,0,5.39,0,1.79,0,3.56,0,5.33,0,1.76,0,3.52,0,5.26,0,1.75,0,3.48,0,5.21,0,1.73,0,3.44,0,5.15s0,3.41,0,5.1,0,3.37,0,5.04c0,1.67,0,3.34,0,4.99s0,3.31,0,4.95c0,1.64,0,3.27,0,4.9,0,1.63,0,3.25,0,4.86,0,1.61,0,3.22,0,4.82,0,1.6,0,3.19,0,4.78,0,1.59,0,3.17,0,4.74s0,3.14,0,4.71c0,1.56,0,3.12,0,4.67,0,1.55,0,3.1,0,4.64,0,1.54,0,3.08,0,4.62,0,1.53,0,3.06,0,4.59,0,1.53,0,3.05,0,4.57,0,1.52,0,3.03,0,4.54,0,1.51,0,3.02,0,4.52,0,1.51,0,3.01,0,4.51,0,1.5,0,3,0,4.49,0,1.5,0,2.99,0,4.48,0,1.49,0,2.98,0,4.47,0,1.49,0,2.97,0,4.46,0,1.49,0,2.97,0,4.45,0,1.48,0,2.97,0,4.45,0,1.48,0,2.96,0,4.45,0,1.48,0,2.96,0,4.45,0,1.48,0,2.97,0,4.45,0,1.48,0,2.97,0,4.45,0,1.49,0,2.97,0,4.46,0,1.49,0,2.98,0,4.47,0,1.49,0,2.98,0,4.48,0,1.5,0,2.99,0,4.49s0,3,0,4.51c0,1.51,0,3.01,0,4.52,0,1.51,0,3.03,0,4.54,0,1.52,0,3.04,0,4.57,0,1.53,0,3.06,0,4.59s0,3.07,0,4.62c0,1.54,0,3.09,0,4.64,0,1.55,0,3.11,0,4.67,0,1.56,0,3.13,0,4.71,0,1.57,0,3.15,0,4.74s0,3.18,0,4.78c0,1.6,0,3.2,0,4.82,0,1.61,0,3.23,0,4.86s0,3.26,0,4.9c0,1.64,0,3.29,0,4.95s0,3.32,0,4.99c0,1.67,0,3.35,0,5.04s0,3.39,0,5.1c0,1.71,0,3.42,0,5.15s0,3.46,0,5.21c0,1.75,0,3.5,0,5.26,0,1.77,0,3.54,0,5.33,0,1.79,0,3.58,0,5.39,0,1.81,0,3.62,0,5.45,0,1.83,0,3.67,0,5.52,0,1.85,0,3.71,0,5.59,0,1.88,0,3.76,0,5.66s0,3.81,0,5.73,0,3.86,0,5.81c0,1.95,0,3.91,0,5.89,0,1.92.04,3.8.11,5.63.08,1.83.19,3.62.35,5.36.15,1.74.35,3.43.58,5.08.23,1.65.5,3.25.81,4.81s.66,3.07,1.05,4.54c.39,1.47.81,2.89,1.28,4.27.47,1.38.97,2.71,1.51,4,.76,1.81,1.56,3.43,2.41,4.88.84,1.45,1.73,2.72,2.66,3.8s1.9,1.99,2.91,2.72c1.01.73,2.07,1.27,3.16,1.64,1.1.36,2.23.55,3.41.55h112.77Z"/>
      <path class="cls-2" d="M480.5,685.3c0-1.96,0-3.89,0-5.79s0-3.77,0-5.62c0-1.84,0-3.66,0-5.45,0-1.79,0-3.56,0-5.3,0-1.74,0-3.46,0-5.16,0-1.7,0-3.37,0-5.03,0-1.66,0-3.29,0-4.91s0-3.22,0-4.81,0-3.16,0-4.72,0-3.1,0-4.64,0-3.06,0-4.57,0-3.02,0-4.51c0-1.5,0-2.99,0-4.47s0-2.96,0-4.44c0-1.48,0-2.95,0-4.42s0-2.94,0-4.42c0-1.47,0-2.95,0-4.42,0-1.48,0-2.96,0-4.44s0-2.97,0-4.47c0-1.5,0-3,0-4.51s0-3.04,0-4.57,0-3.08,0-4.64c0-1.56,0-3.13,0-4.72,0-1.59,0-3.19,0-4.81,0-1.62,0-3.26,0-4.91,0-1.66,0-3.33,0-5.03,0-1.7,0-3.42,0-5.16,0-1.74,0-3.51,0-5.3,0-1.79,0-3.61,0-5.45,0-1.84,0-3.72,0-5.62,0-1.9,0-3.83,0-5.8,1.99-.14,3.87-.26,5.68-.39,1.81-.12,3.54-.24,5.21-.36,1.67-.11,3.28-.22,4.85-.33,1.57-.11,3.1-.21,4.61-.31s3-.2,4.49-.31c1.49-.1,2.98-.2,4.49-.31s3.04-.21,4.61-.31,3.18-.22,4.85-.33c1.67-.11,3.4-.23,5.21-.36,1.81-.12,3.7-.25,5.68-.39,0-1.98,0-3.91,0-5.8s0-3.74,0-5.55,0-3.59,0-5.33,0-3.46,0-5.14c0-1.68,0-3.34,0-4.97,0-1.63,0-3.23,0-4.82,0-1.58,0-3.15,0-4.7,0-1.55,0-3.08,0-4.6,0-1.52,0-3.03,0-4.53,0-1.5,0-2.99,0-4.48,0-1.49,0-2.97,0-4.45,0-1.48,0-2.97,0-4.45,0-1.49,0-2.98,0-4.48,0-1.5,0-3.01,0-4.53,0-1.52,0-3.05,0-4.6s0-3.11,0-4.7c0-1.58,0-3.19,0-4.82s0-3.28,0-4.97,0-3.39,0-5.14c0-1.74,0-3.52,0-5.33,0-1.81,0-3.66,0-5.55,0-1.89,0-3.82,0-5.8-1.81.21-3.53.41-5.19.6-1.66.19-3.25.38-4.78.55-1.54.18-3.02.35-4.47.52s-2.86.33-4.25.49c-1.39.16-2.75.32-4.11.48-1.36.16-2.71.31-4.07.47s-2.72.32-4.11.48-2.8.32-4.25.49c-1.45.17-2.93.34-4.47.52-1.54.18-3.13.36-4.78.55-1.66.19-3.38.39-5.19.6,0-1.97,0-3.88,0-5.75s0-3.69,0-5.48c0-1.78,0-3.52,0-5.23s0-3.38,0-5.02c0-1.64,0-3.25,0-4.84,0-1.59,0-3.15,0-4.69,0-1.54,0-3.07,0-4.58,0-1.51,0-3.01,0-4.49s0-2.97,0-4.45c0-1.48,0-2.95,0-4.43,0-1.48,0-2.96,0-4.45,0-1.49,0-2.98,0-4.49,0-1.51,0-3.03,0-4.58s0-3.1,0-4.69c0-1.59,0-3.2,0-4.84s0-3.31,0-5.02,0-3.45,0-5.23c0-1.78,0-3.61,0-5.48,0-1.87,0-3.79,0-5.75,1.83-.29,3.58-.56,5.26-.83,1.69-.27,3.31-.52,4.88-.77s3.1-.49,4.58-.72c1.48-.23,2.93-.46,4.35-.69,1.42-.22,2.82-.44,4.2-.66s2.75-.43,4.12-.65c1.37-.22,2.74-.43,4.12-.65s2.78-.44,4.2-.66,2.87-.45,4.35-.69c1.48-.23,3.01-.47,4.58-.72s3.2-.5,4.88-.77,3.44-.54,5.26-.83c0-1.95,0-3.86,0-5.73,0-1.87,0-3.7,0-5.5,0-1.8,0-3.56,0-5.29s0-3.43,0-5.1c0-1.67,0-3.32,0-4.94,0-1.62,0-3.22,0-4.79,0-1.58,0-3.13,0-4.67,0-1.54,0-3.06,0-4.57,0-1.51,0-3.01,0-4.49,0-1.49,0-2.97,0-4.44s0-2.94,0-4.41c0-1.47,0-2.93,0-4.39,0-1.47,0-2.93,0-4.41,0-1.47,0-2.95,0-4.44,0-1.49,0-2.98,0-4.49s0-3.03,0-4.57,0-3.09,0-4.67c0-1.58,0-3.17,0-4.79,0-1.62,0-3.26,0-4.94,0-1.67,0-3.37,0-5.1,0-1.73,0-3.49,0-5.29,0-1.8,0-3.63,0-5.5,0-1.87,0-3.78,0-5.73-1.95.4-3.85.8-5.72,1.19s-3.71.77-5.51,1.14c-1.8.37-3.57.74-5.31,1.1-1.74.36-3.45.71-5.13,1.06s-3.34.69-4.98,1.03c-1.63.34-3.24.67-4.84,1-1.59.33-3.16.65-4.71.98s-3.09.64-4.61.96c-1.52.32-3.03.63-4.53.94s-2.98.62-4.46.92c-1.48.31-2.95.61-4.42.91s-2.93.61-4.39.91c-1.46.3-2.92.6-4.38.91-1.46.3-2.92.61-4.39.91-1.47.3-2.94.61-4.42.91-1.48.31-2.96.61-4.46.92-1.5.31-3.01.62-4.53.94-1.52.32-3.06.63-4.61.96s-3.12.65-4.71.98c-1.59.33-3.2.66-4.84,1-1.63.34-3.29.68-4.98,1.03-1.68.35-3.39.7-5.13,1.06-1.74.36-3.51.73-5.31,1.1-1.8.37-3.64.75-5.51,1.14-1.87.39-3.78.78-5.72,1.19,0,1.99,0,3.97,0,5.94,0,1.97,0,3.92,0,5.87,0,1.95,0,3.88,0,5.81,0,1.93,0,3.84,0,5.75s0,3.8,0,5.69c0,1.89,0,3.76,0,5.63,0,1.87,0,3.72,0,5.57,0,1.85,0,3.68,0,5.51,0,1.83,0,3.65,0,5.46s0,3.61,0,5.41c0,1.79,0,3.58,0,5.35s0,3.54,0,5.3,0,3.51,0,5.26c0,1.74,0,3.48,0,5.21s0,3.45,0,5.16c0,1.71,0,3.42,0,5.12,0,1.7,0,3.39,0,5.08,0,1.68,0,3.36,0,5.03s0,3.34,0,4.99c0,1.66,0,3.31,0,4.96,0,1.65,0,3.29,0,4.92,0,1.63,0,3.26,0,4.88,0,1.62,0,3.24,0,4.85,0,1.61,0,3.22,0,4.82,0,1.6,0,3.2,0,4.79,0,1.59,0,3.18,0,4.76,0,1.58,0,3.16,0,4.73,0,1.57,0,3.14,0,4.7,0,1.56,0,3.12,0,4.68,0,1.56,0,3.11,0,4.65,0,1.55,0,3.09,0,4.63,0,1.54,0,3.08,0,4.61,0,1.53,0,3.06,0,4.59,0,1.53,0,3.05,0,4.57,0,1.52,0,3.04,0,4.56,0,1.52,0,3.03,0,4.54,0,1.51,0,3.02,0,4.53,0,1.51,0,3.01,0,4.52,0,1.5,0,3.01,0,4.51s0,3,0,4.5c0,1.5,0,3,0,4.49,0,1.5,0,2.99,0,4.49,0,1.49,0,2.99,0,4.48,0,1.49,0,2.99,0,4.48,0,1.49,0,2.99,0,4.48,0,1.49,0,2.98,0,4.48s0,2.99,0,4.48c0,1.49,0,2.99,0,4.48,0,1.49,0,2.99,0,4.49,0,1.5,0,2.99,0,4.49,0,1.5,0,3,0,4.5,0,1.5,0,3,0,4.51,0,1.5,0,3.01,0,4.52s0,3.02,0,4.53c0,1.51,0,3.03,0,4.54,0,1.52,0,3.04,0,4.56,0,1.52,0,3.05,0,4.57,0,1.53,0,3.06,0,4.59,0,1.53,0,3.07,0,4.61,0,1.54,0,3.08,0,4.63,0,1.55,0,3.1,0,4.65,0,1.56,0,3.11,0,4.68,0,1.56,0,3.13,0,4.7,0,1.57,0,3.15,0,4.73,0,1.58,0,3.17,0,4.76,0,1.59,0,3.19,0,4.79,0,1.6,0,3.21,0,4.82,0,1.61,0,3.23,0,4.85,0,1.62,0,3.25,0,4.88,0,1.63,0,3.27,0,4.92,0,1.65,0,3.3,0,4.96,0,1.66,0,3.32,0,4.99s0,3.35,0,5.03,0,3.38,0,5.08c0,1.7,0,3.4,0,5.12,0,1.71,0,3.43,0,5.16s0,3.46,0,5.21c0,1.74,0,3.5,0,5.26,0,1.76,0,3.53,0,5.3s0,3.56,0,5.35c0,1.79,0,3.59,0,5.41,0,1.81,0,3.63,0,5.46s0,3.67,0,5.51c0,1.85,0,3.7,0,5.57s0,3.74,0,5.63,0,3.78,0,5.69c0,1.91,0,3.82,0,5.75,0,1.93,0,3.86,0,5.81,0,1.95,0,3.9,0,5.87,0,1.97,0,3.95,0,5.94h66.81Z"/>
      <path class="cls-2" d="M584.43,685.3c.14-1.95.28-3.84.41-5.69s.26-3.65.39-5.4.25-3.47.37-5.15c.12-1.68.24-3.32.36-4.94.12-1.61.23-3.2.34-4.76.11-1.56.22-3.1.33-4.62s.22-3.02.32-4.51c.11-1.49.21-2.97.32-4.44.11-1.47.21-2.94.32-4.4.11-1.47.21-2.93.32-4.4.11-1.47.21-2.95.32-4.44s.21-2.99.32-4.51c.11-1.52.22-3.06.33-4.62.11-1.56.23-3.15.34-4.77.12-1.62.23-3.27.36-4.95s.24-3.41.37-5.17.26-3.57.39-5.43c.13-1.86.27-3.76.41-5.72,1.79-.07,3.46-.13,5.04-.19,1.57-.06,3.06-.11,4.49-.17,1.43-.05,2.8-.11,4.16-.16,1.35-.05,2.69-.1,4.05-.15,1.36-.05,2.73-.1,4.16-.16,1.43-.05,2.91-.11,4.49-.17,1.57-.06,3.24-.12,5.04-.19.13,1.98.26,3.9.39,5.77.13,1.87.25,3.7.37,5.48.12,1.78.24,3.52.35,5.22s.23,3.37.34,5,.22,3.24.32,4.82c.11,1.58.21,3.14.31,4.68s.2,3.06.31,4.57c.1,1.51.2,3.01.3,4.5s.2,2.98.3,4.46c.1,1.49.2,2.97.3,4.46s.2,2.99.3,4.5c.1,1.51.2,3.03.31,4.57.1,1.54.21,3.1.31,4.69s.21,3.19.32,4.83.22,3.31.34,5.02c.11,1.71.23,3.45.35,5.24.12,1.79.24,3.62.37,5.5.13,1.88.25,3.81.39,5.8h70.24c-.15-2.01-.3-4-.44-5.99s-.29-3.96-.44-5.93c-.15-1.97-.29-3.92-.44-5.87-.14-1.95-.29-3.88-.43-5.81s-.29-3.84-.43-5.75c-.14-1.91-.28-3.81-.42-5.7s-.28-3.77-.42-5.64-.28-3.74-.42-5.59c-.14-1.85-.28-3.7-.41-5.54-.14-1.84-.27-3.67-.41-5.49-.14-1.82-.27-3.63-.4-5.44s-.27-3.6-.4-5.39c-.13-1.79-.27-3.57-.4-5.34-.13-1.77-.26-3.54-.39-5.3-.13-1.76-.26-3.51-.39-5.25-.13-1.74-.26-3.48-.39-5.21s-.26-3.45-.39-5.17-.26-3.42-.38-5.13-.25-3.4-.38-5.09-.25-3.37-.38-5.05c-.13-1.68-.25-3.35-.37-5.01-.12-1.66-.25-3.32-.37-4.98-.12-1.65-.25-3.3-.37-4.94-.12-1.64-.24-3.28-.37-4.91-.12-1.63-.24-3.25-.36-4.87-.12-1.62-.24-3.23-.36-4.84-.12-1.61-.24-3.21-.36-4.81s-.24-3.19-.36-4.78-.24-3.18-.36-4.76c-.12-1.58-.24-3.16-.35-4.73-.12-1.57-.23-3.14-.35-4.7-.12-1.56-.23-3.12-.35-4.68s-.23-3.11-.35-4.66-.23-3.09-.35-4.64c-.12-1.54-.23-3.08-.35-4.61-.11-1.53-.23-3.07-.34-4.6-.11-1.53-.23-3.05-.34-4.58-.11-1.52-.23-3.04-.34-4.56s-.23-3.03-.34-4.54c-.11-1.51-.23-3.02-.34-4.53-.11-1.51-.23-3.01-.34-4.52-.11-1.5-.23-3-.34-4.5s-.22-3-.34-4.49c-.11-1.5-.22-2.99-.34-4.48-.11-1.49-.22-2.98-.34-4.47-.11-1.49-.22-2.98-.34-4.47-.11-1.49-.22-2.97-.34-4.46-.11-1.49-.22-2.97-.33-4.45-.11-1.48-.22-2.97-.33-4.45-.11-1.48-.22-2.97-.33-4.45-.11-1.48-.22-2.96-.33-4.45-.11-1.48-.22-2.96-.33-4.44-.11-1.48-.22-2.96-.33-4.45-.11-1.48-.22-2.96-.33-4.45s-.22-2.97-.33-4.45c-.11-1.48-.22-2.97-.34-4.45-.11-1.49-.22-2.97-.34-4.46-.11-1.49-.22-2.98-.34-4.46s-.22-2.98-.34-4.47-.23-2.99-.34-4.48-.23-2.99-.34-4.49c-.11-1.5-.23-3-.34-4.5-.11-1.5-.23-3.01-.34-4.51-.11-1.51-.23-3.02-.34-4.53-.11-1.51-.23-3.02-.34-4.54-.11-1.52-.23-3.03-.34-4.56-.11-1.52-.23-3.05-.35-4.57-.12-1.53-.23-3.06-.35-4.59s-.23-3.07-.35-4.61-.23-3.08-.35-4.63c-.12-1.55-.23-3.1-.35-4.65-.12-1.55-.24-3.11-.35-4.67-.12-1.56-.24-3.13-.36-4.7-.12-1.57-.24-3.14-.36-4.72-.12-1.58-.24-3.16-.36-4.75-.12-1.59-.24-3.18-.36-4.77-.12-1.6-.24-3.2-.36-4.8-.12-1.61-.24-3.22-.37-4.83-.12-1.62-.25-3.24-.37-4.86s-.25-3.26-.37-4.89c-.12-1.64-.25-3.28-.37-4.92-.12-1.65-.25-3.3-.38-4.96s-.25-3.32-.38-4.99c-.13-1.67-.25-3.35-.38-5.03s-.26-3.37-.38-5.07c-.13-1.69-.26-3.4-.39-5.1-.13-1.71-.26-3.42-.39-5.14-.13-1.72-.26-3.45-.39-5.18-.13-1.73-.26-3.48-.4-5.22-.13-1.75-.27-3.5-.4-5.27-.13-1.76-.27-3.53-.4-5.31-.14-1.78-.27-3.56-.41-5.35s-.27-3.59-.41-5.4c-.14-1.81-.28-3.62-.42-5.45-.14-1.82-.28-3.66-.42-5.5-.14-1.84-.28-3.69-.42-5.54-.14-1.86-.28-3.72-.43-5.59-.14-1.87-.29-3.76-.43-5.65s-.29-3.79-.43-5.7c-.15-1.91-.29-3.82-.44-5.75-.15-1.93-.3-3.86-.44-5.81-1.87.39-3.69.76-5.46,1.13-1.78.37-3.51.73-5.21,1.08-1.7.35-3.36.7-4.99,1.03-1.63.34-3.22.67-4.79.99-1.57.32-3.11.64-4.62.96-1.52.31-3.01.62-4.48.93-1.47.31-2.93.61-4.37.91-1.44.3-2.87.59-4.29.89-1.42.29-2.83.59-4.23.88-1.4.29-2.8.58-4.2.87s-2.8.58-4.2.87c-1.4.29-2.81.58-4.23.88-1.42.29-2.85.59-4.29.89-1.44.3-2.9.6-4.37.91-1.47.31-2.97.61-4.48.93s-3.06.63-4.62.96c-1.57.32-3.16.66-4.79.99s-3.29.68-4.99,1.03c-1.7.35-3.43.71-5.21,1.08-1.78.37-3.6.75-5.46,1.13-.16,2.01-.32,4.01-.48,6-.16,1.99-.32,3.97-.47,5.93s-.31,3.93-.47,5.87c-.15,1.95-.31,3.88-.46,5.81s-.31,3.85-.46,5.75-.3,3.81-.45,5.7-.3,3.77-.45,5.64c-.15,1.87-.3,3.73-.45,5.58-.15,1.85-.29,3.7-.44,5.53s-.29,3.66-.44,5.48c-.15,1.82-.29,3.63-.43,5.43-.14,1.8-.29,3.59-.43,5.38-.14,1.78-.28,3.56-.43,5.33s-.28,3.53-.42,5.28c-.14,1.75-.28,3.5-.42,5.23-.14,1.74-.28,3.47-.41,5.19s-.27,3.44-.41,5.15c-.14,1.71-.27,3.41-.41,5.11-.14,1.69-.27,3.38-.41,5.06-.13,1.68-.27,3.36-.4,5.03-.13,1.67-.27,3.33-.4,4.99s-.26,3.31-.4,4.95c-.13,1.64-.26,3.28-.39,4.92s-.26,3.26-.39,4.88c-.13,1.62-.26,3.24-.39,4.85-.13,1.61-.26,3.22-.39,4.82-.13,1.6-.26,3.2-.38,4.79-.13,1.59-.26,3.18-.38,4.76-.13,1.58-.25,3.16-.38,4.73s-.25,3.14-.38,4.7-.25,3.12-.38,4.68-.25,3.11-.37,4.66c-.12,1.55-.25,3.09-.37,4.63-.12,1.54-.25,3.08-.37,4.61s-.25,3.06-.37,4.59c-.12,1.53-.25,3.05-.37,4.57-.12,1.52-.24,3.04-.37,4.56-.12,1.52-.24,3.03-.37,4.54-.12,1.51-.24,3.02-.36,4.53-.12,1.51-.24,3.01-.36,4.51-.12,1.5-.24,3-.36,4.5s-.24,2.99-.36,4.49c-.12,1.49-.24,2.99-.36,4.48-.12,1.49-.24,2.98-.36,4.47s-.24,2.98-.36,4.46c-.12,1.49-.24,2.97-.36,4.46-.12,1.49-.24,2.97-.36,4.45-.12,1.48-.24,2.97-.36,4.45s-.24,2.97-.36,4.45c-.12,1.48-.24,2.97-.36,4.45s-.24,2.97-.36,4.45-.24,2.97-.36,4.45c-.12,1.48-.24,2.97-.36,4.45-.12,1.49-.24,2.97-.36,4.46s-.24,2.97-.36,4.46c-.12,1.49-.24,2.98-.36,4.47-.12,1.49-.24,2.98-.36,4.48-.12,1.49-.24,2.99-.36,4.49s-.24,3-.36,4.5c-.12,1.5-.24,3-.37,4.51s-.24,3.01-.37,4.52c-.12,1.51-.25,3.02-.37,4.54-.12,1.51-.25,3.03-.37,4.55-.12,1.52-.25,3.04-.37,4.57-.12,1.53-.25,3.06-.37,4.59-.12,1.53-.25,3.07-.37,4.61-.12,1.54-.25,3.08-.38,4.63-.13,1.55-.25,3.1-.38,4.65s-.25,3.11-.38,4.67c-.13,1.56-.25,3.13-.38,4.7-.13,1.57-.26,3.14-.38,4.72-.13,1.58-.26,3.16-.39,4.75s-.26,3.18-.39,4.78c-.13,1.6-.26,3.2-.39,4.8s-.26,3.22-.39,4.83c-.13,1.62-.26,3.24-.4,4.87-.13,1.63-.27,3.26-.4,4.9-.13,1.64-.27,3.28-.4,4.93-.13,1.65-.27,3.31-.41,4.97-.14,1.66-.27,3.33-.41,5-.14,1.67-.27,3.35-.41,5.04-.14,1.69-.28,3.38-.41,5.08s-.28,3.41-.42,5.12c-.14,1.71-.28,3.43-.42,5.16-.14,1.73-.28,3.46-.43,5.2-.14,1.74-.29,3.49-.43,5.25-.14,1.76-.29,3.52-.43,5.29-.15,1.77-.29,3.55-.44,5.34s-.29,3.58-.44,5.38c-.15,1.8-.3,3.61-.45,5.43-.15,1.82-.3,3.65-.45,5.48-.15,1.84-.3,3.68-.45,5.53-.15,1.85-.3,3.71-.46,5.58-.15,1.87-.31,3.75-.46,5.64s-.31,3.79-.47,5.69-.31,3.82-.47,5.75c-.16,1.93-.32,3.86-.48,5.8h55.67ZM605.96,352.38c.57-.08.86-.12,1.43-.2.12,1.97.23,3.91.35,5.82.11,1.91.23,3.79.34,5.64.11,1.85.22,3.68.33,5.48.11,1.8.21,3.57.32,5.32.1,1.75.21,3.48.31,5.18s.2,3.39.3,5.06.2,3.31.29,4.94.19,3.24.29,4.84c.09,1.6.19,3.18.28,4.75s.19,3.12.28,4.67c.09,1.54.18,3.08.27,4.6s.18,3.04.27,4.54.18,3.01.27,4.5c.09,1.5.18,2.99.26,4.47s.18,2.97.26,4.46.18,2.97.26,4.45.18,2.97.26,4.46c.09,1.49.18,2.98.26,4.48s.18,3,.27,4.51c.09,1.51.18,3.03.27,4.55.09,1.53.18,3.06.27,4.61.09,1.55.18,3.11.28,4.68.09,1.57.19,3.16.28,4.76s.19,3.22.29,4.85c.1,1.64.19,3.29.29,4.96.1,1.67.2,3.37.3,5.08.1,1.71.2,3.45.31,5.21s.21,3.54.32,5.35.22,3.65.33,5.51.22,3.76.34,5.68.23,3.88.35,5.86c-1.6.12-3.04.23-4.38.33-1.34.1-2.59.2-3.8.29-1.22.09-2.4.18-3.61.27-1.21.09-2.46.19-3.8.29-1.34.1-2.78.21-4.38.33.12-1.99.24-3.94.36-5.87.12-1.93.24-3.82.35-5.69s.23-3.71.34-5.52c.11-1.81.22-3.6.33-5.37.11-1.77.22-3.51.32-5.23s.21-3.42.31-5.1c.1-1.68.21-3.34.31-4.98.1-1.64.2-3.27.3-4.88s.2-3.2.29-4.79c.1-1.58.19-3.15.29-4.71.1-1.56.19-3.1.28-4.64.09-1.54.19-3.06.28-4.58.09-1.52.19-3.03.28-4.54.09-1.51.18-3.01.28-4.51s.18-3,.28-4.49c.09-1.5.18-2.99.28-4.49.09-1.5.18-2.99.28-4.5.09-1.5.18-3.01.28-4.52.09-1.51.19-3.03.28-4.55.09-1.52.19-3.05.28-4.59.09-1.54.19-3.09.28-4.65.1-1.56.19-3.13.29-4.72.1-1.59.19-3.19.29-4.8.1-1.62.2-3.25.3-4.9.1-1.65.2-3.32.31-5s.21-3.39.31-5.12.21-3.48.32-5.26c.11-1.78.22-3.58.33-5.4.11-1.83.22-3.68.34-5.56.11-1.88.23-3.79.35-5.73.12-1.94.24-3.91.36-5.91Z"/>
      <path class="cls-2" d="M821.11,685.3c0-1.93,0-3.83,0-5.69,0-1.86,0-3.69,0-5.48s0-3.56,0-5.29c0-1.73,0-3.44,0-5.12,0-1.68,0-3.33,0-4.97s0-3.24,0-4.83c0-1.59,0-3.16,0-4.71,0-1.55,0-3.09,0-4.61,0-1.52,0-3.03,0-4.52s0-2.98,0-4.45c0-1.47,0-2.94,0-4.4,0-1.46,0-2.92,0-4.37,0-1.45,0-2.9,0-4.35,0-1.45,0-2.9,0-4.35,0-1.45,0-2.91,0-4.37,0-1.46,0-2.93,0-4.4,0-1.47,0-2.96,0-4.45,0-1.49,0-3,0-4.52,0-1.52,0-3.05,0-4.61,0-1.55,0-3.12,0-4.71,0-1.59,0-3.2,0-4.83,0-1.63,0-3.29,0-4.97,0-1.68,0-3.39,0-5.12,0-1.73,0-3.5,0-5.29,0-1.79,0-3.62,0-5.48,0-1.86,0-3.76,0-5.69-1.96.1-3.83.19-5.62.27-1.79.09-3.5.17-5.15.25-1.65.08-3.24.16-4.79.23-1.55.08-3.06.15-4.56.22-1.49.07-2.97.14-4.44.22-1.47.07-2.95.14-4.44.22s-3.01.15-4.56.22c-1.55.08-3.14.15-4.79.23-1.65.08-3.36.16-5.15.25s-3.65.18-5.62.27c0-1.99,0-3.97,0-5.94,0-1.97,0-3.93,0-5.87,0-1.94,0-3.88,0-5.8,0-1.92,0-3.83,0-5.73,0-1.9,0-3.79,0-5.66,0-1.88,0-3.74,0-5.6,0-1.86,0-3.7,0-5.53s0-3.66,0-5.47,0-3.62,0-5.41c0-1.79,0-3.58,0-5.35,0-1.78,0-3.54,0-5.3,0-1.76,0-3.51,0-5.24,0-1.74,0-3.47,0-5.19s0-3.44,0-5.14c0-1.71,0-3.4,0-5.09,0-1.69,0-3.37,0-5.05,0-1.67,0-3.34,0-5,0-1.66,0-3.31,0-4.96,0-1.65,0-3.28,0-4.92,0-1.63,0-3.26,0-4.88,0-1.62,0-3.23,0-4.84,0-1.61,0-3.21,0-4.81,0-1.6,0-3.19,0-4.77,0-1.59,0-3.17,0-4.74,0-1.57,0-3.14,0-4.71,0-1.57,0-3.13,0-4.68,0-1.56,0-3.11,0-4.66,0-1.55,0-3.09,0-4.63,0-1.54,0-3.08,0-4.61,0-1.53,0-3.06,0-4.59s0-3.05,0-4.57c0-1.52,0-3.04,0-4.55,0-1.52,0-3.03,0-4.54,0-1.51,0-3.02,0-4.53,0-1.51,0-3.01,0-4.51,0-1.5,0-3,0-4.5,0-1.5,0-3,0-4.5,0-1.5,0-3,0-4.49,0-1.5,0-2.99,0-4.49,0-1.5,0-2.99,0-4.49,0-1.5,0-2.99,0-4.49,0-1.5,0-2.99,0-4.49s0-2.99,0-4.49c0-1.5,0-3,0-4.5,0-1.5,0-3,0-4.5,0-1.5,0-3.01,0-4.51,0-1.51,0-3.01,0-4.52,0-1.51,0-3.02,0-4.54,0-1.51,0-3.03,0-4.55,0-1.52,0-3.04,0-4.57s0-3.06,0-4.59c0-1.53,0-3.07,0-4.61,0-1.54,0-3.08,0-4.63,0-1.55,0-3.1,0-4.66,0-1.56,0-3.12,0-4.68,0-1.57,0-3.14,0-4.71,0-1.57,0-3.15,0-4.74,0-1.58,0-3.18,0-4.77,0-1.6,0-3.2,0-4.81,0-1.61,0-3.22,0-4.84,0-1.62,0-3.25,0-4.88,0-1.63,0-3.27,0-4.92,0-1.65,0-3.3,0-4.96,0-1.66,0-3.33,0-5,0-1.67,0-3.36,0-5.05,0-1.69,0-3.39,0-5.09,0-1.71,0-3.42,0-5.14,0-1.72,0-3.45,0-5.19s0-3.49,0-5.24,0-3.52,0-5.3,0-3.56,0-5.35c0-1.79,0-3.6,0-5.41s0-3.64,0-5.47,0-3.68,0-5.53c0-1.85,0-3.72,0-5.6,0-1.88,0-3.76,0-5.66s0-3.81,0-5.73c0-1.92,0-3.85,0-5.8,0-1.94,0-3.9,0-5.87,0-1.97,0-3.95,0-5.94-1.94.4-3.81.79-5.62,1.17-1.81.38-3.56.74-5.27,1.09-1.7.35-3.36.7-4.97,1.03-1.61.33-3.19.66-4.73.98-1.54.32-3.06.63-4.55.94-1.5.31-2.97.62-4.44.92-1.47.3-2.92.61-4.38.91s-2.91.6-4.38.91c-1.47.3-2.94.61-4.44.92-1.5.31-3.01.62-4.55.94-1.54.32-3.12.65-4.73.98-1.61.33-3.27.68-4.97,1.03s-3.46.72-5.27,1.09c-1.81.38-3.68.76-5.62,1.17,0,1.99,0,3.97,0,5.94,0,1.97,0,3.93,0,5.89,0,1.95,0,3.9,0,5.83,0,1.93,0,3.86,0,5.78s0,3.82,0,5.72,0,3.79,0,5.67c0,1.88,0,3.75,0,5.62s0,3.72,0,5.57,0,3.69,0,5.52,0,3.65,0,5.47,0,3.62,0,5.42,0,3.59,0,5.38c0,1.78,0,3.56,0,5.33,0,1.77,0,3.53,0,5.29,0,1.76,0,3.5,0,5.25,0,1.74,0,3.48,0,5.2s0,3.45,0,5.16,0,3.42,0,5.12c0,1.7,0,3.4,0,5.09,0,1.69,0,3.37,0,5.05s0,3.35,0,5.01c0,1.67,0,3.33,0,4.98s0,3.3,0,4.95c0,1.64,0,3.28,0,4.91,0,1.63,0,3.26,0,4.88,0,1.62,0,3.24,0,4.85s0,3.22,0,4.83,0,3.2,0,4.8c0,1.59,0,3.19,0,4.77,0,1.59,0,3.17,0,4.75,0,1.58,0,3.15,0,4.72s0,3.14,0,4.7,0,3.12,0,4.68c0,1.56,0,3.11,0,4.66,0,1.55,0,3.09,0,4.64,0,1.54,0,3.08,0,4.62s0,3.07,0,4.6,0,3.06,0,4.59c0,1.53,0,3.05,0,4.57,0,1.52,0,3.04,0,4.56,0,1.52,0,3.03,0,4.54,0,1.51,0,3.02,0,4.53,0,1.51,0,3.02,0,4.52s0,3.01,0,4.51,0,3,0,4.51c0,1.5,0,3,0,4.5,0,1.5,0,3,0,4.49,0,1.5,0,2.99,0,4.49s0,2.99,0,4.48,0,2.99,0,4.48c0,1.49,0,2.99,0,4.48,0,1.49,0,2.99,0,4.48,0,1.49,0,2.99,0,4.48s0,2.99,0,4.48,0,2.99,0,4.49c0,1.5,0,2.99,0,4.49,0,1.5,0,3,0,4.5s0,3,0,4.51c0,1.5,0,3.01,0,4.51,0,1.51,0,3.01,0,4.52,0,1.51,0,3.02,0,4.53s0,3.03,0,4.54,0,3.04,0,4.56c0,1.52,0,3.04,0,4.57,0,1.53,0,3.05,0,4.59,0,1.53,0,3.06,0,4.6,0,1.54,0,3.08,0,4.62,0,1.54,0,3.09,0,4.64,0,1.55,0,3.1,0,4.66,0,1.56,0,3.11,0,4.68,0,1.56,0,3.13,0,4.7,0,1.57,0,3.14,0,4.72,0,1.58,0,3.16,0,4.75,0,1.59,0,3.18,0,4.77,0,1.59,0,3.19,0,4.8,0,1.6,0,3.21,0,4.83,0,1.61,0,3.23,0,4.85,0,1.62,0,3.25,0,4.88s0,3.27,0,4.92,0,3.29,0,4.95c0,1.65,0,3.31,0,4.98,0,1.67,0,3.34,0,5.01s0,3.36,0,5.05,0,3.39,0,5.09,0,3.41,0,5.12c0,1.71,0,3.44,0,5.16,0,1.73,0,3.46,0,5.2,0,1.74,0,3.49,0,5.25,0,1.76,0,3.52,0,5.29,0,1.77,0,3.55,0,5.33s0,3.58,0,5.38c0,1.8,0,3.61,0,5.42,0,1.82,0,3.64,0,5.47,0,1.83,0,3.67,0,5.52,0,1.85,0,3.7,0,5.57,0,1.86,0,3.74,0,5.62s0,3.77,0,5.67c0,1.9,0,3.81,0,5.72,0,1.92,0,3.84,0,5.78,0,1.93,0,3.88,0,5.83,0,1.95,0,3.92,0,5.89,0,1.97,0,3.95,0,5.94h117.06Z"/>
      <path class="cls-2" d="M947.58,685.3c0-1.95,0-3.87,0-5.75,0-1.88,0-3.73,0-5.55,0-1.82,0-3.61,0-5.36,0-1.76,0-3.49,0-5.2,0-1.71,0-3.39,0-5.04s0-3.29,0-4.91,0-3.21,0-4.79c0-1.58,0-3.14,0-4.68s0-3.07,0-4.59c0-1.52,0-3.02,0-4.52,0-1.5,0-2.98,0-4.46,0-1.48,0-2.95,0-4.42,0-1.47,0-2.94,0-4.4,0-1.46,0-2.93,0-4.39,0-1.46,0-2.93,0-4.4,0-1.47,0-2.94,0-4.42s0-2.97,0-4.46c0-1.5,0-3,0-4.52,0-1.52,0-3.05,0-4.59,0-1.54,0-3.1,0-4.68,0-1.58,0-3.17,0-4.79,0-1.61,0-3.25,0-4.91,0-1.66,0-3.34,0-5.04,0-1.71,0-3.44,0-5.2s0-3.55,0-5.36c0-1.82,0-3.67,0-5.55,0-1.88,0-3.8,0-5.75-1.96.1-3.83.19-5.62.27-1.79.09-3.5.17-5.15.25-1.65.08-3.24.16-4.79.23-1.55.08-3.06.15-4.56.22s-2.97.15-4.44.22c-1.47.07-2.95.14-4.44.22-1.49.07-3.01.15-4.56.22-1.55.08-3.14.15-4.79.23-1.65.08-3.36.16-5.15.25-1.79.09-3.65.18-5.62.27,0-1.99,0-3.98,0-5.95s0-3.93,0-5.88,0-3.88,0-5.81c0-1.93,0-3.84,0-5.74,0-1.9,0-3.8,0-5.68s0-3.75,0-5.62,0-3.71,0-5.55,0-3.67,0-5.5c0-1.82,0-3.63,0-5.44,0-1.8,0-3.6,0-5.38,0-1.78,0-3.56,0-5.33,0-1.77,0-3.53,0-5.27s0-3.49,0-5.22c0-1.73,0-3.46,0-5.18s0-3.43,0-5.13,0-3.4,0-5.08,0-3.37,0-5.04c0-1.67,0-3.34,0-5s0-3.31,0-4.95,0-3.28,0-4.92c0-1.63,0-3.26,0-4.88,0-1.62,0-3.23,0-4.84,0-1.61,0-3.21,0-4.81,0-1.6,0-3.19,0-4.78,0-1.59,0-3.17,0-4.75s0-3.15,0-4.72,0-3.13,0-4.69c0-1.56,0-3.11,0-4.66s0-3.1,0-4.64,0-3.08,0-4.62c0-1.54,0-3.07,0-4.6s0-3.06,0-4.58c0-1.52,0-3.04,0-4.56s0-3.03,0-4.55c0-1.51,0-3.02,0-4.53s0-3.02,0-4.52,0-3.01,0-4.51c0-1.5,0-3,0-4.5s0-3,0-4.5,0-3,0-4.49,0-2.99,0-4.49c0-1.5,0-2.99,0-4.49,0-1.5,0-2.99,0-4.49,0-1.5,0-2.99,0-4.49,0-1.5,0-2.99,0-4.49,0-1.5,0-3,0-4.5s0-3,0-4.5c0-1.5,0-3.01,0-4.51s0-3.01,0-4.52c0-1.51,0-3.02,0-4.53s0-3.03,0-4.55c0-1.52,0-3.04,0-4.56s0-3.05,0-4.58,0-3.06,0-4.6,0-3.08,0-4.62c0-1.54,0-3.09,0-4.64,0-1.55,0-3.11,0-4.66,0-1.56,0-3.12,0-4.69,0-1.57,0-3.14,0-4.72,0-1.58,0-3.16,0-4.75s0-3.18,0-4.78,0-3.2,0-4.81,0-3.22,0-4.84c0-1.62,0-3.25,0-4.88,0-1.63,0-3.27,0-4.92,0-1.64,0-3.3,0-4.95,0-1.66,0-3.32,0-5s0-3.35,0-5.04,0-3.38,0-5.08c0-1.7,0-3.41,0-5.13,0-1.72,0-3.44,0-5.17,0-1.73,0-3.47,0-5.22,0-1.75,0-3.51,0-5.27s0-3.54,0-5.33,0-3.58,0-5.38,0-3.62,0-5.44,0-3.65,0-5.49c0-1.84,0-3.69,0-5.55,0-1.86,0-3.73,0-5.62s0-3.77,0-5.68,0-3.82,0-5.74,0-3.86,0-5.81c0-1.95,0-3.91,0-5.88s0-3.95,0-5.95c-1.94.4-3.81.79-5.62,1.17-1.81.38-3.56.74-5.27,1.09s-3.36.7-4.97,1.03c-1.61.33-3.19.66-4.73.98-1.54.32-3.06.63-4.55.94-1.5.31-2.97.62-4.44.92-1.47.3-2.92.61-4.38.91-1.46.3-2.91.6-4.38.91-1.47.3-2.94.61-4.44.92s-3.01.62-4.55.94c-1.54.32-3.12.65-4.73.98-1.61.33-3.27.68-4.97,1.03s-3.46.72-5.27,1.09c-1.81.38-3.68.76-5.62,1.17,0,2,0,3.98,0,5.96,0,1.98,0,3.95,0,5.91,0,1.96,0,3.91,0,5.85s0,3.87,0,5.8c0,1.92,0,3.84,0,5.75,0,1.91,0,3.81,0,5.7,0,1.89,0,3.77,0,5.65,0,1.87,0,3.74,0,5.6,0,1.86,0,3.71,0,5.55,0,1.84,0,3.68,0,5.5,0,1.83,0,3.65,0,5.46,0,1.81,0,3.62,0,5.41,0,1.8,0,3.59,0,5.37,0,1.78,0,3.56,0,5.33,0,1.77,0,3.53,0,5.29,0,1.76,0,3.5,0,5.25,0,1.74,0,3.48,0,5.21,0,1.73,0,3.45,0,5.17,0,1.72,0,3.43,0,5.13,0,1.7,0,3.4,0,5.1s0,3.38,0,5.06,0,3.36,0,5.03c0,1.67,0,3.33,0,4.99,0,1.66,0,3.31,0,4.96,0,1.65,0,3.29,0,4.93,0,1.64,0,3.27,0,4.9s0,3.25,0,4.87c0,1.62,0,3.23,0,4.85s0,3.22,0,4.82c0,1.6,0,3.2,0,4.79,0,1.59,0,3.18,0,4.77s0,3.17,0,4.74,0,3.15,0,4.72,0,3.14,0,4.7c0,1.56,0,3.12,0,4.68,0,1.56,0,3.11,0,4.66,0,1.55,0,3.1,0,4.64,0,1.54,0,3.09,0,4.63s0,3.08,0,4.61c0,1.53,0,3.07,0,4.59s0,3.06,0,4.58c0,1.52,0,3.05,0,4.57,0,1.52,0,3.04,0,4.56,0,1.52,0,3.03,0,4.54s0,3.02,0,4.53c0,1.51,0,3.02,0,4.53s0,3.01,0,4.52,0,3.01,0,4.51c0,1.5,0,3,0,4.51,0,1.5,0,3,0,4.5,0,1.5,0,3,0,4.5s0,3,0,4.49c0,1.5,0,3,0,4.49s0,2.99,0,4.49c0,1.5,0,2.99,0,4.49,0,1.5,0,3,0,4.49,0,1.5,0,3,0,4.5,0,1.5,0,3,0,4.5s0,3,0,4.5,0,3.01,0,4.51c0,1.5,0,3.01,0,4.52s0,3.02,0,4.53c0,1.51,0,3.02,0,4.53,0,1.51,0,3.03,0,4.54,0,1.52,0,3.03,0,4.56s0,3.04,0,4.57,0,3.05,0,4.58c0,1.53,0,3.06,0,4.59s0,3.07,0,4.61c0,1.54,0,3.08,0,4.63s0,3.09,0,4.64c0,1.55,0,3.1,0,4.66,0,1.56,0,3.12,0,4.68s0,3.13,0,4.7c0,1.57,0,3.14,0,4.72s0,3.16,0,4.74c0,1.59,0,3.18,0,4.77,0,1.59,0,3.19,0,4.79,0,1.6,0,3.21,0,4.82,0,1.61,0,3.23,0,4.85,0,1.62,0,3.24,0,4.87,0,1.63,0,3.26,0,4.9,0,1.64,0,3.28,0,4.93,0,1.65,0,3.3,0,4.96s0,3.32,0,4.99,0,3.35,0,5.03c0,1.68,0,3.37,0,5.06,0,1.69,0,3.39,0,5.1,0,1.7,0,3.42,0,5.13,0,1.72,0,3.44,0,5.17,0,1.73,0,3.47,0,5.21,0,1.74,0,3.49,0,5.25,0,1.76,0,3.52,0,5.29,0,1.77,0,3.55,0,5.33,0,1.78,0,3.57,0,5.37,0,1.8,0,3.6,0,5.41,0,1.81,0,3.63,0,5.46,0,1.83,0,3.66,0,5.5,0,1.84,0,3.69,0,5.55,0,1.86,0,3.72,0,5.6,0,1.87,0,3.76,0,5.65,0,1.89,0,3.79,0,5.7s0,3.82,0,5.75c0,1.92,0,3.86,0,5.8,0,1.94,0,3.89,0,5.85,0,1.96,0,3.93,0,5.91,0,1.98,0,3.96,0,5.96h117.05Z"/>
      <path class="cls-2" d="M1089.47,685.3c.98,0,1.94-.18,2.86-.54.92-.36,1.82-.89,2.69-1.61s1.7-1.61,2.51-2.69c.81-1.08,1.59-2.33,2.34-3.77.75-1.44,1.47-3.05,2.17-4.85.69-1.8,1.36-3.77,1.99-5.93.38-1.29.74-2.62,1.08-3.98.34-1.36.67-2.75.97-4.17s.59-2.88.86-4.36c.27-1.49.51-3,.74-4.55.23-1.55.44-3.13.63-4.75.19-1.61.36-3.26.51-4.94s.29-3.39.4-5.13c.11-1.74.21-3.51.29-5.32s.13-3.64.17-5.51.06-3.76.06-5.69V161.26c0-1.93-.02-3.82-.06-5.68-.04-1.86-.1-3.68-.17-5.47-.08-1.79-.17-3.54-.29-5.26s-.25-3.4-.4-5.04c-.15-1.65-.32-3.26-.51-4.83-.19-1.57-.4-3.11-.63-4.62-.23-1.5-.48-2.97-.74-4.4s-.55-2.83-.86-4.19c-.3-1.36-.63-2.68-.97-3.97-.34-1.29-.7-2.54-1.08-3.76-.76-2.43-1.56-4.59-2.41-6.49-.85-1.89-1.73-3.52-2.66-4.88-.93-1.36-1.9-2.45-2.91-3.27-1.01-.82-2.07-1.38-3.16-1.67-1.1-.29-2.23-.31-3.41-.07-1.89.39-3.74.77-5.55,1.15-1.81.38-3.59.74-5.33,1.1s-3.46.72-5.14,1.06-3.33.69-4.96,1.03c-1.63.34-3.23.67-4.8.99-1.58.33-3.13.65-4.66.97s-3.05.63-4.55.94c-1.5.31-2.98.62-4.45.92-1.47.3-2.92.61-4.37.91-1.45.3-2.88.6-4.31.89-1.43.3-2.85.59-4.27.89-1.42.29-2.84.59-4.25.88-1.42.29-2.83.59-4.25.88-1.42.29-2.84.59-4.27.89-1.43.3-2.87.59-4.31.89-1.45.3-2.9.6-4.37.91-1.47.3-2.95.61-4.45.92-1.5.31-3.01.62-4.55.94-1.53.32-3.09.64-4.66.97s-3.18.66-4.8.99c-1.63.34-3.28.68-4.96,1.03-1.68.35-3.39.7-5.14,1.06-1.74.36-3.52.73-5.33,1.1-1.81.38-3.66.76-5.55,1.15-.98.2-1.94.57-2.86,1.11s-1.82,1.23-2.69,2.1c-.87.86-1.7,1.89-2.51,3.08-.81,1.19-1.59,2.55-2.34,4.07-.75,1.52-1.47,3.2-2.16,5.05-.69,1.85-1.36,3.86-1.99,6.03-.38,1.3-.74,2.63-1.09,3.99s-.67,2.74-.97,4.14c-.3,1.41-.59,2.84-.86,4.3s-.51,2.94-.74,4.45-.44,3.05-.63,4.61c-.19,1.56-.36,3.15-.51,4.76-.15,1.61-.29,3.25-.4,4.92-.11,1.67-.21,3.36-.29,5.08s-.13,3.46-.17,5.24-.06,3.57-.06,5.39c0,1.98,0,3.96,0,5.92s0,3.91,0,5.85c0,1.94,0,3.87,0,5.79,0,1.92,0,3.83,0,5.72s0,3.79,0,5.66,0,3.74,0,5.6c0,1.86,0,3.7,0,5.54,0,1.84,0,3.67,0,5.49s0,3.63,0,5.43c0,1.8,0,3.59,0,5.38,0,1.78,0,3.56,0,5.32,0,1.77,0,3.52,0,5.27,0,1.75,0,3.49,0,5.22,0,1.73,0,3.46,0,5.17,0,1.72,0,3.43,0,5.13,0,1.7,0,3.4,0,5.08,0,1.69,0,3.37,0,5.04,0,1.67,0,3.34,0,5,0,1.66,0,3.31,0,4.96,0,1.65,0,3.29,0,4.92,0,1.63,0,3.26,0,4.88,0,1.62,0,3.24,0,4.85,0,1.61,0,3.21,0,4.81,0,1.6,0,3.19,0,4.78,0,1.59,0,3.17,0,4.75,0,1.58,0,3.15,0,4.72,0,1.57,0,3.13,0,4.69s0,3.12,0,4.67c0,1.55,0,3.1,0,4.64,0,1.54,0,3.08,0,4.62,0,1.54,0,3.07,0,4.6,0,1.53,0,3.06,0,4.58,0,1.52,0,3.04,0,4.56s0,3.03,0,4.54c0,1.51,0,3.02,0,4.53,0,1.51,0,3.01,0,4.52,0,1.5,0,3,0,4.5,0,1.5,0,3,0,4.49s0,2.99,0,4.49c0,1.49,0,2.99,0,4.48,0,1.49,0,2.98,0,4.47,0,1.49,0,2.98,0,4.47,0,1.49,0,2.98,0,4.47,0,1.49,0,2.98,0,4.47,0,1.49,0,2.98,0,4.47,0,1.49,0,2.98,0,4.47,0,1.49,0,2.98,0,4.47s0,2.98,0,4.48c0,1.49,0,2.99,0,4.49,0,1.5,0,2.99,0,4.49,0,1.5,0,3,0,4.5,0,1.5,0,3.01,0,4.52s0,3.02,0,4.53c0,1.51,0,3.03,0,4.54,0,1.52,0,3.04,0,4.56,0,1.52,0,3.05,0,4.58,0,1.53,0,3.06,0,4.6,0,1.54,0,3.08,0,4.62s0,3.09,0,4.64c0,1.55,0,3.11,0,4.67,0,1.56,0,3.12,0,4.69,0,1.57,0,3.14,0,4.72,0,1.58,0,3.16,0,4.75,0,1.59,0,3.18,0,4.78,0,1.6,0,3.2,0,4.81,0,1.61,0,3.23,0,4.85,0,1.62,0,3.25,0,4.88,0,1.63,0,3.27,0,4.92,0,1.65,0,3.3,0,4.96s0,3.32,0,5c0,1.67,0,3.35,0,5.04,0,1.69,0,3.38,0,5.08s0,3.41,0,5.13,0,3.44,0,5.17c0,1.73,0,3.47,0,5.22,0,1.75,0,3.51,0,5.27,0,1.77,0,3.54,0,5.32,0,1.78,0,3.57,0,5.38,0,1.8,0,3.61,0,5.43s0,3.65,0,5.49,0,3.69,0,5.54c0,1.86,0,3.72,0,5.6,0,1.88,0,3.76,0,5.66,0,1.9,0,3.81,0,5.72s0,3.85,0,5.79c0,1.94,0,3.89,0,5.85,0,1.96,0,3.94,0,5.92,0,1.83.02,3.62.06,5.39s.09,3.5.17,5.2c.08,1.7.17,3.38.28,5.02.11,1.64.25,3.26.4,4.84.15,1.58.32,3.14.51,4.66.19,1.52.4,3.02.63,4.48.23,1.46.48,2.9.74,4.3.27,1.4.55,2.78.86,4.12.3,1.34.63,2.66.97,3.94.34,1.28.7,2.54,1.09,3.76.76,2.45,1.56,4.66,2.41,6.62.84,1.96,1.73,3.68,2.66,5.15.93,1.47,1.9,2.7,2.91,3.69s2.07,1.72,3.16,2.21c1.1.49,2.23.74,3.42.74h113.33ZM1024.81,572.23c-.4-.84-.76-1.8-1.08-2.87-.32-1.08-.6-2.27-.84-3.59-.24-1.31-.44-2.75-.6-4.3-.16-1.55-.28-3.22-.36-5.02s-.12-3.7-.12-5.73c0-1.97,0-3.92,0-5.86,0-1.94,0-3.86,0-5.77,0-1.91,0-3.8,0-5.68s0-3.74,0-5.59c0-1.85,0-3.69,0-5.51,0-1.82,0-3.63,0-5.43,0-1.8,0-3.58,0-5.35,0-1.77,0-3.53,0-5.28s0-3.48,0-5.21c0-1.72,0-3.44,0-5.14,0-1.7,0-3.4,0-5.08,0-1.68,0-3.35,0-5.02,0-1.66,0-3.31,0-4.96,0-1.64,0-3.28,0-4.9,0-1.62,0-3.24,0-4.85s0-3.21,0-4.8,0-3.18,0-4.75,0-3.15,0-4.71,0-3.12,0-4.67,0-3.1,0-4.63,0-3.07,0-4.6c0-1.53,0-3.05,0-4.57,0-1.52,0-3.03,0-4.54,0-1.51,0-3.02,0-4.52,0-1.5,0-3,0-4.5,0-1.5,0-2.99,0-4.48,0-1.49,0-2.98,0-4.46,0-1.49,0-2.97,0-4.45,0-1.48,0-2.96,0-4.44s0-2.96,0-4.43,0-2.95,0-4.43,0-2.95,0-4.43,0-2.96,0-4.43,0-2.96,0-4.44,0-2.96,0-4.45,0-2.97,0-4.46,0-2.98,0-4.48,0-2.99,0-4.5,0-3.01,0-4.52,0-3.02,0-4.54,0-3.04,0-4.57,0-3.06,0-4.6,0-3.08,0-4.63c0-1.55,0-3.11,0-4.67,0-1.56,0-3.13,0-4.71,0-1.58,0-3.16,0-4.75,0-1.59,0-3.19,0-4.8,0-1.61,0-3.22,0-4.85,0-1.63,0-3.26,0-4.9,0-1.64,0-3.3,0-4.96,0-1.66,0-3.33,0-5.02,0-1.68,0-3.37,0-5.08s0-3.42,0-5.14,0-3.46,0-5.21c0-1.75,0-3.51,0-5.28,0-1.77,0-3.56,0-5.35,0-1.8,0-3.61,0-5.43,0-1.82,0-3.66,0-5.51s0-3.71,0-5.59c0-1.88,0-3.77,0-5.68,0-1.91,0-3.83,0-5.77,0-1.94,0-3.89,0-5.86,0-2.03.04-3.94.11-5.74.08-1.8.19-3.48.34-5.04.15-1.56.34-3.01.57-4.34.23-1.33.49-2.55.8-3.64.3-1.1.65-2.08,1.03-2.95.63-1.44,1.35-2.68,2.16-3.7.8-1.03,1.69-1.84,2.66-2.45.97-.61,2.03-1.01,3.17-1.2,1.2-.2,2.31-.15,3.33.16,1.01.31,1.93.87,2.76,1.69.82.82,1.56,1.89,2.19,3.22.38.8.72,1.72,1.03,2.77s.57,2.22.8,3.52c.23,1.3.42,2.72.57,4.27s.27,3.22.34,5.01c.08,1.8.11,3.71.11,5.76,0,1.98,0,3.95,0,5.91,0,1.95,0,3.89,0,5.81,0,1.92,0,3.83,0,5.72,0,1.89,0,3.77,0,5.64,0,1.87,0,3.72,0,5.55,0,1.84,0,3.66,0,5.47s0,3.61,0,5.4,0,3.56,0,5.32,0,3.51,0,5.25c0,1.74,0,3.47,0,5.18v5.12c0,1.7,0,3.38,0,5.06,0,1.68,0,3.34,0,5s0,3.3,0,4.94,0,3.27,0,4.89,0,3.23,0,4.84v4.79c0,1.59,0,3.17,0,4.75s0,3.15,0,4.71,0,3.12,0,4.67v4.64c0,1.54,0,3.08,0,4.61s0,3.06,0,4.58,0,3.04,0,4.55,0,3.02,0,4.53v4.51c0,1.5,0,3,0,4.5s0,2.99,0,4.49v4.48c0,1.49,0,2.98,0,4.47s0,2.98,0,4.47,0,2.98,0,4.47v4.47c0,1.49,0,2.98,0,4.48s0,2.99,0,4.49,0,3,0,4.5v4.51c0,1.51,0,3.02,0,4.53s0,3.03,0,4.55,0,3.05,0,4.58v4.61c0,1.54,0,3.09,0,4.64s0,3.11,0,4.67,0,3.13,0,4.71,0,3.16,0,4.75v4.79c0,1.6,0,3.22,0,4.84s0,3.25,0,4.89,0,3.28,0,4.94,0,3.32,0,5v5.06c0,1.7,0,3.4,0,5.12,0,1.72,0,3.44,0,5.18s0,3.49,0,5.25,0,3.54,0,5.32,0,3.58,0,5.4,0,3.64,0,5.47c0,1.84,0,3.69,0,5.55,0,1.86,0,3.74,0,5.64,0,1.89,0,3.8,0,5.72v5.81c0,1.95,0,3.92,0,5.91,0,2.05-.04,3.97-.11,5.77s-.19,3.48-.34,5.04c-.15,1.56-.34,2.99-.57,4.3-.23,1.31-.5,2.5-.8,3.57-.3,1.07-.65,2.01-1.03,2.83-.63,1.37-1.35,2.52-2.16,3.45s-1.69,1.63-2.66,2.12c-.97.48-2.03.75-3.17.79-1.14.04-2.2-.15-3.19-.59s-1.89-1.11-2.71-2.03c-.82-.92-1.57-2.08-2.24-3.48Z"/>
    </g>
  </g>
</svg>