<?xml version="1.0" encoding="UTF-8"?>
<svg id="Layer_2" data-name="Layer 2" xmlns="http://www.w3.org/2000/svg" viewBox="0 0 1200 770.12">
  <defs>
    <style>
      .cls-1 {
        fill: #dd1f26;
      }

      .cls-1, .cls-2 {
        stroke-width: 0px;
      }

      .cls-2 {
        fill: #fff;
      }

      .cls-3 {
        fill: #f5ae27;
      }
    </style>
  </defs>
  <g id="Layer_4" data-name="Layer 4">
    <path class="cls-3" d="M1165.9,538.42L51.78,769.21c-26.54,5.5-51.44-14.76-51.46-41.87L0,42.8C-.01,19.16,19.15,0,42.79,0l1114.44.34c23.62,0,42.77,19.16,42.77,42.78v453.41c0,20.28-14.24,37.78-34.1,41.89Z"/>
    <g>
      <path class="cls-1" d="M139.64,667.84c0-1.95,0-3.86,0-5.75,0-1.88,0-3.74,0-5.56,0-1.82,0-3.62,0-5.39,0-1.77,0-3.51,0-5.23s0-3.41,0-5.08,0-3.32,0-4.95,0-3.24,0-4.83v-4.73c0-1.56,0-3.1,0-4.64s0-3.05,0-4.56,0-3.01,0-4.5v-4.45c0-1.48,0-2.95,0-4.41s0-2.93,0-4.39,0-2.92,0-4.38v-4.39c0-1.47,0-2.94,0-4.41s0-2.96,0-4.45,0-2.99,0-4.5v-4.56c0-1.53,0-3.08,0-4.64s0-3.13,0-4.73,0-3.2,0-4.83,0-3.28,0-4.95v-5.08c0-1.72,0-3.46,0-5.23,0-1.77,0-3.56,0-5.39,0-1.82,0-3.68,0-5.56s0-3.8,0-5.75c1.84-.29,3.62-.57,5.35-.84,1.72-.27,3.39-.53,5.01-.78,1.62-.25,3.19-.5,4.73-.74,1.53-.24,3.03-.47,4.5-.7s2.91-.46,4.33-.68,2.82-.44,4.22-.66c1.39-.22,2.78-.43,4.16-.65,1.38-.22,2.77-.43,4.16-.65,1.39-.22,2.8-.44,4.22-.66s2.86-.45,4.33-.68c1.47-.23,2.97-.46,4.5-.7,1.53-.24,3.11-.49,4.73-.74s3.29-.51,5.01-.78c1.72-.27,3.5-.55,5.35-.84.98-.15,1.94-.47,2.86-.96s1.82-1.14,2.69-1.96c.87-.82,1.71-1.81,2.52-2.96.81-1.15,1.59-2.47,2.34-3.95.75-1.48,1.47-3.13,2.17-4.95.69-1.81,1.36-3.79,1.99-5.94.38-1.28.74-2.6,1.09-3.94.34-1.34.67-2.7.97-4.1.3-1.39.59-2.81.86-4.26.27-1.45.51-2.92.74-4.42.23-1.5.44-3.03.63-4.58.19-1.55.36-3.14.51-4.74.15-1.61.29-3.24.4-4.91.11-1.66.21-3.35.29-5.07s.13-3.46.17-5.23c.04-1.77.06-3.57.06-5.4,0-1.97,0-3.92,0-5.85,0-1.94,0-3.85,0-5.76,0-1.9,0-3.79,0-5.67,0-1.87,0-3.73,0-5.58,0-1.84,0-3.68,0-5.49s0-3.62,0-5.41,0-3.57,0-5.33,0-3.52,0-5.26,0-3.47,0-5.18,0-3.42,0-5.12c0-1.69,0-3.38,0-5.05s0-3.34,0-4.99,0-3.3,0-4.93c0-1.63,0-3.26,0-4.87s0-3.22,0-4.82c0-1.6,0-3.19,0-4.77,0-1.58,0-3.16,0-4.73,0-1.57,0-3.13,0-4.68,0-1.55,0-3.1,0-4.64,0-1.54,0-3.08,0-4.61,0-1.53,0-3.06,0-4.57,0-1.52,0-3.03,0-4.55,0-1.51,0-3.02,0-4.52,0-1.5,0-3,0-4.5,0-1.5,0-2.99,0-4.48s0-2.98,0-4.46c0-1.48,0-2.97,0-4.45,0-1.48,0-2.96,0-4.44,0-1.48,0-2.95,0-4.43,0-1.48,0-2.95,0-4.43,0-1.48,0-2.95,0-4.43,0-1.48,0-2.95,0-4.43,0-1.48,0-2.96,0-4.44,0-1.48,0-2.96,0-4.45,0-1.48,0-2.97,0-4.46,0-1.49,0-2.98,0-4.48,0-1.5,0-2.99,0-4.5,0-1.5,0-3.01,0-4.52,0-1.51,0-3.03,0-4.55,0-1.52,0-3.04,0-4.57,0-1.53,0-3.07,0-4.61,0-1.54,0-3.09,0-4.64,0-1.55,0-3.11,0-4.68,0-1.57,0-3.14,0-4.73,0-1.58,0-3.17,0-4.77,0-1.6,0-3.21,0-4.82,0-1.62,0-3.24,0-4.87,0-1.63,0-3.28,0-4.93,0-1.65,0-3.31,0-4.99,0-1.67,0-3.36,0-5.05s0-3.4,0-5.12c0-1.72,0-3.44,0-5.18,0-1.74,0-3.49,0-5.26,0-1.76,0-3.54,0-5.33,0-1.79,0-3.59,0-5.41,0-1.82,0-3.65,0-5.49,0-1.84,0-3.7,0-5.58,0-1.87,0-3.76,0-5.67,0-1.9,0-3.82,0-5.76,0-1.94,0-3.89,0-5.85,0-1.83-.02-3.62-.06-5.39-.04-1.77-.09-3.5-.17-5.21-.08-1.7-.17-3.38-.29-5.02-.11-1.64-.25-3.26-.4-4.84-.15-1.58-.32-3.14-.51-4.66-.19-1.52-.4-3.02-.63-4.48-.23-1.46-.48-2.9-.74-4.3-.27-1.4-.55-2.78-.86-4.12-.3-1.35-.63-2.66-.97-3.95s-.7-2.54-1.09-3.77c-.76-2.45-1.57-4.66-2.41-6.62s-1.73-3.68-2.66-5.16c-.93-1.48-1.9-2.71-2.92-3.69s-2.07-1.73-3.17-2.22c-1.1-.49-2.24-.74-3.42-.74H73.07v591.81c1.9-.39,3.74-.77,5.51-1.14s3.49-.72,5.16-1.07,3.29-.68,4.87-1.01c1.58-.33,3.12-.65,4.64-.96,1.51-.31,3-.62,4.46-.92s2.91-.6,4.35-.9c1.44-.3,2.86-.59,4.29-.89,1.43-.3,2.85-.59,4.29-.89,1.44-.3,2.88-.6,4.35-.9,1.47-.3,2.95-.61,4.46-.92,1.51-.31,3.06-.63,4.64-.96,1.58-.33,3.2-.66,4.87-1.01s3.39-.7,5.16-1.07c1.78-.37,3.61-.75,5.51-1.14ZM139.66,199.6c1.49-.06,2.72-.11,3.88-.15,1.16-.05,2.23-.09,3.38-.13,1.16-.05,2.39-.09,3.88-.15.81-.03,1.56.2,2.25.69.69.49,1.32,1.25,1.89,2.26.57,1.01,1.08,2.29,1.54,3.83s.85,3.33,1.18,5.39c.17,1.03.32,2.12.47,3.26s.28,2.34.41,3.6c.12,1.26.24,2.57.34,3.94.1,1.37.2,2.79.28,4.28s.16,3.02.22,4.62.11,3.25.16,4.96.07,3.47.09,5.3c.02,1.82.03,3.7.03,5.64,0,1.99,0,3.94,0,5.85,0,1.91,0,3.78,0,5.62s0,3.64,0,5.42c0,1.77,0,3.51,0,5.23,0,1.71,0,3.4,0,5.06,0,1.66,0,3.3,0,4.92,0,1.62,0,3.21,0,4.79,0,1.58,0,3.14,0,4.69,0,1.55,0,3.08,0,4.61,0,1.52,0,3.04,0,4.54,0,1.51,0,3.01,0,4.5,0,1.5,0,2.99,0,4.48,0,1.49,0,2.99,0,4.48,0,1.5,0,3,0,4.5,0,1.51,0,3.02,0,4.54,0,1.52,0,3.06,0,4.61,0,1.55,0,3.11,0,4.69,0,1.58,0,3.18,0,4.79,0,1.62,0,3.26,0,4.92,0,1.66,0,3.35,0,5.06,0,1.71,0,3.46,0,5.23s0,3.58,0,5.42c0,1.84,0,3.71,0,5.62,0,1.91,0,3.86,0,5.85,0,1.94-.01,3.82-.03,5.65-.02,1.83-.05,3.6-.09,5.32-.04,1.72-.09,3.38-.16,4.98s-.14,3.16-.22,4.65c-.08,1.5-.18,2.94-.28,4.32-.1,1.38-.22,2.71-.34,3.99s-.26,2.49-.41,3.66c-.15,1.16-.3,2.27-.47,3.33-.33,2.11-.73,3.97-1.18,5.58-.45,1.61-.96,2.96-1.54,4.06-.57,1.1-1.2,1.95-1.89,2.55-.69.6-1.44.95-2.25,1.04-1.49.17-2.72.32-3.88.45-1.16.14-2.23.26-3.38.4-1.16.14-2.39.28-3.88.45v-5.86c0-1.93,0-3.84,0-5.73,0-1.89,0-3.76,0-5.61,0-1.85,0-3.68,0-5.49,0-1.81,0-3.6,0-5.38s0-3.53,0-5.28,0-3.47,0-5.18,0-3.41,0-5.09,0-3.35,0-5v-4.92c0-1.63,0-3.24,0-4.85,0-1.6,0-3.2,0-4.78s0-3.16,0-4.72,0-3.12,0-4.66v-4.61c0-1.53,0-3.05,0-4.57s0-3.03,0-4.53,0-3.01,0-4.5v-4.48c0-1.49,0-2.98,0-4.46s0-2.97,0-4.45,0-2.96,0-4.44v-4.44c0-1.48,0-2.96,0-4.45s0-2.97,0-4.46,0-2.98,0-4.48v-4.5c0-1.51,0-3.02,0-4.53s0-3.04,0-4.57,0-3.07,0-4.61v-4.66c0-1.56,0-3.14,0-4.72,0-1.58,0-3.18,0-4.78s0-3.22,0-4.85,0-3.27,0-4.92c0-1.65,0-3.32,0-5v-5.09c0-1.71,0-3.44,0-5.18,0-1.74,0-3.5,0-5.28s0-3.57,0-5.38,0-3.64,0-5.49,0-3.72,0-5.61,0-3.8,0-5.73,0-3.88,0-5.86Z"/>
      <path class="cls-1" d="M305.34,633.52c0-2,0-3.98,0-5.96,0-1.98,0-3.94,0-5.9,0-1.96,0-3.91,0-5.85s0-3.87,0-5.8c0-1.92,0-3.84,0-5.75,0-1.91,0-3.81,0-5.7s0-3.77,0-5.65,0-3.74,0-5.6c0-1.86,0-3.71,0-5.56s0-3.68,0-5.51,0-3.65,0-5.46,0-3.62,0-5.42c0-1.8,0-3.59,0-5.38,0-1.79,0-3.56,0-5.34,0-1.77,0-3.54,0-5.3,0-1.76,0-3.51,0-5.26s0-3.48,0-5.22c0-1.73,0-3.46,0-5.18,0-1.72,0-3.43,0-5.14s0-3.41,0-5.11,0-3.39,0-5.07c0-1.68,0-3.36,0-5.04s0-3.34,0-5.01c0-1.66,0-3.32,0-4.97s0-3.3,0-4.94,0-3.28,0-4.91c0-1.63,0-3.26,0-4.88,0-1.62,0-3.24,0-4.86,0-1.61,0-3.22,0-4.83,0-1.61,0-3.21,0-4.8,0-1.6,0-3.19,0-4.78s0-3.17,0-4.76c0-1.58,0-3.16,0-4.73,0-1.57,0-3.14,0-4.71,0-1.57,0-3.13,0-4.69s0-3.12,0-4.67,0-3.1,0-4.65c0-1.55,0-3.09,0-4.64s0-3.08,0-4.62c0-1.54,0-3.07,0-4.6s0-3.06,0-4.59,0-3.05,0-4.57,0-3.04,0-4.56,0-3.04,0-4.55c0-1.51,0-3.03,0-4.54s0-3.02,0-4.53c0-1.51,0-3.02,0-4.52,0-1.51,0-3.01,0-4.51,0-1.5,0-3.01,0-4.51,0-1.5,0-3,0-4.5,0-1.5,0-3,0-4.5s0-3,0-4.49,0-2.99,0-4.49c0-1.5,0-2.99,0-4.49,0-1.5,0-2.99,0-4.49s0-2.99,0-4.49,0-2.99,0-4.49,0-3,0-4.49,0-3,0-4.5c0-1.5,0-3,0-4.5,0-1.5,0-3,0-4.51s0-3.01,0-4.51c0-1.51,0-3.01,0-4.52,0-1.51,0-3.02,0-4.53,0-1.51,0-3.02,0-4.54,0-1.51,0-3.03,0-4.55,0-1.52,0-3.04,0-4.56s0-3.05,0-4.57c0-1.53,0-3.06,0-4.59s0-3.07,0-4.6c0-1.54,0-3.08,0-4.62s0-3.09,0-4.64c0-1.55,0-3.1,0-4.65s0-3.11,0-4.67,0-3.12,0-4.69,0-3.14,0-4.71c0-1.57,0-3.15,0-4.73,0-1.58,0-3.17,0-4.76,0-1.59,0-3.18,0-4.78s0-3.2,0-4.8c0-1.61,0-3.22,0-4.83,0-1.61,0-3.23,0-4.86,0-1.62,0-3.25,0-4.88s0-3.27,0-4.91,0-3.29,0-4.94c0-1.65,0-3.31,0-4.97s0-3.33,0-5.01c0-1.67,0-3.35,0-5.04s0-3.38,0-5.07,0-3.4,0-5.11c0-1.71,0-3.42,0-5.14s0-3.45,0-5.18,0-3.47,0-5.22c0-1.75,0-3.5,0-5.26,0-1.76,0-3.52,0-5.3,0-1.77,0-3.55,0-5.34s0-3.58,0-5.38c0-1.8,0-3.61,0-5.42,0-1.81,0-3.64,0-5.46s0-3.67,0-5.51c0-1.84,0-3.7,0-5.55,0-1.86,0-3.73,0-5.6,0-1.88,0-3.76,0-5.65s0-3.79,0-5.7c0-1.91,0-3.82,0-5.75s0-3.86,0-5.8c0-1.94,0-3.89,0-5.85,0-1.96,0-3.93,0-5.9,0-1.98,0-3.96,0-5.96h-68.02c0,1.99,0,3.97,0,5.95,0,1.97,0,3.94,0,5.9s0,3.91,0,5.85c0,1.94,0,3.87,0,5.79s0,3.84,0,5.75c0,1.91,0,3.81,0,5.7,0,1.89,0,3.77,0,5.65s0,3.74,0,5.6c0,1.86,0,3.71,0,5.56s0,3.68,0,5.51c0,1.83,0,3.65,0,5.47,0,1.82,0,3.62,0,5.43s0,3.6,0,5.38c0,1.79,0,3.57,0,5.34,0,1.77,0,3.54,0,5.3s0,3.52,0,5.26c0,1.75,0,3.49,0,5.23,0,1.74,0,3.47,0,5.19,0,1.72,0,3.44,0,5.15s0,3.42,0,5.12,0,3.39,0,5.08c0,1.69,0,3.37,0,5.05,0,1.68,0,3.35,0,5.02,0,1.67,0,3.33,0,4.99,0,1.66,0,3.31,0,4.96,0,1.65,0,3.29,0,4.93s0,3.27,0,4.9,0,3.25,0,4.87c0,1.62,0,3.23,0,4.84s0,3.22,0,4.82c0,1.6,0,3.2,0,4.79,0,1.59,0,3.18,0,4.77,0,1.59,0,3.17,0,4.75,0,1.58,0,3.15,0,4.72,0,1.57,0,3.14,0,4.7,0,1.56,0,3.12,0,4.68,0,1.56,0,3.11,0,4.66,0,1.55,0,3.1,0,4.65,0,1.55,0,3.09,0,4.63,0,1.54,0,3.08,0,4.61,0,1.53,0,3.07,0,4.6,0,1.53,0,3.06,0,4.58,0,1.53,0,3.05,0,4.57s0,3.04,0,4.56c0,1.52,0,3.03,0,4.55,0,1.51,0,3.03,0,4.54s0,3.02,0,4.53,0,3.01,0,4.52c0,1.5,0,3.01,0,4.51,0,1.5,0,3,0,4.5,0,1.5,0,3,0,4.5,0,1.5,0,3,0,4.49,0,1.5,0,2.99,0,4.49,0,1.5,0,2.99,0,4.49,0,1.49,0,2.99,0,4.48,0,1.49,0,2.99,0,4.48,0,1.49,0,2.99,0,4.48,0,1.49,0,2.99,0,4.48,0,1.49,0,2.99,0,4.49,0,1.5,0,2.99,0,4.49,0,1.5,0,2.99,0,4.49,0,1.5,0,3,0,4.5,0,1.5,0,3,0,4.5,0,1.5,0,3,0,4.51,0,1.5,0,3.01,0,4.52,0,1.51,0,3.02,0,4.53,0,1.51,0,3.02,0,4.54,0,1.51,0,3.03,0,4.55,0,1.52,0,3.04,0,4.56,0,1.52,0,3.04,0,4.57,0,1.53,0,3.05,0,4.58,0,1.53,0,3.06,0,4.6,0,1.53,0,3.07,0,4.61,0,1.54,0,3.08,0,4.63,0,1.55,0,3.09,0,4.65,0,1.55,0,3.11,0,4.66s0,3.12,0,4.68c0,1.56,0,3.13,0,4.7,0,1.57,0,3.15,0,4.72,0,1.58,0,3.16,0,4.75,0,1.59,0,3.18,0,4.77,0,1.59,0,3.19,0,4.79,0,1.6,0,3.21,0,4.82,0,1.61,0,3.22,0,4.84,0,1.62,0,3.24,0,4.87,0,1.63,0,3.26,0,4.9,0,1.64,0,3.28,0,4.93,0,1.65,0,3.3,0,4.96s0,3.32,0,4.99,0,3.34,0,5.02c0,1.68,0,3.36,0,5.05,0,1.69,0,3.38,0,5.08,0,1.7,0,3.41,0,5.12,0,1.71,0,3.43,0,5.15s0,3.45,0,5.19,0,3.48,0,5.23c0,1.75,0,3.5,0,5.26,0,1.76,0,3.53,0,5.3s0,3.55,0,5.34,0,3.58,0,5.38c0,1.8,0,3.61,0,5.43s0,3.64,0,5.47c0,1.83,0,3.67,0,5.51,0,1.84,0,3.7,0,5.56s0,3.73,0,5.6,0,3.76,0,5.65c0,1.89,0,3.79,0,5.7s0,3.82,0,5.75c0,1.92,0,3.85,0,5.79,0,1.94,0,3.89,0,5.85,0,1.96,0,3.92,0,5.9,0,1.97,0,3.96,0,5.95,1.94-.4,3.82-.79,5.63-1.17s3.57-.74,5.27-1.09c1.7-.35,3.36-.7,4.98-1.03,1.62-.33,3.19-.66,4.74-.98,1.55-.32,3.06-.63,4.56-.94,1.5-.31,2.97-.62,4.44-.92,1.47-.3,2.92-.61,4.38-.91,1.46-.3,2.91-.6,4.38-.91s2.94-.61,4.44-.92c1.5-.31,3.01-.62,4.56-.94,1.55-.32,3.12-.65,4.74-.98s3.27-.68,4.98-1.03c1.71-.35,3.46-.72,5.27-1.09s3.69-.76,5.63-1.17Z"/>
      <path class="cls-1" d="M415.63,610.67c0-1.99,0-3.96,0-5.92s0-3.91,0-5.85c0-1.94,0-3.86,0-5.78s0-3.82,0-5.71c0-1.89,0-3.77,0-5.64,0-1.87,0-3.73,0-5.58,0-1.85,0-3.69,0-5.51,0-1.83,0-3.64,0-5.45,0-1.81,0-3.6,0-5.39,0-1.79,0-3.57,0-5.33,0-1.77,0-3.53,0-5.28,0-1.75,0-3.49,0-5.22,0-1.73,0-3.46,0-5.17,0-1.72,0-3.42,0-5.12,0-1.7,0-3.39,0-5.07,0-1.68,0-3.36,0-5.03,0-1.67,0-3.33,0-4.98s0-3.3,0-4.94c0-1.64,0-3.27,0-4.9,0-1.63,0-3.25,0-4.86,0-1.61,0-3.22,0-4.82,0-1.6,0-3.2,0-4.79,0-1.59,0-3.17,0-4.75,0-1.58,0-3.15,0-4.72,0-1.57,0-3.13,0-4.69,0-1.56,0-3.11,0-4.66,0-1.55,0-3.1,0-4.64,0-1.54,0-3.08,0-4.61s0-3.06,0-4.59c0-1.53,0-3.05,0-4.57,0-1.52,0-3.04,0-4.55,0-1.51,0-3.03,0-4.54,0-1.51,0-3.02,0-4.52,0-1.5,0-3.01,0-4.51,0-1.5,0-3,0-4.5,0-1.5,0-2.99,0-4.49,0-1.49,0-2.99,0-4.48,0-1.49,0-2.98,0-4.47,0-1.49,0-2.98,0-4.47,0-1.49,0-2.98,0-4.47,0-1.49,0-2.98,0-4.47,0-1.49,0-2.98,0-4.47,0-1.49,0-2.98,0-4.47,0-1.49,0-2.99,0-4.48,0-1.49,0-2.99,0-4.49,0-1.5,0-3,0-4.5,0-1.5,0-3,0-4.51,0-1.5,0-3.01,0-4.52,0-1.51,0-3.02,0-4.54,0-1.51,0-3.03,0-4.55,0-1.52,0-3.04,0-4.57,0-1.53,0-3.06,0-4.59,0-1.53,0-3.07,0-4.61,0-1.54,0-3.09,0-4.64,0-1.55,0-3.1,0-4.66,0-1.56,0-3.12,0-4.69,0-1.57,0-3.14,0-4.72,0-1.58,0-3.16,0-4.75,0-1.59,0-3.19,0-4.79s0-3.21,0-4.82c0-1.61,0-3.23,0-4.86,0-1.63,0-3.26,0-4.9,0-1.64,0-3.29,0-4.94,0-1.65,0-3.31,0-4.98,0-1.67,0-3.34,0-5.03,0-1.68,0-3.37,0-5.07s0-3.41,0-5.12c0-1.72,0-3.44,0-5.17,0-1.73,0-3.47,0-5.22s0-3.51,0-5.28,0-3.55,0-5.33c0-1.79,0-3.58,0-5.39s0-3.62,0-5.45c0-1.83,0-3.67,0-5.51,0-1.85,0-3.71,0-5.58s0-3.75,0-5.64c0-1.89,0-3.79,0-5.71,0-1.91,0-3.84,0-5.78,0-1.94,0-3.89,0-5.85s0-3.94,0-5.92c1.83-.09,3.53-.17,5.13-.25,1.6-.08,3.12-.15,4.57-.22s2.86-.14,4.24-.21c1.38-.07,2.74-.13,4.12-.2,1.38-.07,2.78-.14,4.24-.21,1.46-.07,2.97-.15,4.57-.22,1.61-.08,3.3-.16,5.13-.25,0-1.95,0-3.87,0-5.75,0-1.88,0-3.72,0-5.53,0-1.81,0-3.59,0-5.33,0-1.75,0-3.46,0-5.16,0-1.69,0-3.36,0-5,0-1.64,0-3.26,0-4.86s0-3.17,0-4.73c0-1.56,0-3.1,0-4.63s0-3.04,0-4.55c0-1.5,0-3,0-4.48,0-1.48,0-2.96,0-4.43,0-1.47,0-2.94,0-4.41,0-1.47,0-2.93,0-4.4,0-1.47,0-2.93,0-4.41,0-1.47,0-2.95,0-4.43,0-1.48,0-2.98,0-4.48,0-1.5,0-3.02,0-4.55,0-1.53,0-3.07,0-4.63,0-1.56,0-3.14,0-4.73,0-1.6,0-3.21,0-4.86,0-1.64,0-3.31,0-5,0-1.69,0-3.41,0-5.16s0-3.52,0-5.33,0-3.65,0-5.53c0-1.88,0-3.79,0-5.75h-132.62c0,1.98,0,3.92,0,5.82,0,1.91,0,3.78,0,5.61,0,1.84,0,3.64,0,5.42,0,1.78,0,3.52,0,5.24s0,3.42,0,5.09c0,1.67,0,3.32,0,4.95s0,3.23,0,4.82c0,1.59,0,3.16,0,4.72s0,3.1,0,4.63c0,1.53,0,3.05,0,4.56s0,3.01,0,4.51,0,2.99,0,4.47,0,2.97,0,4.45c0,1.48,0,2.97,0,4.45,0,1.49,0,2.98,0,4.47s0,3,0,4.51c0,1.51,0,3.03,0,4.56s0,3.07,0,4.63,0,3.13,0,4.72,0,3.2,0,4.82c0,1.63,0,3.28,0,4.95,0,1.67,0,3.37,0,5.09,0,1.72,0,3.47,0,5.25,0,1.78,0,3.58,0,5.42,0,1.84,0,3.71,0,5.61,0,1.91,0,3.85,0,5.82,1.83-.09,3.53-.17,5.13-.25,1.6-.08,3.12-.15,4.57-.22,1.46-.07,2.86-.14,4.24-.21s2.74-.13,4.12-.2c1.38-.07,2.78-.14,4.24-.21,1.46-.07,2.97-.15,4.57-.22,1.6-.08,3.3-.16,5.13-.25,0,1.99,0,3.97,0,5.93,0,1.97,0,3.92,0,5.86,0,1.94,0,3.87,0,5.79,0,1.92,0,3.83,0,5.73,0,1.9,0,3.79,0,5.66,0,1.88,0,3.74,0,5.6s0,3.7,0,5.54c0,1.83,0,3.66,0,5.48,0,1.82,0,3.62,0,5.42,0,1.8,0,3.58,0,5.36,0,1.78,0,3.55,0,5.3,0,1.76,0,3.51,0,5.25,0,1.74,0,3.48,0,5.2s0,3.44,0,5.15c0,1.71,0,3.41,0,5.1,0,1.69,0,3.38,0,5.06,0,1.68,0,3.35,0,5.01s0,3.32,0,4.97,0,3.29,0,4.93c0,1.64,0,3.27,0,4.89s0,3.24,0,4.85c0,1.61,0,3.22,0,4.82,0,1.6,0,3.19,0,4.78s0,3.17,0,4.75c0,1.58,0,3.15,0,4.72s0,3.13,0,4.69c0,1.56,0,3.11,0,4.67,0,1.55,0,3.1,0,4.64,0,1.54,0,3.08,0,4.62s0,3.07,0,4.6c0,1.53,0,3.05,0,4.58,0,1.52,0,3.04,0,4.56s0,3.03,0,4.54c0,1.51,0,3.02,0,4.53s0,3.01,0,4.52c0,1.5,0,3.01,0,4.51,0,1.5,0,3,0,4.5s0,2.99,0,4.49c0,1.5,0,2.99,0,4.48,0,1.49,0,2.99,0,4.48s0,2.99,0,4.48,0,2.99,0,4.48c0,1.49,0,2.99,0,4.48s0,2.99,0,4.48c0,1.5,0,2.99,0,4.49,0,1.5,0,3,0,4.5s0,3,0,4.51,0,3.01,0,4.52c0,1.51,0,3.02,0,4.53s0,3.03,0,4.54c0,1.52,0,3.04,0,4.56s0,3.05,0,4.58,0,3.06,0,4.6c0,1.54,0,3.07,0,4.62,0,1.54,0,3.09,0,4.64,0,1.55,0,3.11,0,4.67,0,1.56,0,3.12,0,4.69,0,1.57,0,3.14,0,4.72,0,1.58,0,3.16,0,4.75,0,1.59,0,3.18,0,4.78s0,3.2,0,4.82c0,1.61,0,3.23,0,4.85s0,3.25,0,4.89c0,1.64,0,3.28,0,4.93,0,1.65,0,3.31,0,4.97,0,1.66,0,3.33,0,5.01s0,3.36,0,5.06c0,1.69,0,3.39,0,5.1,0,1.71,0,3.43,0,5.15,0,1.72,0,3.46,0,5.2,0,1.74,0,3.49,0,5.25s0,3.53,0,5.3,0,3.56,0,5.36c0,1.8,0,3.6,0,5.42,0,1.82,0,3.64,0,5.47,0,1.83,0,3.68,0,5.54,0,1.86,0,3.72,0,5.6,0,1.88,0,3.76,0,5.66,0,1.9,0,3.81,0,5.73,0,1.92,0,3.85,0,5.79,0,1.94,0,3.9,0,5.86,0,1.97,0,3.94,0,5.93,1.83-.38,3.6-.75,5.31-1.1s3.38-.7,4.99-1.03c1.62-.34,3.19-.66,4.73-.98,1.54-.32,3.04-.63,4.51-.93s2.91-.6,4.34-.9c1.42-.29,2.82-.58,4.21-.87,1.39-.29,2.77-.57,4.14-.86,1.37-.28,2.74-.57,4.12-.85s2.75-.57,4.14-.86c1.39-.29,2.79-.58,4.21-.87,1.42-.29,2.86-.59,4.34-.9s2.97-.62,4.51-.93c1.54-.32,3.11-.64,4.73-.98,1.62-.33,3.28-.68,4.99-1.03s3.48-.72,5.31-1.1Z"/>
      <path class="cls-1" d="M489.35,595.4c.13-1.96.26-3.87.39-5.73s.25-3.68.37-5.45.24-3.51.35-5.21.23-3.36.34-4.99c.11-1.63.22-3.23.33-4.81.11-1.58.21-3.13.32-4.66.1-1.53.21-3.05.31-4.55.1-1.5.2-2.99.3-4.47.1-1.48.2-2.95.3-4.42.1-1.47.2-2.93.3-4.4s.2-2.94.3-4.42.2-2.96.3-4.46c.1-1.5.2-3.01.31-4.54s.21-3.08.32-4.66c.11-1.57.22-3.17.33-4.8.11-1.63.22-3.29.34-4.98.12-1.69.23-3.42.35-5.19s.24-3.58.37-5.43.26-3.75.39-5.7c1.8-.3,3.46-.59,5.04-.85,1.58-.27,3.06-.52,4.49-.76,1.43-.24,2.8-.48,4.16-.71,1.36-.23,2.69-.46,4.05-.69s2.73-.46,4.16-.71c1.43-.24,2.91-.49,4.49-.76,1.58-.27,3.24-.55,5.04-.85.13,1.99.26,3.92.39,5.8s.25,3.71.37,5.5c.12,1.79.24,3.53.35,5.24s.23,3.38.34,5.02c.11,1.64.22,3.25.32,4.84.11,1.58.21,3.15.31,4.69s.21,3.06.31,4.58.2,3.01.3,4.5c.1,1.49.2,2.98.3,4.46.1,1.49.2,2.97.3,4.46.1,1.49.2,2.99.3,4.5.1,1.51.2,3.03.31,4.57s.21,3.1.31,4.68c.11,1.58.21,3.19.32,4.82.11,1.64.22,3.3.34,5.01s.23,3.44.35,5.22c.12,1.78.24,3.61.37,5.48s.25,3.79.39,5.77c1.87-.39,3.69-.76,5.44-1.13,1.76-.36,3.46-.72,5.12-1.06,1.66-.34,3.27-.68,4.84-1,1.57-.33,3.11-.64,4.62-.96s2.99-.62,4.44-.92c1.46-.3,2.9-.6,4.32-.89,1.42-.3,2.84-.59,4.24-.88,1.41-.29,2.81-.58,4.22-.87,1.41-.29,2.82-.58,4.24-.88s2.86-.59,4.32-.89c1.46-.3,2.94-.61,4.44-.92s3.04-.63,4.62-.96,3.19-.66,4.84-1c1.66-.34,3.36-.7,5.12-1.06,1.76-.36,3.57-.74,5.44-1.13-.15-1.96-.31-3.9-.46-5.84-.15-1.94-.31-3.86-.46-5.78-.15-1.92-.3-3.82-.45-5.72-.15-1.9-.3-3.79-.45-5.67-.15-1.88-.3-3.75-.44-5.62s-.29-3.72-.44-5.56c-.15-1.85-.29-3.68-.44-5.51-.14-1.83-.29-3.65-.43-5.46-.14-1.81-.29-3.62-.43-5.41-.14-1.8-.28-3.59-.42-5.37-.14-1.78-.28-3.55-.42-5.32-.14-1.77-.28-3.52-.42-5.28-.14-1.75-.28-3.5-.41-5.23s-.27-3.47-.41-5.19-.27-3.44-.41-5.15-.27-3.41-.4-5.11c-.13-1.7-.27-3.39-.4-5.07s-.26-3.36-.4-5.03c-.13-1.67-.26-3.34-.39-4.99s-.26-3.31-.39-4.96c-.13-1.65-.26-3.29-.39-4.93-.13-1.64-.26-3.27-.38-4.89s-.25-3.25-.38-4.86c-.13-1.61-.25-3.23-.38-4.83s-.25-3.21-.38-4.8-.25-3.19-.37-4.77c-.12-1.59-.25-3.17-.37-4.75-.12-1.58-.25-3.15-.37-4.72-.12-1.57-.25-3.13-.37-4.7-.12-1.56-.24-3.12-.37-4.67-.12-1.55-.24-3.1-.36-4.65-.12-1.55-.24-3.09-.36-4.63-.12-1.54-.24-3.08-.36-4.61-.12-1.53-.24-3.07-.36-4.59-.12-1.53-.24-3.05-.36-4.58-.12-1.52-.24-3.04-.36-4.56s-.24-3.03-.36-4.55c-.12-1.51-.24-3.02-.35-4.53-.12-1.51-.24-3.02-.35-4.52-.12-1.51-.24-3.01-.35-4.51-.12-1.5-.23-3-.35-4.5-.12-1.5-.23-3-.35-4.49-.12-1.5-.23-2.99-.35-4.49-.12-1.49-.23-2.99-.35-4.48s-.23-2.99-.35-4.48c-.12-1.49-.23-2.98-.35-4.47s-.23-2.98-.35-4.47-.23-2.98-.35-4.47c-.12-1.49-.23-2.98-.35-4.47-.12-1.49-.23-2.98-.35-4.47-.12-1.49-.23-2.98-.35-4.48s-.23-2.99-.35-4.48c-.12-1.49-.23-2.99-.35-4.49-.12-1.5-.23-3-.35-4.49-.12-1.5-.23-3-.35-4.5-.12-1.5-.23-3.01-.35-4.51-.12-1.51-.23-3.01-.35-4.52-.12-1.51-.23-3.02-.35-4.54-.12-1.51-.24-3.03-.35-4.55s-.24-3.04-.35-4.56c-.12-1.52-.24-3.05-.36-4.58s-.24-3.06-.36-4.6-.24-3.07-.36-4.62c-.12-1.54-.24-3.09-.36-4.64-.12-1.55-.24-3.1-.36-4.66s-.24-3.12-.36-4.68c-.12-1.56-.24-3.13-.36-4.7-.12-1.57-.24-3.15-.37-4.73-.12-1.58-.25-3.17-.37-4.75s-.25-3.18-.37-4.78c-.12-1.6-.25-3.2-.37-4.81s-.25-3.22-.37-4.84c-.13-1.62-.25-3.24-.38-4.87s-.25-3.26-.38-4.91c-.13-1.64-.25-3.29-.38-4.94-.13-1.65-.26-3.31-.38-4.98-.13-1.66-.26-3.34-.39-5.01-.13-1.68-.26-3.36-.39-5.05-.13-1.69-.26-3.39-.39-5.09-.13-1.7-.26-3.41-.4-5.13-.13-1.72-.27-3.44-.4-5.17s-.27-3.47-.4-5.22c-.13-1.75-.27-3.5-.41-5.26-.14-1.76-.27-3.53-.41-5.31-.14-1.78-.27-3.56-.41-5.35-.14-1.79-.28-3.59-.42-5.4-.14-1.81-.28-3.63-.42-5.45-.14-1.83-.28-3.66-.42-5.5-.14-1.84-.28-3.7-.43-5.56-.14-1.86-.29-3.73-.43-5.61-.14-1.88-.29-3.77-.44-5.67-.15-1.9-.29-3.81-.44-5.72-.15-1.92-.3-3.84-.44-5.78s-.3-3.88-.45-5.84-.3-3.92-.45-5.9c-.15-1.98-.3-3.96-.46-5.96-.15-2-.31-4.01-.46-6.03h-93.46c-.15,1.96-.3,3.91-.44,5.85-.15,1.94-.29,3.87-.44,5.79-.15,1.92-.29,3.84-.44,5.74-.14,1.91-.29,3.8-.43,5.69-.14,1.89-.29,3.77-.43,5.64-.14,1.87-.28,3.74-.42,5.59-.14,1.86-.28,3.7-.42,5.54s-.28,3.67-.42,5.5-.28,3.64-.41,5.45c-.14,1.81-.27,3.61-.41,5.4-.14,1.79-.27,3.58-.41,5.36-.13,1.78-.27,3.55-.4,5.32-.13,1.77-.27,3.52-.4,5.28s-.26,3.5-.4,5.23-.26,3.47-.39,5.2c-.13,1.73-.26,3.44-.39,5.16s-.26,3.42-.39,5.12c-.13,1.7-.26,3.39-.38,5.08s-.25,3.37-.38,5.05c-.13,1.68-.25,3.35-.38,5.01-.13,1.67-.25,3.32-.38,4.98s-.25,3.3-.37,4.95c-.12,1.64-.25,3.28-.37,4.91s-.25,3.26-.37,4.88c-.12,1.62-.24,3.24-.37,4.86-.12,1.61-.24,3.22-.36,4.83-.12,1.6-.24,3.2-.36,4.8s-.24,3.19-.36,4.77-.24,3.17-.36,4.75c-.12,1.58-.24,3.15-.36,4.73-.12,1.57-.24,3.14-.35,4.7-.12,1.56-.24,3.12-.35,4.68s-.23,3.11-.35,4.66c-.12,1.55-.23,3.1-.35,4.64-.12,1.54-.23,3.08-.35,4.62-.12,1.54-.23,3.07-.35,4.6-.12,1.53-.23,3.06-.35,4.59-.11,1.53-.23,3.05-.34,4.57-.11,1.52-.23,3.04-.34,4.56s-.23,3.03-.34,4.55c-.11,1.51-.23,3.02-.34,4.53-.11,1.51-.23,3.02-.34,4.52-.11,1.51-.23,3.01-.34,4.51s-.23,3-.34,4.5c-.11,1.5-.22,3-.34,4.5-.11,1.5-.22,2.99-.34,4.49-.11,1.5-.22,2.99-.34,4.49-.11,1.49-.22,2.99-.34,4.48-.11,1.49-.22,2.99-.34,4.48-.11,1.49-.22,2.98-.34,4.48-.11,1.49-.22,2.98-.34,4.47-.11,1.49-.22,2.98-.33,4.48-.11,1.49-.22,2.98-.33,4.48-.11,1.49-.22,2.99-.34,4.48-.11,1.49-.22,2.99-.34,4.48-.11,1.49-.22,2.99-.34,4.49-.11,1.5-.22,2.99-.34,4.49-.11,1.5-.22,3-.34,4.5-.11,1.5-.22,3-.34,4.51s-.22,3.01-.34,4.52c-.11,1.51-.23,3.02-.34,4.53s-.23,3.02-.34,4.54-.23,3.03-.34,4.55c-.11,1.52-.23,3.04-.34,4.56-.11,1.52-.23,3.05-.34,4.58s-.23,3.06-.34,4.59c-.11,1.53-.23,3.07-.34,4.61s-.23,3.08-.34,4.63c-.11,1.55-.23,3.09-.35,4.65-.12,1.55-.23,3.11-.35,4.67-.12,1.56-.23,3.12-.35,4.69-.12,1.57-.23,3.14-.35,4.71s-.23,3.15-.35,4.73c-.12,1.58-.24,3.17-.35,4.76-.12,1.59-.24,3.18-.36,4.78-.12,1.6-.24,3.2-.36,4.81-.12,1.61-.24,3.22-.36,4.84-.12,1.62-.24,3.24-.36,4.87-.12,1.63-.24,3.26-.36,4.9-.12,1.64-.24,3.28-.37,4.93-.12,1.65-.25,3.3-.37,4.96-.12,1.66-.25,3.32-.37,5-.12,1.67-.25,3.35-.37,5.03-.12,1.68-.25,3.37-.38,5.07-.13,1.69-.25,3.4-.38,5.1-.13,1.71-.25,3.42-.38,5.14-.13,1.72-.26,3.45-.38,5.18s-.26,3.47-.39,5.22-.26,3.5-.39,5.26c-.13,1.76-.26,3.53-.39,5.31s-.26,3.56-.4,5.35c-.13,1.79-.27,3.59-.4,5.4-.13,1.81-.27,3.62-.4,5.44s-.27,3.65-.41,5.49-.27,3.68-.41,5.54c-.14,1.85-.27,3.72-.41,5.59-.14,1.87-.28,3.75-.42,5.64-.14,1.89-.28,3.79-.42,5.69-.14,1.91-.28,3.82-.42,5.74-.14,1.92-.28,3.86-.43,5.8s-.29,3.89-.43,5.85c-.14,1.96-.29,3.93-.44,5.91-.15,1.98-.29,3.97-.44,5.97-.15,2-.3,4.01-.44,6.03,1.86-.38,3.64-.75,5.35-1.11,1.72-.36,3.37-.7,4.97-1.03,1.6-.33,3.15-.65,4.66-.96,1.51-.31,2.98-.62,4.42-.92,1.44-.3,2.86-.59,4.27-.88s2.8-.58,4.19-.87c1.39-.29,2.79-.58,4.19-.87,1.41-.29,2.82-.59,4.27-.88,1.44-.3,2.91-.6,4.42-.92s3.06-.63,4.66-.96c1.6-.33,3.25-.67,4.97-1.03,1.72-.36,3.5-.72,5.35-1.11ZM510.88,248.7c.57-.04.86-.06,1.43-.09.11,1.97.23,3.91.34,5.81s.22,3.79.33,5.64c.11,1.85.21,3.68.32,5.48s.21,3.57.31,5.33c.1,1.75.2,3.48.3,5.19.1,1.71.2,3.39.29,5.06.1,1.67.19,3.31.29,4.94.09,1.63.19,3.24.28,4.84.09,1.6.18,3.18.27,4.74.09,1.57.18,3.12.27,4.66.09,1.54.18,3.07.27,4.59.09,1.52.18,3.03.26,4.53.09,1.5.17,3,.26,4.49.09,1.49.17,2.97.26,4.45s.17,2.95.26,4.43.17,2.94.26,4.42c.09,1.47.17,2.94.26,4.41.09,1.47.17,2.95.26,4.42s.17,2.96.26,4.45c.09,1.49.17,2.98.26,4.48.09,1.5.17,3.01.26,4.53.09,1.52.18,3.04.27,4.58.09,1.54.18,3.09.27,4.65.09,1.56.18,3.14.27,4.73.09,1.59.19,3.2.28,4.82s.19,3.26.29,4.92.19,3.34.29,5.03.2,3.42.3,5.16c.1,1.74.2,3.51.31,5.3.1,1.79.21,3.6.32,5.44.11,1.84.22,3.71.33,5.6.11,1.9.22,3.82.34,5.77-1.6.21-3.04.4-4.38.57-1.34.18-2.59.34-3.81.5-1.22.16-2.4.31-3.62.47-1.22.16-2.46.32-3.81.5-1.34.18-2.78.36-4.38.57.12-2,.24-3.97.35-5.91s.23-3.85.34-5.73.22-3.74.33-5.57.22-3.63.32-5.41c.11-1.78.21-3.54.31-5.27.1-1.73.2-3.45.3-5.14.1-1.69.2-3.37.3-5.02.1-1.66.2-3.29.29-4.92.1-1.62.19-3.23.29-4.82.09-1.59.19-3.17.28-4.74.09-1.57.19-3.12.28-4.67.09-1.54.18-3.08.27-4.61s.18-3.05.27-4.56c.09-1.51.18-3.02.27-4.52.09-1.5.18-3,.27-4.5.09-1.5.18-2.99.27-4.49.09-1.49.18-2.99.27-4.49.09-1.5.18-2.99.27-4.5s.18-3.01.27-4.52c.09-1.51.18-3.03.27-4.55s.18-3.06.27-4.6.18-3.09.28-4.66c.09-1.56.19-3.14.28-4.72.09-1.59.19-3.19.29-4.8.1-1.62.19-3.25.29-4.9.1-1.65.2-3.31.3-5,.1-1.69.2-3.39.3-5.12.1-1.73.21-3.47.31-5.24.11-1.77.21-3.56.32-5.38.11-1.82.22-3.66.33-5.53s.22-3.77.34-5.69.23-3.88.35-5.86Z"/>
      <path class="cls-1" d="M661.92,559.65c0-1.96,0-3.86,0-5.72,0-1.86,0-3.68,0-5.46s0-3.52,0-5.23c0-1.71,0-3.38,0-5.02,0-1.64,0-3.26,0-4.84,0-1.59,0-3.15,0-4.7s0-3.07,0-4.58c0-1.51,0-3.01,0-4.49s0-2.96,0-4.43c0-1.47,0-2.94,0-4.4s0-2.93,0-4.4,0-2.95,0-4.43,0-2.98,0-4.49,0-3.04,0-4.58c0-1.54,0-3.11,0-4.7,0-1.59,0-3.2,0-4.84s0-3.31,0-5.02,0-3.45,0-5.23c0-1.78,0-3.6,0-5.46,0-1.86,0-3.77,0-5.72-.02-1.98-.03-3.91-.05-5.79-.02-1.88-.03-3.73-.05-5.53-.01-1.8-.03-3.56-.04-5.29-.01-1.73-.03-3.42-.04-5.08s-.03-3.3-.04-4.9-.03-3.19-.04-4.76c-.01-1.56-.03-3.11-.04-4.64-.01-1.53-.03-3.04-.04-4.55-.01-1.5-.02-3-.04-4.49-.01-1.49-.02-2.97-.04-4.46-.01-1.48-.02-2.97-.04-4.46s-.02-2.98-.04-4.49-.02-3.02-.04-4.55c-.01-1.53-.03-3.07-.04-4.64-.01-1.56-.03-3.15-.04-4.76-.01-1.61-.03-3.24-.04-4.91s-.03-3.36-.04-5.08-.03-3.49-.04-5.29-.03-3.64-.05-5.53c-.02-1.89-.03-3.82-.05-5.8.46-.05.69-.08,1.14-.14.35,1.95.7,3.85,1.04,5.7.34,1.85.66,3.65.98,5.41.32,1.76.63,3.47.94,5.15s.6,3.32.9,4.93c.29,1.61.58,3.19.86,4.75.28,1.56.56,3.09.84,4.6s.55,3.01.82,4.49c.27,1.48.54,2.95.81,4.41.27,1.46.53,2.92.8,4.37.27,1.46.53,2.91.8,4.37.27,1.46.54,2.93.81,4.4.27,1.48.54,2.97.82,4.47.28,1.51.55,3.03.84,4.58.28,1.55.57,3.12.86,4.72s.59,3.23.9,4.89c.31,1.66.62,3.36.94,5.1.32,1.74.65,3.52.98,5.35.34,1.83.68,3.7,1.04,5.63.42,1.95.84,3.86,1.24,5.73.4,1.86.8,3.68,1.19,5.47.39,1.78.77,3.53,1.14,5.24.37,1.71.74,3.39,1.09,5.03.36,1.65.71,3.26,1.06,4.85.35,1.59.69,3.16,1.03,4.7.34,1.55.67,3.07,1,4.58.33,1.51.66,3,.98,4.48.32,1.48.64,2.95.96,4.41.32,1.46.64,2.92.96,4.37.32,1.45.64,2.9.95,4.35.32,1.45.64,2.9.96,4.36.32,1.46.64,2.92.96,4.4s.65,2.96.98,4.46c.33,1.5.66,3.01,1,4.55.34,1.53.68,3.09,1.03,4.66.35,1.58.7,3.17,1.06,4.8.36,1.63.72,3.28,1.09,4.97.37,1.69.75,3.4,1.14,5.16.39,1.75.78,3.54,1.19,5.37.4,1.83.82,3.7,1.24,5.61,1.83-.38,3.59-.74,5.29-1.09,1.7-.35,3.34-.69,4.93-1.02,1.59-.33,3.13-.65,4.64-.96,1.5-.31,2.97-.62,4.41-.91,1.44-.3,2.85-.59,4.25-.88,1.4-.29,2.78-.57,4.15-.86,1.37-.28,2.74-.57,4.12-.85,1.37-.28,2.75-.57,4.15-.86s2.81-.58,4.25-.88c1.44-.3,2.91-.6,4.41-.91s3.05-.63,4.64-.96c1.59-.33,3.23-.67,4.93-1.02,1.7-.35,3.46-.72,5.29-1.09,0-2,0-3.98,0-5.96,0-1.98,0-3.94,0-5.9s0-3.9,0-5.83,0-3.86,0-5.77c0-1.91,0-3.82,0-5.71,0-1.89,0-3.78,0-5.65s0-3.74,0-5.59,0-3.7,0-5.54c0-1.84,0-3.66,0-5.48,0-1.82,0-3.63,0-5.43s0-3.59,0-5.38,0-3.56,0-5.33,0-3.53,0-5.28,0-3.49,0-5.23,0-3.46,0-5.18c0-1.72,0-3.43,0-5.14,0-1.71,0-3.4,0-5.1,0-1.69,0-3.38,0-5.06,0-1.68,0-3.35,0-5.01,0-1.67,0-3.32,0-4.98,0-1.65,0-3.3,0-4.94,0-1.64,0-3.28,0-4.9,0-1.63,0-3.25,0-4.87,0-1.62,0-3.23,0-4.84s0-3.21,0-4.81c0-1.6,0-3.19,0-4.78,0-1.59,0-3.17,0-4.75,0-1.58,0-3.15,0-4.72,0-1.57,0-3.14,0-4.7,0-1.56,0-3.12,0-4.67,0-1.55,0-3.1,0-4.65,0-1.55,0-3.09,0-4.63,0-1.54,0-3.08,0-4.61s0-3.06,0-4.59c0-1.53,0-3.05,0-4.58,0-1.52,0-3.04,0-4.56,0-1.52,0-3.03,0-4.55,0-1.51,0-3.03,0-4.54,0-1.51,0-3.02,0-4.53,0-1.51,0-3.01,0-4.52,0-1.5,0-3.01,0-4.51,0-1.5,0-3,0-4.5,0-1.5,0-3,0-4.5,0-1.5,0-3,0-4.5,0-1.5,0-3,0-4.5,0-1.5,0-3,0-4.5,0-1.5,0-3,0-4.5,0-1.5,0-3,0-4.5,0-1.5,0-3,0-4.5,0-1.5,0-3.01,0-4.51,0-1.5,0-3.01,0-4.52,0-1.51,0-3.02,0-4.53,0-1.51,0-3.02,0-4.54,0-1.51,0-3.03,0-4.55s0-3.04,0-4.56c0-1.52,0-3.05,0-4.58,0-1.53,0-3.06,0-4.59,0-1.53,0-3.07,0-4.61,0-1.54,0-3.08,0-4.63,0-1.55,0-3.1,0-4.65,0-1.55,0-3.11,0-4.67,0-1.56,0-3.13,0-4.7,0-1.57,0-3.14,0-4.72,0-1.58,0-3.16,0-4.75,0-1.59,0-3.18,0-4.78,0-1.6,0-3.2,0-4.81,0-1.61,0-3.22,0-4.84,0-1.62,0-3.24,0-4.87s0-3.26,0-4.9c0-1.64,0-3.29,0-4.94s0-3.31,0-4.98c0-1.67,0-3.34,0-5.01s0-3.36,0-5.05c0-1.69,0-3.39,0-5.1,0-1.71,0-3.42,0-5.14s0-3.45,0-5.18c0-1.74,0-3.48,0-5.23s0-3.51,0-5.28,0-3.54,0-5.33,0-3.58,0-5.38,0-3.61,0-5.43c0-1.82,0-3.64,0-5.48,0-1.84,0-3.68,0-5.54s0-3.72,0-5.59c0-1.87,0-3.76,0-5.65,0-1.89,0-3.8,0-5.71,0-1.91,0-3.84,0-5.77,0-1.93,0-3.88,0-5.83,0-1.95,0-3.92,0-5.9,0-1.98,0-3.96,0-5.96h-52.88c0,1.96,0,3.87,0,5.74,0,1.87,0,3.68,0,5.46,0,1.78,0,3.52,0,5.22,0,1.7,0,3.37,0,5.01,0,1.64,0,3.24,0,4.83,0,1.58,0,3.14,0,4.68,0,1.54,0,3.06,0,4.57s0,3,0,4.48,0,2.96,0,4.43c0,1.47,0,2.94,0,4.42,0,1.47,0,2.95,0,4.43s0,2.98,0,4.48,0,3.03,0,4.57c0,1.54,0,3.1,0,4.68s0,3.19,0,4.83c0,1.64,0,3.3,0,5.01,0,1.7,0,3.44,0,5.22s0,3.6,0,5.46c0,1.87,0,3.78,0,5.74.02,1.89.04,3.73.06,5.51.02,1.79.04,3.52.05,5.22.02,1.69.03,3.35.05,4.96.02,1.62.03,3.2.05,4.75.02,1.55.03,3.07.05,4.57.02,1.5.03,2.97.05,4.43.01,1.46.03,2.9.04,4.33.01,1.43.03,2.85.04,4.27.01,1.42.03,2.83.04,4.25.01,1.42.03,2.84.04,4.27.01,1.43.03,2.87.04,4.33s.03,2.93.04,4.43c.02,1.5.03,3.02.05,4.57.02,1.55.03,3.13.05,4.74s.03,3.27.05,4.96c.02,1.69.03,3.43.05,5.21.02,1.78.04,3.62.06,5.51-.57.04-.86.07-1.43.11-.34-1.92-.67-3.78-1-5.59-.32-1.81-.63-3.57-.94-5.28-.3-1.71-.6-3.38-.89-5.01-.29-1.63-.57-3.23-.85-4.79-.28-1.56-.55-3.1-.82-4.61-.27-1.51-.53-3-.79-4.48-.26-1.48-.52-2.94-.78-4.39-.26-1.45-.51-2.9-.77-4.35s-.51-2.9-.77-4.35-.52-2.92-.78-4.4c-.26-1.48-.53-2.98-.79-4.5s-.54-3.06-.82-4.64c-.28-1.57-.56-3.18-.85-4.82-.29-1.64-.59-3.32-.89-5.05s-.62-3.5-.94-5.33-.65-3.71-1-5.65c-.39-1.91-.78-3.78-1.15-5.6s-.74-3.6-1.1-5.35c-.36-1.74-.71-3.45-1.05-5.12s-.68-3.31-1.01-4.93c-.33-1.61-.66-3.2-.97-4.76-.32-1.56-.63-3.1-.95-4.62-.31-1.52-.62-3.02-.92-4.51-.3-1.49-.61-2.96-.9-4.42-.3-1.46-.6-2.92-.89-4.37s-.59-2.9-.89-4.34-.59-2.89-.89-4.35c-.3-1.45-.59-2.91-.89-4.38s-.6-2.95-.9-4.44c-.3-1.49-.61-3-.92-4.53-.31-1.53-.63-3.08-.95-4.65s-.64-3.17-.98-4.8-.67-3.29-1.01-4.98c-.34-1.69-.69-3.42-1.05-5.19s-.72-3.57-1.1-5.43c-.38-1.85-.76-3.75-1.15-5.69h-64.02c0,1.98,0,3.95,0,5.92s0,3.91,0,5.86c0,1.94,0,3.88,0,5.8s0,3.84,0,5.74c0,1.9,0,3.8,0,5.68,0,1.89,0,3.76,0,5.63s0,3.73,0,5.58c0,1.85,0,3.69,0,5.52s0,3.66,0,5.47,0,3.62,0,5.42c0,1.8,0,3.59,0,5.37s0,3.56,0,5.33c0,1.77,0,3.53,0,5.28s0,3.5,0,5.24c0,1.74,0,3.47,0,5.19s0,3.44,0,5.15,0,3.41,0,5.11c0,1.7,0,3.39,0,5.07,0,1.68,0,3.36,0,5.03,0,1.67,0,3.33,0,4.99,0,1.66,0,3.31,0,4.96,0,1.65,0,3.29,0,4.92s0,3.26,0,4.89c0,1.62,0,3.24,0,4.86,0,1.61,0,3.22,0,4.83,0,1.6,0,3.2,0,4.8,0,1.59,0,3.18,0,4.77s0,3.16,0,4.74c0,1.58,0,3.15,0,4.71,0,1.57,0,3.13,0,4.69,0,1.56,0,3.11,0,4.67,0,1.55,0,3.1,0,4.64,0,1.54,0,3.09,0,4.62,0,1.54,0,3.07,0,4.6,0,1.53,0,3.06,0,4.58,0,1.53,0,3.05,0,4.57,0,1.52,0,3.04,0,4.55,0,1.51,0,3.03,0,4.54,0,1.51,0,3.02,0,4.52,0,1.51,0,3.01,0,4.51,0,1.5,0,3,0,4.5,0,1.5,0,3,0,4.49,0,1.5,0,2.99,0,4.48s0,2.99,0,4.48c0,1.49,0,2.98,0,4.47,0,1.49,0,2.98,0,4.47,0,1.49,0,2.98,0,4.46,0,1.49,0,2.97,0,4.46,0,1.49,0,2.97,0,4.46,0,1.49,0,2.97,0,4.46,0,1.49,0,2.98,0,4.46,0,1.49,0,2.98,0,4.47,0,1.49,0,2.98,0,4.47,0,1.49,0,2.98,0,4.48,0,1.49,0,2.99,0,4.48,0,1.5,0,2.99,0,4.49,0,1.5,0,3,0,4.5,0,1.5,0,3.01,0,4.51,0,1.51,0,3.01,0,4.52,0,1.51,0,3.02,0,4.54,0,1.51,0,3.03,0,4.55,0,1.52,0,3.04,0,4.57,0,1.53,0,3.05,0,4.58,0,1.53,0,3.07,0,4.6,0,1.54,0,3.08,0,4.62,0,1.54,0,3.09,0,4.64,0,1.55,0,3.11,0,4.67,0,1.56,0,3.12,0,4.69,0,1.57,0,3.14,0,4.71,0,1.58,0,3.16,0,4.74,0,1.58,0,3.17,0,4.77,0,1.59,0,3.19,0,4.8,0,1.6,0,3.21,0,4.83s0,3.23,0,4.86c0,1.62,0,3.25,0,4.89,0,1.64,0,3.28,0,4.92,0,1.65,0,3.3,0,4.96,0,1.66,0,3.32,0,4.99s0,3.35,0,5.03c0,1.68,0,3.37,0,5.07,0,1.7,0,3.4,0,5.11,0,1.71,0,3.43,0,5.15s0,3.45,0,5.19c0,1.74,0,3.48,0,5.24s0,3.51,0,5.28,0,3.54,0,5.33,0,3.57,0,5.37,0,3.61,0,5.42,0,3.64,0,5.47,0,3.67,0,5.52c0,1.85,0,3.71,0,5.58s0,3.74,0,5.63,0,3.78,0,5.68c0,1.9,0,3.82,0,5.74,0,1.92,0,3.86,0,5.8,0,1.94,0,3.89,0,5.86s0,3.93,0,5.92c1.92-.4,3.76-.78,5.52-1.14,1.76-.37,3.46-.72,5.09-1.05,1.64-.34,3.22-.67,4.76-.99,1.54-.32,3.04-.63,4.52-.94,1.48-.31,2.93-.61,4.38-.91,1.45-.3,2.88-.6,4.33-.9,1.45-.3,2.9-.6,4.38-.91,1.48-.31,2.98-.62,4.52-.94,1.54-.32,3.12-.65,4.76-.99,1.64-.34,3.33-.69,5.09-1.05,1.76-.37,3.6-.75,5.52-1.14Z"/>
      <path class="cls-1" d="M851.06,520.47c1.18-.24,2.32-.65,3.42-1.2,1.1-.56,2.16-1.27,3.18-2.13,1.02-.87,2-1.89,2.94-3.06.94-1.17,1.84-2.5,2.71-3.99.86-1.48,1.68-3.12,2.47-4.91.56-1.28,1.08-2.59,1.57-3.94.49-1.35.95-2.73,1.37-4.15s.81-2.87,1.17-4.36c.35-1.49.68-3.01.96-4.57.29-1.56.54-3.15.76-4.78.22-1.63.4-3.3.55-5,.15-1.7.27-3.44.35-5.21.91-.17,1.37-.26,2.29-.43,0,1.9,0,3.7,0,5.41,0,1.71,0,3.35,0,4.92s0,3.09,0,4.57,0,2.92,0,4.36,0,2.85,0,4.29,0,2.88,0,4.36,0,2.99,0,4.57c0,1.57,0,3.21,0,4.92,0,1.71,0,3.51,0,5.41,1.95-.4,3.82-.79,5.61-1.16s3.51-.73,5.17-1.07c1.66-.34,3.27-.68,4.83-1,1.57-.32,3.09-.64,4.59-.95s2.98-.62,4.45-.92c1.47-.3,2.93-.61,4.4-.91,1.47-.3,2.95-.61,4.45-.92,1.5-.31,3.03-.63,4.59-.95,1.57-.32,3.17-.66,4.83-1,1.66-.34,3.38-.7,5.17-1.07,1.79-.37,3.66-.76,5.61-1.16,0-1.96,0-3.9,0-5.83,0-1.92,0-3.83,0-5.71,0-1.88,0-3.75,0-5.6,0-1.85,0-3.68,0-5.49,0-1.81,0-3.61,0-5.39,0-1.78,0-3.55,0-5.3,0-1.75,0-3.49,0-5.21s0-3.43,0-5.12,0-3.37,0-5.04c0-1.67,0-3.32,0-4.97s0-3.27,0-4.89,0-3.23,0-4.83c0-1.6,0-3.19,0-4.77,0-1.58,0-3.15,0-4.71,0-1.56,0-3.11,0-4.66,0-1.54,0-3.08,0-4.61,0-1.53,0-3.05,0-4.57,0-1.52,0-3.03,0-4.53,0-1.51,0-3.01,0-4.5,0-1.5,0-2.99,0-4.48,0-1.49,0-2.97,0-4.45,0-1.48,0-2.96,0-4.44,0-1.48,0-2.95,0-4.42,0-1.47,0-2.95,0-4.42,0-1.47,0-2.94,0-4.41,0-1.47,0-2.94,0-4.42,0-1.47,0-2.95,0-4.42,0-1.48,0-2.95,0-4.44,0-1.48,0-2.97,0-4.45,0-1.49,0-2.98,0-4.48,0-1.5,0-3,0-4.5,0-1.51,0-3.02,0-4.53,0-1.52,0-3.04,0-4.57,0-1.53,0-3.07,0-4.61,0-1.54,0-3.1,0-4.66,0-1.56,0-3.13,0-4.71,0-1.58,0-3.17,0-4.77,0-1.6,0-3.21,0-4.83s0-3.25,0-4.89,0-3.3,0-4.97,0-3.35,0-5.04c0-1.69,0-3.4,0-5.12s0-3.46,0-5.21,0-3.52,0-5.3c0-1.78,0-3.58,0-5.39s0-3.65,0-5.5c0-1.85,0-3.72,0-5.6,0-1.89,0-3.79,0-5.71,0-1.92,0-3.86,0-5.83-1.9.17-3.74.33-5.53.48-1.79.16-3.53.31-5.23.46s-3.36.29-4.98.43-3.21.28-4.76.41c-1.55.14-3.08.27-4.58.4s-2.98.26-4.45.39c-1.46.13-2.91.25-4.35.38-1.44.12-2.86.25-4.29.37-1.42.12-2.84.25-4.27.37-1.42.12-2.85.25-4.29.37-1.44.12-2.88.25-4.35.38s-2.94.26-4.45.39-3.03.26-4.58.4c-1.55.14-3.14.27-4.76.41s-3.28.29-4.98.43-3.44.3-5.23.46c-1.79.16-3.63.32-5.53.48,0,1.91,0,3.77,0,5.58,0,1.81,0,3.57,0,5.28,0,1.71,0,3.39,0,5.02,0,1.64,0,3.23,0,4.8,0,1.57,0,3.11,0,4.62s0,3.01,0,4.49c0,1.48,0,2.94,0,4.39s0,2.89,0,4.33c0,1.44,0,2.87,0,4.31,0,1.44,0,2.88,0,4.33s0,2.91,0,4.39c0,1.48,0,2.97,0,4.49,0,1.52,0,3.06,0,4.62,0,1.57,0,3.17,0,4.8,0,1.64,0,3.31,0,5.02,0,1.71,0,3.47,0,5.28,0,1.81,0,3.66,0,5.58,1.91-.24,3.49-.44,4.97-.63,1.48-.19,2.86-.36,4.34-.55,1.48-.19,3.07-.39,4.97-.63,0,2,0,3.93,0,5.8,0,1.87,0,3.67,0,5.43,0,1.76,0,3.46,0,5.12,0,1.66,0,3.29,0,4.88,0,1.59,0,3.15,0,4.69,0,1.54,0,3.06,0,4.57s0,3.01,0,4.51c0,1.5,0,3,0,4.51,0,1.51,0,3.03,0,4.57s0,3.1,0,4.69c0,1.59,0,3.21,0,4.88,0,1.66,0,3.37,0,5.12,0,1.75,0,3.56,0,5.43s0,3.8,0,5.8c0,1.9-.06,3.66-.18,5.3-.12,1.64-.3,3.15-.54,4.54s-.54,2.64-.9,3.78c-.36,1.13-.77,2.14-1.25,3.01-.64,1.17-1.36,2.18-2.16,3.03-.8.85-1.69,1.53-2.67,2.05-.97.52-2.03.88-3.17,1.07-1.71.29-3.25.15-4.61-.42-1.36-.57-2.53-1.58-3.53-3.03-.5-.72-.94-1.59-1.31-2.61-.37-1.02-.69-2.19-.94-3.51-.25-1.32-.44-2.79-.56-4.4s-.19-3.38-.18-5.3c0-1.96,0-3.91,0-5.83,0-1.92,0-3.83,0-5.72,0-1.89,0-3.75,0-5.6s0-3.68,0-5.5,0-3.61,0-5.39c0-1.78,0-3.55,0-5.3,0-1.75,0-3.48,0-5.21s0-3.43,0-5.12c0-1.69,0-3.37,0-5.04,0-1.67,0-3.32,0-4.96,0-1.64,0-3.27,0-4.89,0-1.62,0-3.22,0-4.82,0-1.6,0-3.18,0-4.76,0-1.58,0-3.14,0-4.7s0-3.11,0-4.65c0-1.54,0-3.08,0-4.61,0-1.53,0-3.05,0-4.57s0-3.03,0-4.53c0-1.5,0-3,0-4.5s0-2.99,0-4.47c0-1.49,0-2.97,0-4.45s0-2.96,0-4.44c0-1.48,0-2.95,0-4.43,0-1.47,0-2.95,0-4.42,0-1.47,0-2.95,0-4.42s0-2.95,0-4.43c0-1.48,0-2.96,0-4.44,0-1.48,0-2.97,0-4.45s0-2.98,0-4.47c0-1.5,0-2.99,0-4.5s0-3.01,0-4.53,0-3.04,0-4.57,0-3.06,0-4.61c0-1.54,0-3.09,0-4.65s0-3.13,0-4.7,0-3.16,0-4.76,0-3.2,0-4.82,0-3.25,0-4.89,0-3.29,0-4.96c0-1.67,0-3.34,0-5.04,0-1.69,0-3.4,0-5.12,0-1.72,0-3.45,0-5.21,0-1.75,0-3.52,0-5.3,0-1.78,0-3.58,0-5.39,0-1.81,0-3.65,0-5.5s0-3.72,0-5.6,0-3.79,0-5.72c0-1.92,0-3.87,0-5.83,0-1.91.06-3.69.18-5.33s.3-3.15.54-4.52.54-2.6.9-3.7c.36-1.1.78-2.06,1.25-2.88.95-1.65,2.1-2.9,3.43-3.75s2.86-1.31,4.57-1.38c1.81-.07,3.4.28,4.78,1.02s2.55,1.9,3.5,3.46c.48.78.89,1.7,1.25,2.76.36,1.06.65,2.26.89,3.59.24,1.34.42,2.81.53,4.43s.18,3.37.18,5.26c0,1.83,0,3.59,0,5.29,0,1.69,0,3.33,0,4.91,0,1.58,0,3.11,0,4.6,0,1.49,0,2.94,0,4.37,0,1.43,0,2.83,0,4.22,0,1.39,0,2.76,0,4.14,0,1.38,0,2.75,0,4.14,0,1.39,0,2.79,0,4.22s0,2.88,0,4.37c0,1.49,0,3.02,0,4.6s0,3.21,0,4.91c0,1.69,0,3.45,0,5.29,1.89-.14,3.72-.27,5.49-.4,1.77-.13,3.48-.26,5.14-.38,1.66-.12,3.28-.24,4.85-.36s3.11-.23,4.62-.34c1.51-.11,2.99-.22,4.45-.33,1.46-.11,2.9-.21,4.33-.32,1.43-.11,2.85-.21,4.27-.31,1.42-.1,2.84-.21,4.27-.32,1.43-.11,2.87-.21,4.33-.32s2.94-.22,4.45-.33c1.51-.11,3.04-.22,4.62-.34,1.58-.12,3.19-.24,4.85-.36,1.66-.12,3.37-.25,5.14-.38,1.77-.13,3.59-.27,5.49-.4,0-1.91,0-3.77,0-5.59,0-1.82,0-3.6,0-5.35,0-1.74,0-3.45,0-5.13s0-3.32,0-4.93c0-1.61,0-3.2,0-4.76s0-3.1,0-4.62c0-1.52,0-3.02,0-4.5,0-1.48,0-2.95,0-4.41,0-1.46,0-2.91,0-4.35,0-1.44,0-2.88,0-4.31,0-1.43,0-2.86,0-4.29,0-1.43,0-2.87,0-4.31,0-1.44,0-2.89,0-4.35,0-1.46,0-2.93,0-4.41,0-1.48,0-2.98,0-4.5,0-1.52,0-3.06,0-4.62s0-3.15,0-4.76c0-1.61,0-3.26,0-4.93,0-1.67,0-3.38,0-5.12,0-1.74,0-3.52,0-5.35,0-1.82,0-3.68,0-5.59,0-1.93-.04-3.81-.11-5.65-.08-1.84-.19-3.63-.35-5.38s-.35-3.45-.58-5.1c-.23-1.66-.5-3.27-.81-4.83-.31-1.57-.66-3.09-1.05-4.56s-.81-2.91-1.28-4.29c-.47-1.39-.97-2.73-1.51-4.02-.76-1.81-1.56-3.45-2.41-4.9-.85-1.45-1.73-2.73-2.66-3.82s-1.9-2-2.91-2.73c-1.01-.73-2.07-1.28-3.16-1.64-1.1-.37-2.24-.55-3.42-.55h-113.75c-1.18,0-2.32.19-3.42.58-1.1.39-2.15.97-3.17,1.75-1.01.78-1.99,1.75-2.92,2.92-.93,1.17-1.82,2.53-2.67,4.09-.85,1.56-1.65,3.32-2.41,5.27-.48,1.22-.93,2.48-1.34,3.78-.42,1.3-.81,2.63-1.16,4-.36,1.37-.69,2.78-.99,4.23-.3,1.45-.57,2.93-.81,4.46-.24,1.52-.45,3.08-.63,4.68s-.33,3.23-.45,4.9-.21,3.38-.27,5.13c-.06,1.75-.09,3.53-.09,5.35,0,2,0,3.98,0,5.94,0,1.97,0,3.92,0,5.86,0,1.94,0,3.87,0,5.78,0,1.91,0,3.81,0,5.7,0,1.89,0,3.76,0,5.62,0,1.86,0,3.71,0,5.55,0,1.84,0,3.66,0,5.48,0,1.81,0,3.62,0,5.41s0,3.57,0,5.34,0,3.53,0,5.28,0,3.49,0,5.22c0,1.73,0,3.45,0,5.16,0,1.71,0,3.41,0,5.1,0,1.69,0,3.37,0,5.05s0,3.34,0,4.99,0,3.3,0,4.94c0,1.64,0,3.27,0,4.9,0,1.63,0,3.24,0,4.85,0,1.61,0,3.22,0,4.81,0,1.6,0,3.19,0,4.77,0,1.58,0,3.16,0,4.74,0,1.57,0,3.14,0,4.7,0,1.56,0,3.12,0,4.67,0,1.55,0,3.1,0,4.64,0,1.54,0,3.08,0,4.62,0,1.53,0,3.07,0,4.59,0,1.53,0,3.05,0,4.57,0,1.52,0,3.04,0,4.55,0,1.51,0,3.03,0,4.54,0,1.51,0,3.02,0,4.52,0,1.51,0,3.01,0,4.51,0,1.5,0,3,0,4.5,0,1.5,0,3,0,4.5,0,1.5,0,3,0,4.49s0,2.99,0,4.49c0,1.5,0,2.99,0,4.49,0,1.5,0,3,0,4.5,0,1.5,0,3,0,4.5,0,1.5,0,3.01,0,4.51,0,1.51,0,3.01,0,4.52,0,1.51,0,3.02,0,4.54s0,3.03,0,4.55c0,1.52,0,3.04,0,4.57,0,1.53,0,3.06,0,4.59,0,1.53,0,3.07,0,4.62,0,1.54,0,3.09,0,4.64,0,1.55,0,3.11,0,4.67,0,1.56,0,3.13,0,4.7,0,1.57,0,3.15,0,4.74,0,1.59,0,3.18,0,4.77,0,1.6,0,3.2,0,4.81,0,1.61,0,3.23,0,4.85,0,1.63,0,3.26,0,4.9,0,1.64,0,3.29,0,4.94s0,3.32,0,4.99c0,1.67,0,3.35,0,5.05s0,3.39,0,5.1c0,1.71,0,3.43,0,5.16,0,1.73,0,3.47,0,5.22s0,3.51,0,5.28,0,3.55,0,5.34c0,1.79,0,3.59,0,5.41,0,1.81,0,3.64,0,5.48,0,1.84,0,3.69,0,5.55,0,1.86,0,3.74,0,5.62,0,1.89,0,3.79,0,5.7,0,1.91,0,3.84,0,5.78,0,1.94,0,3.89,0,5.86,0,1.97,0,3.95,0,5.94,0,1.82.03,3.6.09,5.33.06,1.73.15,3.42.26,5.07.12,1.65.27,3.25.44,4.81s.39,3.08.62,4.55.5,2.9.8,4.29c.3,1.39.62,2.73.98,4.03s.74,2.55,1.16,3.76c.42,1.21.86,2.38,1.34,3.5.76,1.8,1.56,3.39,2.41,4.77.84,1.39,1.73,2.57,2.66,3.54.93.98,1.9,1.75,2.91,2.32,1.01.57,2.07.93,3.17,1.09,1.1.16,2.24.12,3.42-.13,1.89-.39,3.69-.76,5.43-1.13s3.42-.71,5.04-1.04,3.2-.66,4.73-.98c1.53-.32,3.02-.63,4.49-.93,1.47-.3,2.91-.6,4.33-.9,1.43-.3,2.84-.59,4.26-.88,1.41-.29,2.83-.59,4.26-.88,1.43-.3,2.87-.59,4.33-.9,1.47-.3,2.96-.61,4.49-.93,1.53-.32,3.1-.64,4.73-.98,1.62-.34,3.3-.68,5.04-1.04s3.55-.74,5.43-1.13Z"/>
      <path class="cls-1" d="M989.06,491.88c.17-1.98.33-3.9.49-5.75.16-1.86.31-3.66.46-5.41.15-1.75.3-3.45.44-5.11.14-1.66.28-3.28.42-4.88.14-1.59.27-3.15.4-4.69s.26-3.05.39-4.55c.13-1.5.26-2.99.38-4.47.13-1.48.25-2.96.38-4.45.13-1.48.25-2.97.38-4.47.13-1.5.26-3.01.39-4.55.13-1.53.27-3.09.4-4.68.14-1.59.27-3.2.42-4.86s.29-3.35.44-5.09c.15-1.74.3-3.53.46-5.38s.32-3.75.49-5.72c1.8-.3,3.46-.59,5.04-.85,1.58-.27,3.06-.52,4.49-.76,1.43-.24,2.8-.48,4.16-.71s2.69-.46,4.05-.69c1.36-.23,2.73-.46,4.16-.71,1.43-.24,2.91-.49,4.49-.76,1.58-.27,3.24-.55,5.04-.85.16,1.88.31,3.7.46,5.46.15,1.76.29,3.47.43,5.14s.28,3.28.41,4.86c.13,1.58.26,3.12.39,4.63s.25,2.99.38,4.45c.12,1.46.24,2.9.36,4.33.12,1.43.24,2.84.36,4.25.12,1.41.24,2.81.36,4.22.12,1.41.24,2.82.36,4.25s.24,2.86.36,4.32c.12,1.46.25,2.94.38,4.44.13,1.51.26,3.04.39,4.61.13,1.57.27,3.18.41,4.84.14,1.66.28,3.36.43,5.11.15,1.75.3,3.56.46,5.43,1.87-.39,3.69-.76,5.44-1.13,1.76-.36,3.46-.72,5.12-1.06,1.66-.34,3.27-.68,4.84-1s3.11-.64,4.62-.96c1.51-.31,2.99-.62,4.44-.92,1.46-.3,2.89-.6,4.32-.89s2.84-.59,4.24-.88c1.41-.29,2.81-.58,4.22-.87,1.41-.29,2.82-.58,4.24-.88,1.42-.29,2.86-.59,4.32-.89,1.46-.3,2.94-.61,4.44-.92,1.51-.31,3.04-.63,4.62-.96,1.57-.33,3.19-.66,4.84-1,1.66-.34,3.36-.7,5.12-1.06,1.76-.36,3.57-.74,5.44-1.13-.19-1.93-.39-3.84-.58-5.74-.19-1.9-.38-3.79-.57-5.67s-.38-3.75-.56-5.6-.37-3.7-.56-5.54c-.18-1.84-.37-3.66-.55-5.47-.18-1.81-.36-3.62-.54-5.41-.18-1.79-.36-3.58-.54-5.35s-.35-3.54-.53-5.29-.35-3.5-.52-5.24c-.17-1.74-.35-3.46-.52-5.18s-.34-3.43-.51-5.13c-.17-1.7-.34-3.39-.51-5.08-.17-1.68-.34-3.36-.5-5.03-.17-1.67-.33-3.33-.5-4.98-.17-1.65-.33-3.3-.49-4.94-.16-1.64-.33-3.27-.49-4.89s-.32-3.24-.48-4.85-.32-3.21-.48-4.81c-.16-1.6-.32-3.19-.48-4.77-.16-1.58-.32-3.16-.47-4.74s-.31-3.14-.47-4.7c-.16-1.56-.31-3.12-.47-4.67-.15-1.55-.31-3.1-.46-4.64-.15-1.54-.31-3.08-.46-4.61-.15-1.53-.3-3.06-.46-4.59-.15-1.52-.3-3.05-.45-4.56s-.3-3.03-.45-4.54c-.15-1.51-.3-3.02-.45-4.52-.15-1.5-.3-3-.45-4.5s-.3-2.99-.44-4.48c-.15-1.49-.3-2.98-.44-4.47-.15-1.49-.29-2.97-.44-4.46s-.29-2.97-.44-4.45c-.15-1.48-.29-2.96-.44-4.44-.15-1.48-.29-2.96-.44-4.43-.15-1.48-.29-2.95-.44-4.43s-.29-2.95-.44-4.42c-.15-1.47-.29-2.95-.44-4.42s-.29-2.95-.44-4.42c-.15-1.47-.29-2.95-.44-4.43-.15-1.48-.29-2.95-.44-4.43-.15-1.48-.29-2.96-.44-4.44-.15-1.48-.29-2.96-.44-4.45-.15-1.48-.29-2.97-.44-4.46-.15-1.49-.29-2.98-.44-4.47s-.29-2.99-.44-4.49c-.15-1.5-.3-3-.44-4.5s-.3-3.01-.44-4.52c-.15-1.51-.3-3.03-.45-4.55s-.3-3.04-.45-4.57c-.15-1.53-.3-3.06-.45-4.59-.15-1.54-.3-3.08-.45-4.62-.15-1.54-.3-3.09-.46-4.65-.15-1.56-.31-3.12-.46-4.68-.15-1.57-.31-3.14-.46-4.72-.15-1.58-.31-3.16-.47-4.75-.16-1.59-.31-3.19-.47-4.79s-.31-3.21-.47-4.83c-.16-1.62-.32-3.24-.48-4.87s-.32-3.27-.48-4.91c-.16-1.65-.32-3.3-.48-4.96s-.33-3.33-.49-5.01c-.16-1.68-.33-3.36-.49-5.06-.17-1.69-.33-3.4-.5-5.11-.17-1.71-.33-3.43-.5-5.16-.17-1.73-.34-3.47-.51-5.22-.17-1.75-.34-3.51-.51-5.28-.17-1.77-.35-3.55-.52-5.34s-.35-3.59-.53-5.4-.35-3.63-.53-5.47c-.18-1.83-.36-3.68-.54-5.53-.18-1.86-.36-3.72-.54-5.6-.18-1.88-.37-3.77-.55-5.67-.18-1.9-.37-3.82-.56-5.75-.19-1.93-.38-3.87-.56-5.82-.19-1.95-.38-3.92-.57-5.9-.19-1.98-.38-3.97-.58-5.98h-93.46c-.19,1.93-.37,3.85-.55,5.76-.18,1.91-.36,3.81-.55,5.7-.18,1.89-.36,3.77-.54,5.63-.18,1.87-.36,3.73-.53,5.57-.18,1.85-.35,3.69-.53,5.51-.18,1.83-.35,3.65-.52,5.46-.17,1.81-.34,3.61-.52,5.4s-.34,3.57-.51,5.34c-.17,1.77-.34,3.54-.51,5.29s-.33,3.5-.5,5.24c-.17,1.74-.33,3.47-.49,5.19-.16,1.72-.33,3.44-.49,5.14s-.32,3.4-.49,5.09c-.16,1.69-.32,3.37-.48,5.05-.16,1.68-.32,3.34-.48,5-.16,1.66-.32,3.31-.47,4.96-.16,1.65-.31,3.29-.47,4.92-.16,1.63-.31,3.26-.46,4.88s-.31,3.24-.46,4.84c-.15,1.61-.31,3.21-.46,4.81-.15,1.6-.3,3.19-.45,4.77-.15,1.59-.3,3.17-.45,4.74s-.3,3.15-.45,4.71c-.15,1.57-.3,3.13-.44,4.68s-.29,3.11-.44,4.65-.29,3.09-.44,4.63c-.15,1.54-.29,3.07-.44,4.6s-.29,3.06-.43,4.58-.29,3.04-.43,4.56c-.14,1.52-.29,3.03-.43,4.54-.14,1.51-.28,3.02-.43,4.52s-.28,3.01-.43,4.5c-.14,1.5-.28,3-.42,4.49-.14,1.49-.28,2.99-.42,4.48-.14,1.49-.28,2.98-.42,4.46s-.28,2.97-.42,4.46c-.14,1.48-.28,2.97-.42,4.45-.14,1.48-.28,2.96-.42,4.44s-.28,2.96-.42,4.44c-.14,1.48-.28,2.96-.42,4.43-.14,1.48-.28,2.95-.42,4.43-.14,1.48-.28,2.95-.42,4.43-.14,1.48-.28,2.95-.42,4.43-.14,1.48-.28,2.96-.42,4.44-.14,1.48-.28,2.96-.42,4.44-.14,1.48-.28,2.96-.42,4.45-.14,1.48-.28,2.97-.42,4.46-.14,1.49-.28,2.98-.42,4.47s-.28,2.98-.42,4.48c-.14,1.5-.28,2.99-.42,4.49-.14,1.5-.28,3-.42,4.51-.14,1.51-.28,3.01-.42,4.53-.14,1.51-.28,3.03-.43,4.54-.14,1.52-.28,3.04-.43,4.56-.14,1.52-.29,3.05-.43,4.59-.14,1.53-.29,3.07-.43,4.61-.14,1.54-.29,3.09-.43,4.64-.14,1.55-.29,3.1-.44,4.66-.15,1.56-.29,3.12-.44,4.69-.15,1.57-.29,3.14-.44,4.72s-.3,3.16-.44,4.76c-.15,1.59-.3,3.19-.45,4.79-.15,1.6-.3,3.21-.45,4.83-.15,1.61-.3,3.24-.45,4.86-.15,1.63-.3,3.26-.46,4.9-.15,1.64-.31,3.29-.46,4.94-.15,1.65-.31,3.32-.46,4.99s-.31,3.35-.47,5.03c-.16,1.68-.31,3.38-.47,5.08-.16,1.7-.32,3.41-.48,5.13-.16,1.72-.32,3.44-.48,5.18-.16,1.73-.32,3.48-.49,5.23-.16,1.75-.33,3.51-.49,5.28s-.33,3.55-.49,5.34c-.17,1.79-.33,3.59-.5,5.39-.17,1.81-.34,3.62-.5,5.45s-.34,3.66-.51,5.51-.34,3.71-.52,5.57c-.17,1.87-.35,3.75-.52,5.64s-.35,3.79-.53,5.7c-.18,1.91-.35,3.84-.53,5.77-.18,1.94-.36,3.88-.54,5.84-.18,1.96-.36,3.93-.55,5.91-.18,1.98-.37,3.98-.55,5.98,1.86-.38,3.64-.75,5.35-1.11,1.72-.36,3.37-.7,4.97-1.03s3.15-.65,4.66-.96c1.51-.31,2.98-.62,4.42-.92,1.44-.3,2.86-.59,4.27-.88,1.41-.29,2.8-.58,4.19-.87s2.79-.58,4.19-.87,2.82-.59,4.27-.88c1.44-.3,2.91-.6,4.42-.92,1.51-.31,3.06-.63,4.66-.96s3.25-.67,4.97-1.03c1.72-.36,3.49-.72,5.35-1.11ZM1010.71,215.88c.57-.04.86-.06,1.43-.09.14,2,.29,3.95.43,5.87.14,1.92.28,3.8.41,5.65.13,1.85.27,3.66.39,5.45.13,1.78.26,3.54.38,5.26.12,1.73.25,3.42.37,5.1.12,1.67.24,3.32.36,4.95.12,1.63.23,3.24.35,4.83s.23,3.16.34,4.72c.11,1.56.23,3.1.34,4.63.11,1.53.22,3.05.33,4.56.11,1.51.22,3.02.33,4.51.11,1.5.22,2.99.33,4.48.11,1.49.22,2.98.33,4.47.11,1.49.22,2.98.33,4.48.11,1.5.22,3,.33,4.51s.22,3.03.33,4.55c.11,1.53.22,3.07.34,4.62.11,1.55.23,3.12.34,4.7.12,1.58.23,3.18.35,4.81.12,1.62.24,3.26.36,4.93.12,1.67.24,3.35.37,5.07.12,1.72.25,3.46.38,5.23.13,1.77.26,3.57.39,5.41.13,1.83.27,3.7.41,5.6.14,1.9.28,3.84.43,5.82-1.6.21-3.04.4-4.38.57-1.34.18-2.59.34-3.81.5-1.22.16-2.4.31-3.62.47-1.22.16-2.46.32-3.81.5-1.34.18-2.78.36-4.38.57.15-1.96.29-3.88.43-5.77.14-1.89.28-3.74.42-5.56.14-1.82.27-3.61.4-5.36.13-1.76.26-3.49.39-5.19.13-1.7.25-3.38.38-5.03.12-1.65.25-3.28.37-4.89.12-1.61.24-3.19.36-4.76.12-1.57.23-3.12.35-4.66.12-1.54.23-3.06.34-4.57s.23-3.01.34-4.5.22-2.97.33-4.45c.11-1.47.22-2.94.33-4.41.11-1.47.22-2.93.33-4.39.11-1.46.22-2.92.33-4.39.11-1.46.22-2.93.33-4.41.11-1.47.22-2.95.33-4.44.11-1.49.22-2.98.34-4.49s.23-3.02.34-4.56.23-3.08.35-4.64c.12-1.56.24-3.14.36-4.74s.24-3.22.37-4.86c.12-1.64.25-3.31.38-5s.26-3.41.39-5.15c.13-1.74.27-3.52.4-5.32.14-1.8.27-3.64.42-5.51.14-1.87.29-3.77.43-5.71Z"/>
    </g>
    <g>
      <path class="cls-2" d="M154.64,662.84c0-1.95,0-3.86,0-5.75,0-1.88,0-3.74,0-5.56,0-1.82,0-3.62,0-5.39,0-1.77,0-3.51,0-5.23s0-3.41,0-5.08,0-3.32,0-4.95,0-3.24,0-4.83v-4.73c0-1.56,0-3.1,0-4.64s0-3.05,0-4.56,0-3.01,0-4.5v-4.45c0-1.48,0-2.95,0-4.41s0-2.93,0-4.39,0-2.92,0-4.38v-4.39c0-1.47,0-2.94,0-4.41s0-2.96,0-4.45,0-2.99,0-4.5v-4.56c0-1.53,0-3.08,0-4.64s0-3.13,0-4.73,0-3.2,0-4.83,0-3.28,0-4.95v-5.08c0-1.72,0-3.46,0-5.23,0-1.77,0-3.56,0-5.39,0-1.82,0-3.68,0-5.56s0-3.8,0-5.75c1.84-.29,3.62-.57,5.35-.84,1.72-.27,3.39-.53,5.01-.78,1.62-.25,3.19-.5,4.73-.74,1.53-.24,3.03-.47,4.5-.7s2.91-.46,4.33-.68,2.82-.44,4.22-.66c1.39-.22,2.78-.43,4.16-.65,1.38-.22,2.77-.43,4.16-.65,1.39-.22,2.8-.44,4.22-.66s2.86-.45,4.33-.68c1.47-.23,2.97-.46,4.5-.7,1.53-.24,3.11-.49,4.73-.74s3.29-.51,5.01-.78c1.72-.27,3.5-.55,5.35-.84.98-.15,1.94-.47,2.86-.96s1.82-1.14,2.69-1.96c.87-.82,1.71-1.81,2.52-2.96.81-1.15,1.59-2.47,2.34-3.95.75-1.48,1.47-3.13,2.17-4.95.69-1.81,1.36-3.79,1.99-5.94.38-1.28.74-2.6,1.09-3.94.34-1.34.67-2.7.97-4.1.3-1.39.59-2.81.86-4.26.27-1.45.51-2.92.74-4.42.23-1.5.44-3.03.63-4.58.19-1.55.36-3.14.51-4.74.15-1.61.29-3.24.4-4.91.11-1.66.21-3.35.29-5.07s.13-3.46.17-5.23c.04-1.77.06-3.57.06-5.4,0-1.97,0-3.92,0-5.85,0-1.94,0-3.85,0-5.76,0-1.9,0-3.79,0-5.67,0-1.87,0-3.73,0-5.58,0-1.84,0-3.68,0-5.49s0-3.62,0-5.41,0-3.57,0-5.33,0-3.52,0-5.26,0-3.47,0-5.18,0-3.42,0-5.12c0-1.69,0-3.38,0-5.05s0-3.34,0-4.99,0-3.3,0-4.93c0-1.63,0-3.26,0-4.87s0-3.22,0-4.82c0-1.6,0-3.19,0-4.77,0-1.58,0-3.16,0-4.73,0-1.57,0-3.13,0-4.68,0-1.55,0-3.1,0-4.64,0-1.54,0-3.08,0-4.61,0-1.53,0-3.06,0-4.57,0-1.52,0-3.03,0-4.55,0-1.51,0-3.02,0-4.52,0-1.5,0-3,0-4.5,0-1.5,0-2.99,0-4.48s0-2.98,0-4.46c0-1.48,0-2.97,0-4.45,0-1.48,0-2.96,0-4.44,0-1.48,0-2.95,0-4.43,0-1.48,0-2.95,0-4.43,0-1.48,0-2.95,0-4.43,0-1.48,0-2.95,0-4.43,0-1.48,0-2.96,0-4.44,0-1.48,0-2.96,0-4.45,0-1.48,0-2.97,0-4.46,0-1.49,0-2.98,0-4.48,0-1.5,0-2.99,0-4.5,0-1.5,0-3.01,0-4.52,0-1.51,0-3.03,0-4.55,0-1.52,0-3.04,0-4.57,0-1.53,0-3.07,0-4.61,0-1.54,0-3.09,0-4.64,0-1.55,0-3.11,0-4.68,0-1.57,0-3.14,0-4.73,0-1.58,0-3.17,0-4.77,0-1.6,0-3.21,0-4.82,0-1.62,0-3.24,0-4.87,0-1.63,0-3.28,0-4.93,0-1.65,0-3.31,0-4.99,0-1.67,0-3.36,0-5.05s0-3.4,0-5.12c0-1.72,0-3.44,0-5.18,0-1.74,0-3.49,0-5.26,0-1.76,0-3.54,0-5.33,0-1.79,0-3.59,0-5.41,0-1.82,0-3.65,0-5.49,0-1.84,0-3.7,0-5.58,0-1.87,0-3.76,0-5.67,0-1.9,0-3.82,0-5.76,0-1.94,0-3.89,0-5.85,0-1.83-.02-3.62-.06-5.39-.04-1.77-.09-3.5-.17-5.21-.08-1.7-.17-3.38-.29-5.02-.11-1.64-.25-3.26-.4-4.84-.15-1.58-.32-3.14-.51-4.66-.19-1.52-.4-3.02-.63-4.48-.23-1.46-.48-2.9-.74-4.3-.27-1.4-.55-2.78-.86-4.12-.3-1.35-.63-2.66-.97-3.95s-.7-2.54-1.09-3.77c-.76-2.45-1.57-4.66-2.41-6.62s-1.73-3.68-2.66-5.16c-.93-1.48-1.9-2.71-2.92-3.69s-2.07-1.73-3.17-2.22c-1.1-.49-2.24-.74-3.42-.74H88.07v591.81c1.9-.39,3.74-.77,5.51-1.14s3.49-.72,5.16-1.07,3.29-.68,4.87-1.01c1.58-.33,3.12-.65,4.64-.96,1.51-.31,3-.62,4.46-.92s2.91-.6,4.35-.9c1.44-.3,2.86-.59,4.29-.89,1.43-.3,2.85-.59,4.29-.89,1.44-.3,2.88-.6,4.35-.9,1.47-.3,2.95-.61,4.46-.92,1.51-.31,3.06-.63,4.64-.96,1.58-.33,3.2-.66,4.87-1.01s3.39-.7,5.16-1.07c1.78-.37,3.61-.75,5.51-1.14ZM154.66,194.6c1.49-.06,2.72-.11,3.88-.15,1.16-.05,2.23-.09,3.38-.13,1.16-.05,2.39-.09,3.88-.15.81-.03,1.56.2,2.25.69.69.49,1.32,1.25,1.89,2.26.57,1.01,1.08,2.29,1.54,3.83s.85,3.33,1.18,5.39c.17,1.03.32,2.12.47,3.26s.28,2.34.41,3.6c.12,1.26.24,2.57.34,3.94.1,1.37.2,2.79.28,4.28s.16,3.02.22,4.62.11,3.25.16,4.96.07,3.47.09,5.3c.02,1.82.03,3.7.03,5.64,0,1.99,0,3.94,0,5.85,0,1.91,0,3.78,0,5.62s0,3.64,0,5.42c0,1.77,0,3.51,0,5.23,0,1.71,0,3.4,0,5.06,0,1.66,0,3.3,0,4.92,0,1.62,0,3.21,0,4.79,0,1.58,0,3.14,0,4.69,0,1.55,0,3.08,0,4.61,0,1.52,0,3.04,0,4.54,0,1.51,0,3.01,0,4.5,0,1.5,0,2.99,0,4.48,0,1.49,0,2.99,0,4.48,0,1.5,0,3,0,4.5,0,1.51,0,3.02,0,4.54,0,1.52,0,3.06,0,4.61,0,1.55,0,3.11,0,4.69,0,1.58,0,3.18,0,4.79,0,1.62,0,3.26,0,4.92,0,1.66,0,3.35,0,5.06,0,1.71,0,3.46,0,5.23s0,3.58,0,5.42c0,1.84,0,3.71,0,5.62,0,1.91,0,3.86,0,5.85,0,1.94-.01,3.82-.03,5.65-.02,1.83-.05,3.6-.09,5.32-.04,1.72-.09,3.38-.16,4.98s-.14,3.16-.22,4.65c-.08,1.5-.18,2.94-.28,4.32-.1,1.38-.22,2.71-.34,3.99s-.26,2.49-.41,3.66c-.15,1.16-.3,2.27-.47,3.33-.33,2.11-.73,3.97-1.18,5.58-.45,1.61-.96,2.96-1.54,4.06-.57,1.1-1.2,1.95-1.89,2.55-.69.6-1.44.95-2.25,1.04-1.49.17-2.72.32-3.88.45-1.16.14-2.23.26-3.38.4-1.16.14-2.39.28-3.88.45v-5.86c0-1.93,0-3.84,0-5.73,0-1.89,0-3.76,0-5.61,0-1.85,0-3.68,0-5.49,0-1.81,0-3.6,0-5.38s0-3.53,0-5.28,0-3.47,0-5.18,0-3.41,0-5.09,0-3.35,0-5v-4.92c0-1.63,0-3.24,0-4.85,0-1.6,0-3.2,0-4.78s0-3.16,0-4.72,0-3.12,0-4.66v-4.61c0-1.53,0-3.05,0-4.57s0-3.03,0-4.53,0-3.01,0-4.5v-4.48c0-1.49,0-2.98,0-4.46s0-2.97,0-4.45,0-2.96,0-4.44v-4.44c0-1.48,0-2.96,0-4.45s0-2.97,0-4.46,0-2.98,0-4.48v-4.5c0-1.51,0-3.02,0-4.53s0-3.04,0-4.57,0-3.07,0-4.61v-4.66c0-1.56,0-3.14,0-4.72,0-1.58,0-3.18,0-4.78s0-3.22,0-4.85,0-3.27,0-4.92c0-1.65,0-3.32,0-5v-5.09c0-1.71,0-3.44,0-5.18,0-1.74,0-3.5,0-5.28s0-3.57,0-5.38,0-3.64,0-5.49,0-3.72,0-5.61,0-3.8,0-5.73,0-3.88,0-5.86Z"/>
      <path class="cls-2" d="M320.34,628.52c0-2,0-3.98,0-5.96,0-1.98,0-3.94,0-5.9,0-1.96,0-3.91,0-5.85s0-3.87,0-5.8c0-1.92,0-3.84,0-5.75,0-1.91,0-3.81,0-5.7s0-3.77,0-5.65,0-3.74,0-5.6c0-1.86,0-3.71,0-5.56s0-3.68,0-5.51,0-3.65,0-5.46,0-3.62,0-5.42c0-1.8,0-3.59,0-5.38,0-1.79,0-3.56,0-5.34,0-1.77,0-3.54,0-5.3,0-1.76,0-3.51,0-5.26s0-3.48,0-5.22c0-1.73,0-3.46,0-5.18,0-1.72,0-3.43,0-5.14s0-3.41,0-5.11,0-3.39,0-5.07c0-1.68,0-3.36,0-5.04s0-3.34,0-5.01c0-1.66,0-3.32,0-4.97s0-3.3,0-4.94,0-3.28,0-4.91c0-1.63,0-3.26,0-4.88,0-1.62,0-3.24,0-4.86,0-1.61,0-3.22,0-4.83,0-1.61,0-3.21,0-4.8,0-1.6,0-3.19,0-4.78s0-3.17,0-4.76c0-1.58,0-3.16,0-4.73,0-1.57,0-3.14,0-4.71,0-1.57,0-3.13,0-4.69s0-3.12,0-4.67,0-3.1,0-4.65c0-1.55,0-3.09,0-4.64s0-3.08,0-4.62c0-1.54,0-3.07,0-4.6s0-3.06,0-4.59,0-3.05,0-4.57,0-3.04,0-4.56,0-3.04,0-4.55c0-1.51,0-3.03,0-4.54s0-3.02,0-4.53c0-1.51,0-3.02,0-4.52,0-1.51,0-3.01,0-4.51,0-1.5,0-3.01,0-4.51,0-1.5,0-3,0-4.5,0-1.5,0-3,0-4.5s0-3,0-4.49,0-2.99,0-4.49c0-1.5,0-2.99,0-4.49,0-1.5,0-2.99,0-4.49s0-2.99,0-4.49,0-2.99,0-4.49,0-3,0-4.49,0-3,0-4.5c0-1.5,0-3,0-4.5,0-1.5,0-3,0-4.51s0-3.01,0-4.51c0-1.51,0-3.01,0-4.52,0-1.51,0-3.02,0-4.53,0-1.51,0-3.02,0-4.54,0-1.51,0-3.03,0-4.55,0-1.52,0-3.04,0-4.56s0-3.05,0-4.57c0-1.53,0-3.06,0-4.59s0-3.07,0-4.6c0-1.54,0-3.08,0-4.62s0-3.09,0-4.64c0-1.55,0-3.1,0-4.65s0-3.11,0-4.67,0-3.12,0-4.69,0-3.14,0-4.71c0-1.57,0-3.15,0-4.73,0-1.58,0-3.17,0-4.76,0-1.59,0-3.18,0-4.78s0-3.2,0-4.8c0-1.61,0-3.22,0-4.83,0-1.61,0-3.23,0-4.86,0-1.62,0-3.25,0-4.88s0-3.27,0-4.91,0-3.29,0-4.94c0-1.65,0-3.31,0-4.97s0-3.33,0-5.01c0-1.67,0-3.35,0-5.04s0-3.38,0-5.07,0-3.4,0-5.11c0-1.71,0-3.42,0-5.14s0-3.45,0-5.18,0-3.47,0-5.22c0-1.75,0-3.5,0-5.26,0-1.76,0-3.52,0-5.3,0-1.77,0-3.55,0-5.34s0-3.58,0-5.38c0-1.8,0-3.61,0-5.42,0-1.81,0-3.64,0-5.46s0-3.67,0-5.51c0-1.84,0-3.7,0-5.55,0-1.86,0-3.73,0-5.6,0-1.88,0-3.76,0-5.65s0-3.79,0-5.7c0-1.91,0-3.82,0-5.75s0-3.86,0-5.8c0-1.94,0-3.89,0-5.85,0-1.96,0-3.93,0-5.9,0-1.98,0-3.96,0-5.96h-68.02c0,1.99,0,3.97,0,5.95,0,1.97,0,3.94,0,5.9s0,3.91,0,5.85c0,1.94,0,3.87,0,5.79s0,3.84,0,5.75c0,1.91,0,3.81,0,5.7,0,1.89,0,3.77,0,5.65s0,3.74,0,5.6c0,1.86,0,3.71,0,5.56s0,3.68,0,5.51c0,1.83,0,3.65,0,5.47,0,1.82,0,3.62,0,5.43s0,3.6,0,5.38c0,1.79,0,3.57,0,5.34,0,1.77,0,3.54,0,5.3s0,3.52,0,5.26c0,1.75,0,3.49,0,5.23,0,1.74,0,3.47,0,5.19,0,1.72,0,3.44,0,5.15s0,3.42,0,5.12,0,3.39,0,5.08c0,1.69,0,3.37,0,5.05,0,1.68,0,3.35,0,5.02,0,1.67,0,3.33,0,4.99,0,1.66,0,3.31,0,4.96,0,1.65,0,3.29,0,4.93s0,3.27,0,4.9,0,3.25,0,4.87c0,1.62,0,3.23,0,4.84s0,3.22,0,4.82c0,1.6,0,3.2,0,4.79,0,1.59,0,3.18,0,4.77,0,1.59,0,3.17,0,4.75,0,1.58,0,3.15,0,4.72,0,1.57,0,3.14,0,4.7,0,1.56,0,3.12,0,4.68,0,1.56,0,3.11,0,4.66,0,1.55,0,3.1,0,4.65,0,1.55,0,3.09,0,4.63,0,1.54,0,3.08,0,4.61,0,1.53,0,3.07,0,4.6,0,1.53,0,3.06,0,4.58,0,1.53,0,3.05,0,4.57s0,3.04,0,4.56c0,1.52,0,3.03,0,4.55,0,1.51,0,3.03,0,4.54s0,3.02,0,4.53,0,3.01,0,4.52c0,1.5,0,3.01,0,4.51,0,1.5,0,3,0,4.5,0,1.5,0,3,0,4.5,0,1.5,0,3,0,4.49,0,1.5,0,2.99,0,4.49,0,1.5,0,2.99,0,4.49,0,1.49,0,2.99,0,4.48,0,1.49,0,2.99,0,4.48,0,1.49,0,2.99,0,4.48,0,1.49,0,2.99,0,4.48,0,1.49,0,2.99,0,4.49,0,1.5,0,2.99,0,4.49,0,1.5,0,2.99,0,4.49,0,1.5,0,3,0,4.5,0,1.5,0,3,0,4.5,0,1.5,0,3,0,4.51,0,1.5,0,3.01,0,4.52,0,1.51,0,3.02,0,4.53,0,1.51,0,3.02,0,4.54,0,1.51,0,3.03,0,4.55,0,1.52,0,3.04,0,4.56,0,1.52,0,3.04,0,4.57,0,1.53,0,3.05,0,4.58,0,1.53,0,3.06,0,4.6,0,1.53,0,3.07,0,4.61,0,1.54,0,3.08,0,4.63,0,1.55,0,3.09,0,4.65,0,1.55,0,3.11,0,4.66s0,3.12,0,4.68c0,1.56,0,3.13,0,4.7,0,1.57,0,3.15,0,4.72,0,1.58,0,3.16,0,4.75,0,1.59,0,3.18,0,4.77,0,1.59,0,3.19,0,4.79,0,1.6,0,3.21,0,4.82,0,1.61,0,3.22,0,4.84,0,1.62,0,3.24,0,4.87,0,1.63,0,3.26,0,4.9,0,1.64,0,3.28,0,4.93,0,1.65,0,3.3,0,4.96s0,3.32,0,4.99,0,3.34,0,5.02c0,1.68,0,3.36,0,5.05,0,1.69,0,3.38,0,5.08,0,1.7,0,3.41,0,5.12,0,1.71,0,3.43,0,5.15s0,3.45,0,5.19,0,3.48,0,5.23c0,1.75,0,3.5,0,5.26,0,1.76,0,3.53,0,5.3s0,3.55,0,5.34,0,3.58,0,5.38c0,1.8,0,3.61,0,5.43s0,3.64,0,5.47c0,1.83,0,3.67,0,5.51,0,1.84,0,3.7,0,5.56s0,3.73,0,5.6,0,3.76,0,5.65c0,1.89,0,3.79,0,5.7s0,3.82,0,5.75c0,1.92,0,3.85,0,5.79,0,1.94,0,3.89,0,5.85,0,1.96,0,3.92,0,5.9,0,1.97,0,3.96,0,5.95,1.94-.4,3.82-.79,5.63-1.17s3.57-.74,5.27-1.09c1.7-.35,3.36-.7,4.98-1.03,1.62-.33,3.19-.66,4.74-.98,1.55-.32,3.06-.63,4.56-.94,1.5-.31,2.97-.62,4.44-.92,1.47-.3,2.92-.61,4.38-.91,1.46-.3,2.91-.6,4.38-.91s2.94-.61,4.44-.92c1.5-.31,3.01-.62,4.56-.94,1.55-.32,3.12-.65,4.74-.98s3.27-.68,4.98-1.03c1.71-.35,3.46-.72,5.27-1.09s3.69-.76,5.63-1.17Z"/>
      <path class="cls-2" d="M430.63,605.67c0-1.99,0-3.96,0-5.92s0-3.91,0-5.85c0-1.94,0-3.86,0-5.78s0-3.82,0-5.71c0-1.89,0-3.77,0-5.64,0-1.87,0-3.73,0-5.58,0-1.85,0-3.69,0-5.51,0-1.83,0-3.64,0-5.45,0-1.81,0-3.6,0-5.39,0-1.79,0-3.57,0-5.33,0-1.77,0-3.53,0-5.28,0-1.75,0-3.49,0-5.22,0-1.73,0-3.46,0-5.17,0-1.72,0-3.42,0-5.12,0-1.7,0-3.39,0-5.07,0-1.68,0-3.36,0-5.03,0-1.67,0-3.33,0-4.98s0-3.3,0-4.94c0-1.64,0-3.27,0-4.9,0-1.63,0-3.25,0-4.86,0-1.61,0-3.22,0-4.82,0-1.6,0-3.2,0-4.79,0-1.59,0-3.17,0-4.75,0-1.58,0-3.15,0-4.72,0-1.57,0-3.13,0-4.69,0-1.56,0-3.11,0-4.66,0-1.55,0-3.1,0-4.64,0-1.54,0-3.08,0-4.61s0-3.06,0-4.59c0-1.53,0-3.05,0-4.57,0-1.52,0-3.04,0-4.55,0-1.51,0-3.03,0-4.54,0-1.51,0-3.02,0-4.52,0-1.5,0-3.01,0-4.51,0-1.5,0-3,0-4.5,0-1.5,0-2.99,0-4.49,0-1.49,0-2.99,0-4.48,0-1.49,0-2.98,0-4.47,0-1.49,0-2.98,0-4.47,0-1.49,0-2.98,0-4.47,0-1.49,0-2.98,0-4.47,0-1.49,0-2.98,0-4.47,0-1.49,0-2.98,0-4.47,0-1.49,0-2.99,0-4.48,0-1.49,0-2.99,0-4.49,0-1.5,0-3,0-4.5,0-1.5,0-3,0-4.51,0-1.5,0-3.01,0-4.52,0-1.51,0-3.02,0-4.54,0-1.51,0-3.03,0-4.55,0-1.52,0-3.04,0-4.57,0-1.53,0-3.06,0-4.59,0-1.53,0-3.07,0-4.61,0-1.54,0-3.09,0-4.64,0-1.55,0-3.1,0-4.66,0-1.56,0-3.12,0-4.69,0-1.57,0-3.14,0-4.72,0-1.58,0-3.16,0-4.75,0-1.59,0-3.19,0-4.79s0-3.21,0-4.82c0-1.61,0-3.23,0-4.86,0-1.63,0-3.26,0-4.9,0-1.64,0-3.29,0-4.94,0-1.65,0-3.31,0-4.98,0-1.67,0-3.34,0-5.03,0-1.68,0-3.37,0-5.07s0-3.41,0-5.12c0-1.72,0-3.44,0-5.17,0-1.73,0-3.47,0-5.22s0-3.51,0-5.28,0-3.55,0-5.33c0-1.79,0-3.58,0-5.39s0-3.62,0-5.45c0-1.83,0-3.67,0-5.51,0-1.85,0-3.71,0-5.58s0-3.75,0-5.64c0-1.89,0-3.79,0-5.71,0-1.91,0-3.84,0-5.78,0-1.94,0-3.89,0-5.85s0-3.94,0-5.92c1.83-.09,3.53-.17,5.13-.25,1.6-.08,3.12-.15,4.57-.22s2.86-.14,4.24-.21c1.38-.07,2.74-.13,4.12-.2,1.38-.07,2.78-.14,4.24-.21,1.46-.07,2.97-.15,4.57-.22,1.61-.08,3.3-.16,5.13-.25,0-1.95,0-3.87,0-5.75,0-1.88,0-3.72,0-5.53,0-1.81,0-3.59,0-5.33,0-1.75,0-3.46,0-5.16,0-1.69,0-3.36,0-5,0-1.64,0-3.26,0-4.86s0-3.17,0-4.73c0-1.56,0-3.1,0-4.63s0-3.04,0-4.55c0-1.5,0-3,0-4.48,0-1.48,0-2.96,0-4.43,0-1.47,0-2.94,0-4.41,0-1.47,0-2.93,0-4.4,0-1.47,0-2.93,0-4.41,0-1.47,0-2.95,0-4.43,0-1.48,0-2.98,0-4.48,0-1.5,0-3.02,0-4.55,0-1.53,0-3.07,0-4.63,0-1.56,0-3.14,0-4.73,0-1.6,0-3.21,0-4.86,0-1.64,0-3.31,0-5,0-1.69,0-3.41,0-5.16s0-3.52,0-5.33,0-3.65,0-5.53c0-1.88,0-3.79,0-5.75h-132.62c0,1.98,0,3.92,0,5.82,0,1.91,0,3.78,0,5.61,0,1.84,0,3.64,0,5.42,0,1.78,0,3.52,0,5.24s0,3.42,0,5.09c0,1.67,0,3.32,0,4.95s0,3.23,0,4.82c0,1.59,0,3.16,0,4.72s0,3.1,0,4.63c0,1.53,0,3.05,0,4.56s0,3.01,0,4.51,0,2.99,0,4.47,0,2.97,0,4.45c0,1.48,0,2.97,0,4.45,0,1.49,0,2.98,0,4.47s0,3,0,4.51c0,1.51,0,3.03,0,4.56s0,3.07,0,4.63,0,3.13,0,4.72,0,3.2,0,4.82c0,1.63,0,3.28,0,4.95,0,1.67,0,3.37,0,5.09,0,1.72,0,3.47,0,5.25,0,1.78,0,3.58,0,5.42,0,1.84,0,3.71,0,5.61,0,1.91,0,3.85,0,5.82,1.83-.09,3.53-.17,5.13-.25,1.6-.08,3.12-.15,4.57-.22,1.46-.07,2.86-.14,4.24-.21s2.74-.13,4.12-.2c1.38-.07,2.78-.14,4.24-.21,1.46-.07,2.97-.15,4.57-.22,1.6-.08,3.3-.16,5.13-.25,0,1.99,0,3.97,0,5.93,0,1.97,0,3.92,0,5.86,0,1.94,0,3.87,0,5.79,0,1.92,0,3.83,0,5.73,0,1.9,0,3.79,0,5.66,0,1.88,0,3.74,0,5.6s0,3.7,0,5.54c0,1.83,0,3.66,0,5.48,0,1.82,0,3.62,0,5.42,0,1.8,0,3.58,0,5.36,0,1.78,0,3.55,0,5.3,0,1.76,0,3.51,0,5.25,0,1.74,0,3.48,0,5.2s0,3.44,0,5.15c0,1.71,0,3.41,0,5.1,0,1.69,0,3.38,0,5.06,0,1.68,0,3.35,0,5.01s0,3.32,0,4.97,0,3.29,0,4.93c0,1.64,0,3.27,0,4.89s0,3.24,0,4.85c0,1.61,0,3.22,0,4.82,0,1.6,0,3.19,0,4.78s0,3.17,0,4.75c0,1.58,0,3.15,0,4.72s0,3.13,0,4.69c0,1.56,0,3.11,0,4.67,0,1.55,0,3.1,0,4.64,0,1.54,0,3.08,0,4.62s0,3.07,0,4.6c0,1.53,0,3.05,0,4.58,0,1.52,0,3.04,0,4.56s0,3.03,0,4.54c0,1.51,0,3.02,0,4.53s0,3.01,0,4.52c0,1.5,0,3.01,0,4.51,0,1.5,0,3,0,4.5s0,2.99,0,4.49c0,1.5,0,2.99,0,4.48,0,1.49,0,2.99,0,4.48s0,2.99,0,4.48,0,2.99,0,4.48c0,1.49,0,2.99,0,4.48s0,2.99,0,4.48c0,1.5,0,2.99,0,4.49,0,1.5,0,3,0,4.5s0,3,0,4.51,0,3.01,0,4.52c0,1.51,0,3.02,0,4.53s0,3.03,0,4.54c0,1.52,0,3.04,0,4.56s0,3.05,0,4.58,0,3.06,0,4.6c0,1.54,0,3.07,0,4.62,0,1.54,0,3.09,0,4.64,0,1.55,0,3.11,0,4.67,0,1.56,0,3.12,0,4.69,0,1.57,0,3.14,0,4.72,0,1.58,0,3.16,0,4.75,0,1.59,0,3.18,0,4.78s0,3.2,0,4.82c0,1.61,0,3.23,0,4.85s0,3.25,0,4.89c0,1.64,0,3.28,0,4.93,0,1.65,0,3.31,0,4.97,0,1.66,0,3.33,0,5.01s0,3.36,0,5.06c0,1.69,0,3.39,0,5.1,0,1.71,0,3.43,0,5.15,0,1.72,0,3.46,0,5.2,0,1.74,0,3.49,0,5.25s0,3.53,0,5.3,0,3.56,0,5.36c0,1.8,0,3.6,0,5.42,0,1.82,0,3.64,0,5.47,0,1.83,0,3.68,0,5.54,0,1.86,0,3.72,0,5.6,0,1.88,0,3.76,0,5.66,0,1.9,0,3.81,0,5.73,0,1.92,0,3.85,0,5.79,0,1.94,0,3.9,0,5.86,0,1.97,0,3.94,0,5.93,1.83-.38,3.6-.75,5.31-1.1s3.38-.7,4.99-1.03c1.62-.34,3.19-.66,4.73-.98,1.54-.32,3.04-.63,4.51-.93s2.91-.6,4.34-.9c1.42-.29,2.82-.58,4.21-.87,1.39-.29,2.77-.57,4.14-.86,1.37-.28,2.74-.57,4.12-.85s2.75-.57,4.14-.86c1.39-.29,2.79-.58,4.21-.87,1.42-.29,2.86-.59,4.34-.9s2.97-.62,4.51-.93c1.54-.32,3.11-.64,4.73-.98,1.62-.33,3.28-.68,4.99-1.03s3.48-.72,5.31-1.1Z"/>
      <path class="cls-2" d="M504.35,590.4c.13-1.96.26-3.87.39-5.73s.25-3.68.37-5.45.24-3.51.35-5.21.23-3.36.34-4.99c.11-1.63.22-3.23.33-4.81.11-1.58.21-3.13.32-4.66.1-1.53.21-3.05.31-4.55.1-1.5.2-2.99.3-4.47.1-1.48.2-2.95.3-4.42.1-1.47.2-2.93.3-4.4s.2-2.94.3-4.42.2-2.96.3-4.46c.1-1.5.2-3.01.31-4.54s.21-3.08.32-4.66c.11-1.57.22-3.17.33-4.8.11-1.63.22-3.29.34-4.98.12-1.69.23-3.42.35-5.19s.24-3.58.37-5.43.26-3.75.39-5.7c1.8-.3,3.46-.59,5.04-.85,1.58-.27,3.06-.52,4.49-.76,1.43-.24,2.8-.48,4.16-.71,1.36-.23,2.69-.46,4.05-.69s2.73-.46,4.16-.71c1.43-.24,2.91-.49,4.49-.76,1.58-.27,3.24-.55,5.04-.85.13,1.99.26,3.92.39,5.8s.25,3.71.37,5.5c.12,1.79.24,3.53.35,5.24s.23,3.38.34,5.02c.11,1.64.22,3.25.32,4.84.11,1.58.21,3.15.31,4.69s.21,3.06.31,4.58.2,3.01.3,4.5c.1,1.49.2,2.98.3,4.46.1,1.49.2,2.97.3,4.46.1,1.49.2,2.99.3,4.5.1,1.51.2,3.03.31,4.57s.21,3.1.31,4.68c.11,1.58.21,3.19.32,4.82.11,1.64.22,3.3.34,5.01s.23,3.44.35,5.22c.12,1.78.24,3.61.37,5.48s.25,3.79.39,5.77c1.87-.39,3.69-.76,5.44-1.13,1.76-.36,3.46-.72,5.12-1.06,1.66-.34,3.27-.68,4.84-1,1.57-.33,3.11-.64,4.62-.96s2.99-.62,4.44-.92c1.46-.3,2.9-.6,4.32-.89,1.42-.3,2.84-.59,4.24-.88,1.41-.29,2.81-.58,4.22-.87,1.41-.29,2.82-.58,4.24-.88s2.86-.59,4.32-.89c1.46-.3,2.94-.61,4.44-.92s3.04-.63,4.62-.96,3.19-.66,4.84-1c1.66-.34,3.36-.7,5.12-1.06,1.76-.36,3.57-.74,5.44-1.13-.15-1.96-.31-3.9-.46-5.84-.15-1.94-.31-3.86-.46-5.78-.15-1.92-.3-3.82-.45-5.72-.15-1.9-.3-3.79-.45-5.67-.15-1.88-.3-3.75-.44-5.62s-.29-3.72-.44-5.56c-.15-1.85-.29-3.68-.44-5.51-.14-1.83-.29-3.65-.43-5.46-.14-1.81-.29-3.62-.43-5.41-.14-1.8-.28-3.59-.42-5.37-.14-1.78-.28-3.55-.42-5.32-.14-1.77-.28-3.52-.42-5.28-.14-1.75-.28-3.5-.41-5.23s-.27-3.47-.41-5.19-.27-3.44-.41-5.15-.27-3.41-.4-5.11c-.13-1.7-.27-3.39-.4-5.07s-.26-3.36-.4-5.03c-.13-1.67-.26-3.34-.39-4.99s-.26-3.31-.39-4.96c-.13-1.65-.26-3.29-.39-4.93-.13-1.64-.26-3.27-.38-4.89s-.25-3.25-.38-4.86c-.13-1.61-.25-3.23-.38-4.83s-.25-3.21-.38-4.8-.25-3.19-.37-4.77c-.12-1.59-.25-3.17-.37-4.75-.12-1.58-.25-3.15-.37-4.72-.12-1.57-.25-3.13-.37-4.7-.12-1.56-.24-3.12-.37-4.67-.12-1.55-.24-3.1-.36-4.65-.12-1.55-.24-3.09-.36-4.63-.12-1.54-.24-3.08-.36-4.61-.12-1.53-.24-3.07-.36-4.59-.12-1.53-.24-3.05-.36-4.58-.12-1.52-.24-3.04-.36-4.56s-.24-3.03-.36-4.55c-.12-1.51-.24-3.02-.35-4.53-.12-1.51-.24-3.02-.35-4.52-.12-1.51-.24-3.01-.35-4.51-.12-1.5-.23-3-.35-4.5-.12-1.5-.23-3-.35-4.49-.12-1.5-.23-2.99-.35-4.49-.12-1.49-.23-2.99-.35-4.48s-.23-2.99-.35-4.48c-.12-1.49-.23-2.98-.35-4.47s-.23-2.98-.35-4.47-.23-2.98-.35-4.47c-.12-1.49-.23-2.98-.35-4.47-.12-1.49-.23-2.98-.35-4.47-.12-1.49-.23-2.98-.35-4.48s-.23-2.99-.35-4.48c-.12-1.49-.23-2.99-.35-4.49-.12-1.5-.23-3-.35-4.49-.12-1.5-.23-3-.35-4.5-.12-1.5-.23-3.01-.35-4.51-.12-1.51-.23-3.01-.35-4.52-.12-1.51-.23-3.02-.35-4.54-.12-1.51-.24-3.03-.35-4.55s-.24-3.04-.35-4.56c-.12-1.52-.24-3.05-.36-4.58s-.24-3.06-.36-4.6-.24-3.07-.36-4.62c-.12-1.54-.24-3.09-.36-4.64-.12-1.55-.24-3.1-.36-4.66s-.24-3.12-.36-4.68c-.12-1.56-.24-3.13-.36-4.7-.12-1.57-.24-3.15-.37-4.73-.12-1.58-.25-3.17-.37-4.75s-.25-3.18-.37-4.78c-.12-1.6-.25-3.2-.37-4.81s-.25-3.22-.37-4.84c-.13-1.62-.25-3.24-.38-4.87s-.25-3.26-.38-4.91c-.13-1.64-.25-3.29-.38-4.94-.13-1.65-.26-3.31-.38-4.98-.13-1.66-.26-3.34-.39-5.01-.13-1.68-.26-3.36-.39-5.05-.13-1.69-.26-3.39-.39-5.09-.13-1.7-.26-3.41-.4-5.13-.13-1.72-.27-3.44-.4-5.17s-.27-3.47-.4-5.22c-.13-1.75-.27-3.5-.41-5.26-.14-1.76-.27-3.53-.41-5.31-.14-1.78-.27-3.56-.41-5.35-.14-1.79-.28-3.59-.42-5.4-.14-1.81-.28-3.63-.42-5.45-.14-1.83-.28-3.66-.42-5.5-.14-1.84-.28-3.7-.43-5.56-.14-1.86-.29-3.73-.43-5.61-.14-1.88-.29-3.77-.44-5.67-.15-1.9-.29-3.81-.44-5.72-.15-1.92-.3-3.84-.44-5.78s-.3-3.88-.45-5.84-.3-3.92-.45-5.9c-.15-1.98-.3-3.96-.46-5.96-.15-2-.31-4.01-.46-6.03h-93.46c-.15,1.96-.3,3.91-.44,5.85-.15,1.94-.29,3.87-.44,5.79-.15,1.92-.29,3.84-.44,5.74-.14,1.91-.29,3.8-.43,5.69-.14,1.89-.29,3.77-.43,5.64-.14,1.87-.28,3.74-.42,5.59-.14,1.86-.28,3.7-.42,5.54s-.28,3.67-.42,5.5-.28,3.64-.41,5.45c-.14,1.81-.27,3.61-.41,5.4-.14,1.79-.27,3.58-.41,5.36-.13,1.78-.27,3.55-.4,5.32-.13,1.77-.27,3.52-.4,5.28s-.26,3.5-.4,5.23-.26,3.47-.39,5.2c-.13,1.73-.26,3.44-.39,5.16s-.26,3.42-.39,5.12c-.13,1.7-.26,3.39-.38,5.08s-.25,3.37-.38,5.05c-.13,1.68-.25,3.35-.38,5.01-.13,1.67-.25,3.32-.38,4.98s-.25,3.3-.37,4.95c-.12,1.64-.25,3.28-.37,4.91s-.25,3.26-.37,4.88c-.12,1.62-.24,3.24-.37,4.86-.12,1.61-.24,3.22-.36,4.83-.12,1.6-.24,3.2-.36,4.8s-.24,3.19-.36,4.77-.24,3.17-.36,4.75c-.12,1.58-.24,3.15-.36,4.73-.12,1.57-.24,3.14-.35,4.7-.12,1.56-.24,3.12-.35,4.68s-.23,3.11-.35,4.66c-.12,1.55-.23,3.1-.35,4.64-.12,1.54-.23,3.08-.35,4.62-.12,1.54-.23,3.07-.35,4.6-.12,1.53-.23,3.06-.35,4.59-.11,1.53-.23,3.05-.34,4.57-.11,1.52-.23,3.04-.34,4.56s-.23,3.03-.34,4.55c-.11,1.51-.23,3.02-.34,4.53-.11,1.51-.23,3.02-.34,4.52-.11,1.51-.23,3.01-.34,4.51s-.23,3-.34,4.5c-.11,1.5-.22,3-.34,4.5-.11,1.5-.22,2.99-.34,4.49-.11,1.5-.22,2.99-.34,4.49-.11,1.49-.22,2.99-.34,4.48-.11,1.49-.22,2.99-.34,4.48-.11,1.49-.22,2.98-.34,4.48-.11,1.49-.22,2.98-.34,4.47-.11,1.49-.22,2.98-.33,4.48-.11,1.49-.22,2.98-.33,4.48-.11,1.49-.22,2.99-.34,4.48-.11,1.49-.22,2.99-.34,4.48-.11,1.49-.22,2.99-.34,4.49-.11,1.5-.22,2.99-.34,4.49-.11,1.5-.22,3-.34,4.5-.11,1.5-.22,3-.34,4.51s-.22,3.01-.34,4.52c-.11,1.51-.23,3.02-.34,4.53s-.23,3.02-.34,4.54-.23,3.03-.34,4.55c-.11,1.52-.23,3.04-.34,4.56-.11,1.52-.23,3.05-.34,4.58s-.23,3.06-.34,4.59c-.11,1.53-.23,3.07-.34,4.61s-.23,3.08-.34,4.63c-.11,1.55-.23,3.09-.35,4.65-.12,1.55-.23,3.11-.35,4.67-.12,1.56-.23,3.12-.35,4.69-.12,1.57-.23,3.14-.35,4.71s-.23,3.15-.35,4.73c-.12,1.58-.24,3.17-.35,4.76-.12,1.59-.24,3.18-.36,4.78-.12,1.6-.24,3.2-.36,4.81-.12,1.61-.24,3.22-.36,4.84-.12,1.62-.24,3.24-.36,4.87-.12,1.63-.24,3.26-.36,4.9-.12,1.64-.24,3.28-.37,4.93-.12,1.65-.25,3.3-.37,4.96-.12,1.66-.25,3.32-.37,5-.12,1.67-.25,3.35-.37,5.03-.12,1.68-.25,3.37-.38,5.07-.13,1.69-.25,3.4-.38,5.1-.13,1.71-.25,3.42-.38,5.14-.13,1.72-.26,3.45-.38,5.18s-.26,3.47-.39,5.22-.26,3.5-.39,5.26c-.13,1.76-.26,3.53-.39,5.31s-.26,3.56-.4,5.35c-.13,1.79-.27,3.59-.4,5.4-.13,1.81-.27,3.62-.4,5.44s-.27,3.65-.41,5.49-.27,3.68-.41,5.54c-.14,1.85-.27,3.72-.41,5.59-.14,1.87-.28,3.75-.42,5.64-.14,1.89-.28,3.79-.42,5.69-.14,1.91-.28,3.82-.42,5.74-.14,1.92-.28,3.86-.43,5.8s-.29,3.89-.43,5.85c-.14,1.96-.29,3.93-.44,5.91-.15,1.98-.29,3.97-.44,5.97-.15,2-.3,4.01-.44,6.03,1.86-.38,3.64-.75,5.35-1.11,1.72-.36,3.37-.7,4.97-1.03,1.6-.33,3.15-.65,4.66-.96,1.51-.31,2.98-.62,4.42-.92,1.44-.3,2.86-.59,4.27-.88s2.8-.58,4.19-.87c1.39-.29,2.79-.58,4.19-.87,1.41-.29,2.82-.59,4.27-.88,1.44-.3,2.91-.6,4.42-.92s3.06-.63,4.66-.96c1.6-.33,3.25-.67,4.97-1.03,1.72-.36,3.5-.72,5.35-1.11ZM525.88,243.7c.57-.04.86-.06,1.43-.09.11,1.97.23,3.91.34,5.81s.22,3.79.33,5.64c.11,1.85.21,3.68.32,5.48s.21,3.57.31,5.33c.1,1.75.2,3.48.3,5.19.1,1.71.2,3.39.29,5.06.1,1.67.19,3.31.29,4.94.09,1.63.19,3.24.28,4.84.09,1.6.18,3.18.27,4.74.09,1.57.18,3.12.27,4.66.09,1.54.18,3.07.27,4.59.09,1.52.18,3.03.26,4.53.09,1.5.17,3,.26,4.49.09,1.49.17,2.97.26,4.45s.17,2.95.26,4.43.17,2.94.26,4.42c.09,1.47.17,2.94.26,4.41.09,1.47.17,2.95.26,4.42s.17,2.96.26,4.45c.09,1.49.17,2.98.26,4.48.09,1.5.17,3.01.26,4.53.09,1.52.18,3.04.27,4.58.09,1.54.18,3.09.27,4.65.09,1.56.18,3.14.27,4.73.09,1.59.19,3.2.28,4.82s.19,3.26.29,4.92.19,3.34.29,5.03.2,3.42.3,5.16c.1,1.74.2,3.51.31,5.3.1,1.79.21,3.6.32,5.44.11,1.84.22,3.71.33,5.6.11,1.9.22,3.82.34,5.77-1.6.21-3.04.4-4.38.57-1.34.18-2.59.34-3.81.5-1.22.16-2.4.31-3.62.47-1.22.16-2.46.32-3.81.5-1.34.18-2.78.36-4.38.57.12-2,.24-3.97.35-5.91s.23-3.85.34-5.73.22-3.74.33-5.57.22-3.63.32-5.41c.11-1.78.21-3.54.31-5.27.1-1.73.2-3.45.3-5.14.1-1.69.2-3.37.3-5.02.1-1.66.2-3.29.29-4.92.1-1.62.19-3.23.29-4.82.09-1.59.19-3.17.28-4.74.09-1.57.19-3.12.28-4.67.09-1.54.18-3.08.27-4.61s.18-3.05.27-4.56c.09-1.51.18-3.02.27-4.52.09-1.5.18-3,.27-4.5.09-1.5.18-2.99.27-4.49.09-1.49.18-2.99.27-4.49.09-1.5.18-2.99.27-4.5s.18-3.01.27-4.52c.09-1.51.18-3.03.27-4.55s.18-3.06.27-4.6.18-3.09.28-4.66c.09-1.56.19-3.14.28-4.72.09-1.59.19-3.19.29-4.8.1-1.62.19-3.25.29-4.9.1-1.65.2-3.31.3-5,.1-1.69.2-3.39.3-5.12.1-1.73.21-3.47.31-5.24.11-1.77.21-3.56.32-5.38.11-1.82.22-3.66.33-5.53s.22-3.77.34-5.69.23-3.88.35-5.86Z"/>
      <path class="cls-2" d="M676.92,554.65c0-1.96,0-3.86,0-5.72,0-1.86,0-3.68,0-5.46s0-3.52,0-5.23c0-1.71,0-3.38,0-5.02,0-1.64,0-3.26,0-4.84,0-1.59,0-3.15,0-4.7s0-3.07,0-4.58c0-1.51,0-3.01,0-4.49s0-2.96,0-4.43c0-1.47,0-2.94,0-4.4s0-2.93,0-4.4,0-2.95,0-4.43,0-2.98,0-4.49,0-3.04,0-4.58c0-1.54,0-3.11,0-4.7,0-1.59,0-3.2,0-4.84s0-3.31,0-5.02,0-3.45,0-5.23c0-1.78,0-3.6,0-5.46,0-1.86,0-3.77,0-5.72-.02-1.98-.03-3.91-.05-5.79-.02-1.88-.03-3.73-.05-5.53-.01-1.8-.03-3.56-.04-5.29-.01-1.73-.03-3.42-.04-5.08s-.03-3.3-.04-4.9-.03-3.19-.04-4.76c-.01-1.56-.03-3.11-.04-4.64-.01-1.53-.03-3.04-.04-4.55-.01-1.5-.02-3-.04-4.49-.01-1.49-.02-2.97-.04-4.46-.01-1.48-.02-2.97-.04-4.46s-.02-2.98-.04-4.49-.02-3.02-.04-4.55c-.01-1.53-.03-3.07-.04-4.64-.01-1.56-.03-3.15-.04-4.76-.01-1.61-.03-3.24-.04-4.91s-.03-3.36-.04-5.08-.03-3.49-.04-5.29-.03-3.64-.05-5.53c-.02-1.89-.03-3.82-.05-5.8.46-.05.69-.08,1.14-.14.35,1.95.7,3.85,1.04,5.7.34,1.85.66,3.65.98,5.41.32,1.76.63,3.47.94,5.15s.6,3.32.9,4.93c.29,1.61.58,3.19.86,4.75.28,1.56.56,3.09.84,4.6s.55,3.01.82,4.49c.27,1.48.54,2.95.81,4.41.27,1.46.53,2.92.8,4.37.27,1.46.53,2.91.8,4.37.27,1.46.54,2.93.81,4.4.27,1.48.54,2.97.82,4.47.28,1.51.55,3.03.84,4.58.28,1.55.57,3.12.86,4.72s.59,3.23.9,4.89c.31,1.66.62,3.36.94,5.1.32,1.74.65,3.52.98,5.35.34,1.83.68,3.7,1.04,5.63.42,1.95.84,3.86,1.24,5.73.4,1.86.8,3.68,1.19,5.47.39,1.78.77,3.53,1.14,5.24.37,1.71.74,3.39,1.09,5.03.36,1.65.71,3.26,1.06,4.85.35,1.59.69,3.16,1.03,4.7.34,1.55.67,3.07,1,4.58.33,1.51.66,3,.98,4.48.32,1.48.64,2.95.96,4.41.32,1.46.64,2.92.96,4.37.32,1.45.64,2.9.95,4.35.32,1.45.64,2.9.96,4.36.32,1.46.64,2.92.96,4.4s.65,2.96.98,4.46c.33,1.5.66,3.01,1,4.55.34,1.53.68,3.09,1.03,4.66.35,1.58.7,3.17,1.06,4.8.36,1.63.72,3.28,1.09,4.97.37,1.69.75,3.4,1.14,5.16.39,1.75.78,3.54,1.19,5.37.4,1.83.82,3.7,1.24,5.61,1.83-.38,3.59-.74,5.29-1.09,1.7-.35,3.34-.69,4.93-1.02,1.59-.33,3.13-.65,4.64-.96,1.5-.31,2.97-.62,4.41-.91,1.44-.3,2.85-.59,4.25-.88,1.4-.29,2.78-.57,4.15-.86,1.37-.28,2.74-.57,4.12-.85,1.37-.28,2.75-.57,4.15-.86s2.81-.58,4.25-.88c1.44-.3,2.91-.6,4.41-.91s3.05-.63,4.64-.96c1.59-.33,3.23-.67,4.93-1.02,1.7-.35,3.46-.72,5.29-1.09,0-2,0-3.98,0-5.96,0-1.98,0-3.94,0-5.9s0-3.9,0-5.83,0-3.86,0-5.77c0-1.91,0-3.82,0-5.71,0-1.89,0-3.78,0-5.65s0-3.74,0-5.59,0-3.7,0-5.54c0-1.84,0-3.66,0-5.48,0-1.82,0-3.63,0-5.43s0-3.59,0-5.38,0-3.56,0-5.33,0-3.53,0-5.28,0-3.49,0-5.23,0-3.46,0-5.18c0-1.72,0-3.43,0-5.14,0-1.71,0-3.4,0-5.1,0-1.69,0-3.38,0-5.06,0-1.68,0-3.35,0-5.01,0-1.67,0-3.32,0-4.98,0-1.65,0-3.3,0-4.94,0-1.64,0-3.28,0-4.9,0-1.63,0-3.25,0-4.87,0-1.62,0-3.23,0-4.84s0-3.21,0-4.81c0-1.6,0-3.19,0-4.78,0-1.59,0-3.17,0-4.75,0-1.58,0-3.15,0-4.72,0-1.57,0-3.14,0-4.7,0-1.56,0-3.12,0-4.67,0-1.55,0-3.1,0-4.65,0-1.55,0-3.09,0-4.63,0-1.54,0-3.08,0-4.61s0-3.06,0-4.59c0-1.53,0-3.05,0-4.58,0-1.52,0-3.04,0-4.56,0-1.52,0-3.03,0-4.55,0-1.51,0-3.03,0-4.54,0-1.51,0-3.02,0-4.53,0-1.51,0-3.01,0-4.52,0-1.5,0-3.01,0-4.51,0-1.5,0-3,0-4.5,0-1.5,0-3,0-4.5,0-1.5,0-3,0-4.5,0-1.5,0-3,0-4.5,0-1.5,0-3,0-4.5,0-1.5,0-3,0-4.5,0-1.5,0-3,0-4.5,0-1.5,0-3,0-4.5,0-1.5,0-3.01,0-4.51,0-1.5,0-3.01,0-4.52,0-1.51,0-3.02,0-4.53,0-1.51,0-3.02,0-4.54,0-1.51,0-3.03,0-4.55s0-3.04,0-4.56c0-1.52,0-3.05,0-4.58,0-1.53,0-3.06,0-4.59,0-1.53,0-3.07,0-4.61,0-1.54,0-3.08,0-4.63,0-1.55,0-3.1,0-4.65,0-1.55,0-3.11,0-4.67,0-1.56,0-3.13,0-4.7,0-1.57,0-3.14,0-4.72,0-1.58,0-3.16,0-4.75,0-1.59,0-3.18,0-4.78,0-1.6,0-3.2,0-4.81,0-1.61,0-3.22,0-4.84,0-1.62,0-3.24,0-4.87s0-3.26,0-4.9c0-1.64,0-3.29,0-4.94s0-3.31,0-4.98c0-1.67,0-3.34,0-5.01s0-3.36,0-5.05c0-1.69,0-3.39,0-5.1,0-1.71,0-3.42,0-5.14s0-3.45,0-5.18c0-1.74,0-3.48,0-5.23s0-3.51,0-5.28,0-3.54,0-5.33,0-3.58,0-5.38,0-3.61,0-5.43c0-1.82,0-3.64,0-5.48,0-1.84,0-3.68,0-5.54s0-3.72,0-5.59c0-1.87,0-3.76,0-5.65,0-1.89,0-3.8,0-5.71,0-1.91,0-3.84,0-5.77,0-1.93,0-3.88,0-5.83,0-1.95,0-3.92,0-5.9,0-1.98,0-3.96,0-5.96h-52.88c0,1.96,0,3.87,0,5.74,0,1.87,0,3.68,0,5.46,0,1.78,0,3.52,0,5.22,0,1.7,0,3.37,0,5.01,0,1.64,0,3.24,0,4.83,0,1.58,0,3.14,0,4.68,0,1.54,0,3.06,0,4.57s0,3,0,4.48,0,2.96,0,4.43c0,1.47,0,2.94,0,4.42,0,1.47,0,2.95,0,4.43s0,2.98,0,4.48,0,3.03,0,4.57c0,1.54,0,3.1,0,4.68s0,3.19,0,4.83c0,1.64,0,3.3,0,5.01,0,1.7,0,3.44,0,5.22s0,3.6,0,5.46c0,1.87,0,3.78,0,5.74.02,1.89.04,3.73.06,5.51.02,1.79.04,3.52.05,5.22.02,1.69.03,3.35.05,4.96.02,1.62.03,3.2.05,4.75.02,1.55.03,3.07.05,4.57.02,1.5.03,2.97.05,4.43.01,1.46.03,2.9.04,4.33.01,1.43.03,2.85.04,4.27.01,1.42.03,2.83.04,4.25.01,1.42.03,2.84.04,4.27.01,1.43.03,2.87.04,4.33s.03,2.93.04,4.43c.02,1.5.03,3.02.05,4.57.02,1.55.03,3.13.05,4.74s.03,3.27.05,4.96c.02,1.69.03,3.43.05,5.21.02,1.78.04,3.62.06,5.51-.57.04-.86.07-1.43.11-.34-1.92-.67-3.78-1-5.59-.32-1.81-.63-3.57-.94-5.28-.3-1.71-.6-3.38-.89-5.01-.29-1.63-.57-3.23-.85-4.79-.28-1.56-.55-3.1-.82-4.61-.27-1.51-.53-3-.79-4.48-.26-1.48-.52-2.94-.78-4.39-.26-1.45-.51-2.9-.77-4.35s-.51-2.9-.77-4.35-.52-2.92-.78-4.4c-.26-1.48-.53-2.98-.79-4.5s-.54-3.06-.82-4.64c-.28-1.57-.56-3.18-.85-4.82-.29-1.64-.59-3.32-.89-5.05s-.62-3.5-.94-5.33-.65-3.71-1-5.65c-.39-1.91-.78-3.78-1.15-5.6s-.74-3.6-1.1-5.35c-.36-1.74-.71-3.45-1.05-5.12s-.68-3.31-1.01-4.93c-.33-1.61-.66-3.2-.97-4.76-.32-1.56-.63-3.1-.95-4.62-.31-1.52-.62-3.02-.92-4.51-.3-1.49-.61-2.96-.9-4.42-.3-1.46-.6-2.92-.89-4.37s-.59-2.9-.89-4.34-.59-2.89-.89-4.35c-.3-1.45-.59-2.91-.89-4.38s-.6-2.95-.9-4.44c-.3-1.49-.61-3-.92-4.53-.31-1.53-.63-3.08-.95-4.65s-.64-3.17-.98-4.8-.67-3.29-1.01-4.98c-.34-1.69-.69-3.42-1.05-5.19s-.72-3.57-1.1-5.43c-.38-1.85-.76-3.75-1.15-5.69h-64.02c0,1.98,0,3.95,0,5.92s0,3.91,0,5.86c0,1.94,0,3.88,0,5.8s0,3.84,0,5.74c0,1.9,0,3.8,0,5.68,0,1.89,0,3.76,0,5.63s0,3.73,0,5.58c0,1.85,0,3.69,0,5.52s0,3.66,0,5.47,0,3.62,0,5.42c0,1.8,0,3.59,0,5.37s0,3.56,0,5.33c0,1.77,0,3.53,0,5.28s0,3.5,0,5.24c0,1.74,0,3.47,0,5.19s0,3.44,0,5.15,0,3.41,0,5.11c0,1.7,0,3.39,0,5.07,0,1.68,0,3.36,0,5.03,0,1.67,0,3.33,0,4.99,0,1.66,0,3.31,0,4.96,0,1.65,0,3.29,0,4.92s0,3.26,0,4.89c0,1.62,0,3.24,0,4.86,0,1.61,0,3.22,0,4.83,0,1.6,0,3.2,0,4.8,0,1.59,0,3.18,0,4.77s0,3.16,0,4.74c0,1.58,0,3.15,0,4.71,0,1.57,0,3.13,0,4.69,0,1.56,0,3.11,0,4.67,0,1.55,0,3.1,0,4.64,0,1.54,0,3.09,0,4.62,0,1.54,0,3.07,0,4.6,0,1.53,0,3.06,0,4.58,0,1.53,0,3.05,0,4.57,0,1.52,0,3.04,0,4.55,0,1.51,0,3.03,0,4.54,0,1.51,0,3.02,0,4.52,0,1.51,0,3.01,0,4.51,0,1.5,0,3,0,4.5,0,1.5,0,3,0,4.49,0,1.5,0,2.99,0,4.48s0,2.99,0,4.48c0,1.49,0,2.98,0,4.47,0,1.49,0,2.98,0,4.47,0,1.49,0,2.98,0,4.46,0,1.49,0,2.97,0,4.46,0,1.49,0,2.97,0,4.46,0,1.49,0,2.97,0,4.46,0,1.49,0,2.98,0,4.46,0,1.49,0,2.98,0,4.47,0,1.49,0,2.98,0,4.47,0,1.49,0,2.98,0,4.48,0,1.49,0,2.99,0,4.48,0,1.5,0,2.99,0,4.49,0,1.5,0,3,0,4.5,0,1.5,0,3.01,0,4.51,0,1.51,0,3.01,0,4.52,0,1.51,0,3.02,0,4.54,0,1.51,0,3.03,0,4.55,0,1.52,0,3.04,0,4.57,0,1.53,0,3.05,0,4.58,0,1.53,0,3.07,0,4.6,0,1.54,0,3.08,0,4.62,0,1.54,0,3.09,0,4.64,0,1.55,0,3.11,0,4.67,0,1.56,0,3.12,0,4.69,0,1.57,0,3.14,0,4.71,0,1.58,0,3.16,0,4.74,0,1.58,0,3.17,0,4.77,0,1.59,0,3.19,0,4.8,0,1.6,0,3.21,0,4.83s0,3.23,0,4.86c0,1.62,0,3.25,0,4.89,0,1.64,0,3.28,0,4.92,0,1.65,0,3.3,0,4.96,0,1.66,0,3.32,0,4.99s0,3.35,0,5.03c0,1.68,0,3.37,0,5.07,0,1.7,0,3.4,0,5.11,0,1.71,0,3.43,0,5.15s0,3.45,0,5.19c0,1.74,0,3.48,0,5.24s0,3.51,0,5.28,0,3.54,0,5.33,0,3.57,0,5.37,0,3.61,0,5.42,0,3.64,0,5.47,0,3.67,0,5.52c0,1.85,0,3.71,0,5.58s0,3.74,0,5.63,0,3.78,0,5.68c0,1.9,0,3.82,0,5.74,0,1.92,0,3.86,0,5.8,0,1.94,0,3.89,0,5.86s0,3.93,0,5.92c1.92-.4,3.76-.78,5.52-1.14,1.76-.37,3.46-.72,5.09-1.05,1.64-.34,3.22-.67,4.76-.99,1.54-.32,3.04-.63,4.52-.94,1.48-.31,2.93-.61,4.38-.91,1.45-.3,2.88-.6,4.33-.9,1.45-.3,2.9-.6,4.38-.91,1.48-.31,2.98-.62,4.52-.94,1.54-.32,3.12-.65,4.76-.99,1.64-.34,3.33-.69,5.09-1.05,1.76-.37,3.6-.75,5.52-1.14Z"/>
      <path class="cls-2" d="M866.06,515.47c1.18-.24,2.32-.65,3.42-1.2,1.1-.56,2.16-1.27,3.18-2.13,1.02-.87,2-1.89,2.94-3.06.94-1.17,1.84-2.5,2.71-3.99.86-1.48,1.68-3.12,2.47-4.91.56-1.28,1.08-2.59,1.57-3.94.49-1.35.95-2.73,1.37-4.15s.81-2.87,1.17-4.36c.35-1.49.68-3.01.96-4.57.29-1.56.54-3.15.76-4.78.22-1.63.4-3.3.55-5,.15-1.7.27-3.44.35-5.21.91-.17,1.37-.26,2.29-.43,0,1.9,0,3.7,0,5.41,0,1.71,0,3.35,0,4.92s0,3.09,0,4.57,0,2.92,0,4.36,0,2.85,0,4.29,0,2.88,0,4.36,0,2.99,0,4.57c0,1.57,0,3.21,0,4.92,0,1.71,0,3.51,0,5.41,1.95-.4,3.82-.79,5.61-1.16s3.51-.73,5.17-1.07c1.66-.34,3.27-.68,4.83-1,1.57-.32,3.09-.64,4.59-.95s2.98-.62,4.45-.92c1.47-.3,2.93-.61,4.4-.91,1.47-.3,2.95-.61,4.45-.92,1.5-.31,3.03-.63,4.59-.95,1.57-.32,3.17-.66,4.83-1,1.66-.34,3.38-.7,5.17-1.07,1.79-.37,3.66-.76,5.61-1.16,0-1.96,0-3.9,0-5.83,0-1.92,0-3.83,0-5.71,0-1.88,0-3.75,0-5.6,0-1.85,0-3.68,0-5.49,0-1.81,0-3.61,0-5.39,0-1.78,0-3.55,0-5.3,0-1.75,0-3.49,0-5.21s0-3.43,0-5.12,0-3.37,0-5.04c0-1.67,0-3.32,0-4.97s0-3.27,0-4.89,0-3.23,0-4.83c0-1.6,0-3.19,0-4.77,0-1.58,0-3.15,0-4.71,0-1.56,0-3.11,0-4.66,0-1.54,0-3.08,0-4.61,0-1.53,0-3.05,0-4.57,0-1.52,0-3.03,0-4.53,0-1.51,0-3.01,0-4.5,0-1.5,0-2.99,0-4.48,0-1.49,0-2.97,0-4.45,0-1.48,0-2.96,0-4.44,0-1.48,0-2.95,0-4.42,0-1.47,0-2.95,0-4.42,0-1.47,0-2.94,0-4.41,0-1.47,0-2.94,0-4.42,0-1.47,0-2.95,0-4.42,0-1.48,0-2.95,0-4.44,0-1.48,0-2.97,0-4.45,0-1.49,0-2.98,0-4.48,0-1.5,0-3,0-4.5,0-1.51,0-3.02,0-4.53,0-1.52,0-3.04,0-4.57,0-1.53,0-3.07,0-4.61,0-1.54,0-3.1,0-4.66,0-1.56,0-3.13,0-4.71,0-1.58,0-3.17,0-4.77,0-1.6,0-3.21,0-4.83s0-3.25,0-4.89,0-3.3,0-4.97,0-3.35,0-5.04c0-1.69,0-3.4,0-5.12s0-3.46,0-5.21,0-3.52,0-5.3c0-1.78,0-3.58,0-5.39s0-3.65,0-5.5c0-1.85,0-3.72,0-5.6,0-1.89,0-3.79,0-5.71,0-1.92,0-3.86,0-5.83-1.9.17-3.74.33-5.53.48-1.79.16-3.53.31-5.23.46s-3.36.29-4.98.43-3.21.28-4.76.41c-1.55.14-3.08.27-4.58.4s-2.98.26-4.45.39c-1.46.13-2.91.25-4.35.38-1.44.12-2.86.25-4.29.37-1.42.12-2.84.25-4.27.37-1.42.12-2.85.25-4.29.37-1.44.12-2.88.25-4.35.38s-2.94.26-4.45.39-3.03.26-4.58.4c-1.55.14-3.14.27-4.76.41s-3.28.29-4.98.43-3.44.3-5.23.46c-1.79.16-3.63.32-5.53.48,0,1.91,0,3.77,0,5.58,0,1.81,0,3.57,0,5.28,0,1.71,0,3.39,0,5.02,0,1.64,0,3.23,0,4.8,0,1.57,0,3.11,0,4.62s0,3.01,0,4.49c0,1.48,0,2.94,0,4.39s0,2.89,0,4.33c0,1.44,0,2.87,0,4.31,0,1.44,0,2.88,0,4.33s0,2.91,0,4.39c0,1.48,0,2.97,0,4.49,0,1.52,0,3.06,0,4.62,0,1.57,0,3.17,0,4.8,0,1.64,0,3.31,0,5.02,0,1.71,0,3.47,0,5.28,0,1.81,0,3.66,0,5.58,1.91-.24,3.49-.44,4.97-.63,1.48-.19,2.86-.36,4.34-.55,1.48-.19,3.07-.39,4.97-.63,0,2,0,3.93,0,5.8,0,1.87,0,3.67,0,5.43,0,1.76,0,3.46,0,5.12,0,1.66,0,3.29,0,4.88,0,1.59,0,3.15,0,4.69,0,1.54,0,3.06,0,4.57s0,3.01,0,4.51c0,1.5,0,3,0,4.51,0,1.51,0,3.03,0,4.57s0,3.1,0,4.69c0,1.59,0,3.21,0,4.88,0,1.66,0,3.37,0,5.12,0,1.75,0,3.56,0,5.43s0,3.8,0,5.8c0,1.9-.06,3.66-.18,5.3-.12,1.64-.3,3.15-.54,4.54s-.54,2.64-.9,3.78c-.36,1.13-.77,2.14-1.25,3.01-.64,1.17-1.36,2.18-2.16,3.03-.8.85-1.69,1.53-2.67,2.05-.97.52-2.03.88-3.17,1.07-1.71.29-3.25.15-4.61-.42-1.36-.57-2.53-1.58-3.53-3.03-.5-.72-.94-1.59-1.31-2.61-.37-1.02-.69-2.19-.94-3.51-.25-1.32-.44-2.79-.56-4.4s-.19-3.38-.18-5.3c0-1.96,0-3.91,0-5.83,0-1.92,0-3.83,0-5.72,0-1.89,0-3.75,0-5.6s0-3.68,0-5.5,0-3.61,0-5.39c0-1.78,0-3.55,0-5.3,0-1.75,0-3.48,0-5.21s0-3.43,0-5.12c0-1.69,0-3.37,0-5.04,0-1.67,0-3.32,0-4.96,0-1.64,0-3.27,0-4.89,0-1.62,0-3.22,0-4.82,0-1.6,0-3.18,0-4.76,0-1.58,0-3.14,0-4.7s0-3.11,0-4.65c0-1.54,0-3.08,0-4.61,0-1.53,0-3.05,0-4.57s0-3.03,0-4.53c0-1.5,0-3,0-4.5s0-2.99,0-4.47c0-1.49,0-2.97,0-4.45s0-2.96,0-4.44c0-1.48,0-2.95,0-4.43,0-1.47,0-2.95,0-4.42,0-1.47,0-2.95,0-4.42s0-2.95,0-4.43c0-1.48,0-2.96,0-4.44,0-1.48,0-2.97,0-4.45s0-2.98,0-4.47c0-1.5,0-2.99,0-4.5s0-3.01,0-4.53,0-3.04,0-4.57,0-3.06,0-4.61c0-1.54,0-3.09,0-4.65s0-3.13,0-4.7,0-3.16,0-4.76,0-3.2,0-4.82,0-3.25,0-4.89,0-3.29,0-4.96c0-1.67,0-3.34,0-5.04,0-1.69,0-3.4,0-5.12,0-1.72,0-3.45,0-5.21,0-1.75,0-3.52,0-5.3,0-1.78,0-3.58,0-5.39,0-1.81,0-3.65,0-5.5s0-3.72,0-5.6,0-3.79,0-5.72c0-1.92,0-3.87,0-5.83,0-1.91.06-3.69.18-5.33s.3-3.15.54-4.52.54-2.6.9-3.7c.36-1.1.78-2.06,1.25-2.88.95-1.65,2.1-2.9,3.43-3.75s2.86-1.31,4.57-1.38c1.81-.07,3.4.28,4.78,1.02s2.55,1.9,3.5,3.46c.48.78.89,1.7,1.25,2.76.36,1.06.65,2.26.89,3.59.24,1.34.42,2.81.53,4.43s.18,3.37.18,5.26c0,1.83,0,3.59,0,5.29,0,1.69,0,3.33,0,4.91,0,1.58,0,3.11,0,4.6,0,1.49,0,2.94,0,4.37,0,1.43,0,2.83,0,4.22,0,1.39,0,2.76,0,4.14,0,1.38,0,2.75,0,4.14,0,1.39,0,2.79,0,4.22s0,2.88,0,4.37c0,1.49,0,3.02,0,4.6s0,3.21,0,4.91c0,1.69,0,3.45,0,5.29,1.89-.14,3.72-.27,5.49-.4,1.77-.13,3.48-.26,5.14-.38,1.66-.12,3.28-.24,4.85-.36s3.11-.23,4.62-.34c1.51-.11,2.99-.22,4.45-.33,1.46-.11,2.9-.21,4.33-.32,1.43-.11,2.85-.21,4.27-.31,1.42-.1,2.84-.21,4.27-.32,1.43-.11,2.87-.21,4.33-.32s2.94-.22,4.45-.33c1.51-.11,3.04-.22,4.62-.34,1.58-.12,3.19-.24,4.85-.36,1.66-.12,3.37-.25,5.14-.38,1.77-.13,3.59-.27,5.49-.4,0-1.91,0-3.77,0-5.59,0-1.82,0-3.6,0-5.35,0-1.74,0-3.45,0-5.13s0-3.32,0-4.93c0-1.61,0-3.2,0-4.76s0-3.1,0-4.62c0-1.52,0-3.02,0-4.5,0-1.48,0-2.95,0-4.41,0-1.46,0-2.91,0-4.35,0-1.44,0-2.88,0-4.31,0-1.43,0-2.86,0-4.29,0-1.43,0-2.87,0-4.31,0-1.44,0-2.89,0-4.35,0-1.46,0-2.93,0-4.41,0-1.48,0-2.98,0-4.5,0-1.52,0-3.06,0-4.62s0-3.15,0-4.76c0-1.61,0-3.26,0-4.93,0-1.67,0-3.38,0-5.12,0-1.74,0-3.52,0-5.35,0-1.82,0-3.68,0-5.59,0-1.93-.04-3.81-.11-5.65-.08-1.84-.19-3.63-.35-5.38s-.35-3.45-.58-5.1c-.23-1.66-.5-3.27-.81-4.83-.31-1.57-.66-3.09-1.05-4.56s-.81-2.91-1.28-4.29c-.47-1.39-.97-2.73-1.51-4.02-.76-1.81-1.56-3.45-2.41-4.9-.85-1.45-1.73-2.73-2.66-3.82s-1.9-2-2.91-2.73c-1.01-.73-2.07-1.28-3.16-1.64-1.1-.37-2.24-.55-3.42-.55h-113.75c-1.18,0-2.32.19-3.42.58-1.1.39-2.15.97-3.17,1.75-1.01.78-1.99,1.75-2.92,2.92-.93,1.17-1.82,2.53-2.67,4.09-.85,1.56-1.65,3.32-2.41,5.27-.48,1.22-.93,2.48-1.34,3.78-.42,1.3-.81,2.63-1.16,4-.36,1.37-.69,2.78-.99,4.23-.3,1.45-.57,2.93-.81,4.46-.24,1.52-.45,3.08-.63,4.68s-.33,3.23-.45,4.9-.21,3.38-.27,5.13c-.06,1.75-.09,3.53-.09,5.35,0,2,0,3.98,0,5.94,0,1.97,0,3.92,0,5.86,0,1.94,0,3.87,0,5.78,0,1.91,0,3.81,0,5.7,0,1.89,0,3.76,0,5.62,0,1.86,0,3.71,0,5.55,0,1.84,0,3.66,0,5.48,0,1.81,0,3.62,0,5.41s0,3.57,0,5.34,0,3.53,0,5.28,0,3.49,0,5.22c0,1.73,0,3.45,0,5.16,0,1.71,0,3.41,0,5.1,0,1.69,0,3.37,0,5.05s0,3.34,0,4.99,0,3.3,0,4.94c0,1.64,0,3.27,0,4.9,0,1.63,0,3.24,0,4.85,0,1.61,0,3.22,0,4.81,0,1.6,0,3.19,0,4.77,0,1.58,0,3.16,0,4.74,0,1.57,0,3.14,0,4.7,0,1.56,0,3.12,0,4.67,0,1.55,0,3.1,0,4.64,0,1.54,0,3.08,0,4.62,0,1.53,0,3.07,0,4.59,0,1.53,0,3.05,0,4.57,0,1.52,0,3.04,0,4.55,0,1.51,0,3.03,0,4.54,0,1.51,0,3.02,0,4.52,0,1.51,0,3.01,0,4.51,0,1.5,0,3,0,4.5,0,1.5,0,3,0,4.5,0,1.5,0,3,0,4.49s0,2.99,0,4.49c0,1.5,0,2.99,0,4.49,0,1.5,0,3,0,4.5,0,1.5,0,3,0,4.5,0,1.5,0,3.01,0,4.51,0,1.51,0,3.01,0,4.52,0,1.51,0,3.02,0,4.54s0,3.03,0,4.55c0,1.52,0,3.04,0,4.57,0,1.53,0,3.06,0,4.59,0,1.53,0,3.07,0,4.62,0,1.54,0,3.09,0,4.64,0,1.55,0,3.11,0,4.67,0,1.56,0,3.13,0,4.7,0,1.57,0,3.15,0,4.74,0,1.59,0,3.18,0,4.77,0,1.6,0,3.2,0,4.81,0,1.61,0,3.23,0,4.85,0,1.63,0,3.26,0,4.9,0,1.64,0,3.29,0,4.94s0,3.32,0,4.99c0,1.67,0,3.35,0,5.05s0,3.39,0,5.1c0,1.71,0,3.43,0,5.16,0,1.73,0,3.47,0,5.22s0,3.51,0,5.28,0,3.55,0,5.34c0,1.79,0,3.59,0,5.41,0,1.81,0,3.64,0,5.48,0,1.84,0,3.69,0,5.55,0,1.86,0,3.74,0,5.62,0,1.89,0,3.79,0,5.7,0,1.91,0,3.84,0,5.78,0,1.94,0,3.89,0,5.86,0,1.97,0,3.95,0,5.94,0,1.82.03,3.6.09,5.33.06,1.73.15,3.42.26,5.07.12,1.65.27,3.25.44,4.81s.39,3.08.62,4.55.5,2.9.8,4.29c.3,1.39.62,2.73.98,4.03s.74,2.55,1.16,3.76c.42,1.21.86,2.38,1.34,3.5.76,1.8,1.56,3.39,2.41,4.77.84,1.39,1.73,2.57,2.66,3.54.93.98,1.9,1.75,2.91,2.32,1.01.57,2.07.93,3.17,1.09,1.1.16,2.24.12,3.42-.13,1.89-.39,3.69-.76,5.43-1.13s3.42-.71,5.04-1.04,3.2-.66,4.73-.98c1.53-.32,3.02-.63,4.49-.93,1.47-.3,2.91-.6,4.33-.9,1.43-.3,2.84-.59,4.26-.88,1.41-.29,2.83-.59,4.26-.88,1.43-.3,2.87-.59,4.33-.9,1.47-.3,2.96-.61,4.49-.93,1.53-.32,3.1-.64,4.73-.98,1.62-.34,3.3-.68,5.04-1.04s3.55-.74,5.43-1.13Z"/>
      <path class="cls-2" d="M1004.06,486.88c.17-1.98.33-3.9.49-5.75.16-1.86.31-3.66.46-5.41.15-1.75.3-3.45.44-5.11.14-1.66.28-3.28.42-4.88.14-1.59.27-3.15.4-4.69s.26-3.05.39-4.55c.13-1.5.26-2.99.38-4.47.13-1.48.25-2.96.38-4.45.13-1.48.25-2.97.38-4.47.13-1.5.26-3.01.39-4.55.13-1.53.27-3.09.4-4.68.14-1.59.27-3.2.42-4.86s.29-3.35.44-5.09c.15-1.74.3-3.53.46-5.38s.32-3.75.49-5.72c1.8-.3,3.46-.59,5.04-.85,1.58-.27,3.06-.52,4.49-.76,1.43-.24,2.8-.48,4.16-.71s2.69-.46,4.05-.69c1.36-.23,2.73-.46,4.16-.71,1.43-.24,2.91-.49,4.49-.76,1.58-.27,3.24-.55,5.04-.85.16,1.88.31,3.7.46,5.46.15,1.76.29,3.47.43,5.14s.28,3.28.41,4.86c.13,1.58.26,3.12.39,4.63s.25,2.99.38,4.45c.12,1.46.24,2.9.36,4.33.12,1.43.24,2.84.36,4.25.12,1.41.24,2.81.36,4.22.12,1.41.24,2.82.36,4.25s.24,2.86.36,4.32c.12,1.46.25,2.94.38,4.44.13,1.51.26,3.04.39,4.61.13,1.57.27,3.18.41,4.84.14,1.66.28,3.36.43,5.11.15,1.75.3,3.56.46,5.43,1.87-.39,3.69-.76,5.44-1.13,1.76-.36,3.46-.72,5.12-1.06,1.66-.34,3.27-.68,4.84-1s3.11-.64,4.62-.96c1.51-.31,2.99-.62,4.44-.92,1.46-.3,2.89-.6,4.32-.89s2.84-.59,4.24-.88c1.41-.29,2.81-.58,4.22-.87,1.41-.29,2.82-.58,4.24-.88,1.42-.29,2.86-.59,4.32-.89,1.46-.3,2.94-.61,4.44-.92,1.51-.31,3.04-.63,4.62-.96,1.57-.33,3.19-.66,4.84-1,1.66-.34,3.36-.7,5.12-1.06,1.76-.36,3.57-.74,5.44-1.13-.19-1.93-.39-3.84-.58-5.74-.19-1.9-.38-3.79-.57-5.67s-.38-3.75-.56-5.6-.37-3.7-.56-5.54c-.18-1.84-.37-3.66-.55-5.47-.18-1.81-.36-3.62-.54-5.41-.18-1.79-.36-3.58-.54-5.35s-.35-3.54-.53-5.29-.35-3.5-.52-5.24c-.17-1.74-.35-3.46-.52-5.18s-.34-3.43-.51-5.13c-.17-1.7-.34-3.39-.51-5.08-.17-1.68-.34-3.36-.5-5.03-.17-1.67-.33-3.33-.5-4.98-.17-1.65-.33-3.3-.49-4.94-.16-1.64-.33-3.27-.49-4.89s-.32-3.24-.48-4.85-.32-3.21-.48-4.81c-.16-1.6-.32-3.19-.48-4.77-.16-1.58-.32-3.16-.47-4.74s-.31-3.14-.47-4.7c-.16-1.56-.31-3.12-.47-4.67-.15-1.55-.31-3.1-.46-4.64-.15-1.54-.31-3.08-.46-4.61-.15-1.53-.3-3.06-.46-4.59-.15-1.52-.3-3.05-.45-4.56s-.3-3.03-.45-4.54c-.15-1.51-.3-3.02-.45-4.52-.15-1.5-.3-3-.45-4.5s-.3-2.99-.44-4.48c-.15-1.49-.3-2.98-.44-4.47-.15-1.49-.29-2.97-.44-4.46s-.29-2.97-.44-4.45c-.15-1.48-.29-2.96-.44-4.44-.15-1.48-.29-2.96-.44-4.43-.15-1.48-.29-2.95-.44-4.43s-.29-2.95-.44-4.42c-.15-1.47-.29-2.95-.44-4.42s-.29-2.95-.44-4.42c-.15-1.47-.29-2.95-.44-4.43-.15-1.48-.29-2.95-.44-4.43-.15-1.48-.29-2.96-.44-4.44-.15-1.48-.29-2.96-.44-4.45-.15-1.48-.29-2.97-.44-4.46-.15-1.49-.29-2.98-.44-4.47s-.29-2.99-.44-4.49c-.15-1.5-.3-3-.44-4.5s-.3-3.01-.44-4.52c-.15-1.51-.3-3.03-.45-4.55s-.3-3.04-.45-4.57c-.15-1.53-.3-3.06-.45-4.59-.15-1.54-.3-3.08-.45-4.62-.15-1.54-.3-3.09-.46-4.65-.15-1.56-.31-3.12-.46-4.68-.15-1.57-.31-3.14-.46-4.72-.15-1.58-.31-3.16-.47-4.75-.16-1.59-.31-3.19-.47-4.79s-.31-3.21-.47-4.83c-.16-1.62-.32-3.24-.48-4.87s-.32-3.27-.48-4.91c-.16-1.65-.32-3.3-.48-4.96s-.33-3.33-.49-5.01c-.16-1.68-.33-3.36-.49-5.06-.17-1.69-.33-3.4-.5-5.11-.17-1.71-.33-3.43-.5-5.16-.17-1.73-.34-3.47-.51-5.22-.17-1.75-.34-3.51-.51-5.28-.17-1.77-.35-3.55-.52-5.34s-.35-3.59-.53-5.4-.35-3.63-.53-5.47c-.18-1.83-.36-3.68-.54-5.53-.18-1.86-.36-3.72-.54-5.6-.18-1.88-.37-3.77-.55-5.67-.18-1.9-.37-3.82-.56-5.75-.19-1.93-.38-3.87-.56-5.82-.19-1.95-.38-3.92-.57-5.9-.19-1.98-.38-3.97-.58-5.98h-93.46c-.19,1.93-.37,3.85-.55,5.76-.18,1.91-.36,3.81-.55,5.7-.18,1.89-.36,3.77-.54,5.63-.18,1.87-.36,3.73-.53,5.57-.18,1.85-.35,3.69-.53,5.51-.18,1.83-.35,3.65-.52,5.46-.17,1.81-.34,3.61-.52,5.4s-.34,3.57-.51,5.34c-.17,1.77-.34,3.54-.51,5.29s-.33,3.5-.5,5.24c-.17,1.74-.33,3.47-.49,5.19-.16,1.72-.33,3.44-.49,5.14s-.32,3.4-.49,5.09c-.16,1.69-.32,3.37-.48,5.05-.16,1.68-.32,3.34-.48,5-.16,1.66-.32,3.31-.47,4.96-.16,1.65-.31,3.29-.47,4.92-.16,1.63-.31,3.26-.46,4.88s-.31,3.24-.46,4.84c-.15,1.61-.31,3.21-.46,4.81-.15,1.6-.3,3.19-.45,4.77-.15,1.59-.3,3.17-.45,4.74s-.3,3.15-.45,4.71c-.15,1.57-.3,3.13-.44,4.68s-.29,3.11-.44,4.65-.29,3.09-.44,4.63c-.15,1.54-.29,3.07-.44,4.6s-.29,3.06-.43,4.58-.29,3.04-.43,4.56c-.14,1.52-.29,3.03-.43,4.54-.14,1.51-.28,3.02-.43,4.52s-.28,3.01-.43,4.5c-.14,1.5-.28,3-.42,4.49-.14,1.49-.28,2.99-.42,4.48-.14,1.49-.28,2.98-.42,4.46s-.28,2.97-.42,4.46c-.14,1.48-.28,2.97-.42,4.45-.14,1.48-.28,2.96-.42,4.44s-.28,2.96-.42,4.44c-.14,1.48-.28,2.96-.42,4.43-.14,1.48-.28,2.95-.42,4.43-.14,1.48-.28,2.95-.42,4.43-.14,1.48-.28,2.95-.42,4.43-.14,1.48-.28,2.96-.42,4.44-.14,1.48-.28,2.96-.42,4.44-.14,1.48-.28,2.96-.42,4.45-.14,1.48-.28,2.97-.42,4.46-.14,1.49-.28,2.98-.42,4.47s-.28,2.98-.42,4.48c-.14,1.5-.28,2.99-.42,4.49-.14,1.5-.28,3-.42,4.51-.14,1.51-.28,3.01-.42,4.53-.14,1.51-.28,3.03-.43,4.54-.14,1.52-.28,3.04-.43,4.56-.14,1.52-.29,3.05-.43,4.59-.14,1.53-.29,3.07-.43,4.61-.14,1.54-.29,3.09-.43,4.64-.14,1.55-.29,3.1-.44,4.66-.15,1.56-.29,3.12-.44,4.69-.15,1.57-.29,3.14-.44,4.72s-.3,3.16-.44,4.76c-.15,1.59-.3,3.19-.45,4.79-.15,1.6-.3,3.21-.45,4.83-.15,1.61-.3,3.24-.45,4.86-.15,1.63-.3,3.26-.46,4.9-.15,1.64-.31,3.29-.46,4.94-.15,1.65-.31,3.32-.46,4.99s-.31,3.35-.47,5.03c-.16,1.68-.31,3.38-.47,5.08-.16,1.7-.32,3.41-.48,5.13-.16,1.72-.32,3.44-.48,5.18-.16,1.73-.32,3.48-.49,5.23-.16,1.75-.33,3.51-.49,5.28s-.33,3.55-.49,5.34c-.17,1.79-.33,3.59-.5,5.39-.17,1.81-.34,3.62-.5,5.45s-.34,3.66-.51,5.51-.34,3.71-.52,5.57c-.17,1.87-.35,3.75-.52,5.64s-.35,3.79-.53,5.7c-.18,1.91-.35,3.84-.53,5.77-.18,1.94-.36,3.88-.54,5.84-.18,1.96-.36,3.93-.55,5.91-.18,1.98-.37,3.98-.55,5.98,1.86-.38,3.64-.75,5.35-1.11,1.72-.36,3.37-.7,4.97-1.03s3.15-.65,4.66-.96c1.51-.31,2.98-.62,4.42-.92,1.44-.3,2.86-.59,4.27-.88,1.41-.29,2.8-.58,4.19-.87s2.79-.58,4.19-.87,2.82-.59,4.27-.88c1.44-.3,2.91-.6,4.42-.92,1.51-.31,3.06-.63,4.66-.96s3.25-.67,4.97-1.03c1.72-.36,3.49-.72,5.35-1.11ZM1025.71,210.88c.57-.04.86-.06,1.43-.09.14,2,.29,3.95.43,5.87.14,1.92.28,3.8.41,5.65.13,1.85.27,3.66.39,5.45.13,1.78.26,3.54.38,5.26.12,1.73.25,3.42.37,5.1.12,1.67.24,3.32.36,4.95.12,1.63.23,3.24.35,4.83s.23,3.16.34,4.72c.11,1.56.23,3.1.34,4.63.11,1.53.22,3.05.33,4.56.11,1.51.22,3.02.33,4.51.11,1.5.22,2.99.33,4.48.11,1.49.22,2.98.33,4.47.11,1.49.22,2.98.33,4.48.11,1.5.22,3,.33,4.51s.22,3.03.33,4.55c.11,1.53.22,3.07.34,4.62.11,1.55.23,3.12.34,4.7.12,1.58.23,3.18.35,4.81.12,1.62.24,3.26.36,4.93.12,1.67.24,3.35.37,5.07.12,1.72.25,3.46.38,5.23.13,1.77.26,3.57.39,5.41.13,1.83.27,3.7.41,5.6.14,1.9.28,3.84.43,5.82-1.6.21-3.04.4-4.38.57-1.34.18-2.59.34-3.81.5-1.22.16-2.4.31-3.62.47-1.22.16-2.46.32-3.81.5-1.34.18-2.78.36-4.38.57.15-1.96.29-3.88.43-5.77.14-1.89.28-3.74.42-5.56.14-1.82.27-3.61.4-5.36.13-1.76.26-3.49.39-5.19.13-1.7.25-3.38.38-5.03.12-1.65.25-3.28.37-4.89.12-1.61.24-3.19.36-4.76.12-1.57.23-3.12.35-4.66.12-1.54.23-3.06.34-4.57s.23-3.01.34-4.5.22-2.97.33-4.45c.11-1.47.22-2.94.33-4.41.11-1.47.22-2.93.33-4.39.11-1.46.22-2.92.33-4.39.11-1.46.22-2.93.33-4.41.11-1.47.22-2.95.33-4.44.11-1.49.22-2.98.34-4.49s.23-3.02.34-4.56.23-3.08.35-4.64c.12-1.56.24-3.14.36-4.74s.24-3.22.37-4.86c.12-1.64.25-3.31.38-5s.26-3.41.39-5.15c.13-1.74.27-3.52.4-5.32.14-1.8.27-3.64.42-5.51.14-1.87.29-3.77.43-5.71Z"/>
    </g>
  </g>
</svg>