<?xml version="1.0" encoding="UTF-8"?>
<svg id="Layer_2" data-name="Layer 2" xmlns="http://www.w3.org/2000/svg" viewBox="0 0 1200 770.12">
  <defs>
    <style>
      .cls-1 {
        fill: #852d05;
      }

      .cls-1, .cls-2 {
        stroke-width: 0px;
      }

      .cls-3 {
        fill: #e55525;
      }

      .cls-2 {
        fill: #fff;
      }
    </style>
  </defs>
  <g id="Layer_4" data-name="Layer 4">
    <path class="cls-3" d="M34.1,231.7L1148.22.9c26.54-5.5,51.44,14.76,51.46,41.87l.32,684.55c.01,23.64-19.15,42.81-42.79,42.8l-1114.44-.34c-23.62,0-42.77-19.16-42.77-42.78v-453.41c0-20.28,14.24-37.78,34.1-41.89Z"/>
    <g>
      <path class="cls-1" d="M320.19,690.3c0-1.91,0-3.78,0-5.59s0-3.59,0-5.32c0-1.73,0-3.43,0-5.08,0-1.66,0-3.28,0-4.88,0-1.59,0-3.16,0-4.7,0-1.54,0-3.06,0-4.56,0-1.5,0-2.98,0-4.45,0-1.47,0-2.92,0-4.37,0-1.45,0-2.89,0-4.32s0-2.87,0-4.31,0-2.87,0-4.32c0-1.45,0-2.9,0-4.37s0-2.95,0-4.45,0-3.02,0-4.56,0-3.11,0-4.7c0-1.59,0-3.22,0-4.88,0-1.66,0-3.35,0-5.08,0-1.73,0-3.51,0-5.32,0-1.82,0-3.68,0-5.59-1.96.09-3.87.17-5.72.25-1.85.08-3.66.16-5.42.24-1.76.08-3.48.15-5.15.23-1.68.07-3.32.15-4.93.22-1.61.07-3.19.14-4.75.21-1.56.07-3.09.14-4.6.2-1.51.07-3.01.13-4.5.2s-2.97.13-4.44.2c-1.47.07-2.95.13-4.42.2s-2.95.13-4.44.2c-1.49.07-2.99.13-4.5.2-1.52.07-3.05.13-4.6.2s-3.14.14-4.75.21c-1.61.07-3.25.14-4.93.22-1.68.07-3.39.15-5.15.23s-3.56.16-5.42.24c-1.85.08-3.76.17-5.72.25,0-1.6,0-2.39,0-3.99.58-1.83,1.16-3.65,1.74-5.45.57-1.8,1.14-3.59,1.71-5.36s1.12-3.53,1.68-5.28,1.1-3.48,1.65-5.2c.55-1.72,1.09-3.43,1.62-5.13.54-1.7,1.07-3.38,1.6-5.06.53-1.67,1.05-3.34,1.57-4.99.52-1.65,1.04-3.29,1.55-4.92.51-1.63,1.02-3.25,1.53-4.86s1.01-3.21,1.51-4.8c.5-1.59.99-3.17,1.49-4.74.49-1.57.98-3.14,1.47-4.69.49-1.56.97-3.1,1.45-4.64s.96-3.07,1.43-4.59.95-3.04,1.42-4.55.94-3.01,1.4-4.51.93-2.99,1.39-4.47c.46-1.48.92-2.96,1.38-4.44.46-1.47.91-2.94,1.37-4.41.45-1.46.91-2.92,1.36-4.38.45-1.46.9-2.91,1.35-4.36.45-1.45.89-2.89,1.34-4.34.45-1.44.89-2.88,1.33-4.32.44-1.44.89-2.87,1.33-4.31s.88-2.86,1.32-4.3c.44-1.43.88-2.86,1.32-4.29s.88-2.86,1.31-4.29c.44-1.43.88-2.86,1.31-4.29s.88-2.86,1.31-4.29c.44-1.43.88-2.86,1.31-4.3.44-1.43.88-2.87,1.31-4.31.44-1.44.88-2.88,1.32-4.32s.88-2.89,1.32-4.34.88-2.9,1.33-4.36c.44-1.46.89-2.92,1.33-4.39.45-1.47.89-2.94,1.34-4.41.45-1.48.9-2.96,1.35-4.45s.9-2.98,1.36-4.48c.45-1.5.91-3.01,1.37-4.52s.92-3.04,1.38-4.57.92-3.07,1.39-4.61c.47-1.55.93-3.1,1.4-4.66s.94-3.14,1.42-4.72c.48-1.58.95-3.17,1.43-4.78.48-1.6.96-3.21,1.45-4.84.49-1.62.98-3.26,1.47-4.9.49-1.65.99-3.3,1.49-4.97s1-3.35,1.51-5.05c.51-1.7,1.02-3.4,1.53-5.13s1.03-3.46,1.55-5.21c.52-1.75,1.04-3.51,1.57-5.29.53-1.78,1.06-3.57,1.6-5.38s1.08-3.63,1.62-5.48c.55-1.84,1.09-3.7,1.65-5.57.55-1.87,1.11-3.77,1.68-5.67.56-1.91,1.13-3.84,1.71-5.78.57-1.94,1.15-3.91,1.73-5.89,0-1.92,0-3.76,0-5.54s0-3.5,0-5.17c0-1.67,0-3.29,0-4.86,0-1.58,0-3.12,0-4.62,0-1.51,0-2.99,0-4.45,0-1.46,0-2.91,0-4.35,0-1.44,0-2.88,0-4.32,0-1.44,0-2.89,0-4.35s0-2.95,0-4.45c0-1.51,0-3.05,0-4.62,0-1.58,0-3.19,0-4.86,0-1.67,0-3.39,0-5.17s0-3.63,0-5.54c-1.93.4-3.84.79-5.72,1.19-1.89.39-3.76.78-5.6,1.16-1.85.38-3.68.76-5.49,1.14s-3.6.75-5.38,1.11c-1.78.37-3.53.73-5.28,1.09-1.74.36-3.47.72-5.18,1.07-1.71.35-3.4.71-5.08,1.05-1.68.35-3.35.69-5,1.04-1.65.34-3.29.68-4.91,1.02s-3.24.67-4.84,1c-1.6.33-3.19.66-4.77.99-1.58.33-3.14.65-4.7.97-1.56.32-3.1.64-4.64.96-1.54.32-3.07.64-4.59.95s-3.03.63-4.54.94c-1.5.31-3,.62-4.49.93s-2.98.62-4.46.92c-1.48.31-2.95.61-4.42.92-1.47.3-2.93.61-4.4.91-1.46.3-2.92.6-4.37.91-1.45.3-2.91.6-4.36.9-1.45.3-2.9.6-4.35.9-1.45.3-2.89.6-4.34.9-1.45.3-2.89.6-4.34.9-1.45.3-2.9.6-4.35.9s-2.9.6-4.36.9-2.91.6-4.37.91c-1.46.3-2.93.61-4.4.91-1.47.3-2.94.61-4.42.92-1.48.31-2.96.61-4.46.92s-2.99.62-4.49.93c-1.5.31-3.02.62-4.54.94-1.52.31-3.05.63-4.59.95-1.54.32-3.08.64-4.64.96-1.56.32-3.12.65-4.7.97s-3.17.66-4.77.99-3.21.67-4.84,1c-1.62.34-3.26.68-4.91,1.02-1.65.34-3.32.69-5,1.04s-3.37.7-5.08,1.05c-1.71.35-3.44.71-5.18,1.07-1.74.36-3.5.73-5.27,1.09-1.78.37-3.57.74-5.38,1.11-1.81.38-3.64.75-5.49,1.14s-3.72.77-5.6,1.16c-1.89.39-3.79.79-5.72,1.19,0,1.91,0,3.76,0,5.56,0,1.8,0,3.55,0,5.26,0,1.71,0,3.37,0,5,0,1.63,0,3.22,0,4.79,0,1.56,0,3.1,0,4.61s0,3,0,4.47,0,2.93,0,4.37c0,1.44,0,2.88,0,4.31,0,1.43,0,2.86,0,4.29s0,2.87,0,4.31,0,2.9,0,4.37c0,1.47,0,2.96,0,4.47s0,3.04,0,4.61,0,3.16,0,4.79c0,1.63,0,3.29,0,5,0,1.71,0,3.46,0,5.26,0,1.8,0,3.65,0,5.56,1.95-.32,3.84-.63,5.68-.92,1.84-.3,3.62-.59,5.36-.87s3.43-.56,5.08-.83c1.65-.27,3.27-.53,4.85-.79,1.58-.26,3.14-.51,4.67-.76,1.53-.25,3.04-.5,4.53-.74,1.49-.24,2.97-.48,4.44-.72,1.47-.24,2.93-.48,4.4-.72s2.93-.48,4.4-.72c1.47-.24,2.95-.48,4.44-.72,1.49-.24,3-.49,4.53-.74,1.53-.25,3.09-.5,4.67-.76,1.58-.26,3.2-.52,4.85-.79,1.65-.27,3.35-.54,5.08-.83,1.74-.28,3.52-.57,5.36-.87,1.84-.3,3.73-.61,5.68-.92,0,1.55,0,2.32,0,3.86-.62,1.98-1.23,3.94-1.83,5.87-.6,1.94-1.2,3.86-1.8,5.76-.59,1.9-1.18,3.78-1.77,5.64-.58,1.86-1.16,3.71-1.73,5.53-.57,1.83-1.14,3.64-1.71,5.43-.56,1.79-1.12,3.57-1.68,5.33-.55,1.76-1.1,3.51-1.65,5.24-.55,1.73-1.09,3.45-1.62,5.15s-1.07,3.39-1.6,5.06c-.53,1.67-1.06,3.33-1.58,4.98-.52,1.65-1.04,3.28-1.56,4.9-.51,1.62-1.03,3.23-1.54,4.83-.51,1.6-1.01,3.19-1.52,4.76-.5,1.58-1,3.14-1.5,4.7s-.99,3.1-1.48,4.64c-.49,1.54-.98,3.07-1.47,4.59-.49,1.52-.97,3.03-1.45,4.54-.48,1.51-.96,3-1.44,4.49-.48,1.49-.95,2.97-1.43,4.45-.47,1.48-.95,2.95-1.42,4.41s-.94,2.93-1.41,4.38c-.47,1.46-.94,2.91-1.4,4.35-.47,1.45-.93,2.89-1.4,4.33-.47,1.44-.93,2.87-1.39,4.31-.46,1.43-.93,2.86-1.39,4.29-.46,1.43-.93,2.85-1.39,4.28s-.92,2.85-1.39,4.27c-.46,1.42-.92,2.84-1.39,4.27s-.93,2.84-1.39,4.27-.93,2.85-1.39,4.27c-.47,1.42-.93,2.85-1.4,4.28s-.93,2.86-1.4,4.29c-.47,1.43-.94,2.87-1.41,4.31s-.94,2.88-1.42,4.33c-.48,1.45-.95,2.9-1.43,4.35-.48,1.45-.96,2.91-1.44,4.38-.48,1.46-.97,2.93-1.45,4.41-.49,1.48-.98,2.96-1.47,4.44-.49,1.49-.99,2.98-1.48,4.48-.5,1.5-1,3.01-1.5,4.52-.5,1.52-1.01,3.04-1.52,4.57-.51,1.53-1.02,3.07-1.54,4.62-.52,1.55-1.03,3.11-1.56,4.68-.52,1.57-1.05,3.15-1.58,4.73-.53,1.59-1.06,3.19-1.6,4.79s-1.08,3.23-1.62,4.86c-.55,1.63-1.1,3.27-1.65,4.93-.55,1.65-1.11,3.32-1.68,5s-1.13,3.37-1.71,5.07c-.57,1.7-1.15,3.42-1.74,5.15-.58,1.73-1.17,3.48-1.77,5.23-.59,1.76-1.19,3.53-1.8,5.32-.61,1.79-1.22,3.59-1.83,5.41,0,1.85,0,3.62,0,5.33,0,1.71,0,3.35,0,4.95s0,3.13,0,4.64,0,2.97,0,4.41c0,1.44,0,2.85,0,4.25s0,2.79,0,4.17c0,1.39,0,2.77,0,4.17,0,1.4,0,2.81,0,4.25,0,1.44,0,2.9,0,4.41,0,1.5,0,3.04,0,4.64,0,1.59,0,3.24,0,4.95,0,1.71,0,3.48,0,5.33h225.8Z"/>
      <path class="cls-1" d="M558.27,690.3c0-1.93,0-3.82,0-5.66,0-1.84,0-3.65,0-5.41,0-1.76,0-3.49,0-5.19,0-1.69,0-3.36,0-4.99s0-3.24,0-4.82c0-1.58,0-3.14,0-4.67s0-3.05,0-4.56,0-2.99,0-4.46c0-1.48,0-2.94,0-4.4,0-1.46,0-2.91,0-4.36,0-1.45,0-2.9,0-4.35,0-1.45,0-2.9,0-4.36,0-1.46,0-2.92,0-4.4,0-1.48,0-2.96,0-4.46,0-1.5,0-3.02,0-4.56,0-1.54,0-3.09,0-4.68,0-1.58,0-3.19,0-4.82s0-3.3,0-4.99c0-1.69,0-3.42,0-5.19,0-1.76,0-3.57,0-5.41s0-3.73,0-5.66c-1.92.08-3.79.17-5.62.25s-3.62.16-5.37.24c-1.75.08-3.47.15-5.15.23-1.68.07-3.33.15-4.95.22-1.62.07-3.21.14-4.78.21-1.57.07-3.11.14-4.64.21s-3.03.13-4.52.2c-1.49.07-2.97.13-4.43.2-1.46.06-2.92.13-4.37.19-1.45.06-2.89.13-4.33.19s-2.88.13-4.31.19-2.88.13-4.33.19c-1.45.06-2.9.13-4.37.19-1.46.06-2.94.13-4.43.2s-3,.13-4.52.2c-1.53.07-3.07.14-4.64.21-1.57.07-3.16.14-4.78.21-1.62.07-3.27.14-4.95.22-1.68.07-3.4.15-5.15.23s-3.54.16-5.37.24-3.7.16-5.62.25c0-1.91,0-3.76,0-5.58,0-1.81,0-3.58,0-5.31,0-1.73,0-3.42,0-5.07,0-1.65,0-3.27,0-4.86,0-1.59,0-3.15,0-4.69s0-3.05,0-4.55,0-2.97,0-4.44,0-2.91,0-4.36c0-1.44,0-2.88,0-4.31s0-2.86,0-4.29c0-1.43,0-2.87,0-4.31s0-2.89,0-4.36c0-1.46,0-2.94,0-4.44s0-3.01,0-4.55c0-1.54,0-3.1,0-4.69,0-1.59,0-3.21,0-4.86s0-3.34,0-5.07,0-3.5,0-5.31c0-1.81,0-3.67,0-5.58,1.93-.17,3.81-.33,5.64-.48,1.83-.16,3.61-.31,5.35-.46,1.74-.15,3.44-.29,5.1-.44,1.66-.14,3.29-.28,4.89-.42s3.16-.27,4.71-.4,3.06-.26,4.56-.39c1.5-.13,2.99-.26,4.46-.38,1.47-.13,2.93-.25,4.39-.38,1.45-.12,2.9-.25,4.35-.37,1.45-.12,2.9-.25,4.35-.37,1.45-.12,2.91-.25,4.39-.38,1.47-.13,2.96-.25,4.46-.38,1.5-.13,3.02-.26,4.56-.39,1.54-.13,3.11-.27,4.71-.4s3.22-.28,4.89-.42c1.66-.14,3.36-.29,5.1-.44,1.74-.15,3.52-.3,5.35-.46s3.71-.32,5.64-.48c0-1.95,0-3.85,0-5.71,0-1.86,0-3.67,0-5.45,0-1.77,0-3.51,0-5.21s0-3.37,0-5.01c0-1.64,0-3.25,0-4.83s0-3.14,0-4.68c0-1.54,0-3.06,0-4.57s0-3,0-4.48c0-1.48,0-2.95,0-4.42,0-1.47,0-2.93,0-4.39,0-1.46,0-2.93,0-4.39,0-1.47,0-2.94,0-4.42,0-1.48,0-2.97,0-4.48,0-1.51,0-3.03,0-4.57,0-1.54,0-3.1,0-4.68,0-1.58,0-3.19,0-4.83,0-1.64,0-3.31,0-5.01,0-1.7,0-3.44,0-5.21s0-3.59,0-5.45c0-1.86,0-3.76,0-5.71-1.93.25-3.81.49-5.64.72-1.83.23-3.61.46-5.35.69-1.74.22-3.44.44-5.1.66-1.66.21-3.29.42-4.89.63-1.6.21-3.16.41-4.71.6-1.54.2-3.06.39-4.56.59-1.5.19-2.99.38-4.46.57s-2.93.38-4.39.56c-1.45.19-2.9.37-4.35.56s-2.9.37-4.35.56c-1.45.19-2.91.37-4.39.56s-2.96.38-4.46.57c-1.5.19-3.02.39-4.56.59-1.54.2-3.11.4-4.71.6-1.6.21-3.22.41-4.89.63s-3.36.43-5.1.66c-1.74.22-3.52.45-5.35.69-1.83.23-3.71.48-5.64.72,0-1.89,0-3.71,0-5.49s0-3.5,0-5.18c0-1.68,0-3.31,0-4.91,0-1.6,0-3.16,0-4.69,0-1.53,0-3.03,0-4.51,0-1.48,0-2.94,0-4.38s0-2.87,0-4.29,0-2.83,0-4.25c0-1.41,0-2.83,0-4.25s0-2.85,0-4.29c0-1.44,0-2.9,0-4.38,0-1.48,0-2.98,0-4.51,0-1.53,0-3.09,0-4.69,0-1.6,0-3.23,0-4.91,0-1.68,0-3.4,0-5.18,0-1.77,0-3.6,0-5.49,1.92-.31,3.79-.62,5.62-.91,1.83-.3,3.62-.59,5.37-.87,1.75-.29,3.47-.56,5.15-.84,1.68-.27,3.33-.54,4.95-.81,1.62-.26,3.21-.52,4.78-.78,1.57-.26,3.11-.51,4.64-.76,1.53-.25,3.03-.49,4.52-.74,1.49-.24,2.97-.48,4.43-.72,1.46-.24,2.92-.48,4.36-.71,1.45-.24,2.89-.47,4.33-.7,1.44-.23,2.87-.47,4.31-.7,1.44-.23,2.88-.47,4.33-.7,1.45-.24,2.9-.47,4.36-.71s2.94-.48,4.43-.72c1.49-.24,3-.49,4.52-.74,1.53-.25,3.07-.5,4.64-.76,1.57-.26,3.16-.51,4.78-.78,1.62-.26,3.27-.53,4.95-.81,1.68-.27,3.4-.55,5.15-.84,1.75-.29,3.54-.58,5.37-.87,1.83-.3,3.7-.6,5.62-.91,0-1.93,0-3.82,0-5.66s0-3.65,0-5.41c0-1.76,0-3.49,0-5.19,0-1.69,0-3.36,0-4.99s0-3.24,0-4.82c0-1.58,0-3.14,0-4.68,0-1.54,0-3.05,0-4.56,0-1.5,0-2.99,0-4.46,0-1.48,0-2.94,0-4.4,0-1.46,0-2.91,0-4.36,0-1.45,0-2.9,0-4.35,0-1.45,0-2.9,0-4.36,0-1.46,0-2.92,0-4.4,0-1.48,0-2.96,0-4.46,0-1.5,0-3.02,0-4.56,0-1.54,0-3.09,0-4.67,0-1.58,0-3.19,0-4.82,0-1.63,0-3.3,0-4.99,0-1.69,0-3.42,0-5.19s0-3.57,0-5.41,0-3.73,0-5.66c-1.92.4-3.83.79-5.71,1.18-1.88.39-3.74.78-5.59,1.16-1.84.38-3.66.76-5.47,1.13-1.8.37-3.59.74-5.36,1.11s-3.52.73-5.25,1.09c-1.73.36-3.45.71-5.15,1.07-1.7.35-3.39.7-5.06,1.05-1.67.35-3.33.69-4.97,1.03-1.64.34-3.27.68-4.89,1.01-1.62.33-3.22.67-4.81,1-1.59.33-3.17.66-4.74.98s-3.13.65-4.67.97c-1.55.32-3.08.64-4.61.96-1.53.32-3.05.63-4.56.94-1.51.31-3.01.62-4.51.93-1.5.31-2.99.62-4.47.93-1.48.31-2.96.61-4.43.92-1.47.3-2.94.61-4.4.91-1.46.3-2.92.6-4.37.91-1.45.3-2.91.6-4.35.9-1.45.3-2.9.6-4.34.9-1.44.3-2.89.6-4.33.9-1.44.3-2.89.6-4.33.9s-2.89.6-4.33.9-2.89.6-4.34.9-2.9.6-4.35.9c-1.45.3-2.91.6-4.37.91s-2.93.61-4.4.91-2.95.61-4.43.92c-1.48.31-2.97.62-4.47.93-1.5.31-3,.62-4.51.93-1.51.31-3.03.63-4.56.94-1.53.32-3.07.64-4.61.96-1.55.32-3.1.64-4.67.97s-3.15.65-4.74.98-3.19.66-4.81,1c-1.62.33-3.24.67-4.89,1.01-1.64.34-3.3.68-4.97,1.03s-3.36.7-5.06,1.05-3.42.71-5.15,1.07c-1.73.36-3.48.72-5.25,1.09s-3.55.74-5.36,1.11c-1.8.37-3.63.75-5.47,1.13-1.84.38-3.7.77-5.59,1.16s-3.78.78-5.71,1.18c0,2,0,3.98,0,5.96,0,1.98,0,3.94,0,5.89,0,1.95,0,3.89,0,5.83,0,1.93,0,3.85,0,5.76,0,1.91,0,3.81,0,5.7,0,1.89,0,3.77,0,5.64,0,1.87,0,3.73,0,5.58s0,3.69,0,5.52c0,1.83,0,3.65,0,5.46,0,1.81,0,3.61,0,5.41,0,1.79,0,3.58,0,5.35,0,1.78,0,3.54,0,5.3,0,1.76,0,3.51,0,5.25,0,1.74,0,3.48,0,5.2,0,1.73,0,3.44,0,5.16,0,1.71,0,3.41,0,5.11,0,1.7,0,3.38,0,5.07,0,1.68,0,3.36,0,5.02s0,3.33,0,4.98c0,1.65,0,3.3,0,4.94,0,1.64,0,3.28,0,4.91,0,1.63,0,3.25,0,4.87,0,1.62,0,3.23,0,4.84s0,3.21,0,4.81c0,1.6,0,3.19,0,4.77,0,1.59,0,3.17,0,4.75s0,3.15,0,4.72c0,1.57,0,3.13,0,4.69,0,1.56,0,3.12,0,4.67,0,1.55,0,3.1,0,4.64,0,1.54,0,3.09,0,4.62,0,1.54,0,3.07,0,4.6,0,1.53,0,3.06,0,4.59,0,1.53,0,3.05,0,4.57,0,1.52,0,3.04,0,4.56,0,1.52,0,3.03,0,4.54s0,3.02,0,4.53,0,3.02,0,4.52c0,1.51,0,3.01,0,4.51,0,1.5,0,3.01,0,4.51s0,3,0,4.5,0,3,0,4.5,0,3,0,4.5,0,3,0,4.5c0,1.5,0,3,0,4.5,0,1.5,0,3,0,4.5s0,3,0,4.51c0,1.5,0,3.01,0,4.51,0,1.51,0,3.01,0,4.52s0,3.02,0,4.53,0,3.03,0,4.54,0,3.03,0,4.56c0,1.52,0,3.04,0,4.57,0,1.53,0,3.05,0,4.59,0,1.53,0,3.07,0,4.6s0,3.08,0,4.62c0,1.54,0,3.09,0,4.64,0,1.55,0,3.11,0,4.67,0,1.56,0,3.12,0,4.69s0,3.14,0,4.72,0,3.16,0,4.75c0,1.59,0,3.18,0,4.77s0,3.2,0,4.81c0,1.61,0,3.22,0,4.84,0,1.62,0,3.24,0,4.87,0,1.63,0,3.27,0,4.91,0,1.64,0,3.29,0,4.94,0,1.65,0,3.32,0,4.98,0,1.67,0,3.34,0,5.02,0,1.68,0,3.37,0,5.07,0,1.7,0,3.4,0,5.11,0,1.71,0,3.43,0,5.16,0,1.73,0,3.46,0,5.2,0,1.74,0,3.49,0,5.25,0,1.76,0,3.53,0,5.3,0,1.78,0,3.56,0,5.35,0,1.79,0,3.6,0,5.41,0,1.81,0,3.63,0,5.46,0,1.83,0,3.67,0,5.52s0,3.71,0,5.58,0,3.75,0,5.64,0,3.79,0,5.7c0,1.91,0,3.83,0,5.76s0,3.87,0,5.83c0,1.95,0,3.92,0,5.89,0,1.98,0,3.96,0,5.96h216.49Z"/>
      <path class="cls-1" d="M807.64,690.3c1.45,0,2.86-.12,4.24-.35,1.38-.24,2.71-.59,4.02-1.06,1.3-.47,2.57-1.06,3.8-1.77,1.23-.71,2.42-1.54,3.58-2.49,1.16-.95,2.27-2.02,3.36-3.2s2.13-2.49,3.14-3.92,1.98-2.97,2.92-4.64c.65-1.17,1.28-2.36,1.87-3.59.59-1.22,1.15-2.48,1.67-3.76.52-1.28,1.01-2.59,1.47-3.94.46-1.34.88-2.71,1.28-4.11.39-1.4.75-2.83,1.08-4.28s.62-2.94.88-4.45c.26-1.51.49-3.05.69-4.62s.36-3.17.49-4.79c.13-1.63.23-3.28.3-4.96.07-1.68.1-3.39.1-5.13,0-1.99,0-3.97,0-5.93,0-1.97,0-3.93,0-5.87,0-1.95,0-3.89,0-5.81,0-1.93,0-3.85,0-5.75,0-1.91,0-3.81,0-5.7,0-1.89,0-3.77,0-5.64,0-1.87,0-3.73,0-5.59,0-1.85,0-3.7,0-5.53,0-1.84,0-3.66,0-5.48,0-1.82,0-3.63,0-5.43,0-1.8,0-3.59,0-5.38,0-1.78,0-3.56,0-5.33,0-1.77,0-3.53,0-5.28,0-1.75,0-3.5,0-5.24,0-1.74,0-3.47,0-5.19s0-3.44,0-5.15,0-3.41,0-5.11c0-1.7,0-3.39,0-5.07,0-1.68,0-3.36,0-5.03,0-1.67,0-3.33,0-4.99,0-1.66,0-3.31,0-4.96,0-1.65,0-3.29,0-4.92,0-1.63,0-3.26,0-4.89,0-1.62,0-3.24,0-4.86,0-1.61,0-3.22,0-4.82,0-1.6,0-3.2,0-4.79s0-3.18,0-4.77c0-1.58,0-3.16,0-4.74,0-1.58,0-3.15,0-4.71s0-3.13,0-4.69c0-1.56,0-3.11,0-4.67,0-1.55,0-3.1,0-4.64,0-1.54,0-3.09,0-4.62,0-1.54,0-3.07,0-4.6,0-1.53,0-3.06,0-4.59s0-3.05,0-4.57c0-1.52,0-3.04,0-4.55s0-3.03,0-4.54c0-1.51,0-3.02,0-4.53,0-1.51,0-3.01,0-4.52,0-1.5,0-3.01,0-4.51,0-1.5,0-3,0-4.5,0-1.5,0-3,0-4.49,0-1.5,0-2.99,0-4.49,0-1.49,0-2.99,0-4.48,0-1.49,0-2.99,0-4.48,0-1.49,0-2.98,0-4.48,0-1.49,0-2.98,0-4.47,0-1.49,0-2.98,0-4.48s0-2.98,0-4.48,0-2.99,0-4.48c0-1.49,0-2.99,0-4.49,0-1.5,0-2.99,0-4.49,0-1.5,0-3,0-4.5s0-3,0-4.51c0-1.5,0-3.01,0-4.52,0-1.51,0-3.02,0-4.53,0-1.51,0-3.02,0-4.54s0-3.03,0-4.55c0-1.52,0-3.04,0-4.57,0-1.53,0-3.05,0-4.59,0-1.53,0-3.07,0-4.6s0-3.08,0-4.62c0-1.54,0-3.09,0-4.64s0-3.11,0-4.67c0-1.56,0-3.12,0-4.69s0-3.14,0-4.71c0-1.58,0-3.15,0-4.74,0-1.58,0-3.17,0-4.77,0-1.59,0-3.19,0-4.79,0-1.6,0-3.21,0-4.82,0-1.61,0-3.23,0-4.86,0-1.62,0-3.25,0-4.89s0-3.28,0-4.92c0-1.65,0-3.3,0-4.96,0-1.66,0-3.32,0-4.99,0-1.67,0-3.35,0-5.03,0-1.68,0-3.37,0-5.07,0-1.7,0-3.4,0-5.11,0-1.71,0-3.43,0-5.15s0-3.46,0-5.19c0-1.74,0-3.48,0-5.24s0-3.51,0-5.28c0-1.77,0-3.55,0-5.33,0-1.78,0-3.58,0-5.38,0-1.8,0-3.61,0-5.43,0-1.82,0-3.64,0-5.48,0-1.84,0-3.68,0-5.53,0-1.85,0-3.71,0-5.59,0-1.87,0-3.75,0-5.64,0-1.89,0-3.79,0-5.7,0-1.91,0-3.83,0-5.75,0-1.93,0-3.86,0-5.81,0-1.95,0-3.9,0-5.87,0-1.97,0-3.95,0-5.93-1.89.39-3.75.78-5.56,1.15-1.82.38-3.59.74-5.34,1.11s-3.45.72-5.13,1.06-3.33.69-4.95,1.03c-1.62.34-3.22.67-4.79.99s-3.12.65-4.65.96-3.04.63-4.53.94c-1.49.31-2.97.62-4.44.92-1.46.3-2.92.6-4.36.9-1.44.3-2.88.6-4.31.89-1.43.3-2.85.59-4.27.89-1.42.29-2.84.59-4.26.88s-2.85.59-4.27.89c-1.43.3-2.86.59-4.31.89-1.44.3-2.9.6-4.36.9-1.46.3-2.94.61-4.44.92-1.49.31-3,.62-4.53.94-1.53.32-3.08.64-4.65.96-1.57.33-3.17.66-4.79.99-1.62.34-3.27.68-4.95,1.03s-3.39.7-5.13,1.06c-1.74.36-3.52.73-5.34,1.11s-3.67.76-5.56,1.15c0,1.99,0,3.97,0,5.94,0,1.97,0,3.92,0,5.87,0,1.94,0,3.87,0,5.79,0,1.92,0,3.82,0,5.72,0,1.89,0,3.78,0,5.65,0,1.87,0,3.73,0,5.58,0,1.85,0,3.69,0,5.51s0,3.64,0,5.45,0,3.6,0,5.39,0,3.56,0,5.33,0,3.52,0,5.27,0,3.48,0,5.21c0,1.73,0,3.45,0,5.16s0,3.41,0,5.11c0,1.69,0,3.38,0,5.06,0,1.68,0,3.35,0,5.01,0,1.66,0,3.32,0,4.96,0,1.65,0,3.29,0,4.92,0,1.63,0,3.26,0,4.88,0,1.62,0,3.23,0,4.84s0,3.21,0,4.8c0,1.6,0,3.18,0,4.77,0,1.58,0,3.16,0,4.73,0,1.57,0,3.14,0,4.7,0,1.56,0,3.12,0,4.67,0,1.55,0,3.1,0,4.65,0,1.55,0,3.09,0,4.62,0,1.54,0,3.07,0,4.6,0,1.53,0,3.06,0,4.58,0,1.52,0,3.04,0,4.56,0,1.52,0,3.03,0,4.54,0,1.51,0,3.02,0,4.53s0,3.01,0,4.52,0,3.01,0,4.51c0,1.5,0,3,0,4.5,0,1.5,0,3,0,4.49s0,2.99,0,4.49c0,1.5,0,2.99,0,4.49s0,2.99,0,4.49,0,2.99,0,4.49c0,1.5,0,2.99,0,4.49,0,1.5,0,3,0,4.5,0,1.5,0,3,0,4.51s0,3.01,0,4.52c0,1.51,0,3.02,0,4.53s0,3.03,0,4.54,0,3.04,0,4.56c0,1.52,0,3.05,0,4.58,0,1.53,0,3.06,0,4.6,0,1.54,0,3.08,0,4.62,0,1.55,0,3.09,0,4.65,0,1.55,0,3.11,0,4.68,0,1.56,0,3.13,0,4.7,0,1.57,0,3.15,0,4.74,0,1.58,0,3.17,0,4.77,0,1.6,0,3.2,0,4.8,0,1.61,0,3.22,0,4.84,0,1.62,0,3.25,0,4.88s0,3.27,0,4.92c0,1.65,0,3.3,0,4.97s0,3.33,0,5.01c0,1.68,0,3.36,0,5.06s0,3.4,0,5.11c0,1.71,0,3.43,0,5.16,0,1.73,0,3.47,0,5.21s0,3.5,0,5.27,0,3.54,0,5.33,0,3.58,0,5.39c0,1.81,0,3.62,0,5.45s0,3.66,0,5.51,0,3.71,0,5.58c0,1.87,0,3.75,0,5.65s0,3.8,0,5.72c0,1.92,0,3.85,0,5.79s0,3.9,0,5.87c0,1.97,0,3.95,0,5.94,0,2.09-.07,4.07-.22,5.93-.14,1.86-.36,3.61-.65,5.24s-.65,3.15-1.08,4.54c-.43,1.4-.94,2.68-1.51,3.85-.58,1.17-1.22,2.22-1.94,3.15-.9,1.17-1.88,2.2-2.95,3.09-1.06.89-2.21,1.64-3.44,2.26s-2.54,1.09-3.93,1.43c-1.39.34-2.86.54-4.42.6-1.55.06-3.03-.02-4.42-.26-1.39-.24-2.7-.62-3.93-1.16-1.23-.54-2.37-1.22-3.43-2.05s-2.04-1.82-2.94-2.95c-.72-.9-1.37-1.92-1.94-3.06-.58-1.13-1.08-2.38-1.51-3.75s-.79-2.85-1.08-4.44-.5-3.31-.65-5.13c-.14-1.83-.21-3.77-.21-5.83,0-1.98,0-3.95,0-5.91,0-1.96,0-3.9,0-5.83,0-1.93,0-3.85,0-5.76s0-3.8,0-5.69c0-1.88,0-3.76,0-5.62s0-3.71,0-5.55c0-1.84,0-3.66,0-5.48,0-1.82,0-3.62,0-5.42,0-1.79,0-3.58,0-5.35,0-1.77,0-3.54,0-5.29s0-3.5,0-5.23c0-1.74,0-3.46,0-5.18,0-1.72,0-3.43,0-5.12s0-3.39,0-5.07c0-1.68,0-3.36,0-5.02,0-1.67,0-3.32,0-4.98,0-1.65,0-3.29,0-4.93,0-1.64,0-3.26,0-4.89s0-3.24,0-4.85,0-3.21,0-4.81,0-3.19,0-4.77c0-1.58,0-3.16,0-4.73s0-3.14,0-4.7c0-1.56,0-3.12,0-4.67,0-1.55,0-3.1,0-4.64s0-3.08,0-4.62c0-1.53,0-3.06,0-4.59,0-1.53,0-3.05,0-4.57s0-3.04,0-4.55,0-3.02,0-4.53c0-1.51,0-3.01,0-4.52,0-1.5,0-3,0-4.5,0-1.5,0-3,0-4.49s0-2.99,0-4.48,0-2.98,0-4.47c0-1.49,0-2.98,0-4.47s0-2.98,0-4.46c0-1.49,0-2.98,0-4.46s0-2.98,0-4.46c0-1.49,0-2.98,0-4.47,0-1.49,0-2.98,0-4.47s0-2.99,0-4.48,0-2.99,0-4.49,0-3,0-4.5c0-1.5,0-3.01,0-4.52s0-3.02,0-4.53c0-1.51,0-3.03,0-4.55,0-1.52,0-3.04,0-4.57s0-3.06,0-4.59,0-3.07,0-4.62c0-1.54,0-3.09,0-4.64,0-1.55,0-3.11,0-4.67,0-1.56,0-3.13,0-4.7,0-1.57,0-3.15,0-4.73,0-1.58,0-3.17,0-4.77,0-1.6,0-3.2,0-4.81,0-1.61,0-3.22,0-4.85s0-3.25,0-4.89,0-3.28,0-4.93,0-3.31,0-4.98c0-1.67,0-3.34,0-5.02,0-1.68,0-3.37,0-5.07s0-3.41,0-5.12c0-1.72,0-3.44,0-5.18,0-1.74,0-3.48,0-5.23,0-1.75,0-3.52,0-5.29s0-3.56,0-5.35,0-3.6,0-5.42c0-1.82,0-3.64,0-5.48,0-1.84,0-3.69,0-5.55,0-1.86,0-3.73,0-5.62,0-1.88,0-3.78,0-5.69,0-1.91,0-3.83,0-5.76,0-1.93,0-3.88,0-5.83,0-1.96,0-3.93,0-5.91-1.91.39-3.77.78-5.6,1.16s-3.62.75-5.38,1.12c-1.76.36-3.49.72-5.18,1.07s-3.36.7-5.01,1.04c-1.64.34-3.26.67-4.85,1s-3.16.65-4.71.98c-1.55.32-3.08.64-4.59.95s-3.01.62-4.49.93c-1.48.31-2.95.61-4.41.91s-2.91.6-4.35.9c-1.44.3-2.88.6-4.31.89-1.43.3-2.86.59-4.29.89s-2.86.59-4.29.89c-1.43.3-2.87.59-4.31.89-1.44.3-2.89.6-4.35.9-1.46.3-2.93.61-4.41.91s-2.98.62-4.49.93c-1.51.31-3.04.63-4.59.95s-3.12.65-4.71.98c-1.59.33-3.21.66-4.85,1-1.64.34-3.31.69-5.01,1.04-1.7.35-3.42.71-5.18,1.07-1.76.36-3.55.74-5.38,1.12-1.83.38-3.7.77-5.6,1.16,0,1.99,0,3.98,0,5.95,0,1.97,0,3.93,0,5.88s0,3.89,0,5.81c0,1.93,0,3.84,0,5.75,0,1.91,0,3.8,0,5.68,0,1.88,0,3.76,0,5.62s0,3.72,0,5.56c0,1.84,0,3.68,0,5.5,0,1.82,0,3.64,0,5.45s0,3.6,0,5.39,0,3.57,0,5.34c0,1.77,0,3.53,0,5.28,0,1.75,0,3.5,0,5.23,0,1.74,0,3.46,0,5.19s0,3.43,0,5.14c0,1.71,0,3.4,0,5.09s0,3.37,0,5.05,0,3.34,0,5.01c0,1.66,0,3.32,0,4.97,0,1.65,0,3.29,0,4.93,0,1.64,0,3.27,0,4.89,0,1.62,0,3.24,0,4.85s0,3.22,0,4.82,0,3.2,0,4.79c0,1.59,0,3.18,0,4.76,0,1.58,0,3.16,0,4.73,0,1.57,0,3.14,0,4.7,0,1.56,0,3.12,0,4.68,0,1.55,0,3.1,0,4.65,0,1.55,0,3.09,0,4.63,0,1.54,0,3.08,0,4.61,0,1.53,0,3.06,0,4.59,0,1.53,0,3.05,0,4.57,0,1.52,0,3.04,0,4.56,0,1.52,0,3.03,0,4.54,0,1.51,0,3.02,0,4.53,0,1.51,0,3.01,0,4.52,0,1.5,0,3.01,0,4.51,0,1.5,0,3,0,4.5,0,1.5,0,3,0,4.5,0,1.5,0,3,0,4.49,0,1.5,0,2.99,0,4.49,0,1.5,0,2.99,0,4.49,0,1.5,0,2.99,0,4.49,0,1.5,0,2.99,0,4.49,0,1.5,0,3,0,4.5,0,1.5,0,3,0,4.5,0,1.5,0,3.01,0,4.51,0,1.5,0,3.01,0,4.52,0,1.51,0,3.02,0,4.53,0,1.51,0,3.03,0,4.54,0,1.52,0,3.03,0,4.56,0,1.52,0,3.05,0,4.57,0,1.53,0,3.06,0,4.59,0,1.53,0,3.07,0,4.61,0,1.54,0,3.08,0,4.63s0,3.1,0,4.65c0,1.55,0,3.11,0,4.68,0,1.56,0,3.13,0,4.7,0,1.57,0,3.15,0,4.73,0,1.58,0,3.17,0,4.76,0,1.59,0,3.19,0,4.79,0,1.6,0,3.21,0,4.82,0,1.61,0,3.23,0,4.85s0,3.25,0,4.89c0,1.64,0,3.28,0,4.93,0,1.65,0,3.3,0,4.97,0,1.66,0,3.33,0,5.01,0,1.68,0,3.36,0,5.05s0,3.39,0,5.09c0,1.71,0,3.42,0,5.14,0,1.72,0,3.45,0,5.19,0,1.74,0,3.48,0,5.23s0,3.51,0,5.29c0,1.77,0,3.55,0,5.34s0,3.58,0,5.39,0,3.62,0,5.45,0,3.66,0,5.5c0,1.84,0,3.7,0,5.56s0,3.74,0,5.62c0,1.88,0,3.78,0,5.69,0,1.91,0,3.82,0,5.75,0,1.93,0,3.87,0,5.81s0,3.91,0,5.88c0,1.97,0,3.96,0,5.95,0,1.73.04,3.44.12,5.1.08,1.67.2,3.31.36,4.91.16,1.6.36,3.18.6,4.72.24,1.54.52,3.05.85,4.53.32,1.48.69,2.92,1.09,4.34s.85,2.8,1.33,4.15c.48,1.35,1.01,2.67,1.57,3.96.57,1.29,1.17,2.54,1.82,3.77s1.33,2.42,2.06,3.58c.93,1.5,1.91,2.89,2.91,4.17s2.05,2.46,3.13,3.54c1.08,1.07,2.2,2.04,3.35,2.9s2.35,1.61,3.58,2.26c1.23.65,2.49,1.18,3.8,1.62,1.3.43,2.64.76,4.02.97,1.38.22,2.79.32,4.24.32h193.91Z"/>
      <path class="cls-1" d="M1089.89,690.3c1.45,0,2.86-.13,4.24-.39,1.38-.26,2.71-.65,4.02-1.18,1.3-.52,2.57-1.18,3.8-1.97,1.23-.79,2.42-1.71,3.58-2.76,1.16-1.05,2.27-2.24,3.36-3.55,1.08-1.32,2.13-2.77,3.14-4.35s1.98-3.3,2.92-5.15c.65-1.29,1.28-2.62,1.86-3.98s1.15-2.75,1.67-4.17c.52-1.42,1.01-2.88,1.47-4.37.46-1.49.88-3.01,1.28-4.56.39-1.55.75-3.13,1.08-4.75.33-1.62.62-3.26.88-4.94.26-1.68.49-3.39.69-5.13.2-1.74.36-3.51.49-5.32s.23-3.64.29-5.51c.07-1.87.1-3.77.1-5.69v-192.59c0-2.1-.03-4.16-.09-6.18-.06-2.01-.14-3.98-.26-5.91-.11-1.92-.26-3.8-.43-5.64-.17-1.83-.37-3.62-.6-5.37-.23-1.74-.48-3.44-.77-5.09-.28-1.65-.6-3.26-.94-4.82-.34-1.56-.71-3.08-1.11-4.55-.4-1.47-.82-2.9-1.28-4.27-.45-1.38-.94-2.71-1.45-4s-1.05-2.53-1.62-3.73-1.16-2.35-1.79-3.45c-.86-1.52-1.75-2.97-2.68-4.35-.93-1.38-1.88-2.7-2.88-3.95-.99-1.25-2.02-2.43-3.08-3.55-1.06-1.11-2.15-2.16-3.27-3.14-1.12-.98-2.28-1.89-3.47-2.74-1.19-.85-2.42-1.63-3.67-2.34-1.26-.71-2.55-1.36-3.87-1.94s-2.68-1.09-4.07-1.54c-1.83-.58-3.61-1.15-5.34-1.7-1.74-.55-3.44-1.09-5.1-1.61s-3.29-1.03-4.88-1.53-3.15-.99-4.69-1.47c-1.53-.48-3.04-.95-4.52-1.41-1.48-.46-2.94-.91-4.39-1.36s-2.87-.89-4.28-1.32c-1.41-.43-2.81-.86-4.19-1.29-1.39-.43-2.77-.85-4.14-1.27s-2.74-.84-4.11-1.25c-1.37-.42-2.74-.83-4.11-1.25-1.37-.42-2.75-.83-4.14-1.25-1.39-.42-2.78-.84-4.19-1.26s-2.83-.85-4.28-1.28c-1.44-.43-2.9-.87-4.39-1.31-1.48-.44-2.99-.89-4.52-1.34s-3.09-.92-4.69-1.39c-1.59-.47-3.22-.95-4.88-1.43-1.66-.49-3.36-.98-5.1-1.49-1.74-.51-3.52-1.03-5.34-1.55-1.88-.41-3.61-.88-5.17-1.42-1.56-.54-2.97-1.16-4.22-1.84-1.25-.68-2.34-1.44-3.27-2.26-.93-.82-1.7-1.72-2.31-2.68-.61-.96-1.15-2.06-1.61-3.31s-.84-2.63-1.15-4.15c-.31-1.53-.54-3.19-.69-5-.15-1.81-.23-3.76-.23-5.85,0-1.88,0-3.68,0-5.4s0-3.38,0-4.98c0-1.6,0-3.15,0-4.66,0-1.51,0-2.98,0-4.42,0-1.45,0-2.87,0-4.28,0-1.42,0-2.82,0-4.24,0-1.42,0-2.84,0-4.28,0-1.45,0-2.92,0-4.42,0-1.51,0-3.06,0-4.66,0-1.6,0-3.26,0-4.98,0-1.73,0-3.52,0-5.4,0-1.96.08-3.84.23-5.62.15-1.79.38-3.49.69-5.11.31-1.62.69-3.16,1.15-4.61s1-2.82,1.61-4.1c.61-1.28,1.35-2.44,2.22-3.47s1.86-1.94,2.99-2.72c1.12-.78,2.38-1.44,3.76-1.98,1.38-.53,2.89-.94,4.53-1.23,1.64-.28,3.15-.39,4.54-.32,1.39.07,2.66.32,3.8.75s2.17,1.04,3.07,1.82c.9.79,1.68,1.75,2.33,2.89.52.92.99,1.93,1.41,3.05s.78,2.33,1.1,3.64c.31,1.31.58,2.72.79,4.23s.37,3.12.47,4.83c.1,1.71.16,3.51.16,5.42,0,1.86,0,3.65,0,5.39,0,1.74,0,3.42,0,5.05,0,1.63,0,3.22,0,4.76,0,1.55,0,3.06,0,4.54s0,2.93,0,4.37c0,1.43,0,2.85,0,4.25,0,1.4,0,2.8,0,4.2,0,1.4,0,2.79,0,4.2s0,2.82,0,4.25c0,1.43,0,2.89,0,4.37,0,1.48,0,2.99,0,4.54,0,1.55,0,3.13,0,4.76,0,1.63,0,3.31,0,5.05,0,1.74,0,3.53,0,5.39,1.95-.27,3.87-.54,5.74-.8s3.71-.51,5.51-.76c1.8-.25,3.56-.49,5.3-.73,1.73-.24,3.43-.48,5.11-.71s3.32-.46,4.94-.68c1.62-.22,3.22-.45,4.8-.66,1.58-.22,3.13-.43,4.68-.65,1.54-.21,3.06-.42,4.58-.63,1.51-.21,3.01-.42,4.5-.62,1.49-.21,2.97-.41,4.44-.62,1.47-.2,2.94-.41,4.41-.61,1.47-.2,2.93-.41,4.4-.61s2.94-.41,4.41-.61,2.95-.41,4.44-.62c1.49-.21,2.99-.41,4.5-.62,1.51-.21,3.03-.42,4.58-.63,1.54-.21,3.1-.43,4.68-.65,1.58-.22,3.18-.44,4.8-.66,1.62-.22,3.27-.45,4.94-.68,1.67-.23,3.38-.47,5.11-.71s3.5-.48,5.3-.73c1.8-.25,3.63-.5,5.51-.76,1.87-.26,3.78-.52,5.74-.8v-128.12c0-1.93-.03-3.82-.1-5.67s-.16-3.67-.29-5.44c-.13-1.78-.29-3.52-.49-5.22-.2-1.7-.43-3.36-.69-4.99-.26-1.62-.56-3.21-.88-4.76-.33-1.55-.69-3.06-1.08-4.53-.39-1.47-.82-2.9-1.28-4.29-.46-1.39-.95-2.75-1.47-4.06s-1.08-2.59-1.67-3.83-1.21-2.44-1.86-3.6c-.93-1.65-1.91-3.17-2.92-4.54-1.01-1.37-2.05-2.61-3.14-3.7s-2.2-2.05-3.35-2.86c-1.16-.81-2.35-1.49-3.57-2.02-1.23-.53-2.49-.93-3.79-1.18s-2.64-.37-4.01-.35c-1.37.02-2.79.18-4.23.48-1.95.4-3.88.8-5.78,1.2s-3.78.78-5.64,1.17-3.69.76-5.51,1.14c-1.81.38-3.61.75-5.38,1.11s-3.53.73-5.26,1.09-3.45.71-5.15,1.07c-1.7.35-3.38.7-5.04,1.05-1.67.34-3.31.69-4.95,1.03-1.63.34-3.25.67-4.86,1.01-1.61.33-3.2.66-4.78.99s-3.15.65-4.71.97c-1.56.32-3.1.64-4.64.96-1.54.32-3.06.63-4.58.95-1.52.31-3.03.63-4.53.94s-3,.62-4.49.93c-1.49.31-2.98.62-4.46.92s-2.96.61-4.43.92c-1.47.31-2.94.61-4.41.91-1.47.3-2.93.61-4.4.91s-2.93.61-4.39.91c-1.46.3-2.93.61-4.4.91-1.47.3-2.94.61-4.41.91-1.47.31-2.95.61-4.43.92s-2.97.61-4.46.92c-1.49.31-2.99.62-4.49.93s-3.01.62-4.53.94-3.05.63-4.58.95c-1.54.32-3.08.64-4.64.96s-3.13.65-4.71.97c-1.58.33-3.17.66-4.78.99-1.61.33-3.23.67-4.86,1.01-1.63.34-3.28.68-4.95,1.03-1.67.34-3.35.69-5.04,1.05s-3.41.71-5.15,1.07c-1.73.36-3.49.72-5.26,1.09-1.77.37-3.57.74-5.38,1.11-1.81.38-3.65.76-5.51,1.14-1.86.38-3.74.77-5.64,1.17-1.9.39-3.83.79-5.78,1.2-1.27.26-2.51.61-3.72,1.05s-2.4.96-3.55,1.57c-1.16.61-2.28,1.31-3.38,2.09-1.1.78-2.17,1.65-3.21,2.61-1.04.96-2.06,2-3.04,3.13s-1.95,2.34-2.88,3.64c-.93,1.3-1.83,2.68-2.71,4.15-.87,1.47-1.72,3.02-2.54,4.66-.66,1.31-1.28,2.65-1.87,4-.59,1.36-1.15,2.73-1.67,4.13s-1.01,2.82-1.47,4.26-.88,2.91-1.28,4.39-.75,2.99-1.08,4.52c-.33,1.53-.62,3.08-.88,4.65-.26,1.57-.49,3.17-.69,4.79-.2,1.62-.36,3.26-.49,4.92-.13,1.66-.23,3.35-.29,5.05s-.1,3.44-.1,5.19c0,1.98,0,3.94,0,5.87s0,3.83,0,5.71,0,3.73,0,5.56,0,3.63,0,5.42c0,1.78,0,3.54,0,5.28,0,1.74,0,3.46,0,5.16s0,3.38,0,5.05c0,1.67,0,3.32,0,4.95s0,3.25,0,4.86,0,3.2,0,4.77c0,1.58,0,3.15,0,4.7s0,3.1,0,4.64c0,1.54,0,3.06,0,4.58,0,1.52,0,3.03,0,4.54,0,1.51,0,3.01,0,4.51s0,2.99,0,4.48,0,2.98,0,4.47c0,1.49,0,2.98,0,4.46,0,1.49,0,2.98,0,4.47,0,1.49,0,2.98,0,4.48,0,1.5,0,3,0,4.51,0,1.51,0,3.02,0,4.54s0,3.05,0,4.58c0,1.54,0,3.08,0,4.64,0,1.56,0,3.12,0,4.7,0,1.58,0,3.17,0,4.77,0,1.6,0,3.22,0,4.86,0,1.63,0,3.28,0,4.95s0,3.35,0,5.05c0,1.7,0,3.42,0,5.16,0,1.74,0,3.5,0,5.28s0,3.59,0,5.42,0,3.68,0,5.56,0,3.78,0,5.71c0,1.93,0,3.88,0,5.87,0,2.05.04,4.06.11,6.01.07,1.95.18,3.86.32,5.71s.32,3.66.54,5.41c.22,1.75.47,3.46.75,5.11s.61,3.26.97,4.81c.36,1.55.76,3.06,1.19,4.51.43,1.45.9,2.86,1.4,4.22.5,1.36,1.04,2.66,1.62,3.92.58,1.26,1.19,2.47,1.84,3.62s1.33,2.27,2.05,3.33c.9,1.33,1.83,2.6,2.78,3.82s1.94,2.38,2.95,3.49,2.05,2.16,3.12,3.16c1.07,1,2.17,1.95,3.29,2.84,1.12.89,2.28,1.73,3.46,2.51,1.18.78,2.39,1.51,3.63,2.18,1.24.67,2.5,1.29,3.8,1.85,1.29.56,2.61,1.07,3.96,1.52,1.82.57,3.59,1.13,5.32,1.67,1.73.55,3.42,1.08,5.07,1.6,1.65.52,3.27,1.04,4.85,1.54,1.58.5,3.14,1,4.66,1.49s3.02.97,4.5,1.44c1.48.47,2.93.94,4.36,1.4s2.85.92,4.25,1.38,2.79.91,4.17,1.35c1.38.45,2.75.9,4.12,1.34s2.73.89,4.09,1.34c1.36.45,2.72.89,4.09,1.34,1.37.45,2.74.9,4.12,1.36s2.77.92,4.17,1.38c1.4.47,2.82.94,4.25,1.41s2.89.96,4.36,1.46c1.48.49,2.97.99,4.5,1.51s3.08,1.03,4.66,1.57c1.58.53,3.2,1.08,4.85,1.64,1.65.56,3.34,1.13,5.07,1.72,1.73.59,3.5,1.19,5.32,1.81,1.8.52,3.45,1.12,4.97,1.78,1.51.66,2.88,1.39,4.11,2.19,1.23.8,2.31,1.67,3.25,2.61.94.94,1.74,1.94,2.4,3.02.52.86.99,1.84,1.41,2.93.42,1.09.78,2.3,1.1,3.62.31,1.32.58,2.76.79,4.31.21,1.55.37,3.22.47,5s.16,3.68.16,5.69c0,1.91,0,3.72,0,5.47,0,1.75,0,3.43,0,5.05,0,1.62,0,3.19,0,4.72,0,1.53,0,3.02,0,4.48,0,1.46,0,2.91,0,4.34,0,1.43,0,2.86,0,4.29,0,1.43,0,2.87,0,4.34,0,1.46,0,2.95,0,4.48,0,1.53,0,3.09,0,4.72,0,1.62,0,3.3,0,5.05,0,1.75,0,3.57,0,5.47,0,1.69-.05,3.32-.14,4.88-.09,1.56-.23,3.05-.41,4.48-.18,1.43-.41,2.78-.69,4.07-.28,1.29-.6,2.51-.96,3.67s-.78,2.24-1.24,3.26c-.57,1.28-1.28,2.4-2.12,3.37-.84.97-1.81,1.79-2.92,2.45s-2.34,1.18-3.71,1.54c-1.37.36-2.87.57-4.51.62-1.64.06-3.16-.05-4.56-.31-1.4-.26-2.69-.69-3.85-1.27s-2.21-1.32-3.14-2.22c-.93-.9-1.74-1.96-2.44-3.18-.55-.97-1.06-2.04-1.5-3.19-.45-1.15-.83-2.4-1.17-3.74-.33-1.34-.61-2.76-.83-4.28-.22-1.52-.39-3.13-.5-4.82-.11-1.7-.17-3.49-.17-5.37,0-1.95,0-3.83,0-5.65s0-3.57,0-5.27,0-3.35,0-4.95c0-1.61,0-3.17,0-4.71,0-1.54,0-3.05,0-4.54,0-1.49,0-2.97,0-4.43,0-1.47,0-2.93,0-4.4,0-1.47,0-2.94,0-4.43,0-1.49,0-3,0-4.54,0-1.54,0-3.1,0-4.71,0-1.61,0-3.25,0-4.95s0-3.45,0-5.27,0-3.69,0-5.65c-1.95.12-3.87.24-5.74.35-1.87.11-3.71.23-5.51.34-1.8.11-3.56.22-5.3.33-1.73.11-3.43.21-5.11.31-1.67.1-3.32.2-4.94.3-1.62.1-3.22.2-4.8.29-1.58.1-3.14.19-4.68.29-1.54.09-3.07.19-4.58.28s-3.01.19-4.5.28c-1.49.09-2.97.18-4.44.27-1.47.09-2.94.18-4.41.27-1.47.09-2.93.18-4.4.27-1.47.09-2.94.18-4.41.27-1.47.09-2.95.18-4.44.27s-2.99.18-4.5.28c-1.51.09-3.04.19-4.58.28-1.54.1-3.1.19-4.68.29-1.58.1-3.18.2-4.8.3-1.62.1-3.27.2-4.94.31-1.67.1-3.38.21-5.11.32s-3.5.22-5.3.33c-1.8.11-3.63.22-5.51.34-1.87.12-3.79.23-5.74.36,0,1.94,0,3.84,0,5.7,0,1.86,0,3.69,0,5.48,0,1.79,0,3.55,0,5.28,0,1.73,0,3.43,0,5.1,0,1.67,0,3.32,0,4.94s0,3.22,0,4.8c0,1.58,0,3.13,0,4.67s0,3.06,0,4.57c0,1.51,0,3.01,0,4.49s0,2.96,0,4.43c0,1.47,0,2.93,0,4.39s0,2.91,0,4.37c0,1.46,0,2.91,0,4.37s0,2.92,0,4.39c0,1.47,0,2.95,0,4.43,0,1.49,0,2.98,0,4.49,0,1.51,0,3.03,0,4.57,0,1.54,0,3.1,0,4.67,0,1.58,0,3.17,0,4.79,0,1.62,0,3.27,0,4.94s0,3.37,0,5.1,0,3.49,0,5.28c0,1.79,0,3.62,0,5.48,0,1.86,0,3.76,0,5.7,0,1.75.03,3.48.1,5.17.06,1.69.16,3.36.29,5,.13,1.64.29,3.24.49,4.82.2,1.58.42,3.13.69,4.65.26,1.52.56,3.01.88,4.47s.69,2.89,1.08,4.3.82,2.78,1.28,4.13c.46,1.35.95,2.67,1.47,3.96.52,1.29,1.08,2.55,1.67,3.78.59,1.23,1.21,2.44,1.87,3.61.93,1.68,1.91,3.24,2.91,4.69,1.01,1.44,2.05,2.77,3.13,3.97,1.08,1.2,2.2,2.29,3.36,3.25,1.16.97,2.35,1.81,3.58,2.54s2.49,1.33,3.8,1.81c1.3.48,2.64.85,4.02,1.09,1.38.24,2.79.36,4.24.36h190.45Z"/>
    </g>
    <g>
      <path class="cls-2" d="M305.19,685.3c0-1.91,0-3.78,0-5.59s0-3.59,0-5.32c0-1.73,0-3.43,0-5.08,0-1.66,0-3.28,0-4.88,0-1.59,0-3.16,0-4.7,0-1.54,0-3.06,0-4.56,0-1.5,0-2.98,0-4.45,0-1.47,0-2.92,0-4.37,0-1.45,0-2.89,0-4.32s0-2.87,0-4.31,0-2.87,0-4.32c0-1.45,0-2.9,0-4.37s0-2.95,0-4.45,0-3.02,0-4.56,0-3.11,0-4.7c0-1.59,0-3.22,0-4.88,0-1.66,0-3.35,0-5.08,0-1.73,0-3.51,0-5.32,0-1.82,0-3.68,0-5.59-1.96.09-3.87.17-5.72.25-1.85.08-3.66.16-5.42.24-1.76.08-3.48.15-5.15.23-1.68.07-3.32.15-4.93.22-1.61.07-3.19.14-4.75.21-1.56.07-3.09.14-4.6.2-1.51.07-3.01.13-4.5.2s-2.97.13-4.44.2c-1.47.07-2.95.13-4.42.2s-2.95.13-4.44.2c-1.49.07-2.99.13-4.5.2-1.52.07-3.05.13-4.6.2s-3.14.14-4.75.21c-1.61.07-3.25.14-4.93.22-1.68.07-3.39.15-5.15.23s-3.56.16-5.42.24c-1.85.08-3.76.17-5.72.25,0-1.6,0-2.39,0-3.99.58-1.83,1.16-3.65,1.74-5.45.57-1.8,1.14-3.59,1.71-5.36s1.12-3.53,1.68-5.28,1.1-3.48,1.65-5.2c.55-1.72,1.09-3.43,1.62-5.13.54-1.7,1.07-3.38,1.6-5.06.53-1.67,1.05-3.34,1.57-4.99.52-1.65,1.04-3.29,1.55-4.92.51-1.63,1.02-3.25,1.53-4.86s1.01-3.21,1.51-4.8c.5-1.59.99-3.17,1.49-4.74.49-1.57.98-3.14,1.47-4.69.49-1.56.97-3.1,1.45-4.64s.96-3.07,1.43-4.59.95-3.04,1.42-4.55.94-3.01,1.4-4.51.93-2.99,1.39-4.47c.46-1.48.92-2.96,1.38-4.44.46-1.47.91-2.94,1.37-4.41.45-1.46.91-2.92,1.36-4.38.45-1.46.9-2.91,1.35-4.36.45-1.45.89-2.89,1.34-4.34.45-1.44.89-2.88,1.33-4.32.44-1.44.89-2.87,1.33-4.31s.88-2.86,1.32-4.3c.44-1.43.88-2.86,1.32-4.29s.88-2.86,1.31-4.29c.44-1.43.88-2.86,1.31-4.29s.88-2.86,1.31-4.29c.44-1.43.88-2.86,1.31-4.3.44-1.43.88-2.87,1.31-4.31.44-1.44.88-2.88,1.32-4.32s.88-2.89,1.32-4.34.88-2.9,1.33-4.36c.44-1.46.89-2.92,1.33-4.39.45-1.47.89-2.94,1.34-4.41.45-1.48.9-2.96,1.35-4.45s.9-2.98,1.36-4.48c.45-1.5.91-3.01,1.37-4.52s.92-3.04,1.38-4.57.92-3.07,1.39-4.61c.47-1.55.93-3.1,1.4-4.66s.94-3.14,1.42-4.72c.48-1.58.95-3.17,1.43-4.78.48-1.6.96-3.21,1.45-4.84.49-1.62.98-3.26,1.47-4.9.49-1.65.99-3.3,1.49-4.97s1-3.35,1.51-5.05c.51-1.7,1.02-3.4,1.53-5.13s1.03-3.46,1.55-5.21c.52-1.75,1.04-3.51,1.57-5.29.53-1.78,1.06-3.57,1.6-5.38s1.08-3.63,1.62-5.48c.55-1.84,1.09-3.7,1.65-5.57.55-1.87,1.11-3.77,1.68-5.67.56-1.91,1.13-3.84,1.71-5.78.57-1.94,1.15-3.91,1.73-5.89,0-1.92,0-3.76,0-5.54s0-3.5,0-5.17c0-1.67,0-3.29,0-4.86,0-1.58,0-3.12,0-4.62,0-1.51,0-2.99,0-4.45,0-1.46,0-2.91,0-4.35,0-1.44,0-2.88,0-4.32,0-1.44,0-2.89,0-4.35s0-2.95,0-4.45c0-1.51,0-3.05,0-4.62,0-1.58,0-3.19,0-4.86,0-1.67,0-3.39,0-5.17s0-3.63,0-5.54c-1.93.4-3.84.79-5.72,1.19-1.89.39-3.76.78-5.6,1.16-1.85.38-3.68.76-5.49,1.14s-3.6.75-5.38,1.11c-1.78.37-3.53.73-5.28,1.09-1.74.36-3.47.72-5.18,1.07-1.71.35-3.4.71-5.08,1.05-1.68.35-3.35.69-5,1.04-1.65.34-3.29.68-4.91,1.02s-3.24.67-4.84,1c-1.6.33-3.19.66-4.77.99-1.58.33-3.14.65-4.7.97-1.56.32-3.1.64-4.64.96-1.54.32-3.07.64-4.59.95s-3.03.63-4.54.94c-1.5.31-3,.62-4.49.93s-2.98.62-4.46.92c-1.48.31-2.95.61-4.42.92-1.47.3-2.93.61-4.4.91-1.46.3-2.92.6-4.37.91-1.45.3-2.91.6-4.36.9-1.45.3-2.9.6-4.35.9-1.45.3-2.89.6-4.34.9-1.45.3-2.89.6-4.34.9-1.45.3-2.9.6-4.35.9s-2.9.6-4.36.9c-1.45.3-2.91.6-4.37.91-1.46.3-2.93.61-4.39.91-1.47.3-2.94.61-4.42.92-1.48.31-2.96.61-4.46.92s-2.99.62-4.49.93c-1.5.31-3.02.62-4.54.94-1.52.31-3.05.63-4.59.95-1.54.32-3.08.64-4.64.96-1.56.32-3.12.65-4.7.97s-3.17.66-4.77.99-3.21.67-4.84,1c-1.62.34-3.26.68-4.91,1.02-1.65.34-3.32.69-5,1.04s-3.37.7-5.08,1.05c-1.71.35-3.44.71-5.18,1.07-1.74.36-3.5.73-5.27,1.09-1.78.37-3.57.74-5.38,1.11-1.81.38-3.64.75-5.49,1.14s-3.72.77-5.6,1.16c-1.89.39-3.79.79-5.72,1.19,0,1.91,0,3.76,0,5.56,0,1.8,0,3.55,0,5.26,0,1.71,0,3.37,0,5,0,1.63,0,3.22,0,4.79,0,1.56,0,3.1,0,4.61s0,3,0,4.47,0,2.93,0,4.37c0,1.44,0,2.88,0,4.31,0,1.43,0,2.86,0,4.29s0,2.87,0,4.31,0,2.9,0,4.37c0,1.47,0,2.96,0,4.47s0,3.04,0,4.61,0,3.16,0,4.79c0,1.63,0,3.29,0,5,0,1.71,0,3.46,0,5.26,0,1.8,0,3.65,0,5.56,1.95-.32,3.84-.63,5.68-.92,1.84-.3,3.62-.59,5.36-.87s3.43-.56,5.08-.83c1.65-.27,3.27-.53,4.85-.79,1.58-.26,3.14-.51,4.67-.76,1.53-.25,3.04-.5,4.53-.74,1.49-.24,2.97-.48,4.44-.72,1.47-.24,2.93-.48,4.4-.72s2.93-.48,4.4-.72c1.47-.24,2.95-.48,4.44-.72,1.49-.24,3-.49,4.53-.74,1.53-.25,3.09-.5,4.67-.76,1.58-.26,3.2-.52,4.85-.79,1.65-.27,3.35-.54,5.08-.83,1.74-.28,3.52-.57,5.36-.87,1.84-.3,3.73-.61,5.68-.92,0,1.55,0,2.32,0,3.86-.62,1.98-1.23,3.94-1.83,5.87-.6,1.94-1.2,3.86-1.8,5.76-.59,1.9-1.18,3.78-1.77,5.64-.58,1.86-1.16,3.71-1.73,5.53-.57,1.83-1.14,3.64-1.71,5.43-.56,1.79-1.12,3.57-1.68,5.33-.55,1.76-1.1,3.51-1.65,5.24-.55,1.73-1.09,3.45-1.62,5.15s-1.07,3.39-1.6,5.06c-.53,1.67-1.06,3.33-1.58,4.98-.52,1.65-1.04,3.28-1.56,4.9-.51,1.62-1.03,3.23-1.54,4.83-.51,1.6-1.01,3.19-1.52,4.76-.5,1.58-1,3.14-1.5,4.7s-.99,3.1-1.48,4.64c-.49,1.54-.98,3.07-1.47,4.59-.49,1.52-.97,3.03-1.45,4.54-.48,1.51-.96,3-1.44,4.49-.48,1.49-.95,2.97-1.43,4.45-.47,1.48-.95,2.95-1.42,4.41s-.94,2.93-1.41,4.38c-.47,1.46-.94,2.91-1.4,4.35-.47,1.45-.93,2.89-1.4,4.33-.47,1.44-.93,2.87-1.39,4.31-.46,1.43-.93,2.86-1.39,4.29-.46,1.43-.93,2.85-1.39,4.28s-.92,2.85-1.39,4.27c-.46,1.42-.92,2.84-1.39,4.27s-.93,2.84-1.39,4.27-.93,2.85-1.39,4.27c-.47,1.42-.93,2.85-1.4,4.28s-.93,2.86-1.4,4.29c-.47,1.43-.94,2.87-1.41,4.31s-.94,2.88-1.42,4.33c-.48,1.45-.95,2.9-1.43,4.35-.48,1.45-.96,2.91-1.44,4.38-.48,1.46-.97,2.93-1.45,4.41-.49,1.48-.98,2.96-1.47,4.44-.49,1.49-.99,2.98-1.48,4.48-.5,1.5-1,3.01-1.5,4.52-.5,1.52-1.01,3.04-1.52,4.57-.51,1.53-1.02,3.07-1.54,4.62-.52,1.55-1.03,3.11-1.56,4.68-.52,1.57-1.05,3.15-1.58,4.73-.53,1.59-1.06,3.19-1.6,4.79s-1.08,3.23-1.62,4.86c-.55,1.63-1.1,3.27-1.65,4.93-.55,1.65-1.11,3.32-1.68,5s-1.13,3.37-1.71,5.07c-.57,1.7-1.15,3.42-1.74,5.15-.58,1.73-1.17,3.48-1.77,5.23-.59,1.76-1.19,3.53-1.8,5.32-.61,1.79-1.22,3.59-1.83,5.41,0,1.85,0,3.62,0,5.33,0,1.71,0,3.35,0,4.95s0,3.13,0,4.64,0,2.97,0,4.41c0,1.44,0,2.85,0,4.25s0,2.79,0,4.17c0,1.39,0,2.77,0,4.17,0,1.4,0,2.81,0,4.25,0,1.44,0,2.9,0,4.41,0,1.5,0,3.04,0,4.64,0,1.59,0,3.24,0,4.95,0,1.71,0,3.48,0,5.33h225.8Z"/>
      <path class="cls-2" d="M543.27,685.3c0-1.93,0-3.82,0-5.66,0-1.84,0-3.65,0-5.41,0-1.76,0-3.49,0-5.19,0-1.69,0-3.36,0-4.99s0-3.24,0-4.82c0-1.58,0-3.14,0-4.67s0-3.05,0-4.56,0-2.99,0-4.46c0-1.48,0-2.94,0-4.4,0-1.46,0-2.91,0-4.36,0-1.45,0-2.9,0-4.35,0-1.45,0-2.9,0-4.36,0-1.46,0-2.92,0-4.4,0-1.48,0-2.96,0-4.46,0-1.5,0-3.02,0-4.56,0-1.54,0-3.09,0-4.68,0-1.58,0-3.19,0-4.82s0-3.3,0-4.99c0-1.69,0-3.42,0-5.19,0-1.76,0-3.57,0-5.41s0-3.73,0-5.66c-1.92.08-3.79.17-5.62.25s-3.62.16-5.37.24c-1.75.08-3.47.15-5.15.23-1.68.07-3.33.15-4.95.22-1.62.07-3.21.14-4.78.21-1.57.07-3.11.14-4.64.21s-3.03.13-4.52.2c-1.49.07-2.97.13-4.43.2-1.46.06-2.92.13-4.37.19-1.45.06-2.89.13-4.33.19s-2.88.13-4.31.19-2.88.13-4.33.19c-1.45.06-2.9.13-4.37.19-1.46.06-2.94.13-4.43.2s-3,.13-4.52.2c-1.53.07-3.07.14-4.64.21-1.57.07-3.16.14-4.78.21-1.62.07-3.27.14-4.95.22-1.68.07-3.4.15-5.15.23s-3.54.16-5.37.24-3.7.16-5.62.25c0-1.91,0-3.76,0-5.58,0-1.81,0-3.58,0-5.31,0-1.73,0-3.42,0-5.07,0-1.65,0-3.27,0-4.86,0-1.59,0-3.15,0-4.69s0-3.05,0-4.55,0-2.97,0-4.44,0-2.91,0-4.36c0-1.44,0-2.88,0-4.31s0-2.86,0-4.29c0-1.43,0-2.87,0-4.31s0-2.89,0-4.36c0-1.46,0-2.94,0-4.44s0-3.01,0-4.55c0-1.54,0-3.1,0-4.69,0-1.59,0-3.21,0-4.86s0-3.34,0-5.07,0-3.5,0-5.31c0-1.81,0-3.67,0-5.58,1.93-.17,3.81-.33,5.64-.48,1.83-.16,3.61-.31,5.35-.46,1.74-.15,3.44-.29,5.1-.44,1.66-.14,3.29-.28,4.89-.42s3.16-.27,4.71-.4,3.06-.26,4.56-.39c1.5-.13,2.99-.26,4.46-.38,1.47-.13,2.93-.25,4.39-.38,1.45-.12,2.9-.25,4.35-.37,1.45-.12,2.9-.25,4.35-.37,1.45-.12,2.91-.25,4.39-.38,1.47-.13,2.96-.25,4.46-.38,1.5-.13,3.02-.26,4.56-.39,1.54-.13,3.11-.27,4.71-.4s3.22-.28,4.89-.42c1.66-.14,3.36-.29,5.1-.44,1.74-.15,3.52-.3,5.35-.46s3.71-.32,5.64-.48c0-1.95,0-3.85,0-5.71,0-1.86,0-3.67,0-5.45,0-1.77,0-3.51,0-5.21s0-3.37,0-5.01c0-1.64,0-3.25,0-4.83s0-3.14,0-4.68c0-1.54,0-3.06,0-4.57s0-3,0-4.48c0-1.48,0-2.95,0-4.42,0-1.47,0-2.93,0-4.39,0-1.46,0-2.93,0-4.39,0-1.47,0-2.94,0-4.42,0-1.48,0-2.97,0-4.48,0-1.51,0-3.03,0-4.57,0-1.54,0-3.1,0-4.68,0-1.58,0-3.19,0-4.83,0-1.64,0-3.31,0-5.01,0-1.7,0-3.44,0-5.21s0-3.59,0-5.45c0-1.86,0-3.76,0-5.71-1.93.25-3.81.49-5.64.72-1.83.23-3.61.46-5.35.69-1.74.22-3.44.44-5.1.66-1.66.21-3.29.42-4.89.63-1.6.21-3.16.41-4.71.6-1.54.2-3.06.39-4.56.59-1.5.19-2.99.38-4.46.57s-2.93.38-4.39.56c-1.45.19-2.9.37-4.35.56s-2.9.37-4.35.56c-1.45.19-2.91.37-4.39.56s-2.96.38-4.46.57c-1.5.19-3.02.39-4.56.59-1.54.2-3.11.4-4.71.6-1.6.21-3.22.41-4.89.63s-3.36.43-5.1.66c-1.74.22-3.52.45-5.35.69-1.83.23-3.71.48-5.64.72,0-1.89,0-3.71,0-5.49s0-3.5,0-5.18c0-1.68,0-3.31,0-4.91,0-1.6,0-3.16,0-4.69,0-1.53,0-3.03,0-4.51,0-1.48,0-2.94,0-4.38s0-2.87,0-4.29,0-2.83,0-4.25c0-1.41,0-2.83,0-4.25s0-2.85,0-4.29c0-1.44,0-2.9,0-4.38,0-1.48,0-2.98,0-4.51,0-1.53,0-3.09,0-4.69,0-1.6,0-3.23,0-4.91,0-1.68,0-3.4,0-5.18,0-1.77,0-3.6,0-5.49,1.92-.31,3.79-.62,5.62-.91,1.83-.3,3.62-.59,5.37-.87,1.75-.29,3.47-.56,5.15-.84,1.68-.27,3.33-.54,4.95-.81,1.62-.26,3.21-.52,4.78-.78,1.57-.26,3.11-.51,4.64-.76,1.53-.25,3.03-.49,4.52-.74,1.49-.24,2.97-.48,4.43-.72,1.46-.24,2.92-.48,4.36-.71,1.45-.24,2.89-.47,4.33-.7,1.44-.23,2.87-.47,4.31-.7,1.44-.23,2.88-.47,4.33-.7,1.45-.24,2.9-.47,4.36-.71s2.94-.48,4.43-.72c1.49-.24,3-.49,4.52-.74,1.53-.25,3.07-.5,4.64-.76,1.57-.26,3.16-.51,4.78-.78,1.62-.26,3.27-.53,4.95-.81,1.68-.27,3.4-.55,5.15-.84,1.75-.29,3.54-.58,5.37-.87,1.83-.3,3.7-.6,5.62-.91,0-1.93,0-3.82,0-5.66s0-3.65,0-5.41c0-1.76,0-3.49,0-5.19,0-1.69,0-3.36,0-4.99s0-3.24,0-4.82c0-1.58,0-3.14,0-4.68,0-1.54,0-3.05,0-4.56,0-1.5,0-2.99,0-4.46,0-1.48,0-2.94,0-4.4,0-1.46,0-2.91,0-4.36,0-1.45,0-2.9,0-4.35,0-1.45,0-2.9,0-4.36,0-1.46,0-2.92,0-4.4,0-1.48,0-2.96,0-4.46,0-1.5,0-3.02,0-4.56,0-1.54,0-3.09,0-4.67,0-1.58,0-3.19,0-4.82,0-1.63,0-3.3,0-4.99,0-1.69,0-3.42,0-5.19s0-3.57,0-5.41,0-3.73,0-5.66c-1.92.4-3.83.79-5.71,1.18-1.88.39-3.74.78-5.59,1.16-1.84.38-3.66.76-5.47,1.13-1.8.37-3.59.74-5.36,1.11s-3.52.73-5.25,1.09c-1.73.36-3.45.71-5.15,1.07-1.7.35-3.39.7-5.06,1.05-1.67.35-3.33.69-4.97,1.03-1.64.34-3.27.68-4.89,1.01-1.62.33-3.22.67-4.81,1-1.59.33-3.17.66-4.74.98s-3.13.65-4.67.97c-1.55.32-3.08.64-4.61.96-1.53.32-3.05.63-4.56.94-1.51.31-3.01.62-4.51.93-1.5.31-2.99.62-4.47.93-1.48.31-2.96.61-4.43.92-1.47.3-2.94.61-4.4.91-1.46.3-2.92.6-4.37.91-1.45.3-2.91.6-4.35.9-1.45.3-2.9.6-4.34.9-1.44.3-2.89.6-4.33.9-1.44.3-2.89.6-4.33.9s-2.89.6-4.33.9-2.89.6-4.34.9-2.9.6-4.35.9c-1.45.3-2.91.6-4.37.91s-2.93.61-4.4.91-2.95.61-4.43.92c-1.48.31-2.97.62-4.47.93-1.5.31-3,.62-4.51.93-1.51.31-3.03.63-4.56.94-1.53.32-3.07.64-4.61.96-1.55.32-3.1.64-4.67.97s-3.15.65-4.74.98-3.19.66-4.81,1c-1.62.33-3.24.67-4.89,1.01-1.64.34-3.3.68-4.97,1.03-1.67.35-3.36.7-5.06,1.05s-3.42.71-5.15,1.07c-1.73.36-3.48.72-5.25,1.09-1.77.37-3.55.74-5.36,1.11-1.8.37-3.63.75-5.47,1.13-1.84.38-3.7.77-5.59,1.16s-3.78.78-5.71,1.18c0,2,0,3.98,0,5.96,0,1.98,0,3.94,0,5.89,0,1.95,0,3.89,0,5.83,0,1.93,0,3.85,0,5.76,0,1.91,0,3.81,0,5.7,0,1.89,0,3.77,0,5.64,0,1.87,0,3.73,0,5.58s0,3.69,0,5.52c0,1.83,0,3.65,0,5.46,0,1.81,0,3.61,0,5.41,0,1.79,0,3.58,0,5.35,0,1.78,0,3.54,0,5.3,0,1.76,0,3.51,0,5.25,0,1.74,0,3.48,0,5.2,0,1.73,0,3.44,0,5.16,0,1.71,0,3.41,0,5.11,0,1.7,0,3.38,0,5.07,0,1.68,0,3.36,0,5.02s0,3.33,0,4.98c0,1.65,0,3.3,0,4.94,0,1.64,0,3.28,0,4.91,0,1.63,0,3.25,0,4.87,0,1.62,0,3.23,0,4.84s0,3.21,0,4.81c0,1.6,0,3.19,0,4.77,0,1.59,0,3.17,0,4.75s0,3.15,0,4.72c0,1.57,0,3.13,0,4.69,0,1.56,0,3.12,0,4.67,0,1.55,0,3.1,0,4.64,0,1.54,0,3.09,0,4.62,0,1.54,0,3.07,0,4.6,0,1.53,0,3.06,0,4.59,0,1.53,0,3.05,0,4.57,0,1.52,0,3.04,0,4.56,0,1.52,0,3.03,0,4.54s0,3.02,0,4.53,0,3.02,0,4.52c0,1.51,0,3.01,0,4.51,0,1.5,0,3.01,0,4.51s0,3,0,4.5,0,3,0,4.5,0,3,0,4.5,0,3,0,4.5c0,1.5,0,3,0,4.5,0,1.5,0,3,0,4.5s0,3,0,4.51c0,1.5,0,3.01,0,4.51,0,1.51,0,3.01,0,4.52s0,3.02,0,4.53,0,3.03,0,4.54,0,3.03,0,4.56c0,1.52,0,3.04,0,4.57,0,1.53,0,3.05,0,4.59,0,1.53,0,3.07,0,4.6s0,3.08,0,4.62c0,1.54,0,3.09,0,4.64,0,1.55,0,3.11,0,4.67,0,1.56,0,3.12,0,4.69s0,3.14,0,4.72,0,3.16,0,4.75c0,1.59,0,3.18,0,4.77s0,3.2,0,4.81c0,1.61,0,3.22,0,4.84,0,1.62,0,3.24,0,4.87,0,1.63,0,3.27,0,4.91,0,1.64,0,3.29,0,4.94,0,1.65,0,3.32,0,4.98,0,1.67,0,3.34,0,5.02,0,1.68,0,3.37,0,5.07,0,1.7,0,3.4,0,5.11,0,1.71,0,3.43,0,5.16,0,1.73,0,3.46,0,5.2,0,1.74,0,3.49,0,5.25,0,1.76,0,3.53,0,5.3,0,1.78,0,3.56,0,5.35,0,1.79,0,3.6,0,5.41,0,1.81,0,3.63,0,5.46,0,1.83,0,3.67,0,5.52s0,3.71,0,5.58,0,3.75,0,5.64,0,3.79,0,5.7c0,1.91,0,3.83,0,5.76s0,3.87,0,5.83c0,1.95,0,3.92,0,5.89,0,1.98,0,3.96,0,5.96h216.49Z"/>
      <path class="cls-2" d="M792.64,685.3c1.45,0,2.86-.12,4.24-.35,1.38-.24,2.71-.59,4.02-1.06,1.3-.47,2.57-1.06,3.8-1.77,1.23-.71,2.42-1.54,3.58-2.49,1.16-.95,2.27-2.02,3.36-3.2s2.13-2.49,3.14-3.92,1.98-2.97,2.92-4.64c.65-1.17,1.28-2.36,1.87-3.59.59-1.22,1.15-2.48,1.67-3.76.52-1.28,1.01-2.59,1.47-3.94.46-1.34.88-2.71,1.28-4.11.39-1.4.75-2.83,1.08-4.28s.62-2.94.88-4.45c.26-1.51.49-3.05.69-4.62s.36-3.17.49-4.79c.13-1.63.23-3.28.3-4.96.07-1.68.1-3.39.1-5.13,0-1.99,0-3.97,0-5.93,0-1.97,0-3.93,0-5.87,0-1.95,0-3.89,0-5.81,0-1.93,0-3.85,0-5.75,0-1.91,0-3.81,0-5.7,0-1.89,0-3.77,0-5.64,0-1.87,0-3.73,0-5.59,0-1.85,0-3.7,0-5.53,0-1.84,0-3.66,0-5.48,0-1.82,0-3.63,0-5.43,0-1.8,0-3.59,0-5.38,0-1.78,0-3.56,0-5.33,0-1.77,0-3.53,0-5.28,0-1.75,0-3.5,0-5.24,0-1.74,0-3.47,0-5.19s0-3.44,0-5.15,0-3.41,0-5.11c0-1.7,0-3.39,0-5.07,0-1.68,0-3.36,0-5.03,0-1.67,0-3.33,0-4.99,0-1.66,0-3.31,0-4.96,0-1.65,0-3.29,0-4.92,0-1.63,0-3.26,0-4.89,0-1.62,0-3.24,0-4.86,0-1.61,0-3.22,0-4.82,0-1.6,0-3.2,0-4.79s0-3.18,0-4.77c0-1.58,0-3.16,0-4.74,0-1.58,0-3.15,0-4.71s0-3.13,0-4.69c0-1.56,0-3.11,0-4.67,0-1.55,0-3.1,0-4.64,0-1.54,0-3.09,0-4.62,0-1.54,0-3.07,0-4.6,0-1.53,0-3.06,0-4.59s0-3.05,0-4.57c0-1.52,0-3.04,0-4.55s0-3.03,0-4.54c0-1.51,0-3.02,0-4.53,0-1.51,0-3.01,0-4.52,0-1.5,0-3.01,0-4.51,0-1.5,0-3,0-4.5,0-1.5,0-3,0-4.49,0-1.5,0-2.99,0-4.49,0-1.49,0-2.99,0-4.48,0-1.49,0-2.99,0-4.48,0-1.49,0-2.98,0-4.48,0-1.49,0-2.98,0-4.47,0-1.49,0-2.98,0-4.48s0-2.98,0-4.48,0-2.99,0-4.48c0-1.49,0-2.99,0-4.49,0-1.5,0-2.99,0-4.49,0-1.5,0-3,0-4.5s0-3,0-4.51c0-1.5,0-3.01,0-4.52,0-1.51,0-3.02,0-4.53,0-1.51,0-3.02,0-4.54s0-3.03,0-4.55c0-1.52,0-3.04,0-4.57,0-1.53,0-3.05,0-4.59,0-1.53,0-3.07,0-4.6s0-3.08,0-4.62c0-1.54,0-3.09,0-4.64s0-3.11,0-4.67c0-1.56,0-3.12,0-4.69s0-3.14,0-4.71c0-1.58,0-3.15,0-4.74,0-1.58,0-3.17,0-4.77,0-1.59,0-3.19,0-4.79,0-1.6,0-3.21,0-4.82,0-1.61,0-3.23,0-4.86,0-1.62,0-3.25,0-4.89s0-3.28,0-4.92c0-1.65,0-3.3,0-4.96,0-1.66,0-3.32,0-4.99,0-1.67,0-3.35,0-5.03,0-1.68,0-3.37,0-5.07,0-1.7,0-3.4,0-5.11,0-1.71,0-3.43,0-5.15s0-3.46,0-5.19c0-1.74,0-3.48,0-5.24s0-3.51,0-5.28c0-1.77,0-3.55,0-5.33,0-1.78,0-3.58,0-5.38,0-1.8,0-3.61,0-5.43,0-1.82,0-3.64,0-5.48,0-1.84,0-3.68,0-5.53,0-1.85,0-3.71,0-5.59,0-1.87,0-3.75,0-5.64,0-1.89,0-3.79,0-5.7,0-1.91,0-3.83,0-5.75,0-1.93,0-3.86,0-5.81,0-1.95,0-3.9,0-5.87,0-1.97,0-3.95,0-5.93-1.89.39-3.75.78-5.56,1.15-1.82.38-3.59.74-5.34,1.11s-3.45.72-5.13,1.06-3.33.69-4.95,1.03c-1.62.34-3.22.67-4.79.99s-3.12.65-4.65.96-3.04.63-4.53.94c-1.49.31-2.97.62-4.44.92-1.46.3-2.92.6-4.36.9-1.44.3-2.88.6-4.31.89-1.43.3-2.85.59-4.27.89-1.42.29-2.84.59-4.26.88s-2.85.59-4.27.89c-1.43.3-2.86.59-4.31.89-1.44.3-2.9.6-4.36.9-1.46.3-2.94.61-4.44.92-1.49.31-3,.62-4.53.94-1.53.32-3.08.64-4.65.96-1.57.33-3.17.66-4.79.99-1.62.34-3.27.68-4.95,1.03s-3.39.7-5.13,1.06c-1.74.36-3.52.73-5.34,1.11s-3.67.76-5.56,1.15c0,1.99,0,3.97,0,5.94,0,1.97,0,3.92,0,5.87,0,1.94,0,3.87,0,5.79,0,1.92,0,3.82,0,5.72,0,1.89,0,3.78,0,5.65,0,1.87,0,3.73,0,5.58,0,1.85,0,3.69,0,5.51s0,3.64,0,5.45,0,3.6,0,5.39,0,3.56,0,5.33,0,3.52,0,5.27,0,3.48,0,5.21c0,1.73,0,3.45,0,5.16s0,3.41,0,5.11c0,1.69,0,3.38,0,5.06,0,1.68,0,3.35,0,5.01,0,1.66,0,3.32,0,4.96,0,1.65,0,3.29,0,4.92,0,1.63,0,3.26,0,4.88,0,1.62,0,3.23,0,4.84s0,3.21,0,4.8c0,1.6,0,3.18,0,4.77,0,1.58,0,3.16,0,4.73,0,1.57,0,3.14,0,4.7,0,1.56,0,3.12,0,4.67,0,1.55,0,3.1,0,4.65,0,1.55,0,3.09,0,4.62,0,1.54,0,3.07,0,4.6,0,1.53,0,3.06,0,4.58,0,1.52,0,3.04,0,4.56,0,1.52,0,3.03,0,4.54,0,1.51,0,3.02,0,4.53s0,3.01,0,4.52,0,3.01,0,4.51c0,1.5,0,3,0,4.5,0,1.5,0,3,0,4.49s0,2.99,0,4.49c0,1.5,0,2.99,0,4.49s0,2.99,0,4.49,0,2.99,0,4.49c0,1.5,0,2.99,0,4.49,0,1.5,0,3,0,4.5,0,1.5,0,3,0,4.51s0,3.01,0,4.52c0,1.51,0,3.02,0,4.53s0,3.03,0,4.54,0,3.04,0,4.56c0,1.52,0,3.05,0,4.58,0,1.53,0,3.06,0,4.6,0,1.54,0,3.08,0,4.62,0,1.55,0,3.09,0,4.65,0,1.55,0,3.11,0,4.68,0,1.56,0,3.13,0,4.7,0,1.57,0,3.15,0,4.74,0,1.58,0,3.17,0,4.77,0,1.6,0,3.2,0,4.8,0,1.61,0,3.22,0,4.84,0,1.62,0,3.25,0,4.88s0,3.27,0,4.92c0,1.65,0,3.3,0,4.97s0,3.33,0,5.01c0,1.68,0,3.36,0,5.06s0,3.4,0,5.11c0,1.71,0,3.43,0,5.16,0,1.73,0,3.47,0,5.21s0,3.5,0,5.27,0,3.54,0,5.33,0,3.58,0,5.39c0,1.81,0,3.62,0,5.45s0,3.66,0,5.51,0,3.71,0,5.58c0,1.87,0,3.75,0,5.65s0,3.8,0,5.72c0,1.92,0,3.85,0,5.79s0,3.9,0,5.87c0,1.97,0,3.95,0,5.94,0,2.09-.07,4.07-.22,5.93-.14,1.86-.36,3.61-.65,5.24s-.65,3.15-1.08,4.54c-.43,1.4-.94,2.68-1.51,3.85-.58,1.17-1.22,2.22-1.94,3.15-.9,1.17-1.88,2.2-2.95,3.09-1.06.89-2.21,1.64-3.44,2.26s-2.54,1.09-3.93,1.43c-1.39.34-2.86.54-4.42.6-1.55.06-3.03-.02-4.42-.26-1.39-.24-2.7-.62-3.93-1.16-1.23-.54-2.37-1.22-3.43-2.05s-2.04-1.82-2.94-2.95c-.72-.9-1.37-1.92-1.94-3.06-.58-1.13-1.08-2.38-1.51-3.75s-.79-2.85-1.08-4.44-.5-3.31-.65-5.13c-.14-1.83-.21-3.77-.21-5.83,0-1.98,0-3.95,0-5.91,0-1.96,0-3.9,0-5.83,0-1.93,0-3.85,0-5.76s0-3.8,0-5.69c0-1.88,0-3.76,0-5.62s0-3.71,0-5.55c0-1.84,0-3.66,0-5.48,0-1.82,0-3.62,0-5.42,0-1.79,0-3.58,0-5.35,0-1.77,0-3.54,0-5.29s0-3.5,0-5.23c0-1.74,0-3.46,0-5.18,0-1.72,0-3.43,0-5.12s0-3.39,0-5.07c0-1.68,0-3.36,0-5.02,0-1.67,0-3.32,0-4.98,0-1.65,0-3.29,0-4.93,0-1.64,0-3.26,0-4.89s0-3.24,0-4.85,0-3.21,0-4.81,0-3.19,0-4.77c0-1.58,0-3.16,0-4.73s0-3.14,0-4.7c0-1.56,0-3.12,0-4.67,0-1.55,0-3.1,0-4.64s0-3.08,0-4.62c0-1.53,0-3.06,0-4.59,0-1.53,0-3.05,0-4.57s0-3.04,0-4.55,0-3.02,0-4.53c0-1.51,0-3.01,0-4.52,0-1.5,0-3,0-4.5,0-1.5,0-3,0-4.49s0-2.99,0-4.48,0-2.98,0-4.47c0-1.49,0-2.98,0-4.47s0-2.98,0-4.46c0-1.49,0-2.98,0-4.46s0-2.98,0-4.46c0-1.49,0-2.98,0-4.47,0-1.49,0-2.98,0-4.47s0-2.99,0-4.48,0-2.99,0-4.49,0-3,0-4.5c0-1.5,0-3.01,0-4.52s0-3.02,0-4.53c0-1.51,0-3.03,0-4.55,0-1.52,0-3.04,0-4.57s0-3.06,0-4.59,0-3.07,0-4.62c0-1.54,0-3.09,0-4.64,0-1.55,0-3.11,0-4.67,0-1.56,0-3.13,0-4.7,0-1.57,0-3.15,0-4.73,0-1.58,0-3.17,0-4.77,0-1.6,0-3.2,0-4.81,0-1.61,0-3.22,0-4.85s0-3.25,0-4.89,0-3.28,0-4.93,0-3.31,0-4.98c0-1.67,0-3.34,0-5.02,0-1.68,0-3.37,0-5.07s0-3.41,0-5.12c0-1.72,0-3.44,0-5.18,0-1.74,0-3.48,0-5.23,0-1.75,0-3.52,0-5.29s0-3.56,0-5.35,0-3.6,0-5.42c0-1.82,0-3.64,0-5.48,0-1.84,0-3.69,0-5.55,0-1.86,0-3.73,0-5.62,0-1.88,0-3.78,0-5.69,0-1.91,0-3.83,0-5.76,0-1.93,0-3.88,0-5.83,0-1.96,0-3.93,0-5.91-1.91.39-3.77.78-5.6,1.16s-3.62.75-5.38,1.12c-1.76.36-3.49.72-5.18,1.07s-3.36.7-5.01,1.04c-1.64.34-3.26.67-4.85,1s-3.16.65-4.71.98c-1.55.32-3.08.64-4.59.95s-3.01.62-4.49.93c-1.48.31-2.95.61-4.41.91s-2.91.6-4.35.9c-1.44.3-2.88.6-4.31.89-1.43.3-2.86.59-4.29.89s-2.86.59-4.29.89c-1.43.3-2.87.59-4.31.89-1.44.3-2.89.6-4.35.9-1.46.3-2.93.61-4.41.91s-2.98.62-4.49.93c-1.51.31-3.04.63-4.59.95s-3.12.65-4.71.98c-1.59.33-3.21.66-4.85,1-1.64.34-3.31.69-5.01,1.04-1.7.35-3.42.71-5.18,1.07-1.76.36-3.55.74-5.38,1.12-1.83.38-3.7.77-5.6,1.16,0,1.99,0,3.98,0,5.95,0,1.97,0,3.93,0,5.88s0,3.89,0,5.81c0,1.93,0,3.84,0,5.75,0,1.91,0,3.8,0,5.68,0,1.88,0,3.76,0,5.62s0,3.72,0,5.56c0,1.84,0,3.68,0,5.5,0,1.82,0,3.64,0,5.45s0,3.6,0,5.39,0,3.57,0,5.34c0,1.77,0,3.53,0,5.28,0,1.75,0,3.5,0,5.23,0,1.74,0,3.46,0,5.19s0,3.43,0,5.14c0,1.71,0,3.4,0,5.09s0,3.37,0,5.05,0,3.34,0,5.01c0,1.66,0,3.32,0,4.97,0,1.65,0,3.29,0,4.93,0,1.64,0,3.27,0,4.89,0,1.62,0,3.24,0,4.85s0,3.22,0,4.82,0,3.2,0,4.79c0,1.59,0,3.18,0,4.76,0,1.58,0,3.16,0,4.73,0,1.57,0,3.14,0,4.7,0,1.56,0,3.12,0,4.68,0,1.55,0,3.1,0,4.65,0,1.55,0,3.09,0,4.63,0,1.54,0,3.08,0,4.61,0,1.53,0,3.06,0,4.59,0,1.53,0,3.05,0,4.57,0,1.52,0,3.04,0,4.56,0,1.52,0,3.03,0,4.54,0,1.51,0,3.02,0,4.53,0,1.51,0,3.01,0,4.52,0,1.5,0,3.01,0,4.51,0,1.5,0,3,0,4.5,0,1.5,0,3,0,4.5,0,1.5,0,3,0,4.49,0,1.5,0,2.99,0,4.49,0,1.5,0,2.99,0,4.49,0,1.5,0,2.99,0,4.49,0,1.5,0,2.99,0,4.49,0,1.5,0,3,0,4.5,0,1.5,0,3,0,4.5,0,1.5,0,3.01,0,4.51,0,1.5,0,3.01,0,4.52,0,1.51,0,3.02,0,4.53,0,1.51,0,3.03,0,4.54,0,1.52,0,3.03,0,4.56,0,1.52,0,3.05,0,4.57,0,1.53,0,3.06,0,4.59,0,1.53,0,3.07,0,4.61,0,1.54,0,3.08,0,4.63s0,3.1,0,4.65c0,1.55,0,3.11,0,4.68,0,1.56,0,3.13,0,4.7,0,1.57,0,3.15,0,4.73,0,1.58,0,3.17,0,4.76,0,1.59,0,3.19,0,4.79,0,1.6,0,3.21,0,4.82,0,1.61,0,3.23,0,4.85s0,3.25,0,4.89c0,1.64,0,3.28,0,4.93,0,1.65,0,3.3,0,4.97,0,1.66,0,3.33,0,5.01,0,1.68,0,3.36,0,5.05s0,3.39,0,5.09c0,1.71,0,3.42,0,5.14,0,1.72,0,3.45,0,5.19,0,1.74,0,3.48,0,5.23s0,3.51,0,5.29c0,1.77,0,3.55,0,5.34s0,3.58,0,5.39,0,3.62,0,5.45,0,3.66,0,5.5c0,1.84,0,3.7,0,5.56s0,3.74,0,5.62c0,1.88,0,3.78,0,5.69,0,1.91,0,3.82,0,5.75,0,1.93,0,3.87,0,5.81s0,3.91,0,5.88c0,1.97,0,3.96,0,5.95,0,1.73.04,3.44.12,5.1.08,1.67.2,3.31.36,4.91.16,1.6.36,3.18.6,4.72.24,1.54.52,3.05.85,4.53.32,1.48.69,2.92,1.09,4.34s.85,2.8,1.33,4.15c.48,1.35,1.01,2.67,1.57,3.96.57,1.29,1.17,2.54,1.82,3.77s1.33,2.42,2.06,3.58c.93,1.5,1.91,2.89,2.91,4.17s2.05,2.46,3.13,3.54c1.08,1.07,2.2,2.04,3.35,2.9s2.35,1.61,3.58,2.26c1.23.65,2.49,1.18,3.8,1.62,1.3.43,2.64.76,4.02.97,1.38.22,2.79.32,4.24.32h193.91Z"/>
      <path class="cls-2" d="M1074.89,685.3c1.45,0,2.86-.13,4.24-.39,1.38-.26,2.71-.65,4.02-1.18,1.3-.52,2.57-1.18,3.8-1.97,1.23-.79,2.42-1.71,3.58-2.76,1.16-1.05,2.27-2.24,3.36-3.55,1.08-1.32,2.13-2.77,3.14-4.35s1.98-3.3,2.92-5.15c.65-1.29,1.28-2.62,1.86-3.98s1.15-2.75,1.67-4.17c.52-1.42,1.01-2.88,1.47-4.37.46-1.49.88-3.01,1.28-4.56.39-1.55.75-3.13,1.08-4.75.33-1.62.62-3.26.88-4.94.26-1.68.49-3.39.69-5.13.2-1.74.36-3.51.49-5.32s.23-3.64.29-5.51c.07-1.87.1-3.77.1-5.69v-192.59c0-2.1-.03-4.16-.09-6.18-.06-2.01-.14-3.98-.26-5.91-.11-1.92-.26-3.8-.43-5.64-.17-1.83-.37-3.62-.6-5.37-.23-1.74-.48-3.44-.77-5.09-.28-1.65-.6-3.26-.94-4.82-.34-1.56-.71-3.08-1.11-4.55-.4-1.47-.82-2.9-1.28-4.27-.45-1.38-.94-2.71-1.45-4s-1.05-2.53-1.62-3.73-1.16-2.35-1.79-3.45c-.86-1.52-1.75-2.97-2.68-4.35-.93-1.38-1.88-2.7-2.88-3.95-.99-1.25-2.02-2.43-3.08-3.55-1.06-1.11-2.15-2.16-3.27-3.14-1.12-.98-2.28-1.89-3.47-2.74-1.19-.85-2.42-1.63-3.67-2.34-1.26-.71-2.55-1.36-3.87-1.94s-2.68-1.09-4.07-1.54c-1.83-.58-3.61-1.15-5.34-1.7-1.74-.55-3.44-1.09-5.1-1.61s-3.29-1.03-4.88-1.53-3.15-.99-4.69-1.47c-1.53-.48-3.04-.95-4.52-1.41-1.48-.46-2.94-.91-4.39-1.36s-2.87-.89-4.28-1.32c-1.41-.43-2.81-.86-4.19-1.29-1.39-.43-2.77-.85-4.14-1.27s-2.74-.84-4.11-1.25c-1.37-.42-2.74-.83-4.11-1.25-1.37-.42-2.75-.83-4.14-1.25-1.39-.42-2.78-.84-4.19-1.26s-2.83-.85-4.28-1.28c-1.44-.43-2.9-.87-4.39-1.31-1.48-.44-2.99-.89-4.52-1.34s-3.09-.92-4.69-1.39c-1.59-.47-3.22-.95-4.88-1.43-1.66-.49-3.36-.98-5.1-1.49-1.74-.51-3.52-1.03-5.34-1.55-1.88-.41-3.61-.88-5.17-1.42-1.56-.54-2.97-1.16-4.22-1.84-1.25-.68-2.34-1.44-3.27-2.26-.93-.82-1.7-1.72-2.31-2.68-.61-.96-1.15-2.06-1.61-3.31s-.84-2.63-1.15-4.15c-.31-1.53-.54-3.19-.69-5-.15-1.81-.23-3.76-.23-5.85,0-1.88,0-3.68,0-5.4s0-3.38,0-4.98c0-1.6,0-3.15,0-4.66,0-1.51,0-2.98,0-4.42,0-1.45,0-2.87,0-4.28,0-1.42,0-2.82,0-4.24,0-1.42,0-2.84,0-4.28,0-1.45,0-2.92,0-4.42,0-1.51,0-3.06,0-4.66,0-1.6,0-3.26,0-4.98,0-1.73,0-3.52,0-5.4,0-1.96.08-3.84.23-5.62.15-1.79.38-3.49.69-5.11.31-1.62.69-3.16,1.15-4.61s1-2.82,1.61-4.1c.61-1.28,1.35-2.44,2.22-3.47s1.86-1.94,2.99-2.72c1.12-.78,2.38-1.44,3.76-1.98,1.38-.53,2.89-.94,4.53-1.23,1.64-.28,3.15-.39,4.54-.32,1.39.07,2.66.32,3.8.75s2.17,1.04,3.07,1.82c.9.79,1.68,1.75,2.33,2.89.52.92.99,1.93,1.41,3.05s.78,2.33,1.1,3.64c.31,1.31.58,2.72.79,4.23s.37,3.12.47,4.83c.1,1.71.16,3.51.16,5.42,0,1.86,0,3.65,0,5.39,0,1.74,0,3.42,0,5.05,0,1.63,0,3.22,0,4.76,0,1.55,0,3.06,0,4.54s0,2.93,0,4.37c0,1.43,0,2.85,0,4.25,0,1.4,0,2.8,0,4.2,0,1.4,0,2.79,0,4.2s0,2.82,0,4.25c0,1.43,0,2.89,0,4.37,0,1.48,0,2.99,0,4.54,0,1.55,0,3.13,0,4.76,0,1.63,0,3.31,0,5.05,0,1.74,0,3.53,0,5.39,1.95-.27,3.87-.54,5.74-.8s3.71-.51,5.51-.76c1.8-.25,3.56-.49,5.3-.73,1.73-.24,3.43-.48,5.11-.71s3.32-.46,4.94-.68c1.62-.22,3.22-.45,4.8-.66,1.58-.22,3.13-.43,4.68-.65,1.54-.21,3.06-.42,4.58-.63,1.51-.21,3.01-.42,4.5-.62,1.49-.21,2.97-.41,4.44-.62,1.47-.2,2.94-.41,4.41-.61,1.47-.2,2.93-.41,4.4-.61s2.94-.41,4.41-.61,2.95-.41,4.44-.62c1.49-.21,2.99-.41,4.5-.62,1.51-.21,3.03-.42,4.58-.63,1.54-.21,3.1-.43,4.68-.65,1.58-.22,3.18-.44,4.8-.66,1.62-.22,3.27-.45,4.94-.68,1.67-.23,3.38-.47,5.11-.71s3.5-.48,5.3-.73c1.8-.25,3.63-.5,5.51-.76,1.87-.26,3.78-.52,5.74-.8v-128.12c0-1.93-.03-3.82-.1-5.67s-.16-3.67-.29-5.44c-.13-1.78-.29-3.52-.49-5.22-.2-1.7-.43-3.36-.69-4.99-.26-1.62-.56-3.21-.88-4.76-.33-1.55-.69-3.06-1.08-4.53-.39-1.47-.82-2.9-1.28-4.29-.46-1.39-.95-2.75-1.47-4.06s-1.08-2.59-1.67-3.83-1.21-2.44-1.86-3.6c-.93-1.65-1.91-3.17-2.92-4.54-1.01-1.37-2.05-2.61-3.14-3.7s-2.2-2.05-3.35-2.86c-1.16-.81-2.35-1.49-3.57-2.02-1.23-.53-2.49-.93-3.79-1.18s-2.64-.37-4.01-.35c-1.37.02-2.79.18-4.23.48-1.95.4-3.88.8-5.78,1.2s-3.78.78-5.64,1.17-3.69.76-5.51,1.14c-1.81.38-3.61.75-5.38,1.11s-3.53.73-5.26,1.09-3.45.71-5.15,1.07c-1.7.35-3.38.7-5.04,1.05-1.67.34-3.31.69-4.95,1.03-1.63.34-3.25.67-4.86,1.01-1.61.33-3.2.66-4.78.99s-3.15.65-4.71.97c-1.56.32-3.1.64-4.64.96-1.54.32-3.06.63-4.58.95-1.52.31-3.03.63-4.53.94s-3,.62-4.49.93c-1.49.31-2.98.62-4.46.92s-2.96.61-4.43.92c-1.47.31-2.94.61-4.41.91-1.47.3-2.93.61-4.4.91s-2.93.61-4.39.91c-1.46.3-2.93.61-4.4.91-1.47.3-2.94.61-4.41.91-1.47.31-2.95.61-4.43.92s-2.97.61-4.46.92c-1.49.31-2.99.62-4.49.93s-3.01.62-4.53.94-3.05.63-4.58.95c-1.54.32-3.08.64-4.64.96s-3.13.65-4.71.97c-1.58.33-3.17.66-4.78.99-1.61.33-3.23.67-4.86,1.01-1.63.34-3.28.68-4.95,1.03-1.67.34-3.35.69-5.04,1.05s-3.41.71-5.15,1.07c-1.73.36-3.49.72-5.26,1.09-1.77.37-3.57.74-5.38,1.11-1.81.38-3.65.76-5.51,1.14-1.86.38-3.74.77-5.64,1.17-1.9.39-3.83.79-5.78,1.2-1.27.26-2.51.61-3.72,1.05s-2.4.96-3.55,1.57c-1.16.61-2.28,1.31-3.38,2.09-1.1.78-2.17,1.65-3.21,2.61-1.04.96-2.06,2-3.04,3.13s-1.95,2.34-2.88,3.64c-.93,1.3-1.83,2.68-2.71,4.15-.87,1.47-1.72,3.02-2.54,4.66-.66,1.31-1.28,2.65-1.87,4-.59,1.36-1.15,2.73-1.67,4.13s-1.01,2.82-1.47,4.26-.88,2.91-1.28,4.39-.75,2.99-1.08,4.52c-.33,1.53-.62,3.08-.88,4.65-.26,1.57-.49,3.17-.69,4.79-.2,1.62-.36,3.26-.49,4.92-.13,1.66-.23,3.35-.29,5.05s-.1,3.44-.1,5.19c0,1.98,0,3.94,0,5.87s0,3.83,0,5.71,0,3.73,0,5.56,0,3.63,0,5.42c0,1.78,0,3.54,0,5.28,0,1.74,0,3.46,0,5.16s0,3.38,0,5.05,0,3.32,0,4.95,0,3.25,0,4.86,0,3.2,0,4.77c0,1.58,0,3.15,0,4.7s0,3.1,0,4.64c0,1.54,0,3.06,0,4.58,0,1.52,0,3.03,0,4.54,0,1.51,0,3.01,0,4.51s0,2.99,0,4.48,0,2.98,0,4.47c0,1.49,0,2.98,0,4.46,0,1.49,0,2.98,0,4.47,0,1.49,0,2.98,0,4.48,0,1.5,0,3,0,4.51,0,1.51,0,3.02,0,4.54s0,3.05,0,4.58c0,1.54,0,3.08,0,4.64,0,1.56,0,3.12,0,4.7,0,1.58,0,3.17,0,4.77,0,1.6,0,3.22,0,4.86,0,1.63,0,3.28,0,4.95s0,3.35,0,5.05c0,1.7,0,3.42,0,5.16,0,1.74,0,3.5,0,5.28s0,3.59,0,5.42,0,3.68,0,5.56,0,3.78,0,5.71c0,1.93,0,3.88,0,5.87,0,2.05.04,4.06.11,6.01.07,1.95.18,3.86.32,5.71s.32,3.66.54,5.41c.22,1.75.47,3.46.75,5.11s.61,3.26.97,4.81c.36,1.55.76,3.06,1.19,4.51.43,1.45.9,2.86,1.4,4.22.5,1.36,1.04,2.66,1.62,3.92.58,1.26,1.19,2.47,1.84,3.62s1.33,2.27,2.05,3.33c.9,1.33,1.83,2.6,2.78,3.82s1.94,2.38,2.95,3.49,2.05,2.16,3.12,3.16c1.07,1,2.17,1.95,3.29,2.84,1.12.89,2.28,1.73,3.46,2.51,1.18.78,2.39,1.51,3.63,2.18,1.24.67,2.5,1.29,3.8,1.85,1.29.56,2.61,1.07,3.96,1.52,1.82.57,3.59,1.13,5.32,1.67,1.73.55,3.42,1.08,5.07,1.6,1.65.52,3.27,1.04,4.85,1.54,1.58.5,3.14,1,4.66,1.49s3.02.97,4.5,1.44c1.48.47,2.93.94,4.36,1.4s2.85.92,4.25,1.38,2.79.91,4.17,1.35c1.38.45,2.75.9,4.12,1.34s2.73.89,4.09,1.34c1.36.45,2.72.89,4.09,1.34,1.37.45,2.74.9,4.12,1.36s2.77.92,4.17,1.38c1.4.47,2.82.94,4.25,1.41s2.89.96,4.36,1.46c1.48.49,2.97.99,4.5,1.51s3.08,1.03,4.66,1.57c1.58.53,3.2,1.08,4.85,1.64,1.65.56,3.34,1.13,5.07,1.72,1.73.59,3.5,1.19,5.32,1.81,1.8.52,3.45,1.12,4.97,1.78,1.51.66,2.88,1.39,4.11,2.19,1.23.8,2.31,1.67,3.25,2.61.94.94,1.74,1.94,2.4,3.02.52.86.99,1.84,1.41,2.93.42,1.09.78,2.3,1.1,3.62.31,1.32.58,2.76.79,4.31.21,1.55.37,3.22.47,5s.16,3.68.16,5.69c0,1.91,0,3.72,0,5.47,0,1.75,0,3.43,0,5.05,0,1.62,0,3.19,0,4.72,0,1.53,0,3.02,0,4.48,0,1.46,0,2.91,0,4.34,0,1.43,0,2.86,0,4.29,0,1.43,0,2.87,0,4.34,0,1.46,0,2.95,0,4.48,0,1.53,0,3.09,0,4.72,0,1.62,0,3.3,0,5.05,0,1.75,0,3.57,0,5.47,0,1.69-.05,3.32-.14,4.88-.09,1.56-.23,3.05-.41,4.48-.18,1.43-.41,2.78-.69,4.07-.28,1.29-.6,2.51-.96,3.67s-.78,2.24-1.24,3.26c-.57,1.28-1.28,2.4-2.12,3.37-.84.97-1.81,1.79-2.92,2.45s-2.34,1.18-3.71,1.54c-1.37.36-2.87.57-4.51.62-1.64.06-3.16-.05-4.56-.31-1.4-.26-2.69-.69-3.85-1.27s-2.21-1.32-3.14-2.22c-.93-.9-1.74-1.96-2.44-3.18-.55-.97-1.06-2.04-1.5-3.19-.45-1.15-.83-2.4-1.17-3.74-.33-1.34-.61-2.76-.83-4.28-.22-1.52-.39-3.13-.5-4.82-.11-1.7-.17-3.49-.17-5.37,0-1.95,0-3.83,0-5.65s0-3.57,0-5.27,0-3.35,0-4.95c0-1.61,0-3.17,0-4.71,0-1.54,0-3.05,0-4.54,0-1.49,0-2.97,0-4.43,0-1.47,0-2.93,0-4.4,0-1.47,0-2.94,0-4.43,0-1.49,0-3,0-4.54,0-1.54,0-3.1,0-4.71,0-1.61,0-3.25,0-4.95s0-3.45,0-5.27,0-3.69,0-5.65c-1.95.12-3.87.24-5.74.35-1.87.11-3.71.23-5.51.34-1.8.11-3.56.22-5.3.33-1.73.11-3.43.21-5.11.31-1.67.1-3.32.2-4.94.3-1.62.1-3.22.2-4.8.29-1.58.1-3.14.19-4.68.29-1.54.09-3.07.19-4.58.28s-3.01.19-4.5.28c-1.49.09-2.97.18-4.44.27-1.47.09-2.94.18-4.41.27-1.47.09-2.93.18-4.4.27-1.47.09-2.94.18-4.41.27-1.47.09-2.95.18-4.44.27s-2.99.18-4.5.28c-1.51.09-3.04.19-4.58.28-1.54.1-3.1.19-4.68.29-1.58.1-3.18.2-4.8.3-1.62.1-3.27.2-4.94.31-1.67.1-3.38.21-5.11.32s-3.5.22-5.3.33c-1.8.11-3.63.22-5.51.34-1.87.12-3.79.23-5.74.36,0,1.94,0,3.84,0,5.7,0,1.86,0,3.69,0,5.48,0,1.79,0,3.55,0,5.28,0,1.73,0,3.43,0,5.1,0,1.67,0,3.32,0,4.94s0,3.22,0,4.8c0,1.58,0,3.13,0,4.67s0,3.06,0,4.57c0,1.51,0,3.01,0,4.49s0,2.96,0,4.43c0,1.47,0,2.93,0,4.39s0,2.91,0,4.37c0,1.46,0,2.91,0,4.37s0,2.92,0,4.39c0,1.47,0,2.95,0,4.43,0,1.49,0,2.98,0,4.49,0,1.51,0,3.03,0,4.57,0,1.54,0,3.1,0,4.67,0,1.58,0,3.17,0,4.79,0,1.62,0,3.27,0,4.94s0,3.37,0,5.1,0,3.49,0,5.28c0,1.79,0,3.62,0,5.48,0,1.86,0,3.76,0,5.7,0,1.75.03,3.48.1,5.17.06,1.69.16,3.36.29,5,.13,1.64.29,3.24.49,4.82.2,1.58.42,3.13.69,4.65.26,1.52.56,3.01.88,4.47s.69,2.89,1.08,4.3.82,2.78,1.28,4.13c.46,1.35.95,2.67,1.47,3.96.52,1.29,1.08,2.55,1.67,3.78.59,1.23,1.21,2.44,1.87,3.61.93,1.68,1.91,3.24,2.91,4.69,1.01,1.44,2.05,2.77,3.13,3.97,1.08,1.2,2.2,2.29,3.36,3.25,1.16.97,2.35,1.81,3.58,2.54s2.49,1.33,3.8,1.81c1.3.48,2.64.85,4.02,1.09,1.38.24,2.79.36,4.24.36h190.45Z"/>
    </g>
  </g>
</svg>