<?xml version="1.0" encoding="UTF-8"?>
<svg id="Layer_2" data-name="Layer 2" xmlns="http://www.w3.org/2000/svg" viewBox="0 0 1392.36 837">
  <defs>
    <style>
      .cls-1 {
        fill: none;
        stroke: #000;
        stroke-miterlimit: 10;
        stroke-width: 4px;
      }

      .cls-2 {
        fill: #000;
      }

      .cls-2, .cls-3, .cls-4 {
        stroke-width: 0px;
      }

      .cls-3 {
        fill: #232323;
      }

      .cls-4 {
        fill: #fff;
      }
    </style>
  </defs>
  <g id="Layer_4" data-name="Layer 4">
    <g>
      <path class="cls-2" d="M1302.38,785.39c-3.41,27.29-28.7,49.61-56.2,49.61H146.18c-27.5,0-52.79-22.33-56.2-49.61L2.38,84.61c-3.41-27.29,16.3-49.61,43.8-49.61h1300c27.5,0,47.21,22.33,43.8,49.61l-87.6,700.77Z"/>
      <path class="cls-1" d="M1302.38,785.39c-3.41,27.29-28.7,49.61-56.2,49.61H146.18c-27.5,0-52.79-22.33-56.2-49.61L2.38,84.61c-3.41-27.29,16.3-49.61,43.8-49.61h1300c27.5,0,47.21,22.33,43.8,49.61l-87.6,700.77Z"/>
    </g>
    <path class="cls-3" d="M1302.38,750.39c-3.41,27.29-28.7,49.61-56.2,49.61H146.18c-27.5,0-52.79-22.33-56.2-49.61L2.38,49.61C-1.03,22.33,18.68,0,46.18,0h1300c27.5,0,47.21,22.33,43.8,49.61l-87.6,700.77Z"/>
    <g>
      <path class="cls-4" d="M186.18,740c-28.33-226.67-56.67-453.33-85-680h262.21c14.89.16,23.59,11.38,30.56,22.32,9.96,15.62,13.68,36.62,14.78,55.56l21.98,358.05c1.18,18.37-.36,38.53-6.83,55.56-3.97,10.43-11.97,22.2-24.57,22.32h-115.17c5.38,55.4,10.75,110.8,16.13,166.2h-114.09ZM271.61,444.64h20.48c5.95,0,9.79-4.96,11.29-14.72,2.13-13.93.94-28.18-.06-42.26-4.18-47.17-8.36-94.34-12.54-141.52-1.13-14.18-3.03-28.89-7.62-42.26-3.35-9.75-8.36-14.72-14.66-14.72h-21.67c8.26,85.16,16.53,170.32,24.79,255.48Z"/>
      <path class="cls-4" d="M467.73,740c-12.69-226.67-25.38-453.33-38.07-680h135.97c4.75,173.17,9.5,346.34,14.25,519.5h87.54c.36,53.5.73,107,1.09,160.5h-200.78Z"/>
      <path class="cls-4" d="M667.53,740c20.55-227.04,44.68-453.72,72.35-680h186.82c14.08,226.49,24.65,453.18,31.71,680h-120.46c-2.01-41.16-4.11-82.31-6.31-123.46h-55.5c-4.47,41.14-8.84,82.29-13.12,123.46h-95.49ZM788.94,490.23h36.38c-3.43-71.56-7.11-143.11-11.05-214.65h-2.73c-7.8,71.52-15.33,143.07-22.6,214.65Z"/>
      <path class="cls-4" d="M1004.93,740c5.03-66.48,10.06-132.96,15.09-199.43-17.29-160.58-37.74-320.79-61.33-480.57h147.97c2.86,35.13,5.6,70.27,8.23,105.42,2.51,40.2,4.88,80.4,7.11,120.61h2.72c9.08-40.23,18.28-80.44,27.6-120.61,8.86-35.16,17.83-70.3,26.9-105.42h111.97c-52.02,159.29-101.18,319.49-147.38,480.57-6.95,66.48-13.91,132.96-20.86,199.43h-118.01Z"/>
    </g>
  </g>
</svg>