<?xml version="1.0" encoding="utf-8"?>
<!-- Generator: Adobe Illustrator 28.0.0, SVG Export Plug-In . SVG Version: 6.00 Build 0)  -->
<svg version="1.1" xmlns="http://www.w3.org/2000/svg" xmlns:xlink="http://www.w3.org/1999/xlink" x="0px" y="0px"
	 viewBox="0 0 1140.76 977.02" style="enable-background:new 0 0 1140.76 977.02;" xml:space="preserve">
<style type="text/css">
	.st0{fill:#232323;}
	.st1{fill:#FFFFFF;}
	.st2{fill:#E45525;stroke:#000000;stroke-width:4.062;stroke-miterlimit:10;}
	.st3{fill:#B7DFE7;stroke:#000000;stroke-width:4.062;stroke-miterlimit:10;}
	.st4{opacity:0.35;clip-path:url(#SVGID_00000006666418870893581500000000989718332340866711_);}
	.st5{fill:#F38F1E;}
	.st6{opacity:0.35;clip-path:url(#SVGID_00000157999480861110807690000013433018715700167610_);}
	.st7{fill:#121212;}
	.st8{fill:#6F1113;}
	.st9{fill:#D72227;stroke:#000000;stroke-width:2.031;stroke-miterlimit:10;}
	.st10{stroke:#000000;stroke-width:4.062;stroke-linejoin:round;stroke-miterlimit:10;}
	.st11{fill:#060707;stroke:#000000;stroke-width:2.031;stroke-linejoin:round;stroke-miterlimit:10;}
	.st12{fill:none;stroke:#000000;stroke-width:2.031;stroke-linecap:round;stroke-linejoin:round;stroke-miterlimit:10;}
	.st13{fill:url(#SVGID_00000041975919820825320010000003946064938232310166_);}
	.st14{fill:#EA3825;}
	.st15{opacity:0.6;fill:#A53E23;}
	.st16{opacity:0.5;fill:#A53E23;}
	.st17{opacity:0.55;fill:#C84127;}
	.st18{opacity:0.55;fill:#A53E23;}
	.st19{fill:none;stroke:#000000;stroke-width:4;stroke-miterlimit:10;}
	.st20{opacity:0.35;clip-path:url(#SVGID_00000005961860365892936160000016051340464246050985_);}
	.st21{opacity:0.35;clip-path:url(#SVGID_00000100342986960448712740000013129076652091330984_);}
	.st22{fill:url(#SVGID_00000043420139146336228880000003742741575329601160_);}
	.st23{opacity:0.35;clip-path:url(#SVGID_00000043441414813445773690000000993039889675415185_);}
	.st24{opacity:0.35;clip-path:url(#SVGID_00000142871981117097603630000006546478836522940547_);}
	.st25{fill:url(#SVGID_00000052069514503328632130000016226999286364507795_);}
	.st26{fill:url(#SVGID_00000034785840896096777670000001274958522939458739_);}
	.st27{fill:url(#SVGID_00000088855947710418041020000012235944731928579743_);}
	.st28{fill:url(#SVGID_00000119822567968574477910000005893989911236524206_);}
	.st29{opacity:0.35;clip-path:url(#SVGID_00000124119394961693979930000001910381351171421858_);}
	.st30{opacity:0.35;clip-path:url(#SVGID_00000143618942493630288950000001924519919118217634_);}
	.st31{fill:url(#SVGID_00000007393102604295425910000002491087356067222198_);}
	.st32{fill:url(#SVGID_00000034077037816849926940000013354602471835222702_);}
	.st33{fill:#C69C6D;}
	.st34{opacity:0.35;clip-path:url(#SVGID_00000085971046019407019320000001185020897627538365_);}
	.st35{fill:#71939C;}
	.st36{fill:#FBBF66;stroke:#000000;stroke-width:4.062;stroke-miterlimit:10;}
	.st37{fill:#E45525;}
	.st38{fill:#BBE4EA;stroke:#000000;stroke-width:4;stroke-miterlimit:10;}
	.st39{fill:#B7DFE7;stroke:#000000;stroke-width:4;stroke-miterlimit:10;}
	.st40{opacity:0.35;clip-path:url(#SVGID_00000172405387928344333480000015731921917873261749_);}
	.st41{opacity:0.35;clip-path:url(#SVGID_00000107563579453062426780000009342951972031604918_);}
	.st42{fill:#818181;}
	.st43{fill:#E45525;stroke:#000000;stroke-width:4;stroke-miterlimit:10;}
	.st44{fill:#F2AD25;}
</style>
<g id="Fundo">
</g>
<g id="Bases">
</g>
<g id="Elementos_Mutaveis">
</g>
<g id="Butoes">
	<g>
		<g>
			<g>
				<polygon class="st0" points="1134.68,921.21 79.87,860.86 14.24,135.11 1018.16,0 				"/>
				<polygon class="st44" points="1037.05,968.66 6.07,785.69 98.04,70.06 1128.66,69.92 				"/>
				<g>
					<path class="st0" d="M1036.34,975.44C690.38,915.32,343.49,853.9-1.91,791.53c0,0,0.89-6.75,0.89-6.75s93.9-715.39,93.9-715.39
						s0.6-4.56,0.6-4.56s4.57,0.01,4.57,0.01c2.73,0.02,1030.81,2.63,1033.32,2.65c1.95,1.15-95.62,899.43-94.31,901.16
						C1037.05,968.66,1036.34,975.44,1036.34,975.44L1036.34,975.44z M1037.72,961.9c0,0,88.52-892.22,88.52-892.22
						s2.42,2.68,2.42,2.68S98.05,75.27,98.05,75.27s5.17-4.55,5.17-4.55S13.18,786.61,13.18,786.61s-5.85-7.96-5.85-7.96
						C351.48,838.65,694.11,899.63,1037.72,961.9L1037.72,961.9z"/>
				</g>
				<g>
					<path class="st0" d="M1043.77,969.83c0,0-6.73-1.18-6.73-1.18C1034.39,968.19,5.38,788.44,2.94,788.01
						c-0.01,0,0.33-2.68,0.33-2.68S93.31,69.45,93.31,69.45s0.52-4.15,0.52-4.15s4.21-0.01,4.21-0.01s1030.62-2.91,1030.62-2.91
						s8.34-0.02,8.34-0.02C1107.14,364.51,1075.91,667.8,1043.77,969.83L1043.77,969.83z M1030.37,967.45
						c29.21-299.91,59.29-598.52,90.79-898.3c0,0,7.51,8.31,7.51,8.31S98.05,74.83,98.05,74.83s4.73-4.16,4.73-4.16
						S8.88,786.05,8.88,786.05s-2.31-3.14-2.31-3.14S1030.37,967.45,1030.37,967.45L1030.37,967.45z"/>
				</g>
			</g>
		</g>
		<polygon class="st0" points="1045.58,953.26 1033.46,953.26 1033.46,974.75 1043.04,977.02 		"/>
	</g>
</g>
</svg>
