<?xml version="1.0" encoding="UTF-8"?>
<svg id="Layer_2" data-name="Layer 2" xmlns="http://www.w3.org/2000/svg" viewBox="0 0 194.47 169.9">
  <defs>
    <style>
      .cls-1 {
        fill: #232323;
      }

      .cls-1, .cls-2 {
        stroke-width: 0px;
      }

      .cls-2 {
        fill: #fff;
      }
    </style>
  </defs>
  <g id="Layer_2-2" data-name="Layer 2">
    <g>
      <path class="cls-2" d="M194.47,129.85c.09,5.51-4.25,10.99-9.63,12.18l-125.49,27.62c-5.38,1.19-11.44-2.04-13.47-7.17L.66,47.8c-2.02-5.13.74-10.24,6.14-11.35L182.56.2c5.4-1.11,9.89,2.49,9.98,8l1.94,121.65Z"/>
      <g>
        <path class="cls-1" d="M66.19,150.55L26.51,50.66l32.66-6.62s20.63,58.03,23.44,67.5c.19-.06.29-.08.49-.14-.97-9.92-9.11-71.76-9.11-71.76,0,0,16.53-3.5,25.54-5.26,1.45,35.32,3.48,71.06,5.78,106.34-11.96,3.12-39.12,9.82-39.12,9.82Z"/>
        <path class="cls-1" d="M125.04,135.6c-2.08.54-3.96-.23-5.64-2.23-1.68-2-2.78-4.74-3.22-8.14-.83-6.36-1.58-12.73-2.3-19.11,8.5-2.31,16.99-4.61,25.49-6.92.19,3.51.29,5.26.49,8.79.09,1.59.46,2.75,1.1,3.45.64.71,1.58.9,2.83.57,1.25-.33,2.14-1,2.69-2.03.55-1.02.79-2.35.73-3.96-.12-2.98-.18-4.46-.29-7.43-.05-1.36-.34-2.46-.86-3.32-.52-.85-1.56-1.12-3.11-.81-7.3,1.26-14.59,2.53-21.88,3.82-2.31.42-4.29-.34-5.99-2.28-1.7-1.94-2.8-4.77-3.3-8.65-1.66-13.16-3.9-26.2-6.43-39.21-.88-4.36-.89-8.38.14-11.82,1.03-3.44,3.64-3.52,6.33-4.05,17.02-3.31,34.04-6.62,51.06-9.93,2.68-.52,5.87-1.07,7.56,1.01,1.69,2.08,2.48,4.89,2.43,8.51-.09,6.98-.19,13.97-.28,20.95-9.14,2.68-18.27,5.35-27.41,8.03-.23-3.84-.36-5.78-.65-9.74-.13-1.75-.55-3.03-1.27-3.81-.71-.78-1.86-.98-3.41-.58-1.47.38-2.49,1.16-3.08,2.31-.59,1.15-.78,2.63-.61,4.39.31,3.19.45,4.75.72,7.83.14,1.58.5,2.78,1.1,3.6.6.82,1.72,1.05,3.38.69,7.5-1.31,15-2.62,22.5-3.94,2.75-.56,4.89.22,6.35,2.36,1.47,2.14,2.16,5.22,2.1,9.23-.17,12.54-.34,25.09-.51,37.63-.05,3.62-.76,6.8-2.09,9.53-1.33,2.73-3.02,4.37-5.1,4.91-13.19,3.44-26.38,6.87-39.57,10.31Z"/>
      </g>
    </g>
  </g>
</svg>